<svg xmlns="http://www.w3.org/2000/svg" data-name="Layer 1" viewBox="0 0 52 52"><path d="M35.124 21.569H16.876a1 1 0 00-1 1v2.112h-4.77v-9.407h4.552a5.137 5.137 0 005.03 4.132h1.678a1 1 0 001-1V17.36H26a1 1 0 000-2h-2.634v-2.037H26a1 1 0 000-2h-2.634v-1.18a1 1 0 00-1-1h-1.678a5.137 5.137 0 00-5.03 4.131h-5.552a1 1 0 00-1 1v11.407a1 1 0 001 1h5.77v2.111a1 1 0 001 1h18.248a1 1 0 001-1v-6.223a1 1 0 00-1-1zM20.688 11.143h.678v6.263h-.678a3.132 3.132 0 010-6.263zm13.436 16.649H17.876v-4.223h16.248zm-13.169 9.943h-4.079a1 1 0 00-1 1v3.256a1 1 0 001 1h4.079a1 1 0 001-1v-3.256a1 1 0 00-1-1zm-1 3.256h-2.079v-1.256h2.079zm15.169-3.256h-4.079a1 1 0 00-1 1v3.256a1 1 0 001 1h4.079a1 1 0 001-1v-3.256a1 1 0 00-1-1zm-1 3.256h-2.079v-1.256h2.079zm-6.084-3.256h-4.08a1 1 0 00-1 1v3.256a1 1 0 001 1h4.08a1 1 0 001-1v-3.256a1 1 0 00-1-1zm-1 3.256h-2.08v-1.256h2.08zm8.084-10.182H27.4a1 1 0 00-1 1v3.919a1 1 0 001 1h7.721a1 1 0 001-1v-3.919a1 1 0 00-.997-1zm-1 3.919H28.4v-1.919h5.721zm-17.248 2H24.6a1 1 0 001-1v-3.919a1 1 0 00-1-1h-7.724a1 1 0 00-1 1v3.919a1 1 0 001 1zm1-3.919H23.6v1.919h-5.724zm24.108-19.535h-5.095a5.139 5.139 0 00-5.031-4.131H30.18a1 1 0 00-1 1v8.263a1 1 0 001 1h1.678a5.138 5.138 0 005.031-4.132h5.095a1 1 0 000-2zm-10.126 4.132h-.678v-6.263h.678a3.132 3.132 0 110 6.263z" fill="#757f9d"></path></svg>