<svg id="Layer_1" data-name="Layer 1" xmlns="http://www.w3.org/2000/svg" viewBox="0 0 54.77 47.4"><defs><style>.cls-1{opacity:0.98;}.cls-2{fill:#231f20;}</style></defs><title>Artboard 1</title><path d="M4.82,36.34a3.91,3.91,0,0,1,4.11,4,4.2,4.2,0,0,1-4.22,4.29,4.14,4.14,0,1,1,.11-8.29Zm-.07,7.44a3.21,3.21,0,0,0,3.13-3.35,3.11,3.11,0,1,0-6.22,0A3.2,3.2,0,0,0,4.75,43.77Z"/><path d="M10.34,39.17l.91-.17v.84a1.83,1.83,0,0,1,1.66-.9,2.42,2.42,0,0,1,2.29,2.69,2.78,2.78,0,0,1-2.71,3,2,2,0,0,1-1.21-.33V47.1l-.94.17Zm.94,1.54v2.42c0,.49.41.71,1,.71a1.88,1.88,0,0,0,1.91-2.13c0-1.21-.6-1.92-1.42-1.92A2,2,0,0,0,11.28,40.7Z"/><path d="M18.87,38.94A2.14,2.14,0,0,1,21,41.35l-.58.17-3.18.42a1.79,1.79,0,0,0,1.79,1.87,2.89,2.89,0,0,0,1.69-.68l.28.72a3.11,3.11,0,0,1-2.08.78,2.56,2.56,0,0,1-2.67-2.72A2.7,2.7,0,0,1,18.87,38.94Zm-1.58,2.28L20,40.87s-.11-1.15-1.19-1.15A1.58,1.58,0,0,0,17.29,41.22Z"/><path d="M22.48,39.17l.94-.17v1.06a3.34,3.34,0,0,1,2.23-1.12c.8,0,1.42.46,1.42,1.62v3.92h-.94V40.82c0-.8-.32-1.06-.73-1.06a3.79,3.79,0,0,0-2,1.15v3.56h-.94Z"/><path d="M28.55,43a3.78,3.78,0,0,0,2.09.72c.86,0,1.59-.4,1.59-1.16,0-1.82-3.8-1.72-3.8-4.16,0-1.16.94-2.09,2.6-2.09a6.74,6.74,0,0,1,2,.36l-.25.92A5,5,0,0,0,31,37.21c-.89,0-1.57.37-1.57,1.1,0,1.86,3.8,1.66,3.8,4.2,0,1.39-1.19,2.11-2.63,2.11A4.23,4.23,0,0,1,28.28,44Z"/><path d="M34.81,39.84H34v-.5l.77-.31v-1.2l.94-.23v1.49H37.5v.76H35.75v3c0,.72.25,1,.66,1a2.12,2.12,0,0,0,1.14-.49l.23.75a2.66,2.66,0,0,1-1.56.55c-.85,0-1.4-.47-1.4-1.57Z"/><path d="M41.67,41.2V41c0-.64,0-1.24-.89-1.24a3.19,3.19,0,0,0-1.69.6l-.29-.75A4.08,4.08,0,0,1,41,38.94c1.18,0,1.56.5,1.56,1.71v2.43a.64.64,0,0,0,.6.72l-.31.76a1.16,1.16,0,0,1-1.16-.88,2.18,2.18,0,0,1-1.79.94,1.36,1.36,0,0,1-1.51-1.35C38.44,42.15,39.62,41.46,41.67,41.2Zm0,1.68v-1c-1.52.25-2.24.64-2.24,1.33,0,.42.31.6.71.6A2.16,2.16,0,0,0,41.67,42.87Z"/><path d="M46.92,38.94a2.65,2.65,0,0,1,1.76.59l-.42.73a2.27,2.27,0,0,0-1.4-.5,2.05,2.05,0,0,0,0,4.05,2.27,2.27,0,0,0,1.46-.58l.32.7a2.71,2.71,0,0,1-4.52-2.09A2.77,2.77,0,0,1,46.92,38.94Z"/><path d="M50,36.09l.94-.17v5.24h.13l2.13-2.08h1.25l-2.52,2.39,2.75,3H53.43l-2.34-2.63H51v2.63H50Z"/><g class="cls-1"><path class="cls-2" d="M40,.15H15.28A2.83,2.83,0,0,0,12.46,3V9.63h6.86V8.54A1.53,1.53,0,0,1,20.85,7h13.6A1.53,1.53,0,0,1,36,8.54V9.63h6.86V3A2.83,2.83,0,0,0,40,.15Z"/><path class="cls-2" d="M36,21.49A1.53,1.53,0,0,1,34.45,23H20.85a1.53,1.53,0,0,1-1.53-1.53V20.41H12.46v6.65a2.83,2.83,0,0,0,2.82,2.82H40a2.83,2.83,0,0,0,2.82-2.82V20.41H36Z"/><rect class="cls-2" x="12.46" y="11.59" width="6.86" height="6.86"/><rect class="cls-2" x="35.97" y="11.59" width="6.86" height="6.86"/></g></svg>