<svg version="1.1" viewBox="0.0 0.0 591.6561679790026 231.11548556430446" fill="none" stroke="none" stroke-linecap="square" stroke-miterlimit="10" xmlns:xlink="http://www.w3.org/1999/xlink" xmlns="http://www.w3.org/2000/svg"><clipPath id="p.0"><path d="m0 0l591.6562 0l0 231.11548l-591.6562 0l0 -231.11548z" clip-rule="nonzero"/></clipPath><g clip-path="url(#p.0)"><path fill="#000000" fill-opacity="0.0" d="m0 0l591.6562 0l0 231.11548l-591.6562 0z" fill-rule="evenodd"/><path fill="#000000" fill-opacity="0.0" d="m25.572178 2.6377952l557.66925 0l0 216.91338l-557.66925 0z" fill-rule="evenodd"/><path stroke="#b7b7b7" stroke-width="1.0" stroke-linejoin="round" stroke-linecap="butt" d="m25.572178 2.6377952l557.66925 0l0 216.91338l-557.66925 0z" fill-rule="evenodd"/><path fill="#000000" d="m43.775303 24.437794l-2.28125 0l-3.8125 -5.765625l0 5.765625l-2.28125 0l0 -9.359374l2.28125 0l3.8125 5.796874l0 -5.796874l2.28125 0l0 9.359374zm5.0383453 0.109375q-1.09375 0 -1.96875 -0.46875q-0.875 -0.46875 -1.375 -1.328125q-0.5 -0.875 -0.5 -2.03125q0 -1.140625 0.5 -2.015625q0.515625 -0.875 1.390625 -1.34375q0.875 -0.46875 1.96875 -0.46875q1.09375 0 1.96875 0.46875q0.890625 0.46875 1.390625 1.34375q0.515625 0.875 0.515625 2.015625q0 1.140625 -0.515625 2.015625q-0.515625 0.875 -1.40625 1.34375q-0.890625 0.46875 -1.96875 0.46875zm0 -1.96875q0.640625 0 1.09375 -0.484375q0.46875 -0.484375 0.46875 -1.375q0 -0.890625 -0.453125 -1.375q-0.4375 -0.484375 -1.09375 -0.484375q-0.65625 0 -1.109375 0.484375q-0.4375 0.46875 -0.4375 1.375q0 0.890625 0.4375 1.375q0.4375 0.484375 1.09375 0.484375zm4.64624 -1.875q0 -1.140625 0.421875 -2.0q0.4375 -0.875 1.1875 -1.34375q0.75 -0.46875 1.671875 -0.46875q0.734375 0 1.328125 0.3125q0.609375 0.296875 0.953125 0.828125l0 -3.453124l2.28125 0l0 9.859374l-2.28125 0l0 -1.0625q-0.3125 0.53125 -0.90625 0.859375q-0.59375 0.3125 -1.375 0.3125q-0.921875 0 -1.671875 -0.46875q-0.75 -0.484375 -1.1875 -1.34375q-0.421875 -0.875 -0.421875 -2.03125zm5.5625 0.015625q0 -0.859375 -0.46875 -1.34375q-0.46875 -0.5 -1.15625 -0.5q-0.671875 0 -1.15625 0.5q-0.46875 0.484375 -0.46875 1.328125q0 0.859375 0.46875 1.359375q0.484375 0.5 1.15625 0.5q0.6875 0 1.15625 -0.484375q0.46875 -0.5 0.46875 -1.359375zm10.956013 -0.125q0 0.328125 -0.046875 0.671875l-5.15625 0q0.046875 0.6875 0.4375 1.0625q0.40625 0.359375 0.96875 0.359375q0.859375 0 1.1875 -0.71875l2.421875 0q-0.171875 0.734375 -0.671875 1.328125q-0.484375 0.578125 -1.21875 0.921875q-0.734375 0.328125 -1.640625 0.328125q-1.09375 0 -1.953125 -0.46875q-0.8437538 -0.46875 -1.3281288 -1.328125q-0.46875 -0.875 -0.46875 -2.03125q0 -1.15625 0.46875 -2.015625q0.46875 -0.875 1.3281288 -1.34375q0.859375 -0.46875 1.953125 -0.46875q1.09375 0 1.921875 0.453125q0.84375 0.453125 1.3125 1.296875q0.484375 0.84375 0.484375 1.953125zm-2.34375 -0.59375q0 -0.59375 -0.40625 -0.9375q-0.390625 -0.34375 -0.984375 -0.34375q-0.578125 0 -0.96875 0.34375q-0.390625 0.328125 -0.484375 0.9375l2.84375 0z" fill-rule="nonzero"/><path fill="#eeeeee" d="m6.257218 39.619423l55.84252 0l0 40.0l-55.84252 0z" fill-rule="evenodd"/><path stroke="#595959" stroke-width="1.0" stroke-linejoin="round" stroke-linecap="butt" d="m6.257218 39.619423l55.84252 0l0 40.0l-55.84252 0z" fill-rule="evenodd"/><path fill="#000000" d="m26.375063 60.575672q0 0.328125 -0.046875 0.671875l-5.15625 0q0.046875 0.6875 0.4375 1.0625q0.40625 0.359375 0.96875 0.359375q0.859375 0 1.1875 -0.71875l2.421875 0q-0.171875 0.734375 -0.671875 1.328125q-0.484375 0.578125 -1.21875 0.9218712q-0.734375 0.328125 -1.640625 0.328125q-1.09375 0 -1.953125 -0.46875q-0.84375 -0.4687462 -1.328125 -1.3281212q-0.46875 -0.875 -0.46875 -2.03125q0 -1.15625 0.46875 -2.015625q0.46875 -0.875 1.328125 -1.34375q0.859375 -0.46875 1.953125 -0.46875q1.09375 0 1.921875 0.453125q0.84375 0.453125 1.3125 1.296875q0.484375 0.84375 0.484375 1.953125zm-2.34375 -0.59375q0 -0.59375 -0.40625 -0.9375q-0.390625 -0.34375 -0.984375 -0.34375q-0.578125 0 -0.96875 0.34375q-0.390625 0.328125 -0.484375 0.9375l2.84375 0zm7.6788483 2.5l0 1.9374962l-1.15625 0q-1.234375 0 -1.9375 -0.6093712q-0.6875 -0.609375 -0.6875 -1.96875l0 -2.96875l-0.90625 0l0 -1.890625l0.90625 0l0 -1.8125l2.28125 0l0 1.8125l1.484375 0l0 1.890625l-1.484375 0l0 2.984375q0 0.34375 0.15625 0.484375q0.15625 0.140625 0.53125 0.140625l0.8125 0zm5.8330708 -5.578125q1.2812462 0 2.0468712 0.84375q0.78125 0.84375 0.78125 2.328125l0 4.343746l-2.2656212 0l0 -4.031246q0 -0.75 -0.390625 -1.15625q-0.375 -0.421875 -1.03125 -0.421875q-0.65625 0 -1.046875 0.421875q-0.375 0.40625 -0.375 1.15625l0 4.031246l-2.28125 0l0 -9.859371l2.28125 0l0 3.421875q0.34375 -0.5 0.9375 -0.78125q0.609375 -0.296875 1.34375 -0.296875zm4.186245 2.515625q0 -2.296875 0.890625 -3.609375q0.890625 -1.3125 2.859375 -1.3125q1.96875 0 2.859375 1.3125q0.890625 1.3125 0.890625 3.609375q0 2.328125 -0.890625 3.640625q-0.890625 1.3124962 -2.859375 1.3124962q-1.96875 0 -2.859375 -1.3124962q-0.890625 -1.3125 -0.890625 -3.640625zm5.25 0q0 -1.34375 -0.296875 -2.0625q-0.28125 -0.734375 -1.203125 -0.734375q-0.921875 0 -1.21875 0.734375q-0.28125 0.71875 -0.28125 2.0625q0 0.90625 0.09375 1.5q0.109375 0.59375 0.4375 0.96875q0.328125 0.359375 0.96875 0.359375q0.640625 0 0.96875 -0.359375q0.328125 -0.375 0.421875 -0.96875q0.109375 -0.59375 0.109375 -1.5z" fill-rule="nonzero"/><path fill="#f6b26b" d="m242.9579 86.03674l102.74016 0l0 76.50394l-102.74016 0z" fill-rule="evenodd"/><path stroke="#595959" stroke-width="1.0" stroke-linejoin="round" stroke-linecap="butt" d="m242.9579 86.03674l102.74016 0l0 76.50394l-102.74016 0z" fill-rule="evenodd"/><path fill="#000000" d="m252.3329 104.118q0 -1.15625 0.46875 -2.015625q0.46875 -0.875 1.3125 -1.34375q0.859375 -0.46875 1.9531403 -0.46875q1.390625 0 2.328125 0.734375q0.953125 0.734375 1.234375 2.0625l-2.421875 0q-0.3125 -0.84375 -1.1875 -0.84375q-0.62501526 0 -1.0000153 0.484375q-0.375 0.484375 -0.375 1.390625q0 0.90625 0.375 1.390625q0.375 0.484375 1.0000153 0.484375q0.875 0 1.1875 -0.84375l2.421875 0q-0.28125 1.296875 -1.234375 2.046875q-0.953125 0.75 -2.328125 0.75q-1.0937653 0 -1.9531403 -0.46875q-0.84375 -0.46875 -1.3125 -1.328125q-0.46875 -0.875 -0.46875 -2.03125zm11.907242 3.828125q-1.09375 0 -1.96875 -0.46875q-0.875 -0.46875 -1.375 -1.328125q-0.5 -0.875 -0.5 -2.03125q0 -1.140625 0.5 -2.015625q0.515625 -0.875 1.390625 -1.34375q0.875 -0.46875 1.96875 -0.46875q1.09375 0 1.96875 0.46875q0.890625 0.46875 1.390625 1.34375q0.515625 0.875 0.515625 2.015625q0 1.140625 -0.515625 2.015625q-0.515625 0.875 -1.40625 1.34375q-0.890625 0.46875 -1.96875 0.46875zm0 -1.96875q0.640625 0 1.09375 -0.484375q0.46875 -0.484375 0.46875 -1.375q0 -0.890625 -0.453125 -1.375q-0.4375 -0.484375 -1.09375 -0.484375q-0.65625 0 -1.109375 0.484375q-0.4375 0.46875 -0.4375 1.375q0 0.890625 0.4375 1.375q0.4375 0.484375 1.09375 0.484375zm9.630615 -5.65625q1.296875 0 2.078125 0.84375q0.78125 0.84375 0.78125 2.328125l0 4.34375l-2.265625 0l0 -4.03125q0 -0.75 -0.390625 -1.15625q-0.375 -0.421875 -1.03125 -0.421875q-0.65625 0 -1.046875 0.421875q-0.375 0.40625 -0.375 1.15625l0 4.03125l-2.28125 0l0 -7.4375l2.28125 0l0 0.984375q0.34375 -0.484375 0.921875 -0.765625q0.59375 -0.296875 1.328125 -0.296875zm8.983124 0q1.296875 0 2.078125 0.84375q0.78125 0.84375 0.78125 2.328125l0 4.34375l-2.265625 0l0 -4.03125q0 -0.75 -0.390625 -1.15625q-0.375 -0.421875 -1.03125 -0.421875q-0.65625 0 -1.046875 0.421875q-0.375 0.40625 -0.375 1.15625l0 4.03125l-2.28125 0l0 -7.4375l2.28125 0l0 0.984375q0.34375 -0.484375 0.921875 -0.765625q0.59375 -0.296875 1.328125 -0.296875zm11.467499 3.671875q0 0.328125 -0.046875 0.671875l-5.15625 0q0.046875 0.6875 0.4375 1.0625q0.40625 0.359375 0.96875 0.359375q0.859375 0 1.1875 -0.71875l2.421875 0q-0.171875 0.734375 -0.671875 1.328125q-0.484375 0.578125 -1.21875 0.921875q-0.734375 0.328125 -1.640625 0.328125q-1.09375 0 -1.953125 -0.46875q-0.84375 -0.46875 -1.328125 -1.328125q-0.46875 -0.875 -0.46875 -2.03125q0 -1.15625 0.46875 -2.015625q0.46875 -0.875 1.328125 -1.34375q0.859375 -0.46875 1.953125 -0.46875q1.09375 0 1.921875 0.453125q0.84375 0.453125 1.3125 1.296875q0.484375 0.84375 0.484375 1.953125zm-2.34375 -0.59375q0 -0.59375 -0.40625 -0.9375q-0.390625 -0.34375 -0.984375 -0.34375q-0.578125 0 -0.96875 0.34375q-0.390625 0.328125 -0.484375 0.9375l2.84375 0zm3.0851135 0.71875q0 -1.15625 0.46875 -2.015625q0.46875 -0.875 1.3125 -1.34375q0.859375 -0.46875 1.953125 -0.46875q1.390625 0 2.328125 0.734375q0.953125 0.734375 1.234375 2.0625l-2.421875 0q-0.3125 -0.84375 -1.1875 -0.84375q-0.625 0 -1.0 0.484375q-0.375 0.484375 -0.375 1.390625q0 0.90625 0.375 1.390625q0.375 0.484375 1.0 0.484375q0.875 0 1.1875 -0.84375l2.421875 0q-0.28125 1.296875 -1.234375 2.046875q-0.953125 0.75 -2.328125 0.75q-1.09375 0 -1.953125 -0.46875q-0.84375 -0.46875 -1.3125 -1.328125q-0.46875 -0.875 -0.46875 -2.03125zm12.657227 1.78125l0 1.9375l-1.15625 0q-1.234375 0 -1.9375 -0.609375q-0.6875 -0.609375 -0.6875 -1.96875l0 -2.96875l-0.90625 0l0 -1.890625l0.90625 0l0 -1.8125l2.28125 0l0 1.8125l1.484375 0l0 1.890625l-1.484375 0l0 2.984375q0 0.34375 0.15625 0.484375q0.15625 0.140625 0.53125 0.140625l0.8125 0zm9.75238 -2.859375q0.8125 0.171875 1.3125 0.8125q0.5 0.625 0.5 1.4375q0 1.171875 -0.828125 1.859375q-0.8125 0.6875 -2.28125 0.6875l-4.359375 0l0 -9.359375l4.203125 0q1.4375 0 2.234375 0.65625q0.8125 0.65625 0.8125 1.765625q0 0.828125 -0.4375 1.375q-0.4375 0.546875 -1.15625 0.765625zm-3.375 -0.78125l1.484375 0q0.5625 0 0.859375 -0.234375q0.296875 -0.25 0.296875 -0.734375q0 -0.484375 -0.296875 -0.734375q-0.296875 -0.25 -0.859375 -0.25l-1.484375 0l0 1.953125zm1.671875 3.734375q0.578125 0 0.890625 -0.25q0.3125 -0.265625 0.3125 -0.765625q0 -0.484375 -0.328125 -0.765625q-0.328125 -0.28125 -0.890625 -0.28125l-1.65625 0l0 2.0625l1.671875 0zm11.955078 -4.5q0 0.8125 -0.375 1.484375q-0.375 0.671875 -1.140625 1.09375q-0.765625 0.40625 -1.921875 0.40625l-1.40625 0l0 3.359375l-2.28125 0l0 -9.359375l3.6875 0q1.125 0 1.890625 0.390625q0.78125 0.390625 1.15625 1.078125q0.390625 0.671875 0.390625 1.546875zm-3.609375 1.171875q0.65625 0 0.96875 -0.296875q0.328125 -0.3125 0.328125 -0.875q0 -0.5625 -0.328125 -0.859375q-0.3125 -0.3125 -0.96875 -0.3125l-1.234375 0l0 2.34375l1.234375 0zm10.894836 -4.1875l0 1.828125l-3.8125 0l0 1.96875l2.84375 0l0 1.78125l-2.84375 0l0 3.78125l-2.28125 0l0 -9.359375l6.09375 0z" fill-rule="nonzero"/><path fill="#eeeeee" d="m242.95801 17.333334l195.3071 0l0 45.228348l-195.3071 0z" fill-rule="evenodd"/><path stroke="#595959" stroke-width="1.0" stroke-linejoin="round" stroke-linecap="butt" d="m242.95801 17.333334l195.3071 0l0 45.228348l-195.3071 0z" fill-rule="evenodd"/><path fill="#000000" d="m318.3499 38.403755q0 0.8125 -0.375 1.484375q-0.375 0.671875 -1.140625 1.09375q-0.765625 0.40625 -1.921875 0.40625l-1.40625 0l0 3.359375l-2.28125 0l0 -9.359375l3.6875 0q1.125 0 1.890625 0.390625q0.78125 0.390625 1.15625 1.078125q0.390625 0.671875 0.390625 1.546875zm-3.609375 1.171875q0.65625 0 0.96875 -0.296875q0.328125 -0.3125 0.328125 -0.875q0 -0.5625 -0.328125 -0.859375q-0.3125 -0.3125 -0.96875 -0.3125l-1.234375 0l0 2.34375l1.234375 0zm7.082367 -1.03125q0.390625 -0.609375 0.984375 -0.953125q0.609375 -0.359375 1.34375 -0.359375l0 2.40625l-0.625 0q-0.859375 0 -1.28125 0.375q-0.421875 0.359375 -0.421875 1.28125l0 3.453125l-2.28125 0l0 -7.4375l2.28125 0l0 1.234375zm6.8137817 6.3125q-1.09375 0 -1.96875 -0.46875q-0.875 -0.46875 -1.375 -1.328125q-0.5 -0.875 -0.5 -2.03125q0 -1.140625 0.5 -2.015625q0.515625 -0.875 1.390625 -1.34375q0.875 -0.46875 1.96875 -0.46875q1.09375 0 1.96875 0.46875q0.890625 0.46875 1.390625 1.34375q0.515625 0.875 0.515625 2.015625q0 1.140625 -0.515625 2.015625q-0.515625 0.875 -1.40625 1.34375q-0.890625 0.46875 -1.96875 0.46875zm0 -1.96875q0.640625 0 1.09375 -0.484375q0.46875 -0.484375 0.46875 -1.375q0 -0.890625 -0.453125 -1.375q-0.4375 -0.484375 -1.09375 -0.484375q-0.65625 0 -1.109375 0.484375q-0.4375 0.46875 -0.4375 1.375q0 0.890625 0.4375 1.375q0.4375 0.484375 1.09375 0.484375zm7.92749 -5.6875q0.78125 0 1.375 0.328125q0.59375 0.3125 0.90625 0.828125l0 -1.046875l2.28125 0l0 7.421875q0 1.03125 -0.40625 1.859375q-0.40625 0.828125 -1.234375 1.328125q-0.828125 0.5 -2.078125 0.5q-1.640625 0 -2.671875 -0.78125q-1.03125 -0.78125 -1.171875 -2.125l2.25 0q0.109375 0.4375 0.5 0.671875q0.40625 0.25 0.984375 0.25q0.71875 0 1.125 -0.40625q0.421875 -0.40625 0.421875 -1.296875l0 -1.046875q-0.328125 0.515625 -0.921875 0.84375q-0.578125 0.328125 -1.359375 0.328125q-0.921875 0 -1.671875 -0.46875q-0.75 -0.484375 -1.1875 -1.34375q-0.421875 -0.875 -0.421875 -2.03125q0 -1.140625 0.421875 -2.0q0.4375 -0.875 1.1875 -1.34375q0.75 -0.46875 1.671875 -0.46875zm2.28125 3.828125q0 -0.859375 -0.46875 -1.34375q-0.46875 -0.5 -1.15625 -0.5q-0.671875 0 -1.15625 0.5q-0.46875 0.484375 -0.46875 1.328125q0 0.859375 0.46875 1.359375q0.484375 0.5 1.15625 0.5q0.6875 0 1.15625 -0.484375q0.46875 -0.5 0.46875 -1.359375zm6.221649 -2.484375q0.390625 -0.609375 0.984375 -0.953125q0.609375 -0.359375 1.34375 -0.359375l0 2.40625l-0.625 0q-0.859375 0 -1.28125 0.375q-0.421875 0.359375 -0.421875 1.28125l0 3.453125l-2.28125 0l0 -7.4375l2.28125 0l0 1.234375zm2.9700317 2.46875q0 -1.140625 0.421875 -2.0q0.4375 -0.875 1.1875 -1.34375q0.75 -0.46875 1.671875 -0.46875q0.78125 0 1.375 0.328125q0.59375 0.3125 0.90625 0.828125l0 -1.046875l2.28125 0l0 7.4375l-2.28125 0l0 -1.046875q-0.328125 0.515625 -0.921875 0.84375q-0.59375 0.3125 -1.375 0.3125q-0.90625 0 -1.65625 -0.46875q-0.75 -0.484375 -1.1875 -1.34375q-0.421875 -0.875 -0.421875 -2.03125zm5.5625 0.015625q0 -0.859375 -0.46875 -1.34375q-0.46875 -0.5 -1.15625 -0.5q-0.671875 0 -1.15625 0.5q-0.46875 0.484375 -0.46875 1.328125q0 0.859375 0.46875 1.359375q0.484375 0.5 1.15625 0.5q0.6875 0 1.15625 -0.484375q0.46875 -0.5 0.46875 -1.359375zm13.424774 -3.796875q1.390625 0 2.203125 0.84375q0.828125 0.828125 0.828125 2.328125l0 4.34375l-2.265625 0l0 -4.03125q0 -0.734375 -0.390625 -1.125q-0.375 -0.390625 -1.03125 -0.390625q-0.671875 0 -1.0625 0.390625q-0.375 0.390625 -0.375 1.125l0 4.03125l-2.265625 0l0 -4.03125q0 -0.734375 -0.375 -1.125q-0.375 -0.390625 -1.046875 -0.390625q-0.671875 0 -1.046875 0.390625q-0.375 0.390625 -0.375 1.125l0 4.03125l-2.28125 0l0 -7.4375l2.28125 0l0 0.9375q0.34375 -0.46875 0.90625 -0.734375q0.5625 -0.28125 1.265625 -0.28125q0.84375 0 1.5 0.359375q0.65625 0.359375 1.03125 1.03125q0.390625 -0.625 1.046875 -1.0q0.671875 -0.390625 1.453125 -0.390625z" fill-rule="nonzero"/><path fill="#f6b26b" d="m274.45712 176.54724l0 0c0 -3.6819 9.738098 -6.6666565 21.750671 -6.6666565c12.012543 0 21.75064 2.9847565 21.75064 6.6666565l0 26.666672c0 3.6819 -9.738098 6.6666718 -21.75064 6.6666718c-12.012573 0 -21.750671 -2.9847717 -21.750671 -6.6666718z" fill-rule="evenodd"/><path fill="#000000" fill-opacity="0.0" d="m317.95844 176.54724l0 0c0 3.6819 -9.738098 6.6666718 -21.75064 6.6666718c-12.012573 0 -21.750671 -2.9847717 -21.750671 -6.6666718" fill-rule="evenodd"/><path fill="#000000" fill-opacity="0.0" d="m274.45712 176.54724l0 0c0 -3.6819 9.738098 -6.6666565 21.750671 -6.6666565c12.012543 0 21.75064 2.9847565 21.75064 6.6666565l0 26.666672c0 3.6819 -9.738098 6.6666718 -21.75064 6.6666718c-12.012573 0 -21.750671 -2.9847717 -21.750671 -6.6666718z" fill-rule="evenodd"/><path stroke="#000000" stroke-width="1.0" stroke-linejoin="round" stroke-linecap="butt" d="m317.95844 176.54724l0 0c0 3.6819 -9.738098 6.6666718 -21.75064 6.6666718c-12.012573 0 -21.750671 -2.9847717 -21.750671 -6.6666718" fill-rule="evenodd"/><path stroke="#000000" stroke-width="1.0" stroke-linejoin="round" stroke-linecap="butt" d="m274.45712 176.54724l0 0c0 -3.6819 9.738098 -6.6666565 21.750671 -6.6666565c12.012543 0 21.75064 2.9847565 21.75064 6.6666565l0 26.666672c0 3.6819 -9.738098 6.6666718 -21.75064 6.6666718c-12.012573 0 -21.750671 -2.9847717 -21.750671 -6.6666718z" fill-rule="evenodd"/><path fill="#000000" d="m293.5359 190.8939l-0.734375 0l-2.921875 -4.4375l0 4.4375l-0.734375 0l0 -5.578125l0.734375 0l2.921875 4.421875l0 -4.421875l0.734375 0l0 5.578125zm4.530182 -1.234375l-2.421875 0l-0.453125 1.234375l-0.765625 0l2.015625 -5.546875l0.84375 0l2.0 5.546875l-0.765625 0l-0.453125 -1.234375zm-0.203125 -0.59375l-1.0 -2.8125l-1.015625 2.8125l2.015625 0zm5.7356873 -3.75l0 0.59375l-1.515625 0l0 4.984375l-0.734375 0l0 -4.984375l-1.53125 0l0 -0.59375l3.78125 0z" fill-rule="nonzero"/><path fill="#000000" d="m289.23016 197.11266l-0.921875 0l0 3.78125l-0.734375 0l0 -3.78125l-0.5625 0l0 -0.609375l0.5625 0l0 -0.3125q0 -0.734375 0.375 -1.0625q0.390625 -0.34375 1.234375 -0.34375l0 0.609375q-0.484375 0 -0.6875 0.1875q-0.1875 0.1875 -0.1875 0.609375l0 0.3125l0.921875 0l0 0.609375zm1.569458 0.109375q0.1875 -0.375 0.546875 -0.578125q0.359375 -0.21875 0.875 -0.21875l0 0.75l-0.203125 0q-1.21875 0 -1.21875 1.328125l0 2.390625l-0.734375 0l0 -4.390625l0.734375 0l0 0.71875zm4.1714783 3.75q-0.625 0 -1.125 -0.28125q-0.5 -0.28125 -0.78125 -0.796875q-0.28125 -0.515625 -0.28125 -1.203125q0 -0.671875 0.28125 -1.1875q0.296875 -0.515625 0.796875 -0.78125q0.515625 -0.28125 1.140625 -0.28125q0.625 0 1.125 0.28125q0.5 0.265625 0.796875 0.78125q0.296875 0.515625 0.296875 1.1875q0 0.6875 -0.3125 1.203125q-0.296875 0.515625 -0.8125 0.796875q-0.5 0.28125 -1.125 0.28125zm0 -0.640625q0.390625 0 0.734375 -0.1875q0.34375 -0.1875 0.546875 -0.546875q0.21875 -0.375 0.21875 -0.90625q0 -0.53125 -0.21875 -0.890625q-0.203125 -0.375 -0.546875 -0.546875q-0.328125 -0.1875 -0.71875 -0.1875q-0.390625 0 -0.734375 0.1875q-0.328125 0.171875 -0.53125 0.546875q-0.1875 0.359375 -0.1875 0.890625q0 0.546875 0.1875 0.921875q0.203125 0.359375 0.53125 0.546875q0.328125 0.171875 0.71875 0.171875zm5.338684 -3.90625q0.796875 0 1.296875 0.484375q0.5 0.484375 0.5 1.40625l0 2.578125l-0.71875 0l0 -2.484375q0 -0.65625 -0.328125 -1.0q-0.328125 -0.34375 -0.90625 -0.34375q-0.5625 0 -0.90625 0.359375q-0.34375 0.359375 -0.34375 1.046875l0 2.421875l-0.734375 0l0 -4.390625l0.734375 0l0 0.625q0.21875 -0.328125 0.578125 -0.515625q0.375 -0.1875 0.828125 -0.1875zm3.869934 0.6875l0 2.578125q0 0.328125 0.140625 0.46875q0.140625 0.125 0.46875 0.125l0.53125 0l0 0.609375l-0.65625 0q-0.59375 0 -0.90625 -0.28125q-0.296875 -0.28125 -0.296875 -0.921875l0 -2.578125l-0.578125 0l0 -0.609375l0.578125 0l0 -1.09375l0.71875 0l0 1.09375l1.140625 0l0 0.609375l-1.140625 0z" fill-rule="nonzero"/><path fill="#f6b26b" d="m267.3145 179.62862l0 0c0 -3.6819 9.738098 -6.6666718 21.750671 -6.6666718c12.012543 0 21.75064 2.9847717 21.75064 6.6666718l0 26.666656c0 3.6819 -9.738098 6.6666718 -21.75064 6.6666718c-12.012573 0 -21.750671 -2.9847717 -21.750671 -6.6666718z" fill-rule="evenodd"/><path fill="#000000" fill-opacity="0.0" d="m310.81583 179.62862l0 0c0 3.6818848 -9.738098 6.6666565 -21.75064 6.6666565c-12.012573 0 -21.750671 -2.9847717 -21.750671 -6.6666565" fill-rule="evenodd"/><path fill="#000000" fill-opacity="0.0" d="m267.3145 179.62862l0 0c0 -3.6819 9.738098 -6.6666718 21.750671 -6.6666718c12.012543 0 21.75064 2.9847717 21.75064 6.6666718l0 26.666656c0 3.6819 -9.738098 6.6666718 -21.75064 6.6666718c-12.012573 0 -21.750671 -2.9847717 -21.750671 -6.6666718z" fill-rule="evenodd"/><path stroke="#000000" stroke-width="1.0" stroke-linejoin="round" stroke-linecap="butt" d="m310.81583 179.62862l0 0c0 3.6818848 -9.738098 6.6666565 -21.75064 6.6666565c-12.012573 0 -21.750671 -2.9847717 -21.750671 -6.6666565" fill-rule="evenodd"/><path stroke="#000000" stroke-width="1.0" stroke-linejoin="round" stroke-linecap="butt" d="m267.3145 179.62862l0 0c0 -3.6819 9.738098 -6.6666718 21.750671 -6.6666718c12.012543 0 21.75064 2.9847717 21.75064 6.6666718l0 26.666656c0 3.6819 -9.738098 6.6666718 -21.75064 6.6666718c-12.012573 0 -21.750671 -2.9847717 -21.750671 -6.6666718z" fill-rule="evenodd"/><path fill="#000000" d="m286.39328 193.97528l-0.734375 0l-2.921875 -4.4375l0 4.4375l-0.734375 0l0 -5.578125l0.734375 0l2.921875 4.421875l0 -4.421875l0.734375 0l0 5.578125zm4.530182 -1.234375l-2.421875 0l-0.453125 1.234375l-0.765625 0l2.015625 -5.546875l0.84375 0l2.0 5.546875l-0.765625 0l-0.453125 -1.234375zm-0.203125 -0.59375l-1.0 -2.8125l-1.015625 2.8125l2.015625 0zm5.7356873 -3.75l0 0.59375l-1.515625 0l0 4.984375l-0.734375 0l0 -4.984375l-1.53125 0l0 -0.59375l3.78125 0z" fill-rule="nonzero"/><path fill="#000000" d="m283.33997 199.50653q0.515625 0 0.90625 0.21875q0.40625 0.203125 0.625 0.640625q0.234375 0.421875 0.234375 1.03125l0 2.578125l-0.71875 0l0 -2.484375q0 -0.65625 -0.328125 -1.0q-0.3125 -0.34375 -0.859375 -0.34375q-0.578125 0 -0.921875 0.359375q-0.328125 0.359375 -0.328125 1.046875l0 2.421875l-0.71875 0l0 -2.484375q0 -0.65625 -0.328125 -1.0q-0.3125 -0.34375 -0.875 -0.34375q-0.5625 0 -0.90625 0.359375q-0.328125 0.359375 -0.328125 1.046875l0 2.421875l-0.734375 0l0 -4.390625l0.734375 0l0 0.640625q0.21875 -0.34375 0.578125 -0.53125q0.359375 -0.1875 0.8125 -0.1875q0.546875 0 0.96875 0.25q0.421875 0.25 0.640625 0.734375q0.171875 -0.46875 0.59375 -0.71875q0.4375 -0.265625 0.953125 -0.265625zm2.6930237 2.265625q0 -0.671875 0.265625 -1.171875q0.28125 -0.515625 0.75 -0.796875q0.484375 -0.28125 1.0625 -0.28125q0.578125 0 1.0 0.25q0.421875 0.25 0.640625 0.625l0 -0.8125l0.734375 0l0 4.390625l-0.734375 0l0 -0.8125q-0.21875 0.375 -0.65625 0.640625q-0.421875 0.25 -0.984375 0.25q-0.59375 0 -1.0625 -0.28125q-0.46875 -0.296875 -0.75 -0.8125q-0.265625 -0.53125 -0.265625 -1.1875zm3.71875 0q0 -0.5 -0.203125 -0.859375q-0.203125 -0.375 -0.546875 -0.5625q-0.34375 -0.203125 -0.75 -0.203125q-0.40625 0 -0.75 0.203125q-0.328125 0.1875 -0.53125 0.5625q-0.1875 0.359375 -0.1875 0.859375q0 0.5 0.1875 0.875q0.203125 0.375 0.53125 0.578125q0.34375 0.1875 0.75 0.1875q0.40625 0 0.75 -0.1875q0.34375 -0.203125 0.546875 -0.578125q0.203125 -0.375 0.203125 -0.875zm2.6891785 -1.375q0.21875 -0.375 0.640625 -0.625q0.4375 -0.25 1.0 -0.25q0.578125 0 1.046875 0.28125q0.484375 0.28125 0.75 0.796875q0.28125 0.5 0.28125 1.171875q0 0.65625 -0.28125 1.1875q-0.265625 0.515625 -0.75 0.8125q-0.46875 0.28125 -1.046875 0.28125q-0.5625 0 -1.0 -0.25q-0.421875 -0.265625 -0.640625 -0.640625l0 2.890625l-0.734375 0l0 -6.46875l0.734375 0l0 0.8125zm2.96875 1.375q0 -0.5 -0.203125 -0.859375q-0.1875 -0.375 -0.53125 -0.5625q-0.34375 -0.203125 -0.75 -0.203125q-0.390625 0 -0.734375 0.203125q-0.34375 0.1875 -0.546875 0.5625q-0.203125 0.375 -0.203125 0.859375q0 0.5 0.203125 0.875q0.203125 0.375 0.546875 0.578125q0.34375 0.1875 0.734375 0.1875q0.40625 0 0.75 -0.1875q0.34375 -0.203125 0.53125 -0.578125q0.203125 -0.375 0.203125 -0.875zm3.2673035 2.28125q-0.515625 0 -0.921875 -0.171875q-0.390625 -0.171875 -0.625 -0.484375q-0.21875 -0.3125 -0.25 -0.703125l0.75 0q0.03125 0.328125 0.3125 0.53125q0.28125 0.203125 0.71875 0.203125q0.421875 0 0.65625 -0.171875q0.25 -0.1875 0.25 -0.46875q0 -0.296875 -0.265625 -0.4375q-0.25 -0.140625 -0.78125 -0.265625q-0.5 -0.140625 -0.8125 -0.265625q-0.296875 -0.125 -0.515625 -0.390625q-0.21875 -0.265625 -0.21875 -0.6875q0 -0.328125 0.1875 -0.609375q0.203125 -0.28125 0.5625 -0.4375q0.375 -0.171875 0.859375 -0.171875q0.71875 0 1.171875 0.375q0.453125 0.359375 0.484375 1.0l-0.734375 0q-0.03125 -0.34375 -0.28125 -0.546875q-0.25 -0.21875 -0.671875 -0.21875q-0.390625 0 -0.625 0.171875q-0.234375 0.171875 -0.234375 0.4375q0 0.21875 0.140625 0.359375q0.140625 0.140625 0.34375 0.234375q0.21875 0.078125 0.59375 0.171875q0.484375 0.125 0.78125 0.25q0.296875 0.125 0.5 0.375q0.21875 0.25 0.21875 0.65625q0 0.359375 -0.203125 0.65625q-0.1875 0.28125 -0.5625 0.453125q-0.359375 0.15625 -0.828125 0.15625z" fill-rule="nonzero"/><path fill="#f6b26b" d="m246.5538 115.073494l92.09448 0l0 38.866142l-92.09448 0z" fill-rule="evenodd"/><path stroke="#595959" stroke-width="1.0" stroke-linejoin="round" stroke-linecap="butt" d="m246.5538 115.073494l92.09448 0l0 38.866142l-92.09448 0z" fill-rule="evenodd"/><path fill="#000000" d="m265.7517 139.30656l-2.28125 0l-3.8125 -5.765625l0 5.765625l-2.28125 0l0 -9.359375l2.28125 0l3.8125 5.796875l0 -5.796875l2.28125 0l0 9.359375zm7.4758606 -1.65625l-3.5 0l-0.5625 1.65625l-2.375 0l3.375 -9.359375l2.640625 0l3.390625 9.359375l-2.421875 0l-0.546875 -1.65625zm-0.59375 -1.75l-1.15625 -3.4375l-1.140625 3.4375l2.296875 0zm11.322784 -5.953125l0 1.828125l-2.484375 0l0 7.53125l-2.28125 0l0 -7.53125l-2.484375 0l0 -1.828125l7.25 0zm3.514923 5.640625q0 -1.15625 0.46875 -2.015625q0.46875 -0.875 1.3125 -1.34375q0.859375 -0.46875 1.953125 -0.46875q1.390625 0 2.328125 0.734375q0.953125 0.734375 1.234375 2.0625l-2.421875 0q-0.3125 -0.84375 -1.1875 -0.84375q-0.625 0 -1.0 0.484375q-0.375 0.484375 -0.375 1.390625q0 0.90625 0.375 1.390625q0.375 0.484375 1.0 0.484375q0.875 0 1.1875 -0.84375l2.421875 0q-0.28125 1.296875 -1.234375 2.046875q-0.953125 0.75 -2.328125 0.75q-1.09375 0 -1.953125 -0.46875q-0.84375 -0.46875 -1.3125 -1.328125q-0.46875 -0.875 -0.46875 -2.03125zm13.079132 -3.796875q1.28125 0 2.046875 0.84375q0.78125 0.84375 0.78125 2.328125l0 4.34375l-2.265625 0l0 -4.03125q0 -0.75 -0.390625 -1.15625q-0.375 -0.421875 -1.03125 -0.421875q-0.65625 0 -1.046875 0.421875q-0.375 0.40625 -0.375 1.15625l0 4.03125l-2.28125 0l0 -9.859375l2.28125 0l0 3.421875q0.34375 -0.5 0.9375 -0.78125q0.609375 -0.296875 1.34375 -0.296875zm11.436249 3.671875q0 0.328125 -0.046875 0.671875l-5.15625 0q0.046875 0.6875 0.4375 1.0625q0.40625 0.359375 0.96875 0.359375q0.859375 0 1.1875 -0.71875l2.421875 0q-0.171875 0.734375 -0.671875 1.328125q-0.484375 0.578125 -1.21875 0.921875q-0.734375 0.328125 -1.640625 0.328125q-1.09375 0 -1.953125 -0.46875q-0.84375 -0.46875 -1.328125 -1.328125q-0.46875 -0.875 -0.46875 -2.03125q0 -1.15625 0.46875 -2.015625q0.46875 -0.875 1.328125 -1.34375q0.859375 -0.46875 1.953125 -0.46875q1.09375 0 1.921875 0.453125q0.84375 0.453125 1.3125 1.296875q0.484375 0.84375 0.484375 1.953125zm-2.34375 -0.59375q0 -0.59375 -0.40625 -0.9375q-0.390625 -0.34375 -0.984375 -0.34375q-0.578125 0 -0.96875 0.34375q-0.390625 0.328125 -0.484375 0.9375l2.84375 0zm3.0851135 0.71875q0 -1.15625 0.46875 -2.015625q0.46875 -0.875 1.3125 -1.34375q0.859375 -0.46875 1.953125 -0.46875q1.390625 0 2.328125 0.734375q0.953125 0.734375 1.234375 2.0625l-2.421875 0q-0.3125 -0.84375 -1.1875 -0.84375q-0.625 0 -1.0 0.484375q-0.375 0.484375 -0.375 1.390625q0 0.90625 0.375 1.390625q0.375 0.484375 1.0 0.484375q0.875 0 1.1875 -0.84375l2.421875 0q-0.28125 1.296875 -1.234375 2.046875q-0.953125 0.75 -2.328125 0.75q-1.09375 0 -1.953125 -0.46875q-0.84375 -0.46875 -1.3125 -1.328125q-0.46875 -0.875 -0.46875 -2.03125zm13.063477 3.71875l-2.265625 -3.125l0 3.125l-2.28125 0l0 -9.859375l2.28125 0l0 5.453125l2.25 -3.03125l2.8125 0l-3.09375 3.734375l3.125 3.703125l-2.828125 0z" fill-rule="nonzero"/><path fill="#000000" fill-opacity="0.0" d="m292.60104 153.93964l3.6220398 15.937012" fill-rule="evenodd"/><path stroke="#595959" stroke-width="2.0" stroke-linejoin="round" stroke-linecap="butt" d="m292.60104 153.93964l0.96261597 4.2354126" fill-rule="evenodd"/><path fill="#595959" stroke="#595959" stroke-width="2.0" stroke-linecap="butt" d="m290.34232 158.90717l5.2328186 8.118378l1.2098389 -9.582611z" fill-rule="evenodd"/><path fill="#000000" fill-opacity="0.0" d="m292.60104 153.93964l-3.5275574 19.02362" fill-rule="evenodd"/><path stroke="#595959" stroke-width="2.0" stroke-linejoin="round" stroke-linecap="butt" d="m292.60104 153.93964l-1.3396912 7.224762" fill-rule="evenodd"/><path fill="#595959" stroke="#595959" stroke-width="2.0" stroke-linecap="butt" d="m288.01328 160.56209l1.5932922 9.526367l4.902893 -8.321777z" fill-rule="evenodd"/><path fill="#000000" fill-opacity="0.0" d="m446.7743 74.84252l154.80316 0l0 34.992126l-154.80316 0z" fill-rule="evenodd"/><path fill="#000000" d="m456.7743 96.64252l0 -9.546875l1.921875 0l0 4.25l3.890625 -4.25l2.59375 0l-3.59375 3.71875l3.78125 5.828125l-2.484375 0l-2.625 -4.484375l-1.5625 1.59375l0 2.890625l-1.921875 0zm13.578278 -2.203125l1.828125 0.3125q-0.34375 1.0 -1.109375 1.53125q-0.765625 0.515625 -1.890625 0.515625q-1.8125 0 -2.671875 -1.171875q-0.6875 -0.953125 -0.6875 -2.390625q0 -1.71875 0.890625 -2.6875q0.90625 -0.96875 2.28125 -0.96875q1.546875 0 2.4375 1.015625q0.890625 1.015625 0.84375 3.125l-4.578125 0q0.015625 0.8125 0.4375 1.265625q0.421875 0.453125 1.0625 0.453125q0.421875 0 0.71875 -0.234375q0.296875 -0.234375 0.4375 -0.765625zm0.109375 -1.84375q-0.015625 -0.796875 -0.40625 -1.203125q-0.390625 -0.421875 -0.953125 -0.421875q-0.59375 0 -0.984375 0.4375q-0.390625 0.4375 -0.390625 1.1875l2.734375 0zm5.0531006 4.046875l-1.828125 0l0 -6.90625l1.703125 0l0 0.984375q0.4375 -0.703125 0.78125 -0.921875q0.34375 -0.21875 0.796875 -0.21875q0.625 0 1.203125 0.34375l-0.5625 1.59375q-0.46875 -0.296875 -0.859375 -0.296875q-0.390625 0 -0.65625 0.21875q-0.265625 0.203125 -0.421875 0.765625q-0.15625 0.546875 -0.15625 2.296875l0 2.140625zm9.733643 0l-1.828125 0l0 -3.53125q0 -1.109375 -0.125 -1.4375q-0.109375 -0.328125 -0.375 -0.515625q-0.265625 -0.1875 -0.640625 -0.1875q-0.46875 0 -0.859375 0.265625q-0.375 0.265625 -0.515625 0.703125q-0.140625 0.421875 -0.140625 1.578125l0 3.125l-1.828125 0l0 -6.90625l1.703125 0l0 1.015625q0.90625 -1.171875 2.28125 -1.171875q0.609375 0 1.109375 0.21875q0.5 0.21875 0.75 0.5625q0.265625 0.328125 0.359375 0.765625q0.109375 0.421875 0.109375 1.21875l0 4.296875zm5.8444824 -2.203125l1.828125 0.3125q-0.34375 1.0 -1.109375 1.53125q-0.765625 0.515625 -1.890625 0.515625q-1.8125 0 -2.671875 -1.171875q-0.6875 -0.953125 -0.6875 -2.390625q0 -1.71875 0.890625 -2.6875q0.90625 -0.96875 2.28125 -0.96875q1.546875 0 2.4375 1.015625q0.890625 1.015625 0.84375 3.125l-4.578125 0q0.015625 0.8125 0.4375 1.265625q0.421875 0.453125 1.0625 0.453125q0.421875 0 0.71875 -0.234375q0.296875 -0.234375 0.4375 -0.765625zm0.109375 -1.84375q-0.015625 -0.796875 -0.40625 -1.203125q-0.390625 -0.421875 -0.953125 -0.421875q-0.59375 0 -0.984375 0.4375q-0.390625 0.4375 -0.390625 1.1875l2.734375 0zm3.3031006 4.046875l0 -9.546875l1.828125 0l0 9.546875l-1.828125 0zm6.7653503 -1.96875l1.828125 -0.28125q0.125 0.53125 0.484375 0.8125q0.359375 0.265625 1.0 0.265625q0.703125 0 1.0625 -0.25q0.25 -0.1875 0.25 -0.484375q0 -0.21875 -0.140625 -0.359375q-0.125 -0.125 -0.609375 -0.234375q-2.203125 -0.484375 -2.796875 -0.890625q-0.828125 -0.5625 -0.828125 -1.5625q0 -0.890625 0.703125 -1.5q0.71875 -0.609375 2.203125 -0.609375q1.421875 0 2.109375 0.46875q0.703125 0.453125 0.953125 1.359375l-1.71875 0.3125q-0.109375 -0.40625 -0.421875 -0.609375q-0.3125 -0.21875 -0.890625 -0.21875q-0.71875 0 -1.03125 0.203125q-0.203125 0.140625 -0.203125 0.359375q0 0.203125 0.1875 0.34375q0.234375 0.171875 1.6875 0.515625q1.46875 0.328125 2.0625 0.8125q0.5625 0.484375 0.5625 1.359375q0 0.953125 -0.796875 1.640625q-0.78125 0.671875 -2.34375 0.671875q-1.40625 0 -2.234375 -0.5625q-0.828125 -0.578125 -1.078125 -1.5625zm8.006226 -4.9375l1.703125 0l0 1.015625q0.328125 -0.53125 0.890625 -0.84375q0.578125 -0.328125 1.265625 -0.328125q1.203125 0 2.03125 0.9375q0.84375 0.9375 0.84375 2.625q0 1.734375 -0.84375 2.703125q-0.84375 0.953125 -2.046875 0.953125q-0.578125 0 -1.046875 -0.21875q-0.453125 -0.234375 -0.96875 -0.796875l0 3.484375l-1.828125 0l0 -9.53125zm1.8125 3.328125q0 1.171875 0.453125 1.734375q0.46875 0.546875 1.125 0.546875q0.640625 0 1.0625 -0.5q0.421875 -0.515625 0.421875 -1.6875q0 -1.078125 -0.4375 -1.609375q-0.4375 -0.53125 -1.078125 -0.53125q-0.671875 0 -1.109375 0.515625q-0.4375 0.515625 -0.4375 1.53125zm7.7507324 -1.21875l-1.671875 -0.3125q0.28125 -1.0 0.96875 -1.46875q0.6875 -0.484375 2.03125 -0.484375q1.21875 0 1.8125 0.296875q0.609375 0.28125 0.84375 0.734375q0.25 0.4375 0.25 1.625l-0.015625 2.140625q0 0.90625 0.078125 1.34375q0.09375 0.421875 0.34375 0.921875l-1.8125 0q-0.078125 -0.1875 -0.171875 -0.546875q-0.046875 -0.15625 -0.078125 -0.203125q-0.46875 0.453125 -1.0 0.6875q-0.53125 0.21875 -1.140625 0.21875q-1.0625 0 -1.6875 -0.578125q-0.609375 -0.578125 -0.609375 -1.46875q0 -0.578125 0.28125 -1.03125q0.28125 -0.46875 0.78125 -0.703125q0.515625 -0.25 1.46875 -0.4375q1.28125 -0.234375 1.765625 -0.453125l0 -0.171875q0 -0.53125 -0.265625 -0.75q-0.25 -0.234375 -0.96875 -0.234375q-0.484375 0 -0.765625 0.203125q-0.265625 0.1875 -0.4375 0.671875zm2.4375 1.484375q-0.34375 0.109375 -1.109375 0.28125q-0.765625 0.15625 -1.0 0.3125q-0.359375 0.25 -0.359375 0.640625q0 0.390625 0.28125 0.671875q0.296875 0.28125 0.734375 0.28125q0.5 0 0.953125 -0.328125q0.328125 -0.25 0.4375 -0.609375q0.0625 -0.234375 0.0625 -0.890625l0 -0.359375zm9.631226 -1.5625l-1.796875 0.328125q-0.09375 -0.53125 -0.421875 -0.796875q-0.328125 -0.28125 -0.828125 -0.28125q-0.6875 0 -1.09375 0.46875q-0.40625 0.46875 -0.40625 1.578125q0 1.234375 0.40625 1.75q0.421875 0.5 1.109375 0.5q0.53125 0 0.859375 -0.296875q0.328125 -0.296875 0.46875 -1.03125l1.796875 0.3125q-0.28125 1.234375 -1.078125 1.875q-0.796875 0.625 -2.125 0.625q-1.515625 0 -2.421875 -0.953125q-0.90625 -0.953125 -0.90625 -2.65625q0 -1.703125 0.90625 -2.65625q0.90625 -0.953125 2.453125 -0.953125q1.265625 0 2.0 0.546875q0.75 0.53125 1.078125 1.640625zm5.3812256 2.671875l1.828125 0.3125q-0.34375 1.0 -1.109375 1.53125q-0.765625 0.515625 -1.890625 0.515625q-1.8125 0 -2.671875 -1.171875q-0.6875 -0.953125 -0.6875 -2.390625q0 -1.71875 0.890625 -2.6875q0.90625 -0.96875 2.28125 -0.96875q1.546875 0 2.4375 1.015625q0.890625 1.015625 0.84375 3.125l-4.578125 0q0.015625 0.8125 0.4375 1.265625q0.421875 0.453125 1.0625 0.453125q0.421875 0 0.71875 -0.234375q0.296875 -0.234375 0.4375 -0.765625zm0.109375 -1.84375q-0.015625 -0.796875 -0.40625 -1.203125q-0.390625 -0.421875 -0.953125 -0.421875q-0.59375 0 -0.984375 0.4375q-0.390625 0.4375 -0.390625 1.1875l2.734375 0z" fill-rule="nonzero"/><path fill="#000000" fill-opacity="0.0" d="m446.7743 28.078741l154.80316 0l0 32.377953l-154.80316 0z" fill-rule="evenodd"/><path fill="#000000" d="m456.72742 40.331863l1.9375 0l0 5.171875q0 1.234375 0.0625 1.59375q0.125 0.59375 0.59375 0.953125q0.46875 0.34375 1.265625 0.34375q0.828125 0 1.234375 -0.328125q0.421875 -0.34375 0.5 -0.828125q0.09375 -0.484375 0.09375 -1.625l0 -5.28125l1.921875 0l0 5.015625q0 1.71875 -0.15625 2.4375q-0.15625 0.703125 -0.578125 1.1875q-0.421875 0.484375 -1.125 0.78125q-0.703125 0.28125 -1.828125 0.28125q-1.375 0 -2.078125 -0.3125q-0.703125 -0.3125 -1.109375 -0.8125q-0.40625 -0.515625 -0.546875 -1.0625q-0.1875 -0.8125 -0.1875 -2.421875l0 -5.09375zm8.984528 7.578125l1.828125 -0.28125q0.125 0.53125 0.484375 0.8125q0.359375 0.265625 1.0 0.265625q0.703125 0 1.0625 -0.25q0.25 -0.1875 0.25 -0.484375q0 -0.21875 -0.140625 -0.359375q-0.125 -0.125 -0.609375 -0.234375q-2.203125 -0.484375 -2.796875 -0.890625q-0.828125 -0.5625 -0.828125 -1.5625q0 -0.890625 0.703125 -1.5q0.71875 -0.609375 2.203125 -0.609375q1.421875 0 2.109375 0.46875q0.703125 0.453125 0.953125 1.359375l-1.71875 0.3125q-0.109375 -0.40625 -0.421875 -0.609375q-0.3125 -0.21875 -0.890625 -0.21875q-0.71875 0 -1.03125 0.203125q-0.203125 0.140625 -0.203125 0.359375q0 0.203125 0.1875 0.34375q0.234375 0.171875 1.6875 0.515625q1.46875 0.328125 2.0625 0.8125q0.5625 0.484375 0.5625 1.359375q0 0.953125 -0.796875 1.640625q-0.78125 0.671875 -2.34375 0.671875q-1.40625 0 -2.234375 -0.5625q-0.828125 -0.578125 -1.078125 -1.5625zm12.053101 -0.234375l1.828125 0.3125q-0.34375 1.0 -1.109375 1.53125q-0.765625 0.515625 -1.890625 0.515625q-1.8125 0 -2.671875 -1.171875q-0.6875 -0.953125 -0.6875 -2.390625q0 -1.71875 0.890625 -2.6875q0.90625 -0.96875 2.28125 -0.96875q1.546875 0 2.4375 1.015625q0.890625 1.015625 0.84375 3.125l-4.578125 0q0.015625 0.8125 0.4375 1.265625q0.421875 0.453125 1.0625 0.453125q0.421875 0 0.71875 -0.234375q0.296875 -0.234375 0.4375 -0.765625zm0.109375 -1.84375q-0.015625 -0.796875 -0.40625 -1.203125q-0.390625 -0.421875 -0.953125 -0.421875q-0.59375 0 -0.984375 0.4375q-0.390625 0.4375 -0.390625 1.1875l2.734375 0zm5.0531006 4.046875l-1.828125 0l0 -6.90625l1.703125 0l0 0.984375q0.4375 -0.703125 0.78125 -0.921875q0.34375 -0.21875 0.796875 -0.21875q0.625 0 1.203125 0.34375l-0.5625 1.59375q-0.46875 -0.296875 -0.859375 -0.296875q-0.390625 0 -0.65625 0.21875q-0.265625 0.203125 -0.421875 0.765625q-0.15625 0.546875 -0.15625 2.296875l0 2.140625zm6.4991455 -1.96875l1.828125 -0.28125q0.125 0.53125 0.484375 0.8125q0.359375 0.265625 1.0 0.265625q0.703125 0 1.0625 -0.25q0.25 -0.1875 0.25 -0.484375q0 -0.21875 -0.140625 -0.359375q-0.125 -0.125 -0.609375 -0.234375q-2.203125 -0.484375 -2.796875 -0.890625q-0.828125 -0.5625 -0.828125 -1.5625q0 -0.890625 0.703125 -1.5q0.71875 -0.609375 2.203125 -0.609375q1.421875 0 2.109375 0.46875q0.703125 0.453125 0.953125 1.359375l-1.71875 0.3125q-0.109375 -0.40625 -0.421875 -0.609375q-0.3125 -0.21875 -0.890625 -0.21875q-0.71875 0 -1.03125 0.203125q-0.203125 0.140625 -0.203125 0.359375q0 0.203125 0.1875 0.34375q0.234375 0.171875 1.6875 0.515625q1.46875 0.328125 2.0625 0.8125q0.5625 0.484375 0.5625 1.359375q0 0.953125 -0.796875 1.640625q-0.78125 0.671875 -2.34375 0.671875q-1.40625 0 -2.234375 -0.5625q-0.828125 -0.578125 -1.078125 -1.5625zm8.006226 -4.9375l1.703125 0l0 1.015625q0.328125 -0.53125 0.890625 -0.84375q0.578125 -0.328125 1.265625 -0.328125q1.203125 0 2.03125 0.9375q0.84375 0.9375 0.84375 2.625q0 1.734375 -0.84375 2.703125q-0.84375 0.953125 -2.046875 0.953125q-0.578125 0 -1.046875 -0.21875q-0.453125 -0.234375 -0.96875 -0.796875l0 3.484375l-1.828125 0l0 -9.53125zm1.8125 3.328125q0 1.171875 0.453125 1.734375q0.46875 0.546875 1.125 0.546875q0.640625 0 1.0625 -0.5q0.421875 -0.515625 0.421875 -1.6875q0 -1.078125 -0.4375 -1.609375q-0.4375 -0.53125 -1.078125 -0.53125q-0.671875 0 -1.109375 0.515625q-0.4375 0.515625 -0.4375 1.53125zm7.7507324 -1.21875l-1.671875 -0.3125q0.28125 -1.0 0.96875 -1.46875q0.6875 -0.484375 2.03125 -0.484375q1.21875 0 1.8125 0.296875q0.609375 0.28125 0.84375 0.734375q0.25 0.4375 0.25 1.625l-0.015625 2.140625q0 0.90625 0.078125 1.34375q0.09375 0.421875 0.34375 0.921875l-1.8125 0q-0.078125 -0.1875 -0.171875 -0.546875q-0.046875 -0.15625 -0.078125 -0.203125q-0.46875 0.453125 -1.0 0.6875q-0.53125 0.21875 -1.140625 0.21875q-1.0625 0 -1.6875 -0.578125q-0.609375 -0.578125 -0.609375 -1.46875q0 -0.578125 0.28125 -1.03125q0.28125 -0.46875 0.78125 -0.703125q0.515625 -0.25 1.46875 -0.4375q1.28125 -0.234375 1.765625 -0.453125l0 -0.171875q0 -0.53125 -0.265625 -0.75q-0.25 -0.234375 -0.96875 -0.234375q-0.484375 0 -0.765625 0.203125q-0.265625 0.1875 -0.4375 0.671875zm2.4375 1.484375q-0.34375 0.109375 -1.109375 0.28125q-0.765625 0.15625 -1.0 0.3125q-0.359375 0.25 -0.359375 0.640625q0 0.390625 0.28125 0.671875q0.296875 0.28125 0.734375 0.28125q0.5 0 0.953125 -0.328125q0.328125 -0.25 0.4375 -0.609375q0.0625 -0.234375 0.0625 -0.890625l0 -0.359375zm9.631195 -1.5625l-1.796875 0.328125q-0.09375 -0.53125 -0.421875 -0.796875q-0.328125 -0.28125 -0.828125 -0.28125q-0.6875 0 -1.09375 0.46875q-0.40625 0.46875 -0.40625 1.578125q0 1.234375 0.40625 1.75q0.421875 0.5 1.109375 0.5q0.53125 0 0.859375 -0.296875q0.328125 -0.296875 0.46875 -1.03125l1.796875 0.3125q-0.28125 1.234375 -1.078125 1.875q-0.796875 0.625 -2.125 0.625q-1.515625 0 -2.421875 -0.953125q-0.90625 -0.953125 -0.90625 -2.65625q0 -1.703125 0.90625 -2.65625q0.90625 -0.953125 2.453125 -0.953125q1.265625 0 2.0 0.546875q0.75 0.53125 1.078125 1.640625zm5.3812256 2.671875l1.828125 0.3125q-0.34375 1.0 -1.109375 1.53125q-0.765625 0.515625 -1.890625 0.515625q-1.8125 0 -2.671875 -1.171875q-0.6875 -0.953125 -0.6875 -2.390625q0 -1.71875 0.890625 -2.6875q0.90625 -0.96875 2.28125 -0.96875q1.546875 0 2.4375 1.015625q0.890625 1.015625 0.84375 3.125l-4.578125 0q0.015625 0.8125 0.4375 1.265625q0.421875 0.453125 1.0625 0.453125q0.421875 0 0.71875 -0.234375q0.296875 -0.234375 0.4375 -0.765625zm0.109375 -1.84375q-0.015625 -0.796875 -0.40625 -1.203125q-0.390625 -0.421875 -0.953125 -0.421875q-0.59375 0 -0.984375 0.4375q-0.390625 0.4375 -0.390625 1.1875l2.734375 0z" fill-rule="nonzero"/><path fill="#000000" fill-opacity="0.0" d="m155.41339 74.84252l310.86615 0" fill-rule="evenodd"/><path stroke="#595959" stroke-width="2.0" stroke-linejoin="round" stroke-linecap="butt" stroke-dasharray="8.0,6.0" d="m155.41339 74.84252l310.86615 0" fill-rule="evenodd"/><path fill="#eeeeee" d="m242.95801 62.564304l195.3071 0l0 23.023624l-195.3071 0z" fill-rule="evenodd"/><path stroke="#595959" stroke-width="1.0" stroke-linejoin="round" stroke-linecap="butt" d="m242.95801 62.564304l195.3071 0l0 23.023624l-195.3071 0z" fill-rule="evenodd"/><path fill="#000000" d="m309.07773 78.969864q-1.03125 0 -1.84375 -0.328125q-0.8125 -0.34375 -1.296875 -0.984375q-0.484375 -0.65625 -0.515625 -1.578125l2.421875 0q0.046875 0.515625 0.359375 0.796875q0.3125 0.265625 0.796875 0.265625q0.515625 0 0.796875 -0.234375q0.296875 -0.234375 0.296875 -0.640625q0 -0.34375 -0.234375 -0.5625q-0.234375 -0.234375 -0.578125 -0.375q-0.328125 -0.15625 -0.953125 -0.34375q-0.90625 -0.28125 -1.484375 -0.5625q-0.578125 -0.28125 -0.984375 -0.828125q-0.40625 -0.546875 -0.40625 -1.421875q0 -1.3125 0.9375 -2.046875q0.953125 -0.734375 2.46875 -0.734375q1.546875 0 2.484375 0.734375q0.953125 0.734375 1.015625 2.0625l-2.46875 0q-0.015625 -0.453125 -0.328125 -0.703125q-0.3125 -0.265625 -0.78125 -0.265625q-0.421875 0 -0.671875 0.21875q-0.25 0.21875 -0.25 0.625q0 0.453125 0.421875 0.71875q0.4375 0.25 1.34375 0.53125q0.90625 0.3125 1.46875 0.59375q0.5625 0.28125 0.96875 0.8125q0.421875 0.53125 0.421875 1.375q0 0.796875 -0.40625 1.453125q-0.40625 0.640625 -1.1875 1.03125q-0.765625 0.390625 -1.8125 0.390625zm8.196777 0.015625q-1.09375 0 -1.96875 -0.46875q-0.875 -0.46875 -1.375 -1.328125q-0.5 -0.875 -0.5 -2.03125q0 -1.140625 0.5 -2.015625q0.515625 -0.875 1.390625 -1.34375q0.875 -0.46875 1.96875 -0.46875q1.09375 0 1.96875 0.46875q0.890625 0.46875 1.390625 1.34375q0.515625 0.875 0.515625 2.015625q0 1.140625 -0.515625 2.015625q-0.515625 0.875 -1.40625 1.34375q-0.890625 0.46875 -1.96875 0.46875zm0 -1.96875q0.640625 0 1.09375 -0.484375q0.46875 -0.484375 0.46875 -1.375q0 -0.890625 -0.453125 -1.375q-0.4375 -0.484375 -1.09375 -0.484375q-0.65625 0 -1.109375 0.484375q-0.4375 0.46875 -0.4375 1.375q0 0.890625 0.4375 1.375q0.4375 0.484375 1.09375 0.484375zm4.64624 -1.859375q0 -1.15625 0.46875 -2.015625q0.46875 -0.875 1.3125 -1.34375q0.859375 -0.46875 1.953125 -0.46875q1.390625 0 2.328125 0.734375q0.953125 0.734375 1.234375 2.0625l-2.421875 0q-0.3125 -0.84375 -1.1875 -0.84375q-0.625 0 -1.0 0.484375q-0.375 0.484375 -0.375 1.390625q0 0.90625 0.375 1.390625q0.375 0.484375 1.0 0.484375q0.875 0 1.1875 -0.84375l2.421875 0q-0.28125 1.296875 -1.234375 2.046875q-0.953125 0.75 -2.328125 0.75q-1.09375 0 -1.953125 -0.46875q-0.84375 -0.46875 -1.3125 -1.328125q-0.46875 -0.875 -0.46875 -2.03125zm13.063477 3.71875l-2.265625 -3.125l0 3.125l-2.28125 0l0 -9.859375l2.28125 0l0 5.453125l2.25 -3.03125l2.8125 0l-3.09375 3.734375l3.125 3.703125l-2.828125 0zm10.705505 -3.84375q0 0.328125 -0.046875 0.671875l-5.15625 0q0.046875 0.6875 0.4375 1.0625q0.40625 0.359375 0.96875 0.359375q0.859375 0 1.1875 -0.71875l2.421875 0q-0.171875 0.734375 -0.671875 1.328125q-0.484375 0.578125 -1.21875 0.921875q-0.734375 0.328125 -1.640625 0.328125q-1.09375 0 -1.953125 -0.46875q-0.84375 -0.46875 -1.328125 -1.328125q-0.46875 -0.875 -0.46875 -2.03125q0 -1.15625 0.46875 -2.015625q0.46875 -0.875 1.328125 -1.34375q0.859375 -0.46875 1.953125 -0.46875q1.09375 0 1.921875 0.453125q0.84375 0.453125 1.3125 1.296875q0.484375 0.84375 0.484375 1.953125zm-2.34375 -0.59375q0 -0.59375 -0.40625 -0.9375q-0.390625 -0.34375 -0.984375 -0.34375q-0.578125 0 -0.96875 0.34375q-0.390625 0.328125 -0.484375 0.9375l2.84375 0zm7.6788635 2.5l0 1.9375l-1.15625 0q-1.234375 0 -1.9375 -0.609375q-0.6875 -0.609375 -0.6875 -1.96875l0 -2.96875l-0.90625 0l0 -1.890625l0.90625 0l0 -1.8125l2.28125 0l0 1.8125l1.484375 0l0 1.890625l-1.484375 0l0 2.984375q0 0.34375 0.15625 0.484375q0.15625 0.140625 0.53125 0.140625l0.8125 0zm9.924225 0.28125l-3.5 0l-0.5625 1.65625l-2.375 0l3.375 -9.359375l2.640625 0l3.390625 9.359375l-2.421875 0l-0.546875 -1.65625zm-0.59375 -1.75l-1.15625 -3.4375l-1.140625 3.4375l2.296875 0zm11.713409 -2.9375q0 0.8125 -0.375 1.484375q-0.375 0.671875 -1.140625 1.09375q-0.765625 0.40625 -1.921875 0.40625l-1.40625 0l0 3.359375l-2.28125 0l0 -9.359375l3.6875 0q1.125 0 1.890625 0.390625q0.78125 0.390625 1.15625 1.078125q0.390625 0.671875 0.390625 1.546875zm-3.609375 1.171875q0.65625 0 0.96875 -0.296875q0.328125 -0.3125 0.328125 -0.875q0 -0.5625 -0.328125 -0.859375q-0.3125 -0.3125 -0.96875 -0.3125l-1.234375 0l0 2.34375l1.234375 0zm7.082367 -4.1875l0 9.359375l-2.28125 0l0 -9.359375l2.28125 0z" fill-rule="nonzero"/></g></svg>