<svg version="1.1" viewBox="0.0 0.0 607.8346456692914 283.62204724409446" fill="none" stroke="none" stroke-linecap="square" stroke-miterlimit="10" xmlns:xlink="http://www.w3.org/1999/xlink" xmlns="http://www.w3.org/2000/svg"><clipPath id="p.0"><path d="m0 0l607.83466 0l0 283.62204l-607.83466 0l0 -283.62204z" clip-rule="nonzero"/></clipPath><g clip-path="url(#p.0)"><path fill="#000000" fill-opacity="0.0" d="m0 0l607.83466 0l0 283.62204l-607.83466 0z" fill-rule="evenodd"/><path fill="#000000" fill-opacity="0.0" d="m27.490814 12.624672l557.6693 0l0 252.0315l-557.6693 0z" fill-rule="evenodd"/><path stroke="#b7b7b7" stroke-width="1.0" stroke-linejoin="round" stroke-linecap="butt" d="m27.490814 12.624672l557.6693 0l0 252.0315l-557.6693 0z" fill-rule="evenodd"/><path fill="#000000" d="m45.69394 34.42467l-2.28125 0l-3.8125 -5.765625l0 5.765625l-2.28125 0l0 -9.359375l2.28125 0l3.8125 5.796875l0 -5.796875l2.28125 0l0 9.359375zm5.0383453 0.109375q-1.09375 0 -1.96875 -0.46875q-0.875 -0.46875 -1.375 -1.328125q-0.5 -0.875 -0.5 -2.03125q0 -1.140625 0.5 -2.015625q0.515625 -0.875 1.390625 -1.34375q0.875 -0.46875 1.96875 -0.46875q1.09375 0 1.96875 0.46875q0.890625 0.46875 1.390625 1.34375q0.515625 0.875 0.515625 2.015625q0 1.140625 -0.515625 2.015625q-0.515625 0.875 -1.40625 1.34375q-0.890625 0.46875 -1.96875 0.46875zm0 -1.96875q0.640625 0 1.09375 -0.484375q0.46875 -0.484375 0.46875 -1.375q0 -0.890625 -0.453125 -1.375q-0.4375 -0.484375 -1.09375 -0.484375q-0.65625 0 -1.109375 0.484375q-0.4375 0.46875 -0.4375 1.375q0 0.890625 0.4375 1.375q0.4375 0.484375 1.09375 0.484375zm4.64624 -1.875q0 -1.140625 0.421875 -2.0q0.4375 -0.875 1.1875 -1.34375q0.75 -0.46875 1.671875 -0.46875q0.734375 0 1.328125 0.3125q0.609375 0.296875 0.953125 0.828125l0 -3.453125l2.28125 0l0 9.859375l-2.28125 0l0 -1.0625q-0.3125 0.53125 -0.90625 0.859375q-0.59375 0.3125 -1.375 0.3125q-0.921875 0 -1.671875 -0.46875q-0.75 -0.484375 -1.1875 -1.34375q-0.421875 -0.875 -0.421875 -2.03125zm5.5625 0.015625q0 -0.859375 -0.46875 -1.34375q-0.46875 -0.5 -1.15625 -0.5q-0.671875 0 -1.15625 0.5q-0.46875 0.484375 -0.46875 1.328125q0 0.859375 0.46875 1.359375q0.484375 0.5 1.15625 0.5q0.6875 0 1.15625 -0.484375q0.46875 -0.5 0.46875 -1.359375zm10.956009 -0.125q0 0.328125 -0.046875 0.671875l-5.15625 0q0.046875 0.6875 0.4375 1.0625q0.40625 0.359375 0.96875 0.359375q0.859375 0 1.1875 -0.71875l2.421875 0q-0.171875 0.734375 -0.671875 1.328125q-0.484375 0.578125 -1.21875 0.921875q-0.734375 0.328125 -1.640625 0.328125q-1.09375 0 -1.953125 -0.46875q-0.84375 -0.46875 -1.328125 -1.328125q-0.46875 -0.875 -0.46875 -2.03125q0 -1.15625 0.46875 -2.015625q0.46875 -0.875 1.328125 -1.34375q0.859375 -0.46875 1.953125 -0.46875q1.09375 0 1.921875 0.453125q0.84375 0.453125 1.3125 1.296875q0.484375 0.84375 0.484375 1.953125zm-2.34375 -0.59375q0 -0.59375 -0.40625 -0.9375q-0.390625 -0.34375 -0.984375 -0.34375q-0.578125 0 -0.96875 0.34375q-0.390625 0.328125 -0.484375 0.9375l2.84375 0z" fill-rule="nonzero"/><path fill="#eeeeee" d="m8.175853 57.6063l55.842518 0l0 40.0l-55.842518 0z" fill-rule="evenodd"/><path stroke="#595959" stroke-width="1.0" stroke-linejoin="round" stroke-linecap="butt" d="m8.175853 57.6063l55.842518 0l0 40.0l-55.842518 0z" fill-rule="evenodd"/><path fill="#000000" d="m28.2937 78.562546q0 0.328125 -0.046875 0.671875l-5.15625 0q0.046875 0.6875 0.4375 1.0625q0.40625 0.359375 0.96875 0.359375q0.859375 0 1.1875 -0.71875l2.421875 0q-0.171875 0.734375 -0.671875 1.328125q-0.484375 0.578125 -1.21875 0.921875q-0.734375 0.328125 -1.640625 0.328125q-1.09375 0 -1.953125 -0.46875q-0.84375 -0.46875 -1.328125 -1.328125q-0.46875 -0.875 -0.46875 -2.03125q0 -1.15625 0.46875 -2.015625q0.46875 -0.875 1.328125 -1.34375q0.859375 -0.46875 1.953125 -0.46875q1.09375 0 1.921875 0.453125q0.84375 0.453125 1.3125 1.296875q0.484375 0.84375 0.484375 1.953125zm-2.34375 -0.59375q0 -0.59375 -0.40625 -0.9375q-0.390625 -0.34375 -0.984375 -0.34375q-0.578125 0 -0.96875 0.34375q-0.390625 0.328125 -0.484375 0.9375l2.84375 0zm7.6788464 2.5l0 1.9375l-1.15625 0q-1.2343731 0 -1.9374981 -0.609375q-0.6875 -0.609375 -0.6875 -1.96875l0 -2.96875l-0.90625 0l0 -1.890625l0.90625 0l0 -1.8125l2.281248 0l0 1.8125l1.484375 0l0 1.890625l-1.484375 0l0 2.984375q0 0.34375 0.15625 0.484375q0.15625 0.140625 0.53125 0.140625l0.8125 0zm5.833069 -5.578125q1.28125 0 2.046875 0.84375q0.78125 0.84375 0.78125 2.328125l0 4.34375l-2.265625 0l0 -4.03125q0 -0.75 -0.390625 -1.15625q-0.375 -0.421875 -1.03125 -0.421875q-0.65625 0 -1.046875 0.421875q-0.375 0.40625 -0.375 1.15625l0 4.03125l-2.28125 0l0 -9.859375l2.28125 0l0 3.421875q0.34375 -0.5 0.9375 -0.78125q0.609375 -0.296875 1.34375 -0.296875zm4.186249 2.515625q0 -2.296875 0.890625 -3.609375q0.890625 -1.3125 2.859375 -1.3125q1.96875 0 2.859375 1.3125q0.890625 1.3125 0.890625 3.609375q0 2.328125 -0.890625 3.640625q-0.890625 1.3125 -2.859375 1.3125q-1.96875 0 -2.859375 -1.3125q-0.890625 -1.3125 -0.890625 -3.640625zm5.25 0q0 -1.34375 -0.296875 -2.0625q-0.28125 -0.734375 -1.203125 -0.734375q-0.921875 0 -1.21875 0.734375q-0.28125 0.71875 -0.28125 2.0625q0 0.90625 0.09375 1.5q0.109375 0.59375 0.4375 0.96875q0.328125 0.359375 0.96875 0.359375q0.640625 0 0.96875 -0.359375q0.328125 -0.375 0.421875 -0.96875q0.109375 -0.59375 0.109375 -1.5z" fill-rule="nonzero"/><path fill="#f6b26b" d="m244.87654 128.02362l102.74016 0l0 76.50394l-102.74016 0z" fill-rule="evenodd"/><path stroke="#595959" stroke-width="1.0" stroke-linejoin="round" stroke-linecap="butt" d="m244.87654 128.02362l102.74016 0l0 76.50394l-102.74016 0z" fill-rule="evenodd"/><path fill="#000000" d="m260.36093 145.02675q0.8125 0.171875 1.3125 0.8125q0.5 0.625 0.5 1.4375q0 1.171875 -0.828125 1.859375q-0.8125 0.6875 -2.28125 0.6875l-4.3593903 0l0 -9.359375l4.2031403 0q1.4375 0 2.234375 0.65625q0.8125 0.65625 0.8125 1.765625q0 0.828125 -0.4375 1.375q-0.4375 0.546875 -1.15625 0.765625zm-3.375 -0.78125l1.484375 0q0.5625 0 0.859375 -0.234375q0.296875 -0.25 0.296875 -0.734375q0 -0.484375 -0.296875 -0.734375q-0.296875 -0.25 -0.859375 -0.25l-1.484375 0l0 1.953125zm1.671875 3.734375q0.578125 0 0.890625 -0.25q0.3125 -0.265625 0.3125 -0.765625q0 -0.484375 -0.328125 -0.765625q-0.328125 -0.28125 -0.890625 -0.28125l-1.65625 0l0 2.0625l1.671875 0zm11.955078 -4.5q0 0.8125 -0.375 1.484375q-0.375 0.671875 -1.140625 1.09375q-0.765625 0.40625 -1.921875 0.40625l-1.40625 0l0 3.359375l-2.28125 0l0 -9.359375l3.6875 0q1.125 0 1.890625 0.390625q0.78125 0.390625 1.15625 1.078125q0.390625 0.671875 0.390625 1.546875zm-3.609375 1.171875q0.65625 0 0.96875 -0.296875q0.328125 -0.3125 0.328125 -0.875q0 -0.5625 -0.328125 -0.859375q-0.3125 -0.3125 -0.96875 -0.3125l-1.234375 0l0 2.34375l1.234375 0zm10.894836 -4.1875l0 1.828125l-3.8125 0l0 1.96875l2.84375 0l0 1.78125l-2.84375 0l0 3.78125l-2.28125 0l0 -9.359375l6.09375 0zm3.5691223 5.640625q0 -1.15625 0.46875 -2.015625q0.46875 -0.875 1.3125 -1.34375q0.859375 -0.46875 1.953125 -0.46875q1.390625 0 2.328125 0.734375q0.953125 0.734375 1.234375 2.0625l-2.421875 0q-0.3125 -0.84375 -1.1875 -0.84375q-0.625 0 -1.0 0.484375q-0.375 0.484375 -0.375 1.390625q0 0.90625 0.375 1.390625q0.375 0.484375 1.0 0.484375q0.875 0 1.1875 -0.84375l2.421875 0q-0.28125 1.296875 -1.234375 2.046875q-0.953125 0.75 -2.328125 0.75q-1.09375 0 -1.953125 -0.46875q-0.84375 -0.46875 -1.3125 -1.328125q-0.46875 -0.875 -0.46875 -2.03125zm11.907257 3.828125q-1.09375 0 -1.96875 -0.46875q-0.875 -0.46875 -1.375 -1.328125q-0.5 -0.875 -0.5 -2.03125q0 -1.140625 0.5 -2.015625q0.515625 -0.875 1.390625 -1.34375q0.875 -0.46875 1.96875 -0.46875q1.09375 0 1.96875 0.46875q0.890625 0.46875 1.390625 1.34375q0.515625 0.875 0.515625 2.015625q0 1.140625 -0.515625 2.015625q-0.515625 0.875 -1.40625 1.34375q-0.890625 0.46875 -1.96875 0.46875zm0 -1.96875q0.640625 0 1.09375 -0.484375q0.46875 -0.484375 0.46875 -1.375q0 -0.890625 -0.453125 -1.375q-0.4375 -0.484375 -1.09375 -0.484375q-0.65625 0 -1.109375 0.484375q-0.4375 0.46875 -0.4375 1.375q0 0.890625 0.4375 1.375q0.4375 0.484375 1.09375 0.484375zm9.630615 -5.65625q1.296875 0 2.078125 0.84375q0.78125 0.84375 0.78125 2.328125l0 4.34375l-2.265625 0l0 -4.03125q0 -0.75 -0.390625 -1.15625q-0.375 -0.421875 -1.03125 -0.421875q-0.65625 0 -1.046875 0.421875q-0.375 0.40625 -0.375 1.15625l0 4.03125l-2.28125 0l0 -7.4375l2.28125 0l0 0.984375q0.34375 -0.484375 0.921875 -0.765625q0.59375 -0.296875 1.328125 -0.296875zm8.983124 0q1.296875 0 2.078125 0.84375q0.78125 0.84375 0.78125 2.328125l0 4.34375l-2.265625 0l0 -4.03125q0 -0.75 -0.390625 -1.15625q-0.375 -0.421875 -1.03125 -0.421875q-0.65625 0 -1.046875 0.421875q-0.375 0.40625 -0.375 1.15625l0 4.03125l-2.28125 0l0 -7.4375l2.28125 0l0 0.984375q0.34375 -0.484375 0.921875 -0.765625q0.59375 -0.296875 1.328125 -0.296875zm11.467499 3.671875q0 0.328125 -0.046875 0.671875l-5.15625 0q0.046875 0.6875 0.4375 1.0625q0.40625 0.359375 0.96875 0.359375q0.859375 0 1.1875 -0.71875l2.421875 0q-0.171875 0.734375 -0.671875 1.328125q-0.484375 0.578125 -1.21875 0.921875q-0.734375 0.328125 -1.640625 0.328125q-1.09375 0 -1.953125 -0.46875q-0.84375 -0.46875 -1.328125 -1.328125q-0.46875 -0.875 -0.46875 -2.03125q0 -1.15625 0.46875 -2.015625q0.46875 -0.875 1.328125 -1.34375q0.859375 -0.46875 1.953125 -0.46875q1.09375 0 1.921875 0.453125q0.84375 0.453125 1.3125 1.296875q0.484375 0.84375 0.484375 1.953125zm-2.34375 -0.59375q0 -0.59375 -0.40625 -0.9375q-0.390625 -0.34375 -0.984375 -0.34375q-0.578125 0 -0.96875 0.34375q-0.390625 0.328125 -0.484375 0.9375l2.84375 0zm3.085083 0.71875q0 -1.15625 0.46875 -2.015625q0.46875 -0.875 1.3125 -1.34375q0.859375 -0.46875 1.953125 -0.46875q1.390625 0 2.328125 0.734375q0.953125 0.734375 1.234375 2.0625l-2.421875 0q-0.3125 -0.84375 -1.1875 -0.84375q-0.625 0 -1.0 0.484375q-0.375 0.484375 -0.375 1.390625q0 0.90625 0.375 1.390625q0.375 0.484375 1.0 0.484375q0.875 0 1.1875 -0.84375l2.421875 0q-0.28125 1.296875 -1.234375 2.046875q-0.953125 0.75 -2.328125 0.75q-1.09375 0 -1.953125 -0.46875q-0.84375 -0.46875 -1.3125 -1.328125q-0.46875 -0.875 -0.46875 -2.03125zm12.657257 1.78125l0 1.9375l-1.15625 0q-1.234375 0 -1.9375 -0.609375q-0.6875 -0.609375 -0.6875 -1.96875l0 -2.96875l-0.90625 0l0 -1.890625l0.90625 0l0 -1.8125l2.28125 0l0 1.8125l1.484375 0l0 1.890625l-1.484375 0l0 2.984375q0 0.34375 0.15625 0.484375q0.15625 0.140625 0.53125 0.140625l0.8125 0z" fill-rule="nonzero"/><path fill="#eeeeee" d="m244.87624 46.440945l195.30708 0l0 58.110233l-195.30708 0z" fill-rule="evenodd"/><path stroke="#595959" stroke-width="1.0" stroke-linejoin="round" stroke-linecap="butt" d="m244.87624 46.440945l195.30708 0l0 58.110233l-195.30708 0z" fill-rule="evenodd"/><path fill="#000000" d="m320.26816 73.95232q0 0.8125 -0.375 1.484375q-0.375 0.671875 -1.140625 1.09375q-0.765625 0.40625 -1.921875 0.40625l-1.40625 0l0 3.359375l-2.28125 0l0 -9.359375l3.6875 0q1.125 0 1.890625 0.390625q0.78125 0.390625 1.15625 1.078125q0.390625 0.671875 0.390625 1.546875zm-3.609375 1.171875q0.65625 0 0.96875 -0.296875q0.328125 -0.3125 0.328125 -0.875q0 -0.5625 -0.328125 -0.859375q-0.3125 -0.3125 -0.96875 -0.3125l-1.234375 0l0 2.34375l1.234375 0zm7.0823364 -1.03125q0.390625 -0.609375 0.984375 -0.953125q0.609375 -0.359375 1.34375 -0.359375l0 2.40625l-0.625 0q-0.859375 0 -1.28125 0.375q-0.421875 0.359375 -0.421875 1.28125l0 3.453125l-2.28125 0l0 -7.4375l2.28125 0l0 1.234375zm6.8138123 6.3125q-1.09375 0 -1.96875 -0.46875q-0.875 -0.46875 -1.375 -1.328125q-0.5 -0.875 -0.5 -2.03125q0 -1.140625 0.5 -2.015625q0.515625 -0.875 1.390625 -1.34375q0.875 -0.46875 1.96875 -0.46875q1.09375 0 1.96875 0.46875q0.890625 0.46875 1.390625 1.34375q0.515625 0.875 0.515625 2.015625q0 1.140625 -0.515625 2.015625q-0.515625 0.875 -1.40625 1.34375q-0.890625 0.46875 -1.96875 0.46875zm0 -1.96875q0.640625 0 1.09375 -0.484375q0.46875 -0.484375 0.46875 -1.375q0 -0.890625 -0.453125 -1.375q-0.4375 -0.484375 -1.09375 -0.484375q-0.65625 0 -1.109375 0.484375q-0.4375 0.46875 -0.4375 1.375q0 0.890625 0.4375 1.375q0.4375 0.484375 1.09375 0.484375zm7.92749 -5.6875q0.78125 0 1.375 0.328125q0.59375 0.3125 0.90625 0.828125l0 -1.046875l2.28125 0l0 7.421875q0 1.03125 -0.40625 1.859375q-0.40625 0.828125 -1.234375 1.328125q-0.828125 0.5 -2.078125 0.5q-1.640625 0 -2.671875 -0.78125q-1.03125 -0.78125 -1.171875 -2.125l2.25 0q0.109375 0.4375 0.5 0.671875q0.40625 0.25 0.984375 0.25q0.71875 0 1.125 -0.40625q0.421875 -0.40625 0.421875 -1.296875l0 -1.046875q-0.328125 0.515625 -0.921875 0.84375q-0.578125 0.328125 -1.359375 0.328125q-0.921875 0 -1.671875 -0.46875q-0.75 -0.484375 -1.1875 -1.34375q-0.421875 -0.875 -0.421875 -2.03125q0 -1.140625 0.421875 -2.0q0.4375 -0.875 1.1875 -1.34375q0.75 -0.46875 1.671875 -0.46875zm2.28125 3.828125q0 -0.859375 -0.46875 -1.34375q-0.46875 -0.5 -1.15625 -0.5q-0.671875 0 -1.15625 0.5q-0.46875 0.484375 -0.46875 1.328125q0 0.859375 0.46875 1.359375q0.484375 0.5 1.15625 0.5q0.6875 0 1.15625 -0.484375q0.46875 -0.5 0.46875 -1.359375zm6.2216187 -2.484375q0.390625 -0.609375 0.984375 -0.953125q0.609375 -0.359375 1.34375 -0.359375l0 2.40625l-0.625 0q-0.859375 0 -1.28125 0.375q-0.421875 0.359375 -0.421875 1.28125l0 3.453125l-2.28125 0l0 -7.4375l2.28125 0l0 1.234375zm2.9700623 2.46875q0 -1.140625 0.421875 -2.0q0.4375 -0.875 1.1875 -1.34375q0.75 -0.46875 1.671875 -0.46875q0.78125 0 1.375 0.328125q0.59375 0.3125 0.90625 0.828125l0 -1.046875l2.28125 0l0 7.4375l-2.28125 0l0 -1.046875q-0.328125 0.515625 -0.921875 0.84375q-0.59375 0.3125 -1.375 0.3125q-0.90625 0 -1.65625 -0.46875q-0.75 -0.484375 -1.1875 -1.34375q-0.421875 -0.875 -0.421875 -2.03125zm5.5625 0.015625q0 -0.859375 -0.46875 -1.34375q-0.46875 -0.5 -1.15625 -0.5q-0.671875 0 -1.15625 0.5q-0.46875 0.484375 -0.46875 1.328125q0 0.859375 0.46875 1.359375q0.484375 0.5 1.15625 0.5q0.6875 0 1.15625 -0.484375q0.46875 -0.5 0.46875 -1.359375zm13.424744 -3.796875q1.390625 0 2.203125 0.84375q0.828125 0.828125 0.828125 2.328125l0 4.34375l-2.265625 0l0 -4.03125q0 -0.734375 -0.390625 -1.125q-0.375 -0.390625 -1.03125 -0.390625q-0.671875 0 -1.0625 0.390625q-0.375 0.390625 -0.375 1.125l0 4.03125l-2.265625 0l0 -4.03125q0 -0.734375 -0.375 -1.125q-0.375 -0.390625 -1.046875 -0.390625q-0.671875 0 -1.046875 0.390625q-0.375 0.390625 -0.375 1.125l0 4.03125l-2.28125 0l0 -7.4375l2.28125 0l0 0.9375q0.34375 -0.46875 0.90625 -0.734375q0.5625 -0.28125 1.265625 -0.28125q0.84375 0 1.5 0.359375q0.65625 0.359375 1.03125 1.03125q0.390625 -0.625 1.046875 -1.0q0.671875 -0.390625 1.453125 -0.390625z" fill-rule="nonzero"/><path fill="#f6b26b" d="m217.05556 221.61548l0 0c0 -3.6818848 9.738098 -6.6666565 21.750656 -6.6666565c12.012558 0 21.75064 2.9847717 21.75064 6.6666565l0 26.666672c0 3.6819 -9.738083 6.6666718 -21.75064 6.6666718c-12.012558 0 -21.750656 -2.9847717 -21.750656 -6.6666718z" fill-rule="evenodd"/><path fill="#000000" fill-opacity="0.0" d="m260.55685 221.61548l0 0c0 3.6819 -9.738083 6.6666718 -21.75064 6.6666718c-12.012558 0 -21.750656 -2.9847717 -21.750656 -6.6666718" fill-rule="evenodd"/><path fill="#000000" fill-opacity="0.0" d="m217.05556 221.61548l0 0c0 -3.6818848 9.738098 -6.6666565 21.750656 -6.6666565c12.012558 0 21.75064 2.9847717 21.75064 6.6666565l0 26.666672c0 3.6819 -9.738083 6.6666718 -21.75064 6.6666718c-12.012558 0 -21.750656 -2.9847717 -21.750656 -6.6666718z" fill-rule="evenodd"/><path stroke="#000000" stroke-width="1.0" stroke-linejoin="round" stroke-linecap="butt" d="m260.55685 221.61548l0 0c0 3.6819 -9.738083 6.6666718 -21.75064 6.6666718c-12.012558 0 -21.750656 -2.9847717 -21.750656 -6.6666718" fill-rule="evenodd"/><path stroke="#000000" stroke-width="1.0" stroke-linejoin="round" stroke-linecap="butt" d="m217.05556 221.61548l0 0c0 -3.6818848 9.738098 -6.6666565 21.750656 -6.6666565c12.012558 0 21.75064 2.9847717 21.75064 6.6666565l0 26.666672c0 3.6819 -9.738083 6.6666718 -21.75064 6.6666718c-12.012558 0 -21.750656 -2.9847717 -21.750656 -6.6666718z" fill-rule="evenodd"/><path fill="#000000" d="m236.13431 235.96216l-0.734375 0l-2.921875 -4.4375l0 4.4375l-0.734375 0l0 -5.578125l0.734375 0l2.921875 4.421875l0 -4.421875l0.734375 0l0 5.578125zm4.530182 -1.234375l-2.421875 0l-0.453125 1.234375l-0.765625 0l2.015625 -5.546875l0.84375 0l2.0 5.546875l-0.765625 0l-0.453125 -1.234375zm-0.203125 -0.59375l-1.0 -2.8125l-1.015625 2.8125l2.015625 0zm5.7356873 -3.75l0 0.59375l-1.515625 0l0 4.984375l-0.734375 0l0 -4.984375l-1.53125 0l0 -0.59375l3.78125 0z" fill-rule="nonzero"/><path fill="#000000" d="m231.82858 242.18091l-0.921875 0l0 3.78125l-0.734375 0l0 -3.78125l-0.5625 0l0 -0.609375l0.5625 0l0 -0.3125q0 -0.734375 0.375 -1.0625q0.390625 -0.34375 1.234375 -0.34375l0 0.609375q-0.484375 0 -0.6875 0.1875q-0.1875 0.1875 -0.1875 0.609375l0 0.3125l0.921875 0l0 0.609375zm1.5694733 0.109375q0.1875 -0.375 0.546875 -0.578125q0.359375 -0.21875 0.875 -0.21875l0 0.75l-0.203125 0q-1.21875 0 -1.21875 1.328125l0 2.390625l-0.734375 0l0 -4.390625l0.734375 0l0 0.71875zm4.171463 3.75q-0.625 0 -1.125 -0.28125q-0.5 -0.28125 -0.78125 -0.796875q-0.28125 -0.515625 -0.28125 -1.203125q0 -0.671875 0.28125 -1.1875q0.296875 -0.515625 0.796875 -0.78125q0.515625 -0.28125 1.140625 -0.28125q0.625 0 1.125 0.28125q0.5 0.265625 0.796875 0.78125q0.296875 0.515625 0.296875 1.1875q0 0.6875 -0.3125 1.203125q-0.296875 0.515625 -0.8125 0.796875q-0.5 0.28125 -1.125 0.28125zm0 -0.640625q0.390625 0 0.734375 -0.1875q0.34375 -0.1875 0.546875 -0.546875q0.21875 -0.375 0.21875 -0.90625q0 -0.53125 -0.21875 -0.890625q-0.203125 -0.375 -0.546875 -0.546875q-0.328125 -0.1875 -0.71875 -0.1875q-0.390625 0 -0.734375 0.1875q-0.328125 0.171875 -0.53125 0.546875q-0.1875 0.359375 -0.1875 0.890625q0 0.546875 0.1875 0.921875q0.203125 0.359375 0.53125 0.546875q0.328125 0.171875 0.71875 0.171875zm5.338684 -3.90625q0.796875 0 1.296875 0.484375q0.5 0.484375 0.5 1.40625l0 2.578125l-0.71875 0l0 -2.484375q0 -0.65625 -0.328125 -1.0q-0.328125 -0.34375 -0.90625 -0.34375q-0.5625 0 -0.90625 0.359375q-0.34375 0.359375 -0.34375 1.046875l0 2.421875l-0.734375 0l0 -4.390625l0.734375 0l0 0.625q0.21875 -0.328125 0.578125 -0.515625q0.375 -0.1875 0.828125 -0.1875zm3.869934 0.6875l0 2.578125q0 0.328125 0.140625 0.46875q0.140625 0.125 0.46875 0.125l0.53125 0l0 0.609375l-0.65625 0q-0.59375 0 -0.90625 -0.28125q-0.296875 -0.28125 -0.296875 -0.921875l0 -2.578125l-0.578125 0l0 -0.609375l0.578125 0l0 -1.09375l0.71875 0l0 1.09375l1.140625 0l0 0.609375l-1.140625 0z" fill-rule="nonzero"/><path fill="#f6b26b" d="m269.23315 221.61548l0 0c0 -3.6818848 9.738098 -6.6666565 21.750671 -6.6666565c12.012543 0 21.75064 2.9847717 21.75064 6.6666565l0 26.666672c0 3.6819 -9.738098 6.6666718 -21.75064 6.6666718c-12.012573 0 -21.750671 -2.9847717 -21.750671 -6.6666718z" fill-rule="evenodd"/><path fill="#000000" fill-opacity="0.0" d="m312.73447 221.61548l0 0c0 3.6819 -9.738098 6.6666718 -21.75064 6.6666718c-12.012573 0 -21.750671 -2.9847717 -21.750671 -6.6666718" fill-rule="evenodd"/><path fill="#000000" fill-opacity="0.0" d="m269.23315 221.61548l0 0c0 -3.6818848 9.738098 -6.6666565 21.750671 -6.6666565c12.012543 0 21.75064 2.9847717 21.75064 6.6666565l0 26.666672c0 3.6819 -9.738098 6.6666718 -21.75064 6.6666718c-12.012573 0 -21.750671 -2.9847717 -21.750671 -6.6666718z" fill-rule="evenodd"/><path stroke="#000000" stroke-width="1.0" stroke-linejoin="round" stroke-linecap="butt" d="m312.73447 221.61548l0 0c0 3.6819 -9.738098 6.6666718 -21.75064 6.6666718c-12.012573 0 -21.750671 -2.9847717 -21.750671 -6.6666718" fill-rule="evenodd"/><path stroke="#000000" stroke-width="1.0" stroke-linejoin="round" stroke-linecap="butt" d="m269.23315 221.61548l0 0c0 -3.6818848 9.738098 -6.6666565 21.750671 -6.6666565c12.012543 0 21.75064 2.9847717 21.75064 6.6666565l0 26.666672c0 3.6819 -9.738098 6.6666718 -21.75064 6.6666718c-12.012573 0 -21.750671 -2.9847717 -21.750671 -6.6666718z" fill-rule="evenodd"/><path fill="#000000" d="m288.31192 235.96216l-0.734375 0l-2.921875 -4.4375l0 4.4375l-0.734375 0l0 -5.578125l0.734375 0l2.921875 4.421875l0 -4.421875l0.734375 0l0 5.578125zm4.530182 -1.234375l-2.421875 0l-0.453125 1.234375l-0.765625 0l2.015625 -5.546875l0.84375 0l2.0 5.546875l-0.765625 0l-0.453125 -1.234375zm-0.203125 -0.59375l-1.0 -2.8125l-1.015625 2.8125l2.015625 0zm5.7356873 -3.75l0 0.59375l-1.515625 0l0 4.984375l-0.734375 0l0 -4.984375l-1.53125 0l0 -0.59375l3.78125 0z" fill-rule="nonzero"/><path fill="#000000" d="m282.4317 242.39966q0.21875 -0.390625 0.65625 -0.640625q0.4375 -0.25 0.984375 -0.25q0.59375 0 1.0625 0.28125q0.46875 0.28125 0.734375 0.796875q0.28125 0.5 0.28125 1.171875q0 0.65625 -0.28125 1.1875q-0.265625 0.515625 -0.75 0.8125q-0.46875 0.28125 -1.046875 0.28125q-0.5625 0 -1.0 -0.25q-0.421875 -0.25 -0.640625 -0.640625l0 0.8125l-0.734375 0l0 -5.921875l0.734375 0l0 2.359375zm2.96875 1.359375q0 -0.5 -0.203125 -0.859375q-0.1875 -0.375 -0.53125 -0.5625q-0.34375 -0.203125 -0.75 -0.203125q-0.390625 0 -0.734375 0.203125q-0.34375 0.1875 -0.546875 0.5625q-0.203125 0.375 -0.203125 0.859375q0 0.5 0.203125 0.875q0.203125 0.375 0.546875 0.578125q0.34375 0.1875 0.734375 0.1875q0.40625 0 0.75 -0.1875q0.34375 -0.203125 0.53125 -0.578125q0.203125 -0.375 0.203125 -0.875zm1.4391785 0q0 -0.671875 0.265625 -1.171875q0.28125 -0.515625 0.75 -0.796875q0.484375 -0.28125 1.0625 -0.28125q0.578125 0 1.0 0.25q0.421875 0.25 0.640625 0.625l0 -0.8125l0.734375 0l0 4.390625l-0.734375 0l0 -0.8125q-0.21875 0.375 -0.65625 0.640625q-0.421875 0.25 -0.984375 0.25q-0.59375 0 -1.0625 -0.28125q-0.46875 -0.296875 -0.75 -0.8125q-0.265625 -0.53125 -0.265625 -1.1875zm3.71875 0q0 -0.5 -0.203125 -0.859375q-0.203125 -0.375 -0.546875 -0.5625q-0.34375 -0.203125 -0.75 -0.203125q-0.40625 0 -0.75 0.203125q-0.328125 0.1875 -0.53125 0.5625q-0.1875 0.359375 -0.1875 0.859375q0 0.5 0.1875 0.875q0.203125 0.375 0.53125 0.578125q0.34375 0.1875 0.75 0.1875q0.40625 0 0.75 -0.1875q0.34375 -0.203125 0.546875 -0.578125q0.203125 -0.375 0.203125 -0.875zm1.6891785 0q0 -0.671875 0.265625 -1.171875q0.28125 -0.515625 0.765625 -0.796875q0.484375 -0.28125 1.109375 -0.28125q0.796875 0 1.328125 0.390625q0.53125 0.390625 0.6875 1.09375l-0.78125 0q-0.109375 -0.40625 -0.4375 -0.640625q-0.328125 -0.234375 -0.796875 -0.234375q-0.625 0 -1.015625 0.4375q-0.375 0.421875 -0.375 1.203125q0 0.796875 0.375 1.234375q0.390625 0.421875 1.015625 0.421875q0.46875 0 0.78125 -0.21875q0.328125 -0.21875 0.453125 -0.640625l0.78125 0q-0.171875 0.671875 -0.703125 1.078125q-0.53125 0.40625 -1.3125 0.40625q-0.625 0 -1.109375 -0.28125q-0.484375 -0.28125 -0.765625 -0.796875q-0.265625 -0.515625 -0.265625 -1.203125zm7.5746765 2.203125l-1.71875 -1.9375l0 1.9375l-0.734375 0l0 -5.921875l0.734375 0l0 3.484375l1.6875 -1.953125l1.015625 0l-2.0625 2.1875l2.078125 2.203125l-1.0 0z" fill-rule="nonzero"/><path fill="#f6b26b" d="m248.47244 157.06036l92.09448 0l0 38.86615l-92.09448 0z" fill-rule="evenodd"/><path stroke="#595959" stroke-width="1.0" stroke-linejoin="round" stroke-linecap="butt" d="m248.47244 157.06036l92.09448 0l0 38.86615l-92.09448 0z" fill-rule="evenodd"/><path fill="#000000" d="m267.67035 181.29344l-2.28125 0l-3.8125 -5.765625l0 5.765625l-2.28125 0l0 -9.359375l2.28125 0l3.8125 5.796875l0 -5.796875l2.28125 0l0 9.359375zm7.4758606 -1.65625l-3.5 0l-0.5625 1.65625l-2.375 0l3.375 -9.359375l2.640625 0l3.390625 9.359375l-2.421875 0l-0.546875 -1.65625zm-0.59375 -1.75l-1.15625 -3.4375l-1.140625 3.4375l2.296875 0zm11.322784 -5.953125l0 1.828125l-2.484375 0l0 7.53125l-2.28125 0l0 -7.53125l-2.484375 0l0 -1.828125l7.25 0zm3.514923 5.640625q0 -1.15625 0.46875 -2.015625q0.46875 -0.875 1.3125 -1.34375q0.859375 -0.46875 1.953125 -0.46875q1.390625 0 2.328125 0.734375q0.953125 0.734375 1.234375 2.0625l-2.421875 0q-0.3125 -0.84375 -1.1875 -0.84375q-0.625 0 -1.0 0.484375q-0.375 0.484375 -0.375 1.390625q0 0.90625 0.375 1.390625q0.375 0.484375 1.0 0.484375q0.875 0 1.1875 -0.84375l2.421875 0q-0.28125 1.296875 -1.234375 2.046875q-0.953125 0.75 -2.328125 0.75q-1.09375 0 -1.953125 -0.46875q-0.84375 -0.46875 -1.3125 -1.328125q-0.46875 -0.875 -0.46875 -2.03125zm13.079132 -3.796875q1.28125 0 2.046875 0.84375q0.78125 0.84375 0.78125 2.328125l0 4.34375l-2.265625 0l0 -4.03125q0 -0.75 -0.390625 -1.15625q-0.375 -0.421875 -1.03125 -0.421875q-0.65625 0 -1.046875 0.421875q-0.375 0.40625 -0.375 1.15625l0 4.03125l-2.28125 0l0 -9.859375l2.28125 0l0 3.421875q0.34375 -0.5 0.9375 -0.78125q0.609375 -0.296875 1.34375 -0.296875zm11.436249 3.671875q0 0.328125 -0.046875 0.671875l-5.15625 0q0.046875 0.6875 0.4375 1.0625q0.40625 0.359375 0.96875 0.359375q0.859375 0 1.1875 -0.71875l2.421875 0q-0.171875 0.734375 -0.671875 1.328125q-0.484375 0.578125 -1.21875 0.921875q-0.734375 0.328125 -1.640625 0.328125q-1.09375 0 -1.953125 -0.46875q-0.84375 -0.46875 -1.328125 -1.328125q-0.46875 -0.875 -0.46875 -2.03125q0 -1.15625 0.46875 -2.015625q0.46875 -0.875 1.328125 -1.34375q0.859375 -0.46875 1.953125 -0.46875q1.09375 0 1.921875 0.453125q0.84375 0.453125 1.3125 1.296875q0.484375 0.84375 0.484375 1.953125zm-2.34375 -0.59375q0 -0.59375 -0.40625 -0.9375q-0.390625 -0.34375 -0.984375 -0.34375q-0.578125 0 -0.96875 0.34375q-0.390625 0.328125 -0.484375 0.9375l2.84375 0zm3.085083 0.71875q0 -1.15625 0.46875 -2.015625q0.46875 -0.875 1.3125 -1.34375q0.859375 -0.46875 1.953125 -0.46875q1.390625 0 2.328125 0.734375q0.953125 0.734375 1.234375 2.0625l-2.421875 0q-0.3125 -0.84375 -1.1875 -0.84375q-0.625 0 -1.0 0.484375q-0.375 0.484375 -0.375 1.390625q0 0.90625 0.375 1.390625q0.375 0.484375 1.0 0.484375q0.875 0 1.1875 -0.84375l2.421875 0q-0.28125 1.296875 -1.234375 2.046875q-0.953125 0.75 -2.328125 0.75q-1.09375 0 -1.953125 -0.46875q-0.84375 -0.46875 -1.3125 -1.328125q-0.46875 -0.875 -0.46875 -2.03125zm13.063507 3.71875l-2.265625 -3.125l0 3.125l-2.28125 0l0 -9.859375l2.28125 0l0 5.453125l2.25 -3.03125l2.8125 0l-3.09375 3.734375l3.125 3.703125l-2.828125 0z" fill-rule="nonzero"/><path fill="#000000" fill-opacity="0.0" d="m294.51968 195.92651l-55.716537 19.02362" fill-rule="evenodd"/><path stroke="#595959" stroke-width="2.0" stroke-linejoin="round" stroke-linecap="butt" d="m294.51968 195.92651l-44.36023 15.146179" fill-rule="evenodd"/><path fill="#595959" stroke="#595959" stroke-width="2.0" stroke-linecap="butt" d="m249.09203 207.94643l-7.5219116 6.05896l9.656754 0.19355774z" fill-rule="evenodd"/><path fill="#000000" fill-opacity="0.0" d="m294.51968 195.92651l-3.5275574 19.02362" fill-rule="evenodd"/><path stroke="#595959" stroke-width="2.0" stroke-linejoin="round" stroke-linecap="butt" d="m294.51968 195.92651l-1.3396912 7.2247467" fill-rule="evenodd"/><path fill="#595959" stroke="#595959" stroke-width="2.0" stroke-linecap="butt" d="m289.93192 202.54897l1.5932922 9.526367l4.902893 -8.321777z" fill-rule="evenodd"/><path fill="#000000" fill-opacity="0.0" d="m448.6929 116.8294l154.80313 0l0 34.99212l-154.80313 0z" fill-rule="evenodd"/><path fill="#000000" d="m458.6929 138.6294l0 -9.546875l1.921875 0l0 4.25l3.890625 -4.25l2.59375 0l-3.59375 3.71875l3.78125 5.828125l-2.484375 0l-2.625 -4.484375l-1.5625 1.59375l0 2.890625l-1.921875 0zm13.578278 -2.203125l1.828125 0.3125q-0.34375 1.0 -1.109375 1.53125q-0.765625 0.515625 -1.890625 0.515625q-1.8125 0 -2.671875 -1.171875q-0.6875 -0.953125 -0.6875 -2.390625q0 -1.71875 0.890625 -2.6875q0.90625 -0.96875 2.28125 -0.96875q1.546875 0 2.4375 1.015625q0.890625 1.015625 0.84375 3.125l-4.578125 0q0.015625 0.8125 0.4375 1.265625q0.421875 0.453125 1.0625 0.453125q0.421875 0 0.71875 -0.234375q0.296875 -0.234375 0.4375 -0.765625zm0.109375 -1.84375q-0.015625 -0.796875 -0.40625 -1.203125q-0.390625 -0.421875 -0.953125 -0.421875q-0.59375 0 -0.984375 0.4375q-0.390625 0.4375 -0.390625 1.1875l2.734375 0zm5.0531006 4.046875l-1.828125 0l0 -6.90625l1.703125 0l0 0.984375q0.4375 -0.703125 0.78125 -0.921875q0.34375 -0.21875 0.796875 -0.21875q0.625 0 1.203125 0.34375l-0.5625 1.59375q-0.46875 -0.296875 -0.859375 -0.296875q-0.390625 0 -0.65625 0.21875q-0.265625 0.203125 -0.421875 0.765625q-0.15625 0.546875 -0.15625 2.296875l0 2.140625zm9.733673 0l-1.828125 0l0 -3.53125q0 -1.109375 -0.125 -1.4375q-0.109375 -0.328125 -0.375 -0.515625q-0.265625 -0.1875 -0.640625 -0.1875q-0.46875 0 -0.859375 0.265625q-0.375 0.265625 -0.515625 0.703125q-0.140625 0.421875 -0.140625 1.578125l0 3.125l-1.828125 0l0 -6.90625l1.703125 0l0 1.015625q0.90625 -1.171875 2.28125 -1.171875q0.609375 0 1.109375 0.21875q0.5 0.21875 0.75 0.5625q0.265625 0.328125 0.359375 0.765625q0.109375 0.421875 0.109375 1.21875l0 4.296875zm5.8444824 -2.203125l1.828125 0.3125q-0.34375 1.0 -1.109375 1.53125q-0.765625 0.515625 -1.890625 0.515625q-1.8125 0 -2.671875 -1.171875q-0.6875 -0.953125 -0.6875 -2.390625q0 -1.71875 0.890625 -2.6875q0.90625 -0.96875 2.28125 -0.96875q1.546875 0 2.4375 1.015625q0.890625 1.015625 0.84375 3.125l-4.578125 0q0.015625 0.8125 0.4375 1.265625q0.421875 0.453125 1.0625 0.453125q0.421875 0 0.71875 -0.234375q0.296875 -0.234375 0.4375 -0.765625zm0.109375 -1.84375q-0.015625 -0.796875 -0.40625 -1.203125q-0.390625 -0.421875 -0.953125 -0.421875q-0.59375 0 -0.984375 0.4375q-0.390625 0.4375 -0.390625 1.1875l2.734375 0zm3.3031006 4.046875l0 -9.546875l1.828125 0l0 9.546875l-1.828125 0zm6.7653503 -1.96875l1.828125 -0.28125q0.125 0.53125 0.484375 0.8125q0.359375 0.265625 1.0 0.265625q0.703125 0 1.0625 -0.25q0.25 -0.1875 0.25 -0.484375q0 -0.21875 -0.140625 -0.359375q-0.125 -0.125 -0.609375 -0.234375q-2.203125 -0.484375 -2.796875 -0.890625q-0.828125 -0.5625 -0.828125 -1.5625q0 -0.890625 0.703125 -1.5q0.71875 -0.609375 2.203125 -0.609375q1.421875 0 2.109375 0.46875q0.703125 0.453125 0.953125 1.359375l-1.71875 0.3125q-0.109375 -0.40625 -0.421875 -0.609375q-0.3125 -0.21875 -0.890625 -0.21875q-0.71875 0 -1.03125 0.203125q-0.203125 0.140625 -0.203125 0.359375q0 0.203125 0.1875 0.34375q0.234375 0.171875 1.6875 0.515625q1.46875 0.328125 2.0625 0.8125q0.5625 0.484375 0.5625 1.359375q0 0.953125 -0.796875 1.640625q-0.78125 0.671875 -2.34375 0.671875q-1.40625 0 -2.234375 -0.5625q-0.828125 -0.578125 -1.078125 -1.5625zm8.006226 -4.9375l1.703125 0l0 1.015625q0.328125 -0.53125 0.890625 -0.84375q0.578125 -0.328125 1.265625 -0.328125q1.203125 0 2.03125 0.9375q0.84375 0.9375 0.84375 2.625q0 1.734375 -0.84375 2.703125q-0.84375 0.953125 -2.046875 0.953125q-0.578125 0 -1.046875 -0.21875q-0.453125 -0.234375 -0.96875 -0.796875l0 3.484375l-1.828125 0l0 -9.53125zm1.8125 3.328125q0 1.171875 0.453125 1.734375q0.46875 0.546875 1.125 0.546875q0.640625 0 1.0625 -0.5q0.421875 -0.515625 0.421875 -1.6875q0 -1.078125 -0.4375 -1.609375q-0.4375 -0.53125 -1.078125 -0.53125q-0.671875 0 -1.109375 0.515625q-0.4375 0.515625 -0.4375 1.53125zm7.7507324 -1.21875l-1.671875 -0.3125q0.28125 -1.0 0.96875 -1.46875q0.6875 -0.484375 2.03125 -0.484375q1.21875 0 1.8125 0.296875q0.609375 0.28125 0.84375 0.734375q0.25 0.4375 0.25 1.625l-0.015625 2.140625q0 0.90625 0.078125 1.34375q0.09375 0.421875 0.34375 0.921875l-1.8125 0q-0.078125 -0.1875 -0.171875 -0.546875q-0.046875 -0.15625 -0.078125 -0.203125q-0.46875 0.453125 -1.0 0.6875q-0.53125 0.21875 -1.140625 0.21875q-1.0625 0 -1.6875 -0.578125q-0.609375 -0.578125 -0.609375 -1.46875q0 -0.578125 0.28125 -1.03125q0.28125 -0.46875 0.78125 -0.703125q0.515625 -0.25 1.46875 -0.4375q1.28125 -0.234375 1.765625 -0.453125l0 -0.171875q0 -0.53125 -0.265625 -0.75q-0.25 -0.234375 -0.96875 -0.234375q-0.484375 0 -0.765625 0.203125q-0.265625 0.1875 -0.4375 0.671875zm2.4375 1.484375q-0.34375 0.109375 -1.109375 0.28125q-0.765625 0.15625 -1.0 0.3125q-0.359375 0.25 -0.359375 0.640625q0 0.390625 0.28125 0.671875q0.296875 0.28125 0.734375 0.28125q0.5 0 0.953125 -0.328125q0.328125 -0.25 0.4375 -0.609375q0.0625 -0.234375 0.0625 -0.890625l0 -0.359375zm9.631226 -1.5625l-1.796875 0.328125q-0.09375 -0.53125 -0.421875 -0.796875q-0.328125 -0.28125 -0.828125 -0.28125q-0.6875 0 -1.09375 0.46875q-0.40625 0.46875 -0.40625 1.578125q0 1.234375 0.40625 1.75q0.421875 0.5 1.109375 0.5q0.53125 0 0.859375 -0.296875q0.328125 -0.296875 0.46875 -1.03125l1.796875 0.3125q-0.28125 1.234375 -1.078125 1.875q-0.796875 0.625 -2.125 0.625q-1.515625 0 -2.421875 -0.953125q-0.90625 -0.953125 -0.90625 -2.65625q0 -1.703125 0.90625 -2.65625q0.90625 -0.953125 2.453125 -0.953125q1.265625 0 2.0 0.546875q0.75 0.53125 1.078125 1.640625zm5.3812256 2.671875l1.828125 0.3125q-0.34375 1.0 -1.109375 1.53125q-0.765625 0.515625 -1.890625 0.515625q-1.8125 0 -2.671875 -1.171875q-0.6875 -0.953125 -0.6875 -2.390625q0 -1.71875 0.890625 -2.6875q0.90625 -0.96875 2.28125 -0.96875q1.546875 0 2.4375 1.015625q0.890625 1.015625 0.84375 3.125l-4.578125 0q0.015625 0.8125 0.4375 1.265625q0.421875 0.453125 1.0625 0.453125q0.421875 0 0.71875 -0.234375q0.296875 -0.234375 0.4375 -0.765625zm0.109375 -1.84375q-0.015625 -0.796875 -0.40625 -1.203125q-0.390625 -0.421875 -0.953125 -0.421875q-0.59375 0 -0.984375 0.4375q-0.390625 0.4375 -0.390625 1.1875l2.734375 0z" fill-rule="nonzero"/><path fill="#000000" fill-opacity="0.0" d="m448.6929 70.06562l154.80313 0l0 32.377953l-154.80313 0z" fill-rule="evenodd"/><path fill="#000000" d="m458.64603 82.31874l1.9375 0l0 5.171875q0 1.234375 0.0625 1.59375q0.125 0.59375 0.59375 0.953125q0.46875 0.34375 1.265625 0.34375q0.828125 0 1.234375 -0.328125q0.421875 -0.34375 0.5 -0.828125q0.09375 -0.484375 0.09375 -1.625l0 -5.28125l1.921875 0l0 5.015625q0 1.71875 -0.15625 2.4375q-0.15625 0.703125 -0.578125 1.1875q-0.421875 0.484375 -1.125 0.78125q-0.703125 0.28125 -1.828125 0.28125q-1.375 0 -2.078125 -0.3125q-0.703125 -0.3125 -1.109375 -0.8125q-0.40625 -0.515625 -0.546875 -1.0625q-0.1875 -0.8125 -0.1875 -2.421875l0 -5.09375zm8.984528 7.578125l1.828125 -0.28125q0.125 0.53125 0.484375 0.8125q0.359375 0.265625 1.0 0.265625q0.703125 0 1.0625 -0.25q0.25 -0.1875 0.25 -0.484375q0 -0.21875 -0.140625 -0.359375q-0.125 -0.125 -0.609375 -0.234375q-2.203125 -0.484375 -2.796875 -0.890625q-0.828125 -0.5625 -0.828125 -1.5625q0 -0.890625 0.703125 -1.5q0.71875 -0.609375 2.203125 -0.609375q1.421875 0 2.109375 0.46875q0.703125 0.453125 0.953125 1.359375l-1.71875 0.3125q-0.109375 -0.40625 -0.421875 -0.609375q-0.3125 -0.21875 -0.890625 -0.21875q-0.71875 0 -1.03125 0.203125q-0.203125 0.140625 -0.203125 0.359375q0 0.203125 0.1875 0.34375q0.234375 0.171875 1.6875 0.515625q1.46875 0.328125 2.0625 0.8125q0.5625 0.484375 0.5625 1.359375q0 0.953125 -0.796875 1.640625q-0.78125 0.671875 -2.34375 0.671875q-1.40625 0 -2.234375 -0.5625q-0.828125 -0.578125 -1.078125 -1.5625zm12.053101 -0.234375l1.828125 0.3125q-0.34375 1.0 -1.109375 1.53125q-0.765625 0.515625 -1.890625 0.515625q-1.8125 0 -2.671875 -1.171875q-0.6875 -0.953125 -0.6875 -2.390625q0 -1.71875 0.890625 -2.6875q0.90625 -0.96875 2.28125 -0.96875q1.546875 0 2.4375 1.015625q0.890625 1.015625 0.84375 3.125l-4.578125 0q0.015625 0.8125 0.4375 1.265625q0.421875 0.453125 1.0625 0.453125q0.421875 0 0.71875 -0.234375q0.296875 -0.234375 0.4375 -0.765625zm0.109375 -1.84375q-0.015625 -0.796875 -0.40625 -1.203125q-0.390625 -0.421875 -0.953125 -0.421875q-0.59375 0 -0.984375 0.4375q-0.390625 0.4375 -0.390625 1.1875l2.734375 0zm5.0531006 4.046875l-1.828125 0l0 -6.90625l1.703125 0l0 0.984375q0.4375 -0.703125 0.78125 -0.921875q0.34375 -0.21875 0.796875 -0.21875q0.625 0 1.203125 0.34375l-0.5625 1.59375q-0.46875 -0.296875 -0.859375 -0.296875q-0.390625 0 -0.65625 0.21875q-0.265625 0.203125 -0.421875 0.765625q-0.15625 0.546875 -0.15625 2.296875l0 2.140625zm6.4991455 -1.96875l1.828125 -0.28125q0.125 0.53125 0.484375 0.8125q0.359375 0.265625 1.0 0.265625q0.703125 0 1.0625 -0.25q0.25 -0.1875 0.25 -0.484375q0 -0.21875 -0.140625 -0.359375q-0.125 -0.125 -0.609375 -0.234375q-2.203125 -0.484375 -2.796875 -0.890625q-0.828125 -0.5625 -0.828125 -1.5625q0 -0.890625 0.703125 -1.5q0.71875 -0.609375 2.203125 -0.609375q1.421875 0 2.109375 0.46875q0.703125 0.453125 0.953125 1.359375l-1.71875 0.3125q-0.109375 -0.40625 -0.421875 -0.609375q-0.3125 -0.21875 -0.890625 -0.21875q-0.71875 0 -1.03125 0.203125q-0.203125 0.140625 -0.203125 0.359375q0 0.203125 0.1875 0.34375q0.234375 0.171875 1.6875 0.515625q1.46875 0.328125 2.0625 0.8125q0.5625 0.484375 0.5625 1.359375q0 0.953125 -0.796875 1.640625q-0.78125 0.671875 -2.34375 0.671875q-1.40625 0 -2.234375 -0.5625q-0.828125 -0.578125 -1.078125 -1.5625zm8.006226 -4.9375l1.703125 0l0 1.015625q0.328125 -0.53125 0.890625 -0.84375q0.578125 -0.328125 1.265625 -0.328125q1.203125 0 2.03125 0.9375q0.84375 0.9375 0.84375 2.625q0 1.734375 -0.84375 2.703125q-0.84375 0.953125 -2.046875 0.953125q-0.578125 0 -1.046875 -0.21875q-0.453125 -0.234375 -0.96875 -0.796875l0 3.484375l-1.828125 0l0 -9.53125zm1.8125 3.328125q0 1.171875 0.453125 1.734375q0.46875 0.546875 1.125 0.546875q0.640625 0 1.0625 -0.5q0.421875 -0.515625 0.421875 -1.6875q0 -1.078125 -0.4375 -1.609375q-0.4375 -0.53125 -1.078125 -0.53125q-0.671875 0 -1.109375 0.515625q-0.4375 0.515625 -0.4375 1.53125zm7.7507324 -1.21875l-1.671875 -0.3125q0.28125 -1.0 0.96875 -1.46875q0.6875 -0.484375 2.03125 -0.484375q1.21875 0 1.8125 0.296875q0.609375 0.28125 0.84375 0.734375q0.25 0.4375 0.25 1.625l-0.015625 2.140625q0 0.90625 0.078125 1.34375q0.09375 0.421875 0.34375 0.921875l-1.8125 0q-0.078125 -0.1875 -0.171875 -0.546875q-0.046875 -0.15625 -0.078125 -0.203125q-0.46875 0.453125 -1.0 0.6875q-0.53125 0.21875 -1.140625 0.21875q-1.0625 0 -1.6875 -0.578125q-0.609375 -0.578125 -0.609375 -1.46875q0 -0.578125 0.28125 -1.03125q0.28125 -0.46875 0.78125 -0.703125q0.515625 -0.25 1.46875 -0.4375q1.28125 -0.234375 1.765625 -0.453125l0 -0.171875q0 -0.53125 -0.265625 -0.75q-0.25 -0.234375 -0.96875 -0.234375q-0.484375 0 -0.765625 0.203125q-0.265625 0.1875 -0.4375 0.671875zm2.4375 1.484375q-0.34375 0.109375 -1.109375 0.28125q-0.765625 0.15625 -1.0 0.3125q-0.359375 0.25 -0.359375 0.640625q0 0.390625 0.28125 0.671875q0.296875 0.28125 0.734375 0.28125q0.5 0 0.953125 -0.328125q0.328125 -0.25 0.4375 -0.609375q0.0625 -0.234375 0.0625 -0.890625l0 -0.359375zm9.631226 -1.5625l-1.796875 0.328125q-0.09375 -0.53125 -0.421875 -0.796875q-0.328125 -0.28125 -0.828125 -0.28125q-0.6875 0 -1.09375 0.46875q-0.40625 0.46875 -0.40625 1.578125q0 1.234375 0.40625 1.75q0.421875 0.5 1.109375 0.5q0.53125 0 0.859375 -0.296875q0.328125 -0.296875 0.46875 -1.03125l1.796875 0.3125q-0.28125 1.234375 -1.078125 1.875q-0.796875 0.625 -2.125 0.625q-1.515625 0 -2.421875 -0.953125q-0.90625 -0.953125 -0.90625 -2.65625q0 -1.703125 0.90625 -2.65625q0.90625 -0.953125 2.453125 -0.953125q1.265625 0 2.0 0.546875q0.75 0.53125 1.078125 1.640625zm5.3812256 2.671875l1.828125 0.3125q-0.34375 1.0 -1.109375 1.53125q-0.765625 0.515625 -1.890625 0.515625q-1.8125 0 -2.671875 -1.171875q-0.6875 -0.953125 -0.6875 -2.390625q0 -1.71875 0.890625 -2.6875q0.90625 -0.96875 2.28125 -0.96875q1.546875 0 2.4375 1.015625q0.890625 1.015625 0.84375 3.125l-4.578125 0q0.015625 0.8125 0.4375 1.265625q0.421875 0.453125 1.0625 0.453125q0.421875 0 0.71875 -0.234375q0.296875 -0.234375 0.4375 -0.765625zm0.109375 -1.84375q-0.015625 -0.796875 -0.40625 -1.203125q-0.390625 -0.421875 -0.953125 -0.421875q-0.59375 0 -0.984375 0.4375q-0.390625 0.4375 -0.390625 1.1875l2.734375 0z" fill-rule="nonzero"/><path fill="#000000" fill-opacity="0.0" d="m157.33202 116.8294l310.86615 0" fill-rule="evenodd"/><path stroke="#595959" stroke-width="2.0" stroke-linejoin="round" stroke-linecap="butt" stroke-dasharray="8.0,6.0" d="m157.33202 116.8294l310.86615 0" fill-rule="evenodd"/><path fill="#f6b26b" d="m321.41077 221.61548l0 0c0 -3.6818848 9.738098 -6.6666565 21.75064 -6.6666565c12.012573 0 21.750671 2.9847717 21.750671 6.6666565l0 26.666672c0 3.6819 -9.738098 6.6666718 -21.750671 6.6666718c-12.012543 0 -21.75064 -2.9847717 -21.75064 -6.6666718z" fill-rule="evenodd"/><path fill="#000000" fill-opacity="0.0" d="m364.91208 221.61548l0 0c0 3.6819 -9.738098 6.6666718 -21.750671 6.6666718c-12.012543 0 -21.75064 -2.9847717 -21.75064 -6.6666718" fill-rule="evenodd"/><path fill="#000000" fill-opacity="0.0" d="m321.41077 221.61548l0 0c0 -3.6818848 9.738098 -6.6666565 21.75064 -6.6666565c12.012573 0 21.750671 2.9847717 21.750671 6.6666565l0 26.666672c0 3.6819 -9.738098 6.6666718 -21.750671 6.6666718c-12.012543 0 -21.75064 -2.9847717 -21.75064 -6.6666718z" fill-rule="evenodd"/><path stroke="#000000" stroke-width="1.0" stroke-linejoin="round" stroke-linecap="butt" d="m364.91208 221.61548l0 0c0 3.6819 -9.738098 6.6666718 -21.750671 6.6666718c-12.012543 0 -21.75064 -2.9847717 -21.75064 -6.6666718" fill-rule="evenodd"/><path stroke="#000000" stroke-width="1.0" stroke-linejoin="round" stroke-linecap="butt" d="m321.41077 221.61548l0 0c0 -3.6818848 9.738098 -6.6666565 21.75064 -6.6666565c12.012573 0 21.750671 2.9847717 21.750671 6.6666565l0 26.666672c0 3.6819 -9.738098 6.6666718 -21.750671 6.6666718c-12.012543 0 -21.75064 -2.9847717 -21.75064 -6.6666718z" fill-rule="evenodd"/><path fill="#000000" d="m340.4895 235.96216l-0.734375 0l-2.921875 -4.4375l0 4.4375l-0.734375 0l0 -5.578125l0.734375 0l2.921875 4.421875l0 -4.421875l0.734375 0l0 5.578125zm4.530182 -1.234375l-2.421875 0l-0.453125 1.234375l-0.765625 0l2.015625 -5.546875l0.84375 0l2.0 5.546875l-0.765625 0l-0.453125 -1.234375zm-0.203125 -0.59375l-1.0 -2.8125l-1.015625 2.8125l2.015625 0zm5.7356873 -3.75l0 0.59375l-1.515625 0l0 4.984375l-0.734375 0l0 -4.984375l-1.53125 0l0 -0.59375l3.78125 0z" fill-rule="nonzero"/><path fill="#000000" d="m334.06543 246.04028q-0.515625 0 -0.921875 -0.171875q-0.390625 -0.171875 -0.625 -0.484375q-0.21875 -0.3125 -0.25 -0.703125l0.75 0q0.03125 0.328125 0.3125 0.53125q0.28125 0.203125 0.71875 0.203125q0.421875 0 0.65625 -0.171875q0.25 -0.1875 0.25 -0.46875q0 -0.296875 -0.265625 -0.4375q-0.25 -0.140625 -0.78125 -0.265625q-0.5 -0.140625 -0.8125 -0.265625q-0.296875 -0.125 -0.515625 -0.390625q-0.21875 -0.265625 -0.21875 -0.6875q0 -0.328125 0.1875 -0.609375q0.203125 -0.28125 0.5625 -0.4375q0.375 -0.171875 0.859375 -0.171875q0.71875 0 1.171875 0.375q0.453125 0.359375 0.484375 1.0l-0.734375 0q-0.03125 -0.34375 -0.28125 -0.546875q-0.25 -0.21875 -0.671875 -0.21875q-0.390625 0 -0.625 0.171875q-0.234375 0.171875 -0.234375 0.4375q0 0.21875 0.140625 0.359375q0.140625 0.140625 0.34375 0.234375q0.21875 0.078125 0.59375 0.171875q0.484375 0.125 0.78125 0.25q0.296875 0.125 0.5 0.375q0.21875 0.25 0.21875 0.65625q0 0.359375 -0.203125 0.65625q-0.1875 0.28125 -0.5625 0.453125q-0.359375 0.15625 -0.828125 0.15625zm3.5040894 -3.859375l0 2.578125q0 0.328125 0.140625 0.46875q0.140625 0.125 0.46875 0.125l0.53125 0l0 0.609375l-0.65625 0q-0.59375 0 -0.90625 -0.28125q-0.296875 -0.28125 -0.296875 -0.921875l0 -2.578125l-0.578125 0l0 -0.609375l0.578125 0l0 -1.09375l0.71875 0l0 1.09375l1.140625 0l0 0.609375l-1.140625 0zm2.3963318 -1.3125q-0.203125 0 -0.34375 -0.140625q-0.140625 -0.15625 -0.140625 -0.359375q0 -0.203125 0.140625 -0.34375q0.140625 -0.15625 0.34375 -0.15625q0.203125 0 0.34375 0.15625q0.140625 0.140625 0.140625 0.34375q0 0.203125 -0.140625 0.359375q-0.140625 0.140625 -0.34375 0.140625zm0.359375 0.703125l0 4.390625l-0.734375 0l0 -4.390625l0.734375 0zm0.96795654 2.1875q0 -0.671875 0.265625 -1.171875q0.28125 -0.515625 0.765625 -0.796875q0.484375 -0.28125 1.109375 -0.28125q0.796875 0 1.328125 0.390625q0.53125 0.390625 0.6875 1.09375l-0.78125 0q-0.109375 -0.40625 -0.4375 -0.640625q-0.328125 -0.234375 -0.796875 -0.234375q-0.625 0 -1.015625 0.4375q-0.375 0.421875 -0.375 1.203125q0 0.796875 0.375 1.234375q0.390625 0.421875 1.015625 0.421875q0.46875 0 0.78125 -0.21875q0.328125 -0.21875 0.453125 -0.640625l0.78125 0q-0.171875 0.671875 -0.703125 1.078125q-0.53125 0.40625 -1.3125 0.40625q-0.625 0 -1.109375 -0.28125q-0.484375 -0.28125 -0.765625 -0.796875q-0.265625 -0.515625 -0.265625 -1.203125zm7.574707 2.203125l-1.71875 -1.9375l0 1.9375l-0.734375 0l0 -5.921875l0.734375 0l0 3.484375l1.6875 -1.953125l1.015625 0l-2.0625 2.1875l2.078125 2.203125l-1.0 0zm5.448059 -4.390625l-2.640625 6.453125l-0.75 0l0.859375 -2.109375l-1.765625 -4.34375l0.8125 0l1.375 3.5625l1.359375 -3.5625l0.75 0z" fill-rule="nonzero"/><path fill="#000000" fill-opacity="0.0" d="m294.51968 195.92651l48.629913 19.02362" fill-rule="evenodd"/><path stroke="#595959" stroke-width="2.0" stroke-linejoin="round" stroke-linecap="butt" d="m294.51968 195.92651l37.45459 14.6519165" fill-rule="evenodd"/><path fill="#595959" stroke="#595959" stroke-width="2.0" stroke-linecap="butt" d="m330.77078 213.65488l9.655945 0.23008728l-7.248993 -6.3829803z" fill-rule="evenodd"/><path fill="#eeeeee" d="m244.87665 104.55118l195.30707 0l0 23.023628l-195.30707 0z" fill-rule="evenodd"/><path stroke="#595959" stroke-width="1.0" stroke-linejoin="round" stroke-linecap="butt" d="m244.87665 104.55118l195.30707 0l0 23.023628l-195.30707 0z" fill-rule="evenodd"/><path fill="#000000" d="m310.99637 120.95674q-1.03125 0 -1.84375 -0.328125q-0.8125 -0.34375 -1.296875 -0.984375q-0.484375 -0.65625 -0.515625 -1.578125l2.421875 0q0.046875 0.515625 0.359375 0.796875q0.3125 0.265625 0.796875 0.265625q0.515625 0 0.796875 -0.234375q0.296875 -0.234375 0.296875 -0.640625q0 -0.34375 -0.234375 -0.5625q-0.234375 -0.234375 -0.578125 -0.375q-0.328125 -0.15625 -0.953125 -0.34375q-0.90625 -0.28125 -1.484375 -0.5625q-0.578125 -0.28125 -0.984375 -0.828125q-0.40625 -0.546875 -0.40625 -1.421875q0 -1.3125 0.9375 -2.046875q0.953125 -0.734375 2.46875 -0.734375q1.546875 0 2.484375 0.734375q0.953125 0.734375 1.015625 2.0625l-2.46875 0q-0.015625 -0.453125 -0.328125 -0.703125q-0.3125 -0.265625 -0.78125 -0.265625q-0.421875 0 -0.671875 0.21875q-0.25 0.21875 -0.25 0.625q0 0.453125 0.421875 0.71875q0.4375 0.25 1.34375 0.53125q0.90625 0.3125 1.46875 0.59375q0.5625 0.28125 0.96875 0.8125q0.421875 0.53125 0.421875 1.375q0 0.796875 -0.40625 1.453125q-0.40625 0.640625 -1.1875 1.03125q-0.765625 0.390625 -1.8125 0.390625zm8.196777 0.015625q-1.09375 0 -1.96875 -0.46875q-0.875 -0.46875 -1.375 -1.328125q-0.5 -0.875 -0.5 -2.03125q0 -1.140625 0.5 -2.015625q0.515625 -0.875 1.390625 -1.34375q0.875 -0.46875 1.96875 -0.46875q1.09375 0 1.96875 0.46875q0.890625 0.46875 1.390625 1.34375q0.515625 0.875 0.515625 2.015625q0 1.140625 -0.515625 2.015625q-0.515625 0.875 -1.40625 1.34375q-0.890625 0.46875 -1.96875 0.46875zm0 -1.96875q0.640625 0 1.09375 -0.484375q0.46875 -0.484375 0.46875 -1.375q0 -0.890625 -0.453125 -1.375q-0.4375 -0.484375 -1.09375 -0.484375q-0.65625 0 -1.109375 0.484375q-0.4375 0.46875 -0.4375 1.375q0 0.890625 0.4375 1.375q0.4375 0.484375 1.09375 0.484375zm4.64624 -1.859375q0 -1.15625 0.46875 -2.015625q0.46875 -0.875 1.3125 -1.34375q0.859375 -0.46875 1.953125 -0.46875q1.390625 0 2.328125 0.734375q0.953125 0.734375 1.234375 2.0625l-2.421875 0q-0.3125 -0.84375 -1.1875 -0.84375q-0.625 0 -1.0 0.484375q-0.375 0.484375 -0.375 1.390625q0 0.90625 0.375 1.390625q0.375 0.484375 1.0 0.484375q0.875 0 1.1875 -0.84375l2.421875 0q-0.28125 1.296875 -1.234375 2.046875q-0.953125 0.75 -2.328125 0.75q-1.09375 0 -1.953125 -0.46875q-0.84375 -0.46875 -1.3125 -1.328125q-0.46875 -0.875 -0.46875 -2.03125zm13.063477 3.71875l-2.265625 -3.125l0 3.125l-2.28125 0l0 -9.859375l2.28125 0l0 5.453125l2.25 -3.03125l2.8125 0l-3.09375 3.734375l3.125 3.703125l-2.828125 0zm10.705505 -3.84375q0 0.328125 -0.046875 0.671875l-5.15625 0q0.046875 0.6875 0.4375 1.0625q0.40625 0.359375 0.96875 0.359375q0.859375 0 1.1875 -0.71875l2.421875 0q-0.171875 0.734375 -0.671875 1.328125q-0.484375 0.578125 -1.21875 0.921875q-0.734375 0.328125 -1.640625 0.328125q-1.09375 0 -1.953125 -0.46875q-0.84375 -0.46875 -1.328125 -1.328125q-0.46875 -0.875 -0.46875 -2.03125q0 -1.15625 0.46875 -2.015625q0.46875 -0.875 1.328125 -1.34375q0.859375 -0.46875 1.953125 -0.46875q1.09375 0 1.921875 0.453125q0.84375 0.453125 1.3125 1.296875q0.484375 0.84375 0.484375 1.953125zm-2.34375 -0.59375q0 -0.59375 -0.40625 -0.9375q-0.390625 -0.34375 -0.984375 -0.34375q-0.578125 0 -0.96875 0.34375q-0.390625 0.328125 -0.484375 0.9375l2.84375 0zm7.6788635 2.5l0 1.9375l-1.15625 0q-1.234375 0 -1.9375 -0.609375q-0.6875 -0.609375 -0.6875 -1.96875l0 -2.96875l-0.90625 0l0 -1.890625l0.90625 0l0 -1.8125l2.28125 0l0 1.8125l1.484375 0l0 1.890625l-1.484375 0l0 2.984375q0 0.34375 0.15625 0.484375q0.15625 0.140625 0.53125 0.140625l0.8125 0zm9.924225 0.28125l-3.5 0l-0.5625 1.65625l-2.375 0l3.375 -9.359375l2.640625 0l3.390625 9.359375l-2.421875 0l-0.546875 -1.65625zm-0.59375 -1.75l-1.15625 -3.4375l-1.140625 3.4375l2.296875 0zm11.713409 -2.9375q0 0.8125 -0.375 1.484375q-0.375 0.671875 -1.140625 1.09375q-0.765625 0.40625 -1.921875 0.40625l-1.40625 0l0 3.359375l-2.28125 0l0 -9.359375l3.6875 0q1.125 0 1.890625 0.390625q0.78125 0.390625 1.15625 1.078125q0.390625 0.671875 0.390625 1.546875zm-3.609375 1.171875q0.65625 0 0.96875 -0.296875q0.328125 -0.3125 0.328125 -0.875q0 -0.5625 -0.328125 -0.859375q-0.3125 -0.3125 -0.96875 -0.3125l-1.234375 0l0 2.34375l1.234375 0zm7.082367 -4.1875l0 9.359375l-2.28125 0l0 -9.359375l2.28125 0z" fill-rule="nonzero"/></g></svg>