<svg version="1.1" viewBox="0.0 0.0 781.6824146981627 251.05774278215222" fill="none" stroke="none" stroke-linecap="square" stroke-miterlimit="10" xmlns:xlink="http://www.w3.org/1999/xlink" xmlns="http://www.w3.org/2000/svg"><clipPath id="p.0"><path d="m0 0l781.68243 0l0 251.05774l-781.68243 0l0 -251.05774z" clip-rule="nonzero"/></clipPath><g clip-path="url(#p.0)"><path fill="#000000" fill-opacity="0.0" d="m0 0l781.68243 0l0 251.05774l-781.68243 0z" fill-rule="evenodd"/><path fill="#000000" fill-opacity="0.0" d="m14.837271 4.8845143l761.2913 0l0 240.37794l-761.2913 0z" fill-rule="evenodd"/><path stroke="#b7b7b7" stroke-width="1.0" stroke-linejoin="round" stroke-linecap="butt" d="m14.837271 4.8845143l761.2913 0l0 240.37794l-761.2913 0z" fill-rule="evenodd"/><path fill="#000000" d="m33.040394 26.684513l-2.281248 0l-3.8125 -5.765625l0 5.765625l-2.28125 0l0 -9.359375l2.28125 0l3.8125 5.796875l0 -5.796875l2.281248 0l0 9.359375zm5.0383453 0.109375q-1.09375 0 -1.96875 -0.46875q-0.875 -0.46875 -1.375 -1.328125q-0.5 -0.875 -0.5 -2.03125q0 -1.140625 0.5 -2.015625q0.515625 -0.875 1.390625 -1.34375q0.875 -0.46875 1.96875 -0.46875q1.09375 0 1.96875 0.46875q0.890625 0.46875 1.390625 1.34375q0.515625 0.875 0.515625 2.015625q0 1.140625 -0.515625 2.015625q-0.515625 0.875 -1.40625 1.34375q-0.890625 0.46875 -1.96875 0.46875zm0 -1.96875q0.640625 0 1.09375 -0.484375q0.46875 -0.484375 0.46875 -1.375q0 -0.890625 -0.453125 -1.375q-0.4375 -0.484375 -1.09375 -0.484375q-0.65625 0 -1.109375 0.484375q-0.4375 0.46875 -0.4375 1.375q0 0.890625 0.4375 1.375q0.4375 0.484375 1.09375 0.484375zm4.64624 -1.875q0 -1.140625 0.421875 -2.0q0.4375 -0.875 1.1875 -1.34375q0.75 -0.46875 1.671875 -0.46875q0.734375 0 1.328125 0.3125q0.609375 0.296875 0.953125 0.828125l0 -3.453125l2.28125 0l0 9.859375l-2.28125 0l0 -1.0625q-0.3125 0.53125 -0.90625 0.859375q-0.59375 0.3125 -1.375 0.3125q-0.921875 0 -1.671875 -0.46875q-0.75 -0.484375 -1.1875 -1.34375q-0.421875 -0.875 -0.421875 -2.03125zm5.5625 0.015625q0 -0.859375 -0.46875 -1.34375q-0.46875 -0.5 -1.15625 -0.5q-0.671875 0 -1.15625 0.5q-0.46875 0.484375 -0.46875 1.328125q0 0.859375 0.46875 1.359375q0.484375 0.5 1.15625 0.5q0.6875 0 1.15625 -0.484375q0.46875 -0.5 0.46875 -1.359375zm10.956009 -0.125q0 0.328125 -0.046875 0.671875l-5.15625 0q0.046875 0.6875 0.4375 1.0625q0.40625 0.359375 0.96875 0.359375q0.859375 0 1.1875 -0.71875l2.421875 0q-0.171875 0.734375 -0.671875 1.328125q-0.484375 0.578125 -1.21875 0.921875q-0.734375 0.328125 -1.640625 0.328125q-1.09375 0 -1.953125 -0.46875q-0.84375 -0.46875 -1.328125 -1.328125q-0.46875 -0.875 -0.46875 -2.03125q0 -1.15625 0.46875 -2.015625q0.46875 -0.875 1.328125 -1.34375q0.859375 -0.46875 1.953125 -0.46875q1.09375 0 1.921875 0.453125q0.84375 0.453125 1.3125 1.296875q0.484375 0.84375 0.484375 1.953125zm-2.34375 -0.59375q0 -0.59375 -0.40625 -0.9375q-0.390625 -0.34375 -0.984375 -0.34375q-0.578125 0 -0.96875 0.34375q-0.390625 0.328125 -0.484375 0.9375l2.84375 0z" fill-rule="nonzero"/><path fill="#f6b26b" d="m209.66405 21.800526l362.92914 0l0 161.25984l-362.92914 0z" fill-rule="evenodd"/><path stroke="#595959" stroke-width="1.0" stroke-linejoin="round" stroke-linecap="butt" d="m209.66405 21.800526l362.92914 0l0 161.25984l-362.92914 0z" fill-rule="evenodd"/><path fill="#000000" d="m223.6328 41.663025l0 1.9375l-1.15625 0q-1.234375 0 -1.9375 -0.609375q-0.6875 -0.609375 -0.6875 -1.96875l0 -2.96875l-0.90625 0l0 -1.890625l0.90625 0l0 -1.8125l2.28125 0l0 1.8125l1.484375 0l0 1.890625l-1.484375 0l0 2.984375q0 0.34375 0.15625 0.484375q0.15625 0.140625 0.53125 0.140625l0.8125 0zm0.81744385 -1.78125q0 -1.15625 0.46875 -2.015625q0.46875 -0.875 1.3125 -1.34375q0.859375 -0.46875 1.953125 -0.46875q1.390625 0 2.328125 0.734375q0.953125 0.734375 1.234375 2.0625l-2.421875 0q-0.3125 -0.84375 -1.1875 -0.84375q-0.625 0 -1.0 0.484375q-0.375 0.484375 -0.375 1.390625q0 0.90625 0.375 1.390625q0.375 0.484375 1.0 0.484375q0.875 0 1.1875 -0.84375l2.421875 0q-0.28125 1.296875 -1.234375 2.046875q-0.953125 0.75 -2.328125 0.75q-1.09375 0 -1.953125 -0.46875q-0.84375 -0.46875 -1.3125 -1.328125q-0.46875 -0.875 -0.46875 -2.03125zm16.998413 -1.078125q0.8125 0.171875 1.3125 0.8125q0.5 0.625 0.5 1.4375q0 1.171875 -0.828125 1.859375q-0.8125 0.6875 -2.28125 0.6875l-4.359375 0l0 -9.359375l4.203125 0q1.4375 0 2.234375 0.65625q0.8125 0.65625 0.8125 1.765625q0 0.828125 -0.4375 1.375q-0.4375 0.546875 -1.15625 0.765625zm-3.375 -0.78125l1.484375 0q0.5625 0 0.859375 -0.234375q0.296875 -0.25 0.296875 -0.734375q0 -0.484375 -0.296875 -0.734375q-0.296875 -0.25 -0.859375 -0.25l-1.484375 0l0 1.953125zm1.671875 3.734375q0.578125 0 0.890625 -0.25q0.3125 -0.265625 0.3125 -0.765625q0 -0.484375 -0.328125 -0.765625q-0.328125 -0.28125 -0.890625 -0.28125l-1.65625 0l0 2.0625l1.671875 0zm11.955078 -4.5q0 0.8125 -0.375 1.484375q-0.375 0.671875 -1.140625 1.09375q-0.765625 0.40625 -1.921875 0.40625l-1.40625 0l0 3.359375l-2.28125 0l0 -9.359375l3.6875 0q1.125 0 1.890625 0.390625q0.78125 0.390625 1.15625 1.078125q0.390625 0.671875 0.390625 1.546875zm-3.609375 1.171875q0.65625 0 0.96875 -0.296875q0.328125 -0.3125 0.328125 -0.875q0 -0.5625 -0.328125 -0.859375q-0.3125 -0.3125 -0.96875 -0.3125l-1.234375 0l0 2.34375l1.234375 0zm10.894852 -4.1875l0 1.828125l-3.8125 0l0 1.96875l2.84375 0l0 1.78125l-2.84375 0l0 3.78125l-2.28125 0l0 -9.359375l6.09375 0z" fill-rule="nonzero"/><path fill="#eeeeee" d="m3.8188977 105.46982l55.84252 0l0 40.0l-55.84252 0z" fill-rule="evenodd"/><path stroke="#595959" stroke-width="1.0" stroke-linejoin="round" stroke-linecap="butt" d="m3.8188977 105.46982l55.84252 0l0 40.0l-55.84252 0z" fill-rule="evenodd"/><path fill="#000000" d="m23.936743 126.42606q0 0.328125 -0.046875 0.671875l-5.15625 0q0.046875 0.6875 0.4375 1.0625076q0.40625 0.359375 0.96875 0.359375q0.859375 0 1.1875 -0.7187576l2.421875 0q-0.171875 0.7343826 -0.671875 1.3281326q-0.484375 0.578125 -1.21875 0.921875q-0.734375 0.328125 -1.640625 0.328125q-1.09375 0 -1.953125 -0.46875q-0.84375 -0.46875 -1.328125 -1.328125q-0.46875 -0.8750076 -0.46875 -2.0312576q0 -1.15625 0.46875 -2.015625q0.46875 -0.875 1.328125 -1.34375q0.859375 -0.46875 1.953125 -0.46875q1.09375 0 1.921875 0.453125q0.84375 0.453125 1.3125 1.296875q0.484375 0.84375 0.484375 1.953125zm-2.34375 -0.59375q0 -0.59375 -0.40625 -0.9375q-0.390625 -0.34375 -0.984375 -0.34375q-0.578125 0 -0.96875 0.34375q-0.390625 0.328125 -0.484375 0.9375l2.84375 0zm7.6788483 2.5000076l0 1.9375l-1.15625 0q-1.234375 0 -1.9375 -0.609375q-0.6875 -0.609375 -0.6875 -1.9687576l0 -2.96875l-0.90625 0l0 -1.890625l0.90625 0l0 -1.8125l2.28125 0l0 1.8125l1.484375 0l0 1.890625l-1.484375 0l0 2.984375q0 0.34375763 0.15625 0.48438263q0.15625 0.140625 0.53125 0.140625l0.8125 0zm5.8330708 -5.5781326q1.2812462 0 2.0468712 0.84375q0.78125 0.84375 0.78125 2.328125l0 4.3437576l-2.2656212 0l0 -4.0312576q0 -0.75 -0.390625 -1.15625q-0.375 -0.421875 -1.03125 -0.421875q-0.65625 0 -1.046875 0.421875q-0.375 0.40625 -0.375 1.15625l0 4.0312576l-2.281252 0l0 -9.859383l2.281252 0l0 3.421875q0.34375 -0.5 0.9375 -0.78125q0.609375 -0.296875 1.34375 -0.296875zm4.186245 2.515625q0 -2.296875 0.890625 -3.609375q0.890625 -1.3125 2.859375 -1.3125q1.96875 0 2.859375 1.3125q0.890625 1.3125 0.890625 3.609375q0 2.328125 -0.890625 3.6406326q-0.890625 1.3125 -2.859375 1.3125q-1.96875 0 -2.859375 -1.3125q-0.890625 -1.3125076 -0.890625 -3.6406326zm5.25 0q0 -1.34375 -0.296875 -2.0625q-0.28125 -0.734375 -1.203125 -0.734375q-0.921875 0 -1.21875 0.734375q-0.28125 0.71875 -0.28125 2.0625q0 0.90625 0.09375 1.5q0.109375 0.59375 0.4375 0.96875q0.328125 0.35938263 0.96875 0.35938263q0.640625 0 0.96875 -0.35938263q0.328125 -0.375 0.421875 -0.96875q0.109375 -0.59375 0.109375 -1.5z" fill-rule="nonzero"/><path fill="#f6b26b" d="m220.88452 50.879265l117.98425 0l0 124.472435l-117.98425 0z" fill-rule="evenodd"/><path stroke="#595959" stroke-width="1.0" stroke-linejoin="round" stroke-linecap="butt" d="m220.88452 50.879265l117.98425 0l0 124.472435l-117.98425 0z" fill-rule="evenodd"/><path fill="#000000" d="m241.3064 63.31989l0 9.359379l-2.28125 0l0 -5.609375l-2.09375 5.609375l-1.828125 0l-2.109375 -5.625l0 5.625l-2.28125 0l0 -9.359379l2.6875 0l2.625 6.484379l2.609375 -6.484379l2.671875 0zm1.1882935 5.625004q0 -1.140625 0.421875 -2.0q0.4375 -0.875 1.1875 -1.34375q0.75 -0.46875 1.671875 -0.46875q0.78125 0 1.375 0.328125q0.59375 0.3125 0.90625 0.828125l0 -1.046875l2.28125 0l0 7.4375l-2.28125 0l0 -1.046875q-0.328125 0.515625 -0.921875 0.84375q-0.59375 0.3125 -1.375 0.3125q-0.90625 0 -1.65625 -0.46875q-0.75 -0.484375 -1.1875 -1.34375q-0.421875 -0.875 -0.421875 -2.03125zm5.5625 0.015625q0 -0.859375 -0.46875 -1.34375q-0.46875 -0.5 -1.15625 -0.5q-0.671875 0 -1.15625 0.5q-0.46875 0.484375 -0.46875 1.328125q0 0.859375 0.46875 1.359375q0.484375 0.5 1.15625 0.5q0.6875 0 1.15625 -0.484375q0.46875 -0.5 0.46875 -1.359375zm5.081009 -4.484375q-0.59375 0 -0.984375 -0.359375q-0.375 -0.3593788 -0.375 -0.8750038q0 -0.53125 0.375 -0.875q0.390625 -0.359375 0.984375 -0.359375q0.59375 0 0.96875 0.359375q0.375 0.34375 0.375 0.875q0 0.515625 -0.375 0.8750038q-0.375 0.359375 -0.96875 0.359375zm1.140625 0.765625l0 7.4375l-2.28125 0l0 -7.4375l2.28125 0zm6.181778 -0.078125q1.296875 0 2.078125 0.84375q0.78125 0.84375 0.78125 2.328125l0 4.34375l-2.265625 0l0 -4.03125q0 -0.75 -0.390625 -1.15625q-0.375 -0.421875 -1.03125 -0.421875q-0.65625 0 -1.046875 0.421875q-0.375 0.40625 -0.375 1.15625l0 4.03125l-2.28125 0l0 -7.4375l2.28125 0l0 0.984375q0.34375 -0.484375 0.921875 -0.765625q0.59375 -0.296875 1.328125 -0.296875zm9.558655 1.125q0.328125 -0.515625 0.90625 -0.828125q0.59375 -0.328125 1.375 -0.328125q0.921875 0 1.671875 0.46875q0.75 0.46875 1.171875 1.34375q0.4375 0.859375 0.4375 2.0q0 1.15625 -0.4375 2.03125q-0.421875 0.859375 -1.171875 1.34375q-0.75 0.46875 -1.671875 0.46875q-0.765625 0 -1.359375 -0.3125q-0.59375 -0.328125 -0.921875 -0.84375l0 4.59375l-2.28125 0l0 -10.984375l2.28125 0l0 1.046875zm3.25 2.65625q0 -0.84375 -0.484375 -1.328125q-0.46875 -0.5 -1.15625 -0.5q-0.6875 0 -1.15625 0.5q-0.46875 0.484375 -0.46875 1.34375q0 0.859375 0.46875 1.359375q0.46875 0.484375 1.15625 0.484375q0.671875 0 1.15625 -0.5q0.484375 -0.5 0.484375 -1.359375zm5.799774 -2.46875q0.390625 -0.609375 0.984375 -0.953125q0.609375 -0.359375 1.34375 -0.359375l0 2.40625l-0.625 0q-0.859375 0 -1.28125 0.375q-0.421875 0.359375 -0.421875 1.28125l0 3.453125l-2.28125 0l0 -7.4375l2.28125 0l0 1.234375zm6.8137817 6.3125q-1.09375 0 -1.96875 -0.46875q-0.875 -0.46875 -1.375 -1.328125q-0.5 -0.875 -0.5 -2.03125q0 -1.140625 0.5 -2.015625q0.515625 -0.875 1.390625 -1.34375q0.875 -0.46875 1.96875 -0.46875q1.09375 0 1.96875 0.46875q0.890625 0.46875 1.390625 1.34375q0.515625 0.875 0.515625 2.015625q0 1.140625 -0.515625 2.015625q-0.515625 0.875 -1.40625 1.34375q-0.890625 0.46875 -1.96875 0.46875zm0 -1.96875q0.640625 0 1.09375 -0.484375q0.46875 -0.484375 0.46875 -1.375q0 -0.890625 -0.453125 -1.375q-0.4375 -0.484375 -1.09375 -0.484375q-0.65625 0 -1.109375 0.484375q-0.4375 0.46875 -0.4375 1.375q0 0.890625 0.4375 1.375q0.4375 0.484375 1.09375 0.484375zm7.92749 -5.6875q0.78125 0 1.375 0.328125q0.59375 0.3125 0.90625 0.828125l0 -1.046875l2.28125 0l0 7.421875q0 1.03125 -0.40625 1.859375q-0.40625 0.828125 -1.234375 1.328125q-0.828125 0.5 -2.078125 0.5q-1.640625 0 -2.671875 -0.78125q-1.03125 -0.78125 -1.171875 -2.125l2.25 0q0.109375 0.4375 0.5 0.671875q0.40625 0.25 0.984375 0.25q0.71875 0 1.125 -0.40625q0.421875 -0.40625 0.421875 -1.296875l0 -1.046875q-0.328125 0.515625 -0.921875 0.84375q-0.578125 0.328125 -1.359375 0.328125q-0.921875 0 -1.671875 -0.46875q-0.75 -0.484375 -1.1875 -1.34375q-0.421875 -0.875 -0.421875 -2.03125q0 -1.140625 0.421875 -2.0q0.4375 -0.875 1.1875 -1.34375q0.75 -0.46875 1.671875 -0.46875zm2.28125 3.828125q0 -0.859375 -0.46875 -1.34375q-0.46875 -0.5 -1.15625 -0.5q-0.671875 0 -1.15625 0.5q-0.46875 0.484375 -0.46875 1.328125q0 0.859375 0.46875 1.359375q0.484375 0.5 1.15625 0.5q0.6875 0 1.15625 -0.484375q0.46875 -0.5 0.46875 -1.359375zm6.221649 -2.484375q0.390625 -0.609375 0.984375 -0.953125q0.609375 -0.359375 1.34375 -0.359375l0 2.40625l-0.625 0q-0.859375 0 -1.28125 0.375q-0.421875 0.359375 -0.421875 1.28125l0 3.453125l-2.28125 0l0 -7.4375l2.28125 0l0 1.234375zm2.9700317 2.46875q0 -1.140625 0.421875 -2.0q0.4375 -0.875 1.1875 -1.34375q0.75 -0.46875 1.671875 -0.46875q0.78125 0 1.375 0.328125q0.59375 0.3125 0.90625 0.828125l0 -1.046875l2.28125 0l0 7.4375l-2.28125 0l0 -1.046875q-0.328125 0.515625 -0.921875 0.84375q-0.59375 0.3125 -1.375 0.3125q-0.90625 0 -1.65625 -0.46875q-0.75 -0.484375 -1.1875 -1.34375q-0.421875 -0.875 -0.421875 -2.03125zm5.5625 0.015625q0 -0.859375 -0.46875 -1.34375q-0.46875 -0.5 -1.15625 -0.5q-0.671875 0 -1.15625 0.5q-0.46875 0.484375 -0.46875 1.328125q0 0.859375 0.46875 1.359375q0.484375 0.5 1.15625 0.5q0.6875 0 1.15625 -0.484375q0.46875 -0.5 0.46875 -1.359375zm13.424774 -3.796875q1.390625 0 2.203125 0.84375q0.828125 0.828125 0.828125 2.328125l0 4.34375l-2.265625 0l0 -4.03125q0 -0.734375 -0.390625 -1.125q-0.375 -0.390625 -1.03125 -0.390625q-0.671875 0 -1.0625 0.390625q-0.375 0.390625 -0.375 1.125l0 4.03125l-2.265625 0l0 -4.03125q0 -0.734375 -0.375 -1.125q-0.375 -0.390625 -1.046875 -0.390625q-0.671875 0 -1.046875 0.390625q-0.375 0.390625 -0.375 1.125l0 4.03125l-2.28125 0l0 -7.4375l2.28125 0l0 0.9375q0.34375 -0.46875 0.90625 -0.734375q0.5625 -0.28125 1.265625 -0.28125q0.84375 0 1.5 0.359375q0.65625 0.359375 1.03125 1.03125q0.390625 -0.625 1.046875 -1.0q0.671875 -0.390625 1.453125 -0.390625z" fill-rule="nonzero"/><path fill="#000000" fill-opacity="0.0" d="m73.7769 116.049866c4.861511 0.93652344 6.5220947 4.9844284 29.16906 5.6191025c22.646957 0.6346817 88.92725 -1.509201 106.7127 -1.8110428" fill-rule="evenodd"/><path stroke="#595959" stroke-width="2.0" stroke-linejoin="round" stroke-linecap="butt" d="m73.7769 116.049866c4.861511 0.9365158 6.5220947 4.9844284 29.16906 5.61911c11.323479 0.3173294 33.55529 -0.05996704 55.17942 -0.5543289c10.8120575 -0.24719238 21.472198 -0.5236435 30.540909 -0.7571564c2.2671967 -0.058380127 4.434906 -0.11408234 6.480667 -0.16596222l2.5147705 -0.06259155" fill-rule="evenodd"/><path fill="#595959" stroke="#595959" stroke-width="2.0" stroke-linecap="butt" d="m197.73634 123.43156l8.999268 -3.5076065l-9.148483 -3.097641z" fill-rule="evenodd"/><path fill="#000000" fill-opacity="0.0" d="m376.75592 42.44882l154.80316 0l0 45.10236l-154.80316 0z" fill-rule="evenodd"/><path fill="#000000" d="m386.7403 64.24882l0 -9.546875l6.53125 0l0 1.625l-4.609375 0l0 2.25l3.984375 0l0 1.625l-3.984375 0l0 4.046875l-1.921875 0zm9.485107 -4.796875l-1.671875 -0.3125q0.28125 -1.0 0.96875 -1.46875q0.6875 -0.484375 2.03125 -0.484375q1.21875 0 1.8125 0.296875q0.609375 0.28125 0.84375 0.734375q0.25 0.4375 0.25 1.625l-0.015625 2.140625q0 0.90625 0.078125 1.34375q0.09375 0.421875 0.34375 0.921875l-1.8125 0q-0.078125 -0.1875 -0.171875 -0.546875q-0.046875 -0.15625 -0.078125 -0.203125q-0.46875 0.453125 -1.0 0.6875q-0.53125 0.21875 -1.140625 0.21875q-1.0625 0 -1.6875 -0.578125q-0.609375 -0.578125 -0.609375 -1.46875q0 -0.578125 0.28125 -1.03125q0.28125 -0.46875 0.78125 -0.703125q0.515625 -0.25 1.46875 -0.4375q1.28125 -0.234375 1.765625 -0.453125l0 -0.171875q0 -0.53125 -0.265625 -0.75q-0.25 -0.234375 -0.96875 -0.234375q-0.484375 0 -0.765625 0.203125q-0.265625 0.1875 -0.4375 0.671875zm2.4375 1.484375q-0.34375 0.109375 -1.109375 0.28125q-0.765625 0.15625 -1.0 0.3125q-0.359375 0.25 -0.359375 0.640625q0 0.390625 0.28125 0.671875q0.296875 0.28125 0.734375 0.28125q0.5 0 0.953125 -0.328125q0.328125 -0.25 0.4375 -0.609375q0.0625 -0.234375 0.0625 -0.890625l0 -0.359375zm2.9593506 1.34375l1.828125 -0.28125q0.125 0.53125 0.484375 0.8125q0.359375 0.265625 1.0 0.265625q0.703125 0 1.0625 -0.25q0.25 -0.1875 0.25 -0.484375q0 -0.21875 -0.140625 -0.359375q-0.125 -0.125 -0.609375 -0.234375q-2.203125 -0.484375 -2.796875 -0.890625q-0.828125 -0.5625 -0.828125 -1.5625q0 -0.890625 0.703125 -1.5q0.71875 -0.609375 2.203125 -0.609375q1.421875 0 2.109375 0.46875q0.703125 0.453125 0.953125 1.359375l-1.71875 0.3125q-0.109375 -0.40625 -0.421875 -0.609375q-0.3125 -0.21875 -0.890625 -0.21875q-0.71875 0 -1.03125 0.203125q-0.203125 0.140625 -0.203125 0.359375q0 0.203125 0.1875 0.34375q0.234375 0.171875 1.6875 0.515625q1.46875 0.328125 2.0625 0.8125q0.5625 0.484375 0.5625 1.359375q0 0.953125 -0.796875 1.640625q-0.78125 0.671875 -2.34375 0.671875q-1.40625 0 -2.234375 -0.5625q-0.828125 -0.578125 -1.078125 -1.5625zm11.224976 -4.9375l0 1.453125l-1.25 0l0 2.78125q0 0.84375 0.03125 0.984375q0.046875 0.140625 0.171875 0.234375q0.125 0.09375 0.3125 0.09375q0.25 0 0.734375 -0.171875l0.15625 1.421875q-0.640625 0.265625 -1.453125 0.265625q-0.484375 0 -0.890625 -0.15625q-0.390625 -0.171875 -0.578125 -0.4375q-0.1875 -0.265625 -0.265625 -0.71875q-0.046875 -0.3125 -0.046875 -1.28125l0 -3.015625l-0.84375 0l0 -1.453125l0.84375 0l0 -1.375l1.828125 -1.078125l0 2.453125l1.25 0zm1.0633545 4.359375l0 -1.828125l3.59375 0l0 1.828125l-3.59375 0zm4.594635 -4.359375l1.703125 0l0 1.015625q0.328125 -0.53125 0.890625 -0.84375q0.578125 -0.328125 1.265625 -0.328125q1.203125 0 2.03125 0.9375q0.84375 0.9375 0.84375 2.625q0 1.734375 -0.84375 2.703125q-0.84375 0.953125 -2.046875 0.953125q-0.578125 0 -1.046875 -0.21875q-0.453125 -0.234375 -0.96875 -0.796875l0 3.484375l-1.828125 0l0 -9.53125zm1.8125 3.328125q0 1.171875 0.453125 1.734375q0.46875 0.546875 1.125 0.546875q0.640625 0 1.0625 -0.5q0.421875 -0.515625 0.421875 -1.6875q0 -1.078125 -0.4375 -1.609375q-0.4375 -0.53125 -1.078125 -0.53125q-0.671875 0 -1.109375 0.515625q-0.4375 0.515625 -0.4375 1.53125zm7.7507324 -1.21875l-1.671875 -0.3125q0.28125 -1.0 0.96875 -1.46875q0.6875 -0.484375 2.03125 -0.484375q1.21875 0 1.8125 0.296875q0.609375 0.28125 0.84375 0.734375q0.25 0.4375 0.25 1.625l-0.015625 2.140625q0 0.90625 0.078125 1.34375q0.09375 0.421875 0.34375 0.921875l-1.8125 0q-0.078125 -0.1875 -0.171875 -0.546875q-0.046875 -0.15625 -0.078125 -0.203125q-0.46875 0.453125 -1.0 0.6875q-0.53125 0.21875 -1.140625 0.21875q-1.0625 0 -1.6875 -0.578125q-0.609375 -0.578125 -0.609375 -1.46875q0 -0.578125 0.28125 -1.03125q0.28125 -0.46875 0.78125 -0.703125q0.515625 -0.25 1.46875 -0.4375q1.28125 -0.234375 1.765625 -0.453125l0 -0.171875q0 -0.53125 -0.265625 -0.75q-0.25 -0.234375 -0.96875 -0.234375q-0.484375 0 -0.765625 0.203125q-0.265625 0.1875 -0.4375 0.671875zm2.4375 1.484375q-0.34375 0.109375 -1.109375 0.28125q-0.765625 0.15625 -1.0 0.3125q-0.359375 0.25 -0.359375 0.640625q0 0.390625 0.28125 0.671875q0.296875 0.28125 0.734375 0.28125q0.5 0 0.953125 -0.328125q0.328125 -0.25 0.4375 -0.609375q0.0625 -0.234375 0.0625 -0.890625l0 -0.359375zm6.7718506 -3.59375l0 1.453125l-1.25 0l0 2.78125q0 0.84375 0.03125 0.984375q0.046875 0.140625 0.171875 0.234375q0.125 0.09375 0.3125 0.09375q0.25 0 0.734375 -0.171875l0.15625 1.421875q-0.640625 0.265625 -1.453125 0.265625q-0.484375 0 -0.890625 -0.15625q-0.390625 -0.171875 -0.578125 -0.4375q-0.1875 -0.265625 -0.265625 -0.71875q-0.046875 -0.3125 -0.046875 -1.28125l0 -3.015625l-0.84375 0l0 -1.453125l0.84375 0l0 -1.375l1.828125 -1.078125l0 2.453125l1.25 0zm3.0946045 -2.640625l0 3.515625q0.875 -1.03125 2.109375 -1.03125q0.640625 0 1.140625 0.234375q0.515625 0.234375 0.765625 0.59375q0.25 0.359375 0.34375 0.8125q0.109375 0.4375 0.109375 1.375l0 4.046875l-1.828125 0l0 -3.65625q0 -1.078125 -0.109375 -1.375q-0.109375 -0.296875 -0.375 -0.46875q-0.265625 -0.171875 -0.65625 -0.171875q-0.453125 0 -0.8125 0.234375q-0.359375 0.21875 -0.53125 0.671875q-0.15625 0.4375 -0.15625 1.296875l0 3.46875l-1.828125 0l0 -9.546875l1.828125 0zm9.21936 2.640625l1.015625 0l0 -0.53125q0 -0.859375 0.1875 -1.28125q0.1875 -0.4375 0.671875 -0.703125q0.5 -0.28125 1.265625 -0.28125q0.78125 0 1.53125 0.234375l-0.25 1.28125q-0.4375 -0.109375 -0.84375 -0.109375q-0.390625 0 -0.5625 0.1875q-0.171875 0.1875 -0.171875 0.703125l0 0.5l1.359375 0l0 1.4375l-1.359375 0l0 5.46875l-1.828125 0l0 -5.46875l-1.015625 0l0 -1.4375zm4.8133545 3.359375q0 -0.921875 0.453125 -1.765625q0.453125 -0.859375 1.265625 -1.296875q0.828125 -0.453125 1.84375 -0.453125q1.5625 0 2.5625 1.015625q1.015625 1.015625 1.015625 2.578125q0 1.5625 -1.015625 2.59375q-1.015625 1.03125 -2.546875 1.03125q-0.953125 0 -1.8125 -0.421875q-0.859375 -0.4375 -1.3125 -1.265625q-0.453125 -0.828125 -0.453125 -2.015625zm1.875 0.09375q0 1.03125 0.484375 1.578125q0.5 0.546875 1.203125 0.546875q0.71875 0 1.203125 -0.546875q0.484375 -0.546875 0.484375 -1.59375q0 -1.015625 -0.484375 -1.5625q-0.484375 -0.546875 -1.203125 -0.546875q-0.703125 0 -1.203125 0.546875q-0.484375 0.546875 -0.484375 1.578125zm8.438232 3.453125l-1.828125 0l0 -6.90625l1.703125 0l0 0.984375q0.4375 -0.703125 0.78125 -0.921875q0.34375 -0.21875 0.796875 -0.21875q0.625 0 1.203125 0.34375l-0.5625 1.59375q-0.46875 -0.296875 -0.859375 -0.296875q-0.390625 0 -0.65625 0.21875q-0.265625 0.203125 -0.421875 0.765625q-0.15625 0.546875 -0.15625 2.296875l0 2.140625z" fill-rule="nonzero"/><path fill="#000000" d="m390.70905 78.04569l1.828125 0.3125q-0.34375 1.0 -1.109375 1.53125q-0.765625 0.515625 -1.890625 0.515625q-1.8125 0 -2.671875 -1.171875q-0.6875 -0.953125 -0.6875 -2.390625q0 -1.71875 0.890625 -2.6875q0.90625 -0.96875 2.28125 -0.96875q1.546875 0 2.4375 1.015625q0.890625 1.015625 0.84375 3.125l-4.578125 0q0.015625 0.8125 0.4375 1.265625q0.421875 0.453125 1.0625 0.453125q0.421875 0 0.71875 -0.234375q0.296875 -0.234375 0.4375 -0.765625zm0.109375 -1.84375q-0.015625 -0.796875 -0.40625 -1.203125q-0.390625 -0.421875 -0.953125 -0.421875q-0.59375 0 -0.984375 0.4375q-0.390625 0.4375 -0.390625 1.1875l2.734375 0zm2.6624756 2.078125l1.828125 -0.28125q0.125 0.53125 0.484375 0.8125q0.359375 0.265625 1.0 0.265625q0.703125 0 1.0625 -0.25q0.25 -0.1875 0.25 -0.484375q0 -0.21875 -0.140625 -0.359375q-0.125 -0.125 -0.609375 -0.234375q-2.203125 -0.484375 -2.796875 -0.890625q-0.828125 -0.5625 -0.828125 -1.5625q0 -0.890625 0.703125 -1.5q0.71875 -0.609375 2.203125 -0.609375q1.421875 0 2.109375 0.46875q0.703125 0.453125 0.953125 1.359375l-1.71875 0.3125q-0.109375 -0.40625 -0.421875 -0.609375q-0.3125 -0.21875 -0.890625 -0.21875q-0.71875 0 -1.03125 0.203125q-0.203125 0.140625 -0.203125 0.359375q0 0.203125 0.1875 0.34375q0.234375 0.171875 1.6875 0.515625q1.46875 0.328125 2.0625 0.8125q0.5625 0.484375 0.5625 1.359375q0 0.953125 -0.796875 1.640625q-0.78125 0.671875 -2.34375 0.671875q-1.40625 0 -2.234375 -0.5625q-0.828125 -0.578125 -1.078125 -1.5625zm11.224976 -4.9375l0 1.453125l-1.25 0l0 2.78125q0 0.84375 0.03125 0.984375q0.046875 0.140625 0.171875 0.234375q0.125 0.09375 0.3125 0.09375q0.25 0 0.734375 -0.171875l0.15625 1.421875q-0.640625 0.265625 -1.453125 0.265625q-0.484375 0 -0.890625 -0.15625q-0.390625 -0.171875 -0.578125 -0.4375q-0.1875 -0.265625 -0.265625 -0.71875q-0.046875 -0.3125 -0.046875 -1.28125l0 -3.015625l-0.84375 0l0 -1.453125l0.84375 0l0 -1.375l1.828125 -1.078125l0 2.453125l1.25 0zm2.6414795 2.109375l-1.671875 -0.3125q0.28125 -1.0 0.96875 -1.46875q0.6875 -0.484375 2.03125 -0.484375q1.21875 0 1.8125 0.296875q0.609375 0.28125 0.84375 0.734375q0.25 0.4375 0.25 1.625l-0.015625 2.140625q0 0.90625 0.078125 1.34375q0.09375 0.421875 0.34375 0.921875l-1.8125 0q-0.078125 -0.1875 -0.171875 -0.546875q-0.046875 -0.15625 -0.078125 -0.203125q-0.46875 0.453125 -1.0 0.6875q-0.53125 0.21875 -1.140625 0.21875q-1.0625 0 -1.6875 -0.578125q-0.609375 -0.578125 -0.609375 -1.46875q0 -0.578125 0.28125 -1.03125q0.28125 -0.46875 0.78125 -0.703125q0.515625 -0.25 1.46875 -0.4375q1.28125 -0.234375 1.765625 -0.453125l0 -0.171875q0 -0.53125 -0.265625 -0.75q-0.25 -0.234375 -0.96875 -0.234375q-0.484375 0 -0.765625 0.203125q-0.265625 0.1875 -0.4375 0.671875zm2.4375 1.484375q-0.34375 0.109375 -1.109375 0.28125q-0.765625 0.15625 -1.0 0.3125q-0.359375 0.25 -0.359375 0.640625q0 0.390625 0.28125 0.671875q0.296875 0.28125 0.734375 0.28125q0.5 0 0.953125 -0.328125q0.328125 -0.25 0.4375 -0.609375q0.0625 -0.234375 0.0625 -0.890625l0 -0.359375zm3.5218506 3.3125l0 -9.546875l1.828125 0l0 3.4375q0.84375 -0.953125 2.015625 -0.953125q1.25 0 2.078125 0.921875q0.828125 0.90625 0.828125 2.609375q0 1.78125 -0.84375 2.734375q-0.84375 0.953125 -2.046875 0.953125q-0.59375 0 -1.171875 -0.296875q-0.5625 -0.296875 -0.984375 -0.875l0 1.015625l-1.703125 0zm1.8125 -3.609375q0 1.078125 0.34375 1.59375q0.46875 0.734375 1.265625 0.734375q0.609375 0 1.03125 -0.515625q0.421875 -0.53125 0.421875 -1.640625q0 -1.1875 -0.4375 -1.703125q-0.421875 -0.53125 -1.09375 -0.53125q-0.65625 0 -1.09375 0.515625q-0.4375 0.515625 -0.4375 1.546875zm6.4069824 3.609375l0 -9.546875l1.828125 0l0 9.546875l-1.828125 0zm3.703003 -7.84375l0 -1.703125l1.828125 0l0 1.703125l-1.828125 0zm0 7.84375l0 -6.90625l1.828125 0l0 6.90625l-1.828125 0zm3.0623474 -1.96875l1.828125 -0.28125q0.125 0.53125 0.484375 0.8125q0.359375 0.265625 1.0 0.265625q0.703125 0 1.0625 -0.25q0.25 -0.1875 0.25 -0.484375q0 -0.21875 -0.140625 -0.359375q-0.125 -0.125 -0.609375 -0.234375q-2.203125 -0.484375 -2.796875 -0.890625q-0.828125 -0.5625 -0.828125 -1.5625q0 -0.890625 0.703125 -1.5q0.71875 -0.609375 2.203125 -0.609375q1.421875 0 2.109375 0.46875q0.703125 0.453125 0.953125 1.359375l-1.71875 0.3125q-0.109375 -0.40625 -0.421875 -0.609375q-0.3125 -0.21875 -0.890625 -0.21875q-0.71875 0 -1.03125 0.203125q-0.203125 0.140625 -0.203125 0.359375q0 0.203125 0.1875 0.34375q0.234375 0.171875 1.6875 0.515625q1.46875 0.328125 2.0625 0.8125q0.5625 0.484375 0.5625 1.359375q0 0.953125 -0.796875 1.640625q-0.78125 0.671875 -2.34375 0.671875q-1.40625 0 -2.234375 -0.5625q-0.828125 -0.578125 -1.078125 -1.5625zm9.881226 -7.578125l0 3.515625q0.875 -1.03125 2.109375 -1.03125q0.640625 0 1.140625 0.234375q0.515625 0.234375 0.765625 0.59375q0.25 0.359375 0.34375 0.8125q0.109375 0.4375 0.109375 1.375l0 4.046875l-1.828125 0l0 -3.65625q0 -1.078125 -0.109375 -1.375q-0.109375 -0.296875 -0.375 -0.46875q-0.265625 -0.171875 -0.65625 -0.171875q-0.453125 0 -0.8125 0.234375q-0.359375 0.21875 -0.53125 0.671875q-0.15625 0.4375 -0.15625 1.296875l0 3.46875l-1.828125 0l0 -9.546875l1.828125 0zm10.313232 7.34375l1.828125 0.3125q-0.34375 1.0 -1.109375 1.53125q-0.765625 0.515625 -1.890625 0.515625q-1.8125 0 -2.671875 -1.171875q-0.6875 -0.953125 -0.6875 -2.390625q0 -1.71875 0.890625 -2.6875q0.90625 -0.96875 2.28125 -0.96875q1.546875 0 2.4375 1.015625q0.890625 1.015625 0.84375 3.125l-4.578125 0q0.015625 0.8125 0.4375 1.265625q0.421875 0.453125 1.0625 0.453125q0.421875 0 0.71875 -0.234375q0.296875 -0.234375 0.4375 -0.765625zm0.109375 -1.84375q-0.015625 -0.796875 -0.40625 -1.203125q-0.390625 -0.421875 -0.953125 -0.421875q-0.59375 0 -0.984375 0.4375q-0.390625 0.4375 -0.390625 1.1875l2.734375 0zm9.646851 4.046875l-1.703125 0l0 -1.015625q-0.421875 0.59375 -1.0 0.890625q-0.578125 0.28125 -1.15625 0.28125q-1.1875 0 -2.046875 -0.953125q-0.84375 -0.96875 -0.84375 -2.6875q0 -1.75 0.828125 -2.65625q0.828125 -0.921875 2.09375 -0.921875q1.15625 0 2.0 0.953125l0 -3.4375l1.828125 0l0 9.546875zm-4.875 -3.609375q0 1.109375 0.296875 1.609375q0.4375 0.71875 1.234375 0.71875q0.640625 0 1.078125 -0.53125q0.4375 -0.546875 0.4375 -1.609375q0 -1.203125 -0.4375 -1.71875q-0.421875 -0.53125 -1.09375 -0.53125q-0.640625 0 -1.078125 0.515625q-0.4375 0.515625 -0.4375 1.546875zm9.578735 -3.296875l1.015625 0l0 -0.53125q0 -0.859375 0.1875 -1.28125q0.1875 -0.4375 0.671875 -0.703125q0.5 -0.28125 1.265625 -0.28125q0.78125 0 1.53125 0.234375l-0.25 1.28125q-0.4375 -0.109375 -0.84375 -0.109375q-0.390625 0 -0.5625 0.1875q-0.171875 0.1875 -0.171875 0.703125l0 0.5l1.359375 0l0 1.4375l-1.359375 0l0 5.46875l-1.828125 0l0 -5.46875l-1.015625 0l0 -1.4375zm5.2352295 6.90625l0 -9.546875l1.828125 0l0 9.546875l-1.828125 0zm3.281128 -3.546875q0 -0.921875 0.453125 -1.765625q0.453125 -0.859375 1.265625 -1.296875q0.828125 -0.453125 1.84375 -0.453125q1.5625 0 2.5625 1.015625q1.015625 1.015625 1.015625 2.578125q0 1.5625 -1.015625 2.59375q-1.015625 1.03125 -2.546875 1.03125q-0.953125 0 -1.8125 -0.421875q-0.859375 -0.4375 -1.3125 -1.265625q-0.453125 -0.828125 -0.453125 -2.015625zm1.875 0.09375q0 1.03125 0.484375 1.578125q0.5 0.546875 1.203125 0.546875q0.71875 0 1.203125 -0.546875q0.484375 -0.546875 0.484375 -1.59375q0 -1.015625 -0.484375 -1.5625q-0.484375 -0.546875 -1.203125 -0.546875q-0.703125 0 -1.203125 0.546875q-0.484375 0.546875 -0.484375 1.578125zm7.9851074 3.453125l-2.1875 -6.90625l1.765625 0l1.296875 4.53125l1.203125 -4.53125l1.75 0l1.15625 4.53125l1.328125 -4.53125l1.796875 0l-2.21875 6.90625l-1.75 0l-1.203125 -4.4375l-1.171875 4.4375l-1.765625 0zm8.429535 -1.96875l1.828125 -0.28125q0.125 0.53125 0.484375 0.8125q0.359375 0.265625 1.0 0.265625q0.703125 0 1.0625 -0.25q0.25 -0.1875 0.25 -0.484375q0 -0.21875 -0.140625 -0.359375q-0.125 -0.125 -0.609375 -0.234375q-2.203125 -0.484375 -2.796875 -0.890625q-0.828125 -0.5625 -0.828125 -1.5625q0 -0.890625 0.703125 -1.5q0.71875 -0.609375 2.203125 -0.609375q1.421875 0 2.109375 0.46875q0.703125 0.453125 0.953125 1.359375l-1.71875 0.3125q-0.109375 -0.40625 -0.421875 -0.609375q-0.3125 -0.21875 -0.890625 -0.21875q-0.71875 0 -1.03125 0.203125q-0.203125 0.140625 -0.203125 0.359375q0 0.203125 0.1875 0.34375q0.234375 0.171875 1.6875 0.515625q1.46875 0.328125 2.0625 0.8125q0.5625 0.484375 0.5625 1.359375q0 0.953125 -0.796875 1.640625q-0.78125 0.671875 -2.34375 0.671875q-1.40625 0 -2.234375 -0.5625q-0.828125 -0.578125 -1.078125 -1.5625z" fill-rule="nonzero"/><path fill="#000000" fill-opacity="0.0" d="m124.6063 160.63518l85.039375 0l0 58.11023l-85.039375 0z" fill-rule="evenodd"/><path fill="#000000" d="m136.7313 182.43517l0 -7.921875l-2.84375 0l0 -1.625l7.59375 0l0 1.625l-2.828125 0l0 7.921875l-1.921875 0zm6.9838104 0l-1.828125 0l0 -6.90625l1.703125 0l0 0.984375q0.4375 -0.703125 0.78125 -0.921875q0.34375 -0.21875 0.796875 -0.21875q0.625 0 1.203125 0.34375l-0.5625 1.59375q-0.46875 -0.296875 -0.859375 -0.296875q-0.390625 0 -0.65625 0.21875q-0.265625 0.203125 -0.421875 0.765625q-0.15625 0.546875 -0.15625 2.296875l0 2.140625zm4.811783 -4.796875l-1.671875 -0.3125q0.28125 -1.0 0.96875 -1.46875q0.6875 -0.484375 2.03125 -0.484375q1.21875 0 1.8125 0.296875q0.609375 0.28125 0.84375 0.734375q0.25 0.4375 0.25 1.625l-0.015625 2.140625q0 0.90625 0.078125 1.34375q0.09375 0.421875 0.34375 0.921875l-1.8125 0q-0.078125 -0.1875 -0.171875 -0.546875q-0.046875 -0.15625 -0.078125 -0.203125q-0.46875 0.453125 -1.0 0.6875q-0.53125 0.21875 -1.140625 0.21875q-1.0625 0 -1.6875 -0.578125q-0.609375 -0.578125 -0.609375 -1.46875q0 -0.578125 0.28125 -1.03125q0.28125 -0.46875 0.78125 -0.703125q0.515625 -0.25 1.46875 -0.4375q1.28125 -0.234375 1.765625 -0.453125l0 -0.171875q0 -0.53125 -0.265625 -0.75q-0.25 -0.234375 -0.96875 -0.234375q-0.484375 0 -0.765625 0.203125q-0.265625 0.1875 -0.4375 0.671875zm2.4375 1.484375q-0.34375 0.109375 -1.109375 0.28125q-0.765625 0.15625 -1.0 0.3125q-0.359375 0.25 -0.359375 0.640625q0 0.390625 0.28125 0.671875q0.296875 0.28125 0.734375 0.28125q0.5 0 0.953125 -0.328125q0.328125 -0.25 0.4375 -0.609375q0.0625 -0.234375 0.0625 -0.890625l0 -0.359375zm2.8031006 -3.59375l1.015625 0l0 -0.53125q0 -0.859375 0.1875 -1.28125q0.1875 -0.4375 0.671875 -0.703125q0.5 -0.28125 1.265625 -0.28125q0.78125 0 1.53125 0.234375l-0.25 1.28125q-0.4375 -0.109375 -0.84375 -0.109375q-0.390625 0 -0.5625 0.1875q-0.171875 0.1875 -0.171875 0.703125l0 0.5l1.359375 0l0 1.4375l-1.359375 0l0 5.46875l-1.828125 0l0 -5.46875l-1.015625 0l0 -1.4375zm4.4383698 0l1.015625 0l0 -0.53125q0 -0.859375 0.1875 -1.28125q0.1875 -0.4375 0.671875 -0.703125q0.5 -0.28125 1.265625 -0.28125q0.78125 0 1.53125 0.234375l-0.25 1.28125q-0.4375 -0.109375 -0.84375 -0.109375q-0.390625 0 -0.5625 0.1875q-0.171875 0.1875 -0.171875 0.703125l0 0.5l1.359375 0l0 1.4375l-1.359375 0l0 5.46875l-1.828125 0l0 -5.46875l-1.015625 0l0 -1.4375zm5.2352448 -0.9375l0 -1.703125l1.828125 0l0 1.703125l-1.828125 0zm0 7.84375l0 -6.90625l1.828125 0l0 6.90625l-1.828125 0zm9.734238 -4.875l-1.796875 0.328125q-0.09375 -0.53125 -0.421875 -0.796875q-0.328125 -0.28125 -0.828125 -0.28125q-0.6875 0 -1.09375 0.46875q-0.40625 0.46875 -0.40625 1.578125q0 1.234375 0.40625 1.75q0.421875 0.5 1.109375 0.5q0.53125 0 0.859375 -0.296875q0.328125 -0.296875 0.46875 -1.03125l1.796875 0.3125q-0.28125 1.234375 -1.078125 1.875q-0.796875 0.625 -2.125 0.625q-1.515625 0 -2.421875 -0.953125q-0.90625 -0.953125 -0.90625 -2.65625q0 -1.703125 0.90625 -2.65625q0.90625 -0.953125 2.453125 -0.953125q1.265625 0 2.0 0.546875q0.75 0.53125 1.078125 1.640625z" fill-rule="nonzero"/><path fill="#000000" d="m133.76254 191.52892l1.015625 0l0 -0.53125q0 -0.859375 0.1875 -1.28125q0.1875 -0.4375 0.671875 -0.703125q0.5 -0.28125 1.265625 -0.28125q0.78125 0 1.53125 0.234375l-0.25 1.28125q-0.4375 -0.109375 -0.84375 -0.109375q-0.390625 0 -0.5625 0.1875q-0.171875 0.1875 -0.171875 0.703125l0 0.5l1.359375 0l0 1.4375l-1.359375 0l0 5.46875l-1.828125 0l0 -5.46875l-1.015625 0l0 -1.4375zm6.9852448 6.90625l-1.828125 0l0 -6.90625l1.703125 0l0 0.984375q0.4375 -0.703125 0.78125 -0.921875q0.34375 -0.21875 0.796875 -0.21875q0.625 0 1.203125 0.34375l-0.5625 1.59375q-0.46875 -0.296875 -0.859375 -0.296875q-0.390625 0 -0.65625 0.21875q-0.265625 0.203125 -0.421875 0.765625q-0.15625 0.546875 -0.15625 2.296875l0 2.140625zm3.0149078 -3.546875q0 -0.921875 0.453125 -1.765625q0.453125 -0.859375 1.265625 -1.296875q0.828125 -0.453125 1.84375 -0.453125q1.5625 0 2.5625 1.015625q1.015625 1.015625 1.015625 2.578125q0 1.5625 -1.015625 2.59375q-1.015625 1.03125 -2.546875 1.03125q-0.953125 0 -1.8125 -0.421875q-0.859375 -0.4375 -1.3125 -1.265625q-0.453125 -0.828125 -0.453125 -2.015625zm1.875 0.09375q0 1.03125 0.484375 1.578125q0.5 0.546875 1.203125 0.546875q0.71875 0 1.203125 -0.546875q0.484375 -0.546875 0.484375 -1.59375q0 -1.015625 -0.484375 -1.5625q-0.484375 -0.546875 -1.203125 -0.546875q-0.703125 0 -1.203125 0.546875q-0.484375 0.546875 -0.484375 1.578125zm6.5476074 -3.453125l1.6875 0l0 0.9375q0.90625 -1.09375 2.15625 -1.09375q0.671875 0 1.15625 0.28125q0.484375 0.265625 0.796875 0.8125q0.453125 -0.546875 0.984375 -0.8125q0.53125 -0.28125 1.125 -0.28125q0.765625 0 1.28125 0.3125q0.53125 0.296875 0.796875 0.90625q0.1875 0.4375 0.1875 1.421875l0 4.421875l-1.828125 0l0 -3.953125q0 -1.03125 -0.1875 -1.328125q-0.25 -0.390625 -0.78125 -0.390625q-0.390625 0 -0.734375 0.234375q-0.328125 0.234375 -0.484375 0.6875q-0.140625 0.453125 -0.140625 1.4375l0 3.3125l-1.828125 0l0 -3.78125q0 -1.015625 -0.109375 -1.296875q-0.09375 -0.296875 -0.296875 -0.4375q-0.203125 -0.15625 -0.546875 -0.15625q-0.421875 0 -0.765625 0.234375q-0.34375 0.21875 -0.484375 0.65625q-0.140625 0.421875 -0.140625 1.421875l0 3.359375l-1.84375 0l0 -6.90625zm17.522583 -2.640625l0 3.515625q0.875 -1.03125 2.109375 -1.03125q0.640625 0 1.140625 0.234375q0.515625 0.234375 0.765625 0.59375q0.25 0.359375 0.34375 0.8125q0.109375 0.4375 0.109375 1.375l0 4.046875l-1.828125 0l0 -3.65625q0 -1.078125 -0.109375 -1.375q-0.109375 -0.296875 -0.375 -0.46875q-0.265625 -0.171875 -0.65625 -0.171875q-0.453125 0 -0.8125 0.234375q-0.359375 0.21875 -0.53125 0.671875q-0.15625 0.4375 -0.15625 1.296875l0 3.46875l-1.828125 0l0 -9.546875l1.828125 0zm5.8913574 6.0q0 -0.921875 0.453125 -1.765625q0.453125 -0.859375 1.265625 -1.296875q0.828125 -0.453125 1.84375 -0.453125q1.5625 0 2.5625 1.015625q1.015625 1.015625 1.015625 2.578125q0 1.5625 -1.015625 2.59375q-1.015625 1.03125 -2.546875 1.03125q-0.953125 0 -1.8125 -0.421875q-0.859375 -0.4375 -1.3125 -1.265625q-0.453125 -0.828125 -0.453125 -2.015625zm1.875 0.09375q0 1.03125 0.484375 1.578125q0.5 0.546875 1.203125 0.546875q0.71875 0 1.203125 -0.546875q0.484375 -0.546875 0.484375 -1.59375q0 -1.015625 -0.484375 -1.5625q-0.484375 -0.546875 -1.203125 -0.546875q-0.703125 0 -1.203125 0.546875q-0.484375 0.546875 -0.484375 1.578125zm6.0476074 1.484375l1.828125 -0.28125q0.125 0.53125 0.484375 0.8125q0.359375 0.265625 1.0 0.265625q0.703125 0 1.0625 -0.25q0.25 -0.1875 0.25 -0.484375q0 -0.21875 -0.140625 -0.359375q-0.125 -0.125 -0.609375 -0.234375q-2.203125 -0.484375 -2.796875 -0.890625q-0.828125 -0.5625 -0.828125 -1.5625q0 -0.890625 0.703125 -1.5q0.71875 -0.609375 2.203125 -0.609375q1.421875 0 2.109375 0.46875q0.703125 0.453125 0.953125 1.359375l-1.71875 0.3125q-0.109375 -0.40625 -0.421875 -0.609375q-0.3125 -0.21875 -0.890625 -0.21875q-0.71875 0 -1.03125 0.203125q-0.203125 0.140625 -0.203125 0.359375q0 0.203125 0.1875 0.34375q0.234375 0.171875 1.6875 0.515625q1.46875 0.328125 2.0625 0.8125q0.5625 0.484375 0.5625 1.359375q0 0.953125 -0.796875 1.640625q-0.78125 0.671875 -2.34375 0.671875q-1.40625 0 -2.234375 -0.5625q-0.828125 -0.578125 -1.078125 -1.5625zm11.224976 -4.9375l0 1.453125l-1.25 0l0 2.78125q0 0.84375 0.03125 0.984375q0.046875 0.140625 0.171875 0.234375q0.125 0.09375 0.3125 0.09375q0.25 0 0.734375 -0.171875l0.15625 1.421875q-0.640625 0.265625 -1.453125 0.265625q-0.484375 0 -0.890625 -0.15625q-0.390625 -0.171875 -0.578125 -0.4375q-0.1875 -0.265625 -0.265625 -0.71875q-0.046875 -0.3125 -0.046875 -1.28125l0 -3.015625l-0.84375 0l0 -1.453125l0.84375 0l0 -1.375l1.828125 -1.078125l0 2.453125l1.25 0z" fill-rule="nonzero"/><path fill="#000000" d="m134.55942 206.59142l0 -1.703125l1.828125 0l0 1.703125l-1.828125 0zm0 7.84375l0 -6.90625l1.828125 0l0 6.90625l-1.828125 0zm6.8748627 -6.90625l0 1.453125l-1.25 0l0 2.78125q0 0.84375 0.03125 0.984375q0.046875 0.140625 0.171875 0.234375q0.125 0.09375 0.3125 0.09375q0.25 0 0.734375 -0.171875l0.15625 1.421875q-0.640625 0.265625 -1.453125 0.265625q-0.484375 0 -0.890625 -0.15625q-0.390625 -0.171875 -0.578125 -0.4375q-0.1875 -0.265625 -0.265625 -0.71875q-0.046875 -0.3125 -0.046875 -1.28125l0 -3.015625l-0.84375 0l0 -1.453125l0.84375 0l0 -1.375l1.828125 -1.078125l0 2.453125l1.25 0zm0.62586975 4.9375l1.828125 -0.28125q0.125 0.53125 0.484375 0.8125q0.359375 0.265625 1.0 0.265625q0.703125 0 1.0625 -0.25q0.25 -0.1875 0.25 -0.484375q0 -0.21875 -0.140625 -0.359375q-0.125 -0.125 -0.609375 -0.234375q-2.203125 -0.484375 -2.796875 -0.890625q-0.828125 -0.5625 -0.828125 -1.5625q0 -0.890625 0.703125 -1.5q0.71875 -0.609375 2.203125 -0.609375q1.421875 0 2.109375 0.46875q0.703125 0.453125 0.953125 1.359375l-1.71875 0.3125q-0.109375 -0.40625 -0.421875 -0.609375q-0.3125 -0.21875 -0.890625 -0.21875q-0.71875 0 -1.03125 0.203125q-0.203125 0.140625 -0.203125 0.359375q0 0.203125 0.1875 0.34375q0.234375 0.171875 1.6875 0.515625q1.46875 0.328125 2.0625 0.8125q0.5625 0.484375 0.5625 1.359375q0 0.953125 -0.796875 1.640625q-0.78125 0.671875 -2.34375 0.671875q-1.40625 0 -2.234375 -0.5625q-0.828125 -0.578125 -1.078125 -1.5625zm12.053101 -0.234375l1.828125 0.3125q-0.34375 1.0 -1.109375 1.53125q-0.765625 0.515625 -1.890625 0.515625q-1.8125 0 -2.671875 -1.171875q-0.6875 -0.953125 -0.6875 -2.390625q0 -1.71875 0.890625 -2.6875q0.90625 -0.96875 2.28125 -0.96875q1.546875 0 2.4375 1.015625q0.890625 1.015625 0.84375 3.125l-4.578125 0q0.015625 0.8125 0.4375 1.265625q0.421875 0.453125 1.0625 0.453125q0.421875 0 0.71875 -0.234375q0.296875 -0.234375 0.4375 -0.765625zm0.109375 -1.84375q-0.015625 -0.796875 -0.40625 -1.203125q-0.390625 -0.421875 -0.953125 -0.421875q-0.59375 0 -0.984375 0.4375q-0.390625 0.4375 -0.390625 1.1875l2.734375 0zm3.3031006 4.046875l0 -9.546875l1.828125 0l0 9.546875l-1.828125 0zm2.9061127 -6.90625l1.015625 0l0 -0.53125q0 -0.859375 0.1875 -1.28125q0.1875 -0.4375 0.671875 -0.703125q0.5 -0.28125 1.265625 -0.28125q0.78125 0 1.53125 0.234375l-0.25 1.28125q-0.4375 -0.109375 -0.84375 -0.109375q-0.390625 0 -0.5625 0.1875q-0.171875 0.1875 -0.171875 0.703125l0 0.5l1.359375 0l0 1.4375l-1.359375 0l0 5.46875l-1.828125 0l0 -5.46875l-1.015625 0l0 -1.4375z" fill-rule="nonzero"/><path fill="#e69138" d="m341.61942 111.03674l102.26773 0l0 64.31496l-102.26773 0z" fill-rule="evenodd"/><path stroke="#595959" stroke-width="1.0" stroke-linejoin="round" stroke-linecap="butt" d="m341.61942 111.03674l102.26773 0l0 64.31496l-102.26773 0z" fill-rule="evenodd"/><path fill="#000000" d="m358.57254 126.493q0 0.8125 -0.375 1.484375q-0.375 0.671875 -1.140625 1.09375q-0.765625 0.40625 -1.921875 0.40625l-1.40625 0l0 3.359375l-2.28125 0l0 -9.359375l3.6875 0q1.125 0 1.890625 0.390625q0.78125 0.390625 1.15625 1.078125q0.390625 0.671875 0.390625 1.546875zm-3.609375 1.171875q0.65625 0 0.96875 -0.296875q0.328125 -0.3125 0.328125 -0.875q0 -0.5625 -0.328125 -0.859375q-0.3125 -0.3125 -0.96875 -0.3125l-1.234375 0l0 2.34375l1.234375 0zm8.191742 5.28125q-1.09375 0 -1.96875 -0.46875q-0.875 -0.46875 -1.375 -1.328125q-0.5 -0.875 -0.5 -2.03125q0 -1.140625 0.5 -2.015625q0.515625 -0.875 1.390625 -1.34375q0.875 -0.46875 1.96875 -0.46875q1.09375 0 1.96875 0.46875q0.890625 0.46875 1.390625 1.34375q0.515625 0.875 0.515625 2.015625q0 1.140625 -0.515625 2.015625q-0.515625 0.875 -1.40625 1.34375q-0.890625 0.46875 -1.96875 0.46875zm0 -1.96875q0.640625 0 1.09375 -0.484375q0.46875 -0.484375 0.46875 -1.375q0 -0.890625 -0.453125 -1.375q-0.4375 -0.484375 -1.09375 -0.484375q-0.65625 0 -1.109375 0.484375q-0.4375 0.46875 -0.4375 1.375q0 0.890625 0.4375 1.375q0.4375 0.484375 1.09375 0.484375zm7.380615 -8.0l0 9.859375l-2.28125 0l0 -9.859375l2.28125 0zm2.7911377 1.65625q-0.59375 0 -0.984375 -0.359375q-0.375 -0.359375 -0.375 -0.875q0 -0.53125 0.375 -0.875q0.390625 -0.359375 0.984375 -0.359375q0.59375 0 0.96875 0.359375q0.375 0.34375 0.375 0.875q0 0.515625 -0.375 0.875q-0.375 0.359375 -0.96875 0.359375zm1.140625 0.765625l0 7.4375l-2.28125 0l0 -7.4375l2.28125 0zm1.1974182 3.71875q0 -1.15625 0.46875 -2.015625q0.46875 -0.875 1.3125 -1.34375q0.859375 -0.46875 1.953125 -0.46875q1.390625 0 2.328125 0.734375q0.953125 0.734375 1.234375 2.0625l-2.421875 0q-0.3125 -0.84375 -1.1875 -0.84375q-0.625 0 -1.0 0.484375q-0.375 0.484375 -0.375 1.390625q0 0.90625 0.375 1.390625q0.375 0.484375 1.0 0.484375q0.875 0 1.1875 -0.84375l2.421875 0q-0.28125 1.296875 -1.234375 2.046875q-0.953125 0.75 -2.328125 0.75q-1.09375 0 -1.953125 -0.46875q-0.84375 -0.46875 -1.3125 -1.328125q-0.46875 -0.875 -0.46875 -2.03125zm16.110352 -3.71875l-4.65625 10.96875l-2.453125 0l1.703125 -3.78125l-3.03125 -7.1875l2.546875 0l1.71875 4.65625l1.703125 -4.65625l2.46875 0z" fill-rule="nonzero"/><path fill="#000000" d="m353.7288 142.44612q0.328125 -0.515625 0.90625 -0.828125q0.59375 -0.328125 1.375 -0.328125q0.921875 0 1.671875 0.46875q0.75 0.46875 1.171875 1.34375q0.4375 0.859375 0.4375 2.0q0 1.15625 -0.4375 2.03125q-0.421875 0.859375 -1.171875 1.34375q-0.75 0.46875 -1.671875 0.46875q-0.765625 0 -1.359375 -0.3125q-0.59375 -0.328125 -0.921875 -0.84375l0 4.59375l-2.28125 0l0 -10.984375l2.28125 0l0 1.046875zm3.25 2.65625q0 -0.84375 -0.484375 -1.328125q-0.46875 -0.5 -1.15625 -0.5q-0.6875 0 -1.15625 0.5q-0.46875 0.484375 -0.46875 1.34375q0 0.859375 0.46875 1.359375q0.46875 0.484375 1.15625 0.484375q0.671875 0 1.15625 -0.5q0.484375 -0.5 0.484375 -1.359375zm5.799774 -2.46875q0.390625 -0.609375 0.984375 -0.953125q0.609375 -0.359375 1.34375 -0.359375l0 2.40625l-0.625 0q-0.859375 0 -1.28125 0.375q-0.421875 0.359375 -0.421875 1.28125l0 3.453125l-2.28125 0l0 -7.4375l2.28125 0l0 1.234375zm6.8137817 6.3125q-1.09375 0 -1.96875 -0.46875q-0.875 -0.46875 -1.375 -1.328125q-0.5 -0.875 -0.5 -2.03125q0 -1.140625 0.5 -2.015625q0.515625 -0.875 1.390625 -1.34375q0.875 -0.46875 1.96875 -0.46875q1.09375 0 1.96875 0.46875q0.890625 0.46875 1.390625 1.34375q0.515625 0.875 0.515625 2.015625q0 1.140625 -0.515625 2.015625q-0.515625 0.875 -1.40625 1.34375q-0.890625 0.46875 -1.96875 0.46875zm0 -1.96875q0.640625 0 1.09375 -0.484375q0.46875 -0.484375 0.46875 -1.375q0 -0.890625 -0.453125 -1.375q-0.4375 -0.484375 -1.09375 -0.484375q-0.65625 0 -1.109375 0.484375q-0.4375 0.46875 -0.4375 1.375q0 0.890625 0.4375 1.375q0.4375 0.484375 1.09375 0.484375zm7.92749 -5.6875q0.78125 0 1.375 0.328125q0.59375 0.3125 0.90625 0.828125l0 -1.046875l2.28125 0l0 7.421875q0 1.03125 -0.40625 1.859375q-0.40625 0.828125 -1.234375 1.328125q-0.828125 0.5 -2.078125 0.5q-1.640625 0 -2.671875 -0.78125q-1.03125 -0.78125 -1.171875 -2.125l2.25 0q0.109375 0.4375 0.5 0.671875q0.40625 0.25 0.984375 0.25q0.71875 0 1.125 -0.40625q0.421875 -0.40625 0.421875 -1.296875l0 -1.046875q-0.328125 0.515625 -0.921875 0.84375q-0.578125 0.328125 -1.359375 0.328125q-0.921875 0 -1.671875 -0.46875q-0.75 -0.484375 -1.1875 -1.34375q-0.421875 -0.875 -0.421875 -2.03125q0 -1.140625 0.421875 -2.0q0.4375 -0.875 1.1875 -1.34375q0.75 -0.46875 1.671875 -0.46875zm2.28125 3.828125q0 -0.859375 -0.46875 -1.34375q-0.46875 -0.5 -1.15625 -0.5q-0.671875 0 -1.15625 0.5q-0.46875 0.484375 -0.46875 1.328125q0 0.859375 0.46875 1.359375q0.484375 0.5 1.15625 0.5q0.6875 0 1.15625 -0.484375q0.46875 -0.5 0.46875 -1.359375zm6.221649 -2.484375q0.390625 -0.609375 0.984375 -0.953125q0.609375 -0.359375 1.34375 -0.359375l0 2.40625l-0.625 0q-0.859375 0 -1.28125 0.375q-0.421875 0.359375 -0.421875 1.28125l0 3.453125l-2.28125 0l0 -7.4375l2.28125 0l0 1.234375zm2.9700317 2.46875q0 -1.140625 0.421875 -2.0q0.4375 -0.875 1.1875 -1.34375q0.75 -0.46875 1.671875 -0.46875q0.78125 0 1.375 0.328125q0.59375 0.3125 0.90625 0.828125l0 -1.046875l2.28125 0l0 7.4375l-2.28125 0l0 -1.046875q-0.328125 0.515625 -0.921875 0.84375q-0.59375 0.3125 -1.375 0.3125q-0.90625 0 -1.65625 -0.46875q-0.75 -0.484375 -1.1875 -1.34375q-0.421875 -0.875 -0.421875 -2.03125zm5.5625 0.015625q0 -0.859375 -0.46875 -1.34375q-0.46875 -0.5 -1.15625 -0.5q-0.671875 0 -1.15625 0.5q-0.46875 0.484375 -0.46875 1.328125q0 0.859375 0.46875 1.359375q0.484375 0.5 1.15625 0.5q0.6875 0 1.15625 -0.484375q0.46875 -0.5 0.46875 -1.359375zm13.424774 -3.796875q1.390625 0 2.203125 0.84375q0.828125 0.828125 0.828125 2.328125l0 4.34375l-2.265625 0l0 -4.03125q0 -0.734375 -0.390625 -1.125q-0.375 -0.390625 -1.03125 -0.390625q-0.671875 0 -1.0625 0.390625q-0.375 0.390625 -0.375 1.125l0 4.03125l-2.265625 0l0 -4.03125q0 -0.734375 -0.375 -1.125q-0.375 -0.390625 -1.046875 -0.390625q-0.671875 0 -1.046875 0.390625q-0.375 0.390625 -0.375 1.125l0 4.03125l-2.28125 0l0 -7.4375l2.28125 0l0 0.9375q0.34375 -0.46875 0.90625 -0.734375q0.5625 -0.28125 1.265625 -0.28125q0.84375 0 1.5 0.359375q0.65625 0.359375 1.03125 1.03125q0.390625 -0.625 1.046875 -1.0q0.671875 -0.390625 1.453125 -0.390625z" fill-rule="nonzero"/><path fill="#000000" d="m354.76004 167.32112q-1.28125 -1.265625 -2.0 -3.1875q-0.703125 -1.9375 -0.703125 -4.171875q0 -2.296875 0.75 -4.28125q0.765625 -2.0 2.15625 -3.296875l1.265625 0l0 0.125q-1.484375 1.40625 -2.25 3.375q-0.75 1.953125 -0.75 4.078125q0 2.0625 0.703125 3.953125q0.71875 1.875 2.09375 3.28125l0 0.125l-1.265625 0zm5.9415894 -9.90625q0.953125 0 1.65625 0.421875q0.71875 0.40625 1.0625 1.03125l0 -1.328125l1.234375 0l0 7.453125q0 1.0 -0.4375 1.78125q-0.421875 0.78125 -1.21875 1.21875q-0.78125 0.4375 -1.84375 0.4375q-1.4375 0 -2.390625 -0.6875q-0.953125 -0.671875 -1.140625 -1.84375l1.203125 0q0.203125 0.671875 0.828125 1.078125q0.625 0.40625 1.5 0.40625q1.0 0 1.625 -0.625q0.640625 -0.625 0.640625 -1.765625l0 -1.53125q-0.359375 0.640625 -1.0625 1.078125q-0.703125 0.421875 -1.65625 0.421875q-0.96875 0 -1.765625 -0.484375q-0.78125 -0.484375 -1.234375 -1.34375q-0.453125 -0.875 -0.453125 -1.96875q0 -1.125 0.453125 -1.96875q0.453125 -0.84375 1.234375 -1.3125q0.796875 -0.46875 1.765625 -0.46875zm2.71875 3.75q0 -0.8125 -0.328125 -1.421875q-0.328125 -0.625 -0.90625 -0.953125q-0.5625 -0.328125 -1.234375 -0.328125q-0.6875 0 -1.25 0.328125q-0.546875 0.3125 -0.890625 0.9375q-0.328125 0.609375 -0.328125 1.4375q0 0.828125 0.328125 1.453125q0.34375 0.625 0.890625 0.953125q0.5625 0.3125 1.25 0.3125q0.671875 0 1.234375 -0.3125q0.578125 -0.328125 0.90625 -0.953125q0.328125 -0.625 0.328125 -1.453125zm9.947266 -0.265625q0 0.359375 -0.03125 0.734375l-5.84375 0q0.0625 1.078125 0.734375 1.6875q0.671875 0.609375 1.640625 0.609375q0.78125 0 1.3125 -0.359375q0.53125 -0.375 0.734375 -0.984375l1.3125 0q-0.296875 1.046875 -1.1875 1.71875q-0.875 0.65625 -2.171875 0.65625q-1.046875 0 -1.875 -0.46875q-0.8125 -0.46875 -1.28125 -1.328125q-0.453125 -0.859375 -0.453125 -2.0q0 -1.125 0.453125 -1.96875q0.453125 -0.859375 1.265625 -1.3125q0.828125 -0.46875 1.890625 -0.46875q1.03125 0 1.828125 0.453125q0.8125 0.453125 1.234375 1.25q0.4375 0.78125 0.4375 1.78125zm-1.25 -0.25q0 -0.6875 -0.3125 -1.1875q-0.296875 -0.5 -0.828125 -0.75q-0.53125 -0.265625 -1.171875 -0.265625q-0.90625 0 -1.5625 0.59375q-0.640625 0.578125 -0.734375 1.609375l4.609375 0zm6.4040527 -3.25q1.34375 0 2.171875 0.8125q0.828125 0.796875 0.828125 2.3125l0 4.3125l-1.203125 0l0 -4.125q0 -1.09375 -0.546875 -1.671875q-0.546875 -0.59375 -1.5 -0.59375q-0.953125 0 -1.53125 0.609375q-0.5625 0.59375 -0.5625 1.75l0 4.03125l-1.203125 0l0 -7.296875l1.203125 0l0 1.03125q0.359375 -0.5625 0.984375 -0.859375q0.625 -0.3125 1.359375 -0.3125zm11.639343 3.5q0 0.359375 -0.03125 0.734375l-5.84375 0q0.0625 1.078125 0.734375 1.6875q0.671875 0.609375 1.640625 0.609375q0.78125 0 1.3125 -0.359375q0.53125 -0.375 0.734375 -0.984375l1.3125 0q-0.296875 1.046875 -1.1875 1.71875q-0.875 0.65625 -2.171875 0.65625q-1.046875 0 -1.875 -0.46875q-0.8125 -0.46875 -1.28125 -1.328125q-0.453125 -0.859375 -0.453125 -2.0q0 -1.125 0.453125 -1.96875q0.453125 -0.859375 1.265625 -1.3125q0.828125 -0.46875 1.890625 -0.46875q1.03125 0 1.828125 0.453125q0.8125 0.453125 1.234375 1.25q0.4375 0.78125 0.4375 1.78125zm-1.25 -0.25q0 -0.6875 -0.3125 -1.1875q-0.296875 -0.5 -0.828125 -0.75q-0.53125 -0.265625 -1.171875 -0.265625q-0.90625 0 -1.5625 0.59375q-0.640625 0.578125 -0.734375 1.609375l4.609375 0zm4.060272 -1.9375q0.328125 -0.625 0.921875 -0.96875q0.59375 -0.34375 1.4375 -0.34375l0 1.25l-0.3125 0q-2.046875 0 -2.046875 2.21875l0 3.96875l-1.203125 0l0 -7.296875l1.203125 0l0 1.171875zm3.3151245 2.453125q0 -1.125 0.453125 -1.96875q0.453125 -0.84375 1.234375 -1.3125q0.796875 -0.46875 1.765625 -0.46875q0.96875 0 1.671875 0.421875q0.703125 0.40625 1.046875 1.03125l0 -1.328125l1.234375 0l0 7.296875l-1.234375 0l0 -1.359375q-0.359375 0.640625 -1.078125 1.0625q-0.703125 0.421875 -1.640625 0.421875q-0.984375 0 -1.765625 -0.484375q-0.78125 -0.484375 -1.234375 -1.34375q-0.453125 -0.875 -0.453125 -1.96875zm6.171875 0q0 -0.8125 -0.328125 -1.421875q-0.328125 -0.625 -0.90625 -0.953125q-0.5625 -0.328125 -1.234375 -0.328125q-0.6875 0 -1.25 0.328125q-0.546875 0.3125 -0.890625 0.9375q-0.328125 0.609375 -0.328125 1.4375q0 0.828125 0.328125 1.453125q0.34375 0.625 0.890625 0.953125q0.5625 0.3125 1.25 0.3125q0.671875 0 1.234375 -0.3125q0.578125 -0.328125 0.90625 -0.953125q0.328125 -0.625 0.328125 -1.453125zm4.759796 -2.625l0 4.296875q0 0.53125 0.21875 0.75q0.234375 0.21875 0.796875 0.21875l0.890625 0l0 1.03125l-1.09375 0q-1.0 0 -1.515625 -0.46875q-0.5 -0.46875 -0.5 -1.53125l0 -4.296875l-0.953125 0l0 -1.0l0.953125 0l0 -1.84375l1.203125 0l0 1.84375l1.90625 0l0 1.0l-1.90625 0zm10.03891 2.359375q0 0.359375 -0.03125 0.734375l-5.84375 0q0.0625 1.078125 0.734375 1.6875q0.671875 0.609375 1.640625 0.609375q0.78125 0 1.3125 -0.359375q0.53125 -0.375 0.734375 -0.984375l1.3125 0q-0.296875 1.046875 -1.1875 1.71875q-0.875 0.65625 -2.171875 0.65625q-1.046875 0 -1.875 -0.46875q-0.8125 -0.46875 -1.28125 -1.328125q-0.453125 -0.859375 -0.453125 -2.0q0 -1.125 0.453125 -1.96875q0.453125 -0.859375 1.265625 -1.3125q0.828125 -0.46875 1.890625 -0.46875q1.03125 0 1.828125 0.453125q0.8125 0.453125 1.234375 1.25q0.4375 0.78125 0.4375 1.78125zm-1.25 -0.25q0 -0.6875 -0.3125 -1.1875q-0.296875 -0.5 -0.828125 -0.75q-0.53125 -0.265625 -1.171875 -0.265625q-0.90625 0 -1.5625 0.59375q-0.640625 0.578125 -0.734375 1.609375l4.609375 0zm2.4040527 0.515625q0 -1.125 0.453125 -1.96875q0.453125 -0.84375 1.234375 -1.3125q0.796875 -0.46875 1.78125 -0.46875q0.859375 0 1.59375 0.390625q0.734375 0.390625 1.109375 1.03125l0 -3.859375l1.234375 0l0 9.859375l-1.234375 0l0 -1.375q-0.359375 0.65625 -1.0625 1.078125q-0.703125 0.421875 -1.65625 0.421875q-0.96875 0 -1.765625 -0.484375q-0.78125 -0.484375 -1.234375 -1.34375q-0.453125 -0.875 -0.453125 -1.96875zm6.171875 0q0 -0.8125 -0.328125 -1.421875q-0.328125 -0.625 -0.90625 -0.953125q-0.5625 -0.328125 -1.234375 -0.328125q-0.6875 0 -1.25 0.328125q-0.546875 0.3125 -0.890625 0.9375q-0.328125 0.609375 -0.328125 1.4375q0 0.828125 0.328125 1.453125q0.34375 0.625 0.890625 0.953125q0.5625 0.3125 1.25 0.3125q0.671875 0 1.234375 -0.3125q0.578125 -0.328125 0.90625 -0.953125q0.328125 -0.625 0.328125 -1.453125zm2.9003906 6.15625l0 -0.125q1.375 -1.40625 2.078125 -3.28125q0.71875 -1.890625 0.71875 -3.953125q0 -2.125 -0.75 -4.078125q-0.75 -1.96875 -2.25 -3.375l0 -0.125l1.265625 0q1.40625 1.296875 2.15625 3.296875q0.75 1.984375 0.75 4.28125q0 2.234375 -0.71875 4.171875q-0.703125 1.921875 -1.984375 3.1875l-1.265625 0z" fill-rule="nonzero"/><path fill="#f6b26b" d="m446.5328 111.03674l117.98428 0l0 64.31496l-117.98428 0z" fill-rule="evenodd"/><path stroke="#595959" stroke-width="1.0" stroke-linejoin="round" stroke-linecap="butt" d="m446.5328 111.03674l117.98428 0l0 64.31496l-117.98428 0z" fill-rule="evenodd"/><path fill="#000000" d="m458.64218 125.3055l0 1.890625l3.046875 0l0 1.765625l-3.046875 0l0 2.046875l3.453125 0l0 1.828125l-5.734375 0l0 -9.359375l5.734375 0l0 1.828125l-3.453125 0zm7.2105103 1.140625q0.328125 -0.515625 0.90625 -0.828125q0.59375 -0.328125 1.375 -0.328125q0.921875 0 1.671875 0.46875q0.75 0.46875 1.171875 1.34375q0.4375 0.859375 0.4375 2.0q0 1.15625 -0.4375 2.03125q-0.421875 0.859375 -1.171875 1.34375q-0.75 0.46875 -1.671875 0.46875q-0.765625 0 -1.359375 -0.3125q-0.59375 -0.328125 -0.921875 -0.84375l0 4.59375l-2.28125 0l0 -10.984375l2.28125 0l0 1.046875zm3.25 2.65625q0 -0.84375 -0.484375 -1.328125q-0.46875 -0.5 -1.15625 -0.5q-0.6875 0 -1.15625 0.5q-0.46875 0.484375 -0.46875 1.34375q0 0.859375 0.46875 1.359375q0.46875 0.484375 1.15625 0.484375q0.671875 0 1.15625 -0.5q0.484375 -0.5 0.484375 -1.359375zm4.6591187 -4.46875q-0.59375 0 -0.984375 -0.359375q-0.375 -0.359375 -0.375 -0.875q0 -0.53125 0.375 -0.875q0.390625 -0.359375 0.984375 -0.359375q0.59375 0 0.96875 0.359375q0.375 0.34375 0.375 0.875q0 0.515625 -0.375 0.875q-0.375 0.359375 -0.96875 0.359375zm1.140625 0.765625l0 7.4375l-2.28125 0l0 -7.4375l2.28125 0zm3.9317932 -2.421875l0 9.859375l-2.28125 0l0 -9.859375l2.28125 0zm5.0411377 9.96875q-1.09375 0 -1.96875 -0.46875q-0.875 -0.46875 -1.375 -1.328125q-0.5 -0.875 -0.5 -2.03125q0 -1.140625 0.5 -2.015625q0.515625 -0.875 1.390625 -1.34375q0.875 -0.46875 1.96875 -0.46875q1.09375 0 1.96875 0.46875q0.890625 0.46875 1.390625 1.34375q0.515625 0.875 0.515625 2.015625q0 1.140625 -0.515625 2.015625q-0.515625 0.875 -1.40625 1.34375q-0.890625 0.46875 -1.96875 0.46875zm0 -1.96875q0.640625 0 1.09375 -0.484375q0.46875 -0.484375 0.46875 -1.375q0 -0.890625 -0.453125 -1.375q-0.4375 -0.484375 -1.09375 -0.484375q-0.65625 0 -1.109375 0.484375q-0.4375 0.46875 -0.4375 1.375q0 0.890625 0.4375 1.375q0.4375 0.484375 1.09375 0.484375zm7.92749 -5.6875q0.78125 0 1.375 0.328125q0.59375 0.3125 0.90625 0.828125l0 -1.046875l2.28125 0l0 7.421875q0 1.03125 -0.40625 1.859375q-0.40625 0.828125 -1.234375 1.328125q-0.828125 0.5 -2.078125 0.5q-1.640625 0 -2.671875 -0.78125q-1.03125 -0.78125 -1.171875 -2.125l2.25 0q0.109375 0.4375 0.5 0.671875q0.40625 0.25 0.984375 0.25q0.71875 0 1.125 -0.40625q0.421875 -0.40625 0.421875 -1.296875l0 -1.046875q-0.328125 0.515625 -0.921875 0.84375q-0.578125 0.328125 -1.359375 0.328125q-0.921875 0 -1.671875 -0.46875q-0.75 -0.484375 -1.1875 -1.34375q-0.421875 -0.875 -0.421875 -2.03125q0 -1.140625 0.421875 -2.0q0.4375 -0.875 1.1875 -1.34375q0.75 -0.46875 1.671875 -0.46875zm2.28125 3.828125q0 -0.859375 -0.46875 -1.34375q-0.46875 -0.5 -1.15625 -0.5q-0.671875 0 -1.15625 0.5q-0.46875 0.484375 -0.46875 1.328125q0 0.859375 0.46875 1.359375q0.484375 0.5 1.15625 0.5q0.6875 0 1.15625 -0.484375q0.46875 -0.5 0.46875 -1.359375zm11.284149 -3.71875l0 7.4375l-2.28125 0l0 -1.015625q-0.34375 0.5 -0.9375 0.796875q-0.59375 0.296875 -1.3125 0.296875q-0.859375 0 -1.515625 -0.375q-0.640625 -0.390625 -1.0 -1.109375q-0.359375 -0.71875 -0.359375 -1.6875l0 -4.34375l2.265625 0l0 4.03125q0 0.75 0.375 1.171875q0.390625 0.40625 1.046875 0.40625q0.671875 0 1.046875 -0.40625q0.390625 -0.421875 0.390625 -1.171875l0 -4.03125l2.28125 0zm8.654999 3.59375q0 0.328125 -0.046875 0.671875l-5.15625 0q0.046875 0.6875 0.4375 1.0625q0.40625 0.359375 0.96875 0.359375q0.859375 0 1.1875 -0.71875l2.421875 0q-0.171875 0.734375 -0.671875 1.328125q-0.484375 0.578125 -1.21875 0.921875q-0.734375 0.328125 -1.640625 0.328125q-1.09375 0 -1.953125 -0.46875q-0.84375 -0.46875 -1.328125 -1.328125q-0.46875 -0.875 -0.46875 -2.03125q0 -1.15625 0.46875 -2.015625q0.46875 -0.875 1.328125 -1.34375q0.859375 -0.46875 1.953125 -0.46875q1.09375 0 1.921875 0.453125q0.84375 0.453125 1.3125 1.296875q0.484375 0.84375 0.484375 1.953125zm-2.34375 -0.59375q0 -0.59375 -0.40625 -0.9375q-0.390625 -0.34375 -0.984375 -0.34375q-0.578125 0 -0.96875 0.34375q-0.390625 0.328125 -0.484375 0.9375l2.84375 0z" fill-rule="nonzero"/><path fill="#000000" d="m458.64218 142.44612q0.328125 -0.515625 0.90625 -0.828125q0.59375 -0.328125 1.375 -0.328125q0.921875 0 1.671875 0.46875q0.75 0.46875 1.171875 1.34375q0.4375 0.859375 0.4375 2.0q0 1.15625 -0.4375 2.03125q-0.421875 0.859375 -1.171875 1.34375q-0.75 0.46875 -1.671875 0.46875q-0.765625 0 -1.359375 -0.3125q-0.59375 -0.328125 -0.921875 -0.84375l0 4.59375l-2.28125 0l0 -10.984375l2.28125 0l0 1.046875zm3.25 2.65625q0 -0.84375 -0.484375 -1.328125q-0.46875 -0.5 -1.15625 -0.5q-0.6875 0 -1.15625 0.5q-0.46875 0.484375 -0.46875 1.34375q0 0.859375 0.46875 1.359375q0.46875 0.484375 1.15625 0.484375q0.671875 0 1.15625 -0.5q0.484375 -0.5 0.484375 -1.359375zm5.799774 -2.46875q0.390625 -0.609375 0.984375 -0.953125q0.609375 -0.359375 1.34375 -0.359375l0 2.40625l-0.625 0q-0.859375 0 -1.28125 0.375q-0.421875 0.359375 -0.421875 1.28125l0 3.453125l-2.28125 0l0 -7.4375l2.28125 0l0 1.234375zm6.8137817 6.3125q-1.09375 0 -1.96875 -0.46875q-0.875 -0.46875 -1.375 -1.328125q-0.5 -0.875 -0.5 -2.03125q0 -1.140625 0.5 -2.015625q0.515625 -0.875 1.390625 -1.34375q0.875 -0.46875 1.96875 -0.46875q1.09375 0 1.96875 0.46875q0.890625 0.46875 1.390625 1.34375q0.515625 0.875 0.515625 2.015625q0 1.140625 -0.515625 2.015625q-0.515625 0.875 -1.40625 1.34375q-0.890625 0.46875 -1.96875 0.46875zm0 -1.96875q0.640625 0 1.09375 -0.484375q0.46875 -0.484375 0.46875 -1.375q0 -0.890625 -0.453125 -1.375q-0.4375 -0.484375 -1.09375 -0.484375q-0.65625 0 -1.109375 0.484375q-0.4375 0.46875 -0.4375 1.375q0 0.890625 0.4375 1.375q0.4375 0.484375 1.09375 0.484375zm7.92749 -5.6875q0.78125 0 1.375 0.328125q0.59375 0.3125 0.90625 0.828125l0 -1.046875l2.28125 0l0 7.421875q0 1.03125 -0.40625 1.859375q-0.40625 0.828125 -1.234375 1.328125q-0.828125 0.5 -2.078125 0.5q-1.640625 0 -2.671875 -0.78125q-1.03125 -0.78125 -1.171875 -2.125l2.25 0q0.109375 0.4375 0.5 0.671875q0.40625 0.25 0.984375 0.25q0.71875 0 1.125 -0.40625q0.421875 -0.40625 0.421875 -1.296875l0 -1.046875q-0.328125 0.515625 -0.921875 0.84375q-0.578125 0.328125 -1.359375 0.328125q-0.921875 0 -1.671875 -0.46875q-0.75 -0.484375 -1.1875 -1.34375q-0.421875 -0.875 -0.421875 -2.03125q0 -1.140625 0.421875 -2.0q0.4375 -0.875 1.1875 -1.34375q0.75 -0.46875 1.671875 -0.46875zm2.28125 3.828125q0 -0.859375 -0.46875 -1.34375q-0.46875 -0.5 -1.15625 -0.5q-0.671875 0 -1.15625 0.5q-0.46875 0.484375 -0.46875 1.328125q0 0.859375 0.46875 1.359375q0.484375 0.5 1.15625 0.5q0.6875 0 1.15625 -0.484375q0.46875 -0.5 0.46875 -1.359375zm6.221649 -2.484375q0.390625 -0.609375 0.984375 -0.953125q0.609375 -0.359375 1.34375 -0.359375l0 2.40625l-0.625 0q-0.859375 0 -1.28125 0.375q-0.421875 0.359375 -0.421875 1.28125l0 3.453125l-2.28125 0l0 -7.4375l2.28125 0l0 1.234375zm2.9700317 2.46875q0 -1.140625 0.421875 -2.0q0.4375 -0.875 1.1875 -1.34375q0.75 -0.46875 1.671875 -0.46875q0.78125 0 1.375 0.328125q0.59375 0.3125 0.90625 0.828125l0 -1.046875l2.28125 0l0 7.4375l-2.28125 0l0 -1.046875q-0.328125 0.515625 -0.921875 0.84375q-0.59375 0.3125 -1.375 0.3125q-0.90625 0 -1.65625 -0.46875q-0.75 -0.484375 -1.1875 -1.34375q-0.421875 -0.875 -0.421875 -2.03125zm5.5625 0.015625q0 -0.859375 -0.46875 -1.34375q-0.46875 -0.5 -1.15625 -0.5q-0.671875 0 -1.15625 0.5q-0.46875 0.484375 -0.46875 1.328125q0 0.859375 0.46875 1.359375q0.484375 0.5 1.15625 0.5q0.6875 0 1.15625 -0.484375q0.46875 -0.5 0.46875 -1.359375zm13.424774 -3.796875q1.390625 0 2.203125 0.84375q0.828125 0.828125 0.828125 2.328125l0 4.34375l-2.265625 0l0 -4.03125q0 -0.734375 -0.390625 -1.125q-0.375 -0.390625 -1.03125 -0.390625q-0.671875 0 -1.0625 0.390625q-0.375 0.390625 -0.375 1.125l0 4.03125l-2.265625 0l0 -4.03125q0 -0.734375 -0.375 -1.125q-0.375 -0.390625 -1.046875 -0.390625q-0.671875 0 -1.046875 0.390625q-0.375 0.390625 -0.375 1.125l0 4.03125l-2.28125 0l0 -7.4375l2.28125 0l0 0.9375q0.34375 -0.46875 0.90625 -0.734375q0.5625 -0.28125 1.265625 -0.28125q0.84375 0 1.5 0.359375q0.65625 0.359375 1.03125 1.03125q0.390625 -0.625 1.046875 -1.0q0.671875 -0.390625 1.453125 -0.390625z" fill-rule="nonzero"/><path fill="#f6b26b" d="m371.00262 205.50394l0 0c0 -3.6819 9.738098 -6.6666718 21.75064 -6.6666718c12.012573 0 21.750671 2.9847717 21.750671 6.6666718l0 26.666672c0 3.6819 -9.738098 6.6666565 -21.750671 6.6666565c-12.012543 0 -21.75064 -2.9847565 -21.75064 -6.6666565z" fill-rule="evenodd"/><path fill="#000000" fill-opacity="0.0" d="m414.50394 205.50394l0 0c0 3.6819 -9.738098 6.6666718 -21.750671 6.6666718c-12.012543 0 -21.75064 -2.9847717 -21.75064 -6.6666718" fill-rule="evenodd"/><path fill="#000000" fill-opacity="0.0" d="m371.00262 205.50394l0 0c0 -3.6819 9.738098 -6.6666718 21.75064 -6.6666718c12.012573 0 21.750671 2.9847717 21.750671 6.6666718l0 26.666672c0 3.6819 -9.738098 6.6666565 -21.750671 6.6666565c-12.012543 0 -21.75064 -2.9847565 -21.75064 -6.6666565z" fill-rule="evenodd"/><path stroke="#000000" stroke-width="1.0" stroke-linejoin="round" stroke-linecap="butt" d="m414.50394 205.50394l0 0c0 3.6819 -9.738098 6.6666718 -21.750671 6.6666718c-12.012543 0 -21.75064 -2.9847717 -21.75064 -6.6666718" fill-rule="evenodd"/><path stroke="#000000" stroke-width="1.0" stroke-linejoin="round" stroke-linecap="butt" d="m371.00262 205.50394l0 0c0 -3.6819 9.738098 -6.6666718 21.75064 -6.6666718c12.012573 0 21.750671 2.9847717 21.750671 6.6666718l0 26.666672c0 3.6819 -9.738098 6.6666565 -21.750671 6.6666565c-12.012543 0 -21.75064 -2.9847565 -21.75064 -6.6666565z" fill-rule="evenodd"/><path fill="#000000" d="m383.70517 214.27248l0 5.578125l-0.734375 0l0 -5.578125l0.734375 0zm4.967987 1.640625q0 0.6875 -0.484375 1.15625q-0.46875 0.453125 -1.4375 0.453125l-1.078125 0l0 2.328125l-0.734375 0l0 -5.578125l1.8125 0q0.9375 0 1.421875 0.46875q0.5 0.453125 0.5 1.171875zm-1.921875 1.015625q0.609375 0 0.890625 -0.265625q0.28125 -0.265625 0.28125 -0.75q0 -1.03125 -1.171875 -1.03125l-1.078125 0l0 2.046875l1.078125 0zm6.517914 3.0q-0.515625 0 -0.921875 -0.171875q-0.390625 -0.171875 -0.625 -0.484375q-0.21875 -0.3125 -0.25 -0.703125l0.75 0q0.03125 0.328125 0.3125 0.53125q0.28125 0.203125 0.71875 0.203125q0.421875 0 0.65625 -0.171875q0.25 -0.1875 0.25 -0.46875q0 -0.296875 -0.265625 -0.4375q-0.25 -0.140625 -0.78125 -0.265625q-0.5 -0.140625 -0.8125 -0.265625q-0.296875 -0.125 -0.515625 -0.390625q-0.21875 -0.265625 -0.21875 -0.6875q0 -0.328125 0.1875 -0.609375q0.203125 -0.28125 0.5625 -0.4375q0.375 -0.171875 0.859375 -0.171875q0.71875 0 1.171875 0.375q0.453125 0.359375 0.484375 1.0l-0.734375 0q-0.03125 -0.34375 -0.28125 -0.546875q-0.25 -0.21875 -0.671875 -0.21875q-0.390625 0 -0.625 0.171875q-0.234375 0.171875 -0.234375 0.4375q0 0.21875 0.140625 0.359375q0.140625 0.140625 0.34375 0.234375q0.21875 0.078125 0.59375 0.171875q0.484375 0.125 0.78125 0.25q0.296875 0.125 0.5 0.375q0.21875 0.25 0.21875 0.65625q0 0.359375 -0.203125 0.65625q-0.1875 0.28125 -0.5625 0.453125q-0.359375 0.15625 -0.828125 0.15625zm6.613434 -2.4375q0 0.203125 -0.015625 0.4375l-3.5 0q0.03125 0.65625 0.4375 1.015625q0.40625 0.359375 0.984375 0.359375q0.46875 0 0.78125 -0.21875q0.3125 -0.21875 0.453125 -0.59375l0.78125 0q-0.171875 0.640625 -0.703125 1.046875q-0.53125 0.390625 -1.3125 0.390625q-0.625 0 -1.125 -0.28125q-0.484375 -0.28125 -0.765625 -0.796875q-0.28125 -0.515625 -0.28125 -1.203125q0 -0.671875 0.265625 -1.1875q0.28125 -0.515625 0.765625 -0.78125q0.5 -0.28125 1.140625 -0.28125q0.625 0 1.09375 0.28125q0.484375 0.265625 0.734375 0.75q0.265625 0.46875 0.265625 1.0625zm-0.75 -0.15625q0 -0.40625 -0.1875 -0.703125q-0.171875 -0.3125 -0.5 -0.46875q-0.3125 -0.15625 -0.6875 -0.15625q-0.5625 0 -0.953125 0.359375q-0.375 0.34375 -0.4375 0.96875l2.765625 0zm2.6005554 -1.265625l0 2.578125q0 0.328125 0.140625 0.46875q0.140625 0.125 0.46875 0.125l0.53125 0l0 0.609375l-0.65625 0q-0.59375 0 -0.90625 -0.28125q-0.296875 -0.28125 -0.296875 -0.921875l0 -2.578125l-0.578125 0l0 -0.609375l0.578125 0l0 -1.09375l0.71875 0l0 1.09375l1.140625 0l0 0.609375l-1.140625 0z" fill-rule="nonzero"/><path fill="#000000" d="m389.11603 225.38185q0.515625 0 0.90625 0.21875q0.40625 0.203125 0.625 0.640625q0.234375 0.421875 0.234375 1.03125l0 2.578125l-0.71875 0l0 -2.484375q0 -0.65625 -0.328125 -1.0q-0.3125 -0.34375 -0.859375 -0.34375q-0.578125 0 -0.921875 0.359375q-0.328125 0.359375 -0.328125 1.046875l0 2.421875l-0.71875 0l0 -2.484375q0 -0.65625 -0.328125 -1.0q-0.3125 -0.34375 -0.875 -0.34375q-0.5625 0 -0.90625 0.359375q-0.328125 0.359375 -0.328125 1.046875l0 2.421875l-0.734375 0l0 -4.390625l0.734375 0l0 0.640625q0.21875 -0.34375 0.578125 -0.53125q0.359375 -0.1875 0.8125 -0.1875q0.546875 0 0.96875 0.25q0.421875 0.25 0.640625 0.734375q0.171875 -0.46875 0.59375 -0.71875q0.4375 -0.265625 0.953125 -0.265625zm2.6930237 2.265625q0 -0.671875 0.265625 -1.171875q0.28125 -0.515625 0.75 -0.796875q0.484375 -0.28125 1.0625 -0.28125q0.578125 0 1.0 0.25q0.421875 0.25 0.640625 0.625l0 -0.8125l0.734375 0l0 4.390625l-0.734375 0l0 -0.8125q-0.21875 0.375 -0.65625 0.640625q-0.421875 0.25 -0.984375 0.25q-0.59375 0 -1.0625 -0.28125q-0.46875 -0.296875 -0.75 -0.8125q-0.265625 -0.53125 -0.265625 -1.1875zm3.71875 0q0 -0.5 -0.203125 -0.859375q-0.203125 -0.375 -0.546875 -0.5625q-0.34375 -0.203125 -0.75 -0.203125q-0.40625 0 -0.75 0.203125q-0.328125 0.1875 -0.53125 0.5625q-0.1875 0.359375 -0.1875 0.859375q0 0.5 0.1875 0.875q0.203125 0.375 0.53125 0.578125q0.34375 0.1875 0.75 0.1875q0.40625 0 0.75 -0.1875q0.34375 -0.203125 0.546875 -0.578125q0.203125 -0.375 0.203125 -0.875zm2.6891785 -1.375q0.21875 -0.375 0.640625 -0.625q0.4375 -0.25 1.0 -0.25q0.578125 0 1.046875 0.28125q0.484375 0.28125 0.75 0.796875q0.28125 0.5 0.28125 1.171875q0 0.65625 -0.28125 1.1875q-0.265625 0.515625 -0.75 0.8125q-0.46875 0.28125 -1.046875 0.28125q-0.5625 0 -1.0 -0.25q-0.421875 -0.265625 -0.640625 -0.640625l0 2.890625l-0.734375 0l0 -6.46875l0.734375 0l0 0.8125zm2.96875 1.375q0 -0.5 -0.203125 -0.859375q-0.1875 -0.375 -0.53125 -0.5625q-0.34375 -0.203125 -0.75 -0.203125q-0.390625 0 -0.734375 0.203125q-0.34375 0.1875 -0.546875 0.5625q-0.203125 0.375 -0.203125 0.859375q0 0.5 0.203125 0.875q0.203125 0.375 0.546875 0.578125q0.34375 0.1875 0.734375 0.1875q0.40625 0 0.75 -0.1875q0.34375 -0.203125 0.53125 -0.578125q0.203125 -0.375 0.203125 -0.875z" fill-rule="nonzero"/><path fill="#000000" fill-opacity="0.0" d="m392.7533 175.3517l0 23.496063" fill-rule="evenodd"/><path stroke="#595959" stroke-width="2.0" stroke-linejoin="round" stroke-linecap="butt" d="m392.7533 175.3517l0 11.496063" fill-rule="evenodd"/><path fill="#595959" stroke="#595959" stroke-width="2.0" stroke-linecap="butt" d="m389.44983 186.84776l3.3034668 9.076202l3.3034363 -9.076202z" fill-rule="evenodd"/><path fill="#000000" fill-opacity="0.0" d="m433.7139 154.5958l20.031494 0" fill-rule="evenodd"/><path stroke="#595959" stroke-width="2.0" stroke-linejoin="round" stroke-linecap="butt" d="m433.7139 154.5958l8.031494 0" fill-rule="evenodd"/><path fill="#595959" stroke="#595959" stroke-width="2.0" stroke-linecap="butt" d="m441.74542 157.89926l9.076172 -3.3034668l-9.076172 -3.3034515z" fill-rule="evenodd"/><path fill="#eeeeee" d="m586.00525 12.309711l176.72443 0l0 214.04724l-176.72443 0z" fill-rule="evenodd"/><path stroke="#595959" stroke-width="1.0" stroke-linejoin="round" stroke-linecap="butt" d="m586.00525 12.309711l176.72443 0l0 214.04724l-176.72443 0z" fill-rule="evenodd"/><path fill="#000000" d="m669.39233 117.78958q0 0.8125 -0.375 1.484375q-0.375 0.671875 -1.140625 1.09375q-0.765625 0.40625 -1.921875 0.40625l-1.40625 0l0 3.359375l-2.28125 0l0 -9.359375l3.6875 0q1.125 0 1.890625 0.390625q0.78125 0.390625 1.15625 1.078125q0.390625 0.671875 0.390625 1.546875zm-3.609375 1.171875q0.65625 0 0.96875 -0.296875q0.328125 -0.3125 0.328125 -0.875q0 -0.5625 -0.328125 -0.859375q-0.3125 -0.3125 -0.96875 -0.3125l-1.234375 0l0 2.34375l1.234375 0zm8.191711 5.28125q-1.09375 0 -1.96875 -0.46875q-0.875 -0.46875 -1.375 -1.328125q-0.5 -0.875 -0.5 -2.03125q0 -1.140625 0.5 -2.015625q0.515625 -0.875 1.390625 -1.34375q0.875 -0.46875 1.96875 -0.46875q1.09375 0 1.96875 0.46875q0.890625 0.46875 1.390625 1.34375q0.515625 0.875 0.515625 2.015625q0 1.140625 -0.515625 2.015625q-0.515625 0.875 -1.40625 1.34375q-0.890625 0.46875 -1.96875 0.46875zm0 -1.96875q0.640625 0 1.09375 -0.484375q0.46875 -0.484375 0.46875 -1.375q0 -0.890625 -0.453125 -1.375q-0.4375 -0.484375 -1.09375 -0.484375q-0.65625 0 -1.109375 0.484375q-0.4375 0.46875 -0.4375 1.375q0 0.890625 0.4375 1.375q0.4375 0.484375 1.09375 0.484375zm4.64624 -1.875q0 -1.140625 0.421875 -2.0q0.4375 -0.875 1.1875 -1.34375q0.75 -0.46875 1.671875 -0.46875q0.734375 0 1.328125 0.3125q0.609375 0.296875 0.953125 0.828125l0 -3.453125l2.28125 0l0 9.859375l-2.28125 0l0 -1.0625q-0.3125 0.53125 -0.90625 0.859375q-0.59375 0.3125 -1.375 0.3125q-0.921875 0 -1.671875 -0.46875q-0.75 -0.484375 -1.1875 -1.34375q-0.421875 -0.875 -0.421875 -2.03125zm5.5625 0.015625q0 -0.859375 -0.46875 -1.34375q-0.46875 -0.5 -1.15625 -0.5q-0.671875 0 -1.15625 0.5q-0.46875 0.484375 -0.46875 1.328125q0 0.859375 0.46875 1.359375q0.484375 0.5 1.15625 0.5q0.6875 0 1.15625 -0.484375q0.46875 -0.5 0.46875 -1.359375z" fill-rule="nonzero"/><path fill="#eeeeee" d="m572.6116 21.787401l55.84247 0l0 161.25984l-55.84247 0z" fill-rule="evenodd"/><path stroke="#595959" stroke-width="1.0" stroke-linejoin="round" stroke-linecap="butt" d="m572.6116 21.787401l55.84247 0l0 161.25984l-55.84247 0z" fill-rule="evenodd"/><path fill="#000000" d="m589.2308 105.092316l1.609375 -5.3125l2.421875 0l-2.625 7.4375l-2.8125 0l-2.640625 -7.4375l2.4375 0l1.609375 5.3125zm12.015259 -1.71875q0 0.328125 -0.046875 0.671875l-5.15625 0q0.046875 0.6875 0.4375 1.0625q0.40625 0.359375 0.96875 0.359375q0.859375 0 1.1875 -0.71875l2.421875 0q-0.171875 0.734375 -0.671875 1.328125q-0.484375 0.578125 -1.21875 0.921875q-0.734375 0.328125 -1.640625 0.328125q-1.09375 0 -1.953125 -0.46875q-0.84375 -0.46875 -1.328125 -1.328125q-0.46875 -0.875 -0.46875 -2.03125q0 -1.15625 0.46875 -2.015625q0.46875 -0.875 1.328125 -1.34375q0.859375 -0.46875 1.953125 -0.46875q1.09375 0 1.921875 0.453125q0.84375 0.453125 1.3125 1.296875q0.484375 0.84375 0.484375 1.953125zm-2.34375 -0.59375q0 -0.59375 -0.40625 -0.9375q-0.390625 -0.34375 -0.984375 -0.34375q-0.578125 0 -0.96875 0.34375q-0.390625 0.328125 -0.484375 0.9375l2.84375 0zm7.678833 2.5l0 1.9375l-1.15625 0q-1.234375 0 -1.9375 -0.609375q-0.6875 -0.609375 -0.6875 -1.96875l0 -2.96875l-0.90625 0l0 -1.890625l0.90625 0l0 -1.8125l2.28125 0l0 1.8125l1.484375 0l0 1.890625l-1.484375 0l0 2.984375q0 0.34375 0.15625 0.484375q0.15625 0.140625 0.53125 0.140625l0.8125 0zm5.833069 -5.578125q1.28125 0 2.046875 0.84375q0.78125 0.84375 0.78125 2.328125l0 4.34375l-2.265625 0l0 -4.03125q0 -0.75 -0.390625 -1.15625q-0.375 -0.421875 -1.03125 -0.421875q-0.65625 0 -1.046875 0.421875q-0.375 0.40625 -0.375 1.15625l0 4.03125l-2.28125 0l0 -9.859375l2.28125 0l0 3.421875q0.34375 -0.5 0.9375 -0.78125q0.609375 -0.296875 1.34375 -0.296875z" fill-rule="nonzero"/><path fill="#000000" fill-opacity="0.0" d="m265.08923 91.821526l381.6693 0.50393677" fill-rule="evenodd"/><path stroke="#595959" stroke-width="2.0" stroke-linejoin="round" stroke-linecap="butt" d="m265.08923 91.821526l369.6693 0.48809052" fill-rule="evenodd"/><path fill="#595959" stroke="#595959" stroke-width="2.0" stroke-linecap="butt" d="m634.75415 95.613075l9.080566 -3.2914734l-9.071838 -3.315445z" fill-rule="evenodd"/><path fill="#000000" fill-opacity="0.0" d="m567.958 155.03674l80.37793 -0.9133911" fill-rule="evenodd"/><path stroke="#595959" stroke-width="2.0" stroke-linejoin="round" stroke-linecap="butt" d="m567.958 155.03674l68.37872 -0.7770233" fill-rule="evenodd"/><path fill="#595959" stroke="#595959" stroke-width="2.0" stroke-linecap="butt" d="m636.37427 157.56297l9.038086 -3.4063873l-9.113159 -3.200119z" fill-rule="evenodd"/><path fill="#000000" fill-opacity="0.0" d="m125.22397 180.7261c-2.2659225 -2.276245 -27.670044 -6.1401367 -13.595543 -13.657486c14.074501 -7.517334 81.702126 -26.205475 98.04255 -31.446579" fill-rule="evenodd"/><path stroke="#595959" stroke-width="2.0" stroke-linejoin="round" stroke-linecap="butt" d="m125.22397 180.7261c-2.2659225 -2.276245 -27.670052 -6.1401215 -13.595543 -13.657486c7.0372543 -3.758667 27.462776 -10.310043 48.171562 -16.576874c10.35437 -3.1334229 20.779572 -6.195709 29.637451 -8.8022c2.2144623 -0.6516266 4.3309784 -1.2747803 6.323944 -1.8634033l2.4270325 -0.718277" fill-rule="evenodd"/><path fill="#595959" stroke="#595959" stroke-width="2.0" stroke-linecap="butt" d="m199.14803 142.26888l7.7252197 -5.7975006l-9.64444 -0.52453613z" fill-rule="evenodd"/><path fill="#f6b26b" d="m59.66142 105.46982l49.165356 0l0 40.0l-49.165356 0z" fill-rule="evenodd"/><path stroke="#595959" stroke-width="1.0" stroke-linejoin="round" stroke-linecap="butt" d="m59.66142 105.46982l49.165356 0l0 40.0l-49.165356 0z" fill-rule="evenodd"/><path fill="#000000" d="m82.4755 120.33231l0 1.9375l-1.15625 0q-1.234375 0 -1.9375 -0.609375q-0.6875 -0.609375 -0.6875 -1.96875l0 -2.96875l-0.90625 0l0 -1.890625l0.90625 0l0 -1.8125l2.28125 0l0 1.8125l1.484375 0l0 1.890625l-1.484375 0l0 2.984375q0 0.34375 0.15625 0.484375q0.15625 0.140625 0.53125 0.140625l0.8125 0zm0.81744385 -1.78125q0 -1.15625 0.46875 -2.015625q0.46875 -0.875 1.3125 -1.34375q0.859375 -0.46875 1.953125 -0.46875q1.390625 0 2.328125 0.734375q0.953125 0.734375 1.234375 2.0625l-2.421875 0q-0.3125 -0.84375 -1.1875 -0.84375q-0.625 0 -1.0 0.484375q-0.375 0.484375 -0.375 1.390625q0 0.90625 0.375 1.390625q0.375 0.484375 1.0 0.484375q0.875 0 1.1875 -0.84375l2.421875 0q-0.28125 1.296875 -1.234375 2.046875q-0.953125 0.75 -2.328125 0.75q-1.09375 0 -1.953125 -0.46875q-0.84375 -0.46875 -1.3125 -1.328125q-0.46875 -0.875 -0.46875 -2.03125z" fill-rule="nonzero"/><path fill="#000000" d="m78.53328 133.47295q0.8125 0.171875 1.3125 0.8125q0.5 0.625 0.5 1.4375q0 1.171875 -0.828125 1.859375q-0.8125 0.6875 -2.28125 0.6875l-4.359375 0l0 -9.359375l4.203125 0q1.4375 0 2.234375 0.65625q0.8125 0.65625 0.8125 1.765625q0 0.828125 -0.4375 1.375q-0.4375 0.546875 -1.15625 0.765625zm-3.375 -0.78125l1.484375 0q0.5625 0 0.859375 -0.234375q0.296875 -0.25 0.296875 -0.734375q0 -0.484375 -0.296875 -0.734375q-0.296875 -0.25 -0.859375 -0.25l-1.484375 0l0 1.953125zm1.671875 3.734375q0.578125 0 0.890625 -0.25q0.3125 -0.265625 0.3125 -0.765625q0 -0.484375 -0.328125 -0.765625q-0.328125 -0.28125 -0.890625 -0.28125l-1.65625 0l0 2.0625l1.671875 0zm11.955078 -4.5q0 0.8125 -0.375 1.484375q-0.375 0.671875 -1.140625 1.09375q-0.765625 0.40625 -1.921875 0.40625l-1.40625 0l0 3.359375l-2.28125 0l0 -9.359375l3.6875 0q1.125 0 1.890625 0.390625q0.78125 0.390625 1.15625 1.078125q0.390625 0.671875 0.390625 1.546875zm-3.609375 1.171875q0.65625 0 0.96875 -0.296875q0.328125 -0.3125 0.328125 -0.875q0 -0.5625 -0.328125 -0.859375q-0.3125 -0.3125 -0.96875 -0.3125l-1.234375 0l0 2.34375l1.234375 0zm10.894852 -4.1875l0 1.828125l-3.8125 0l0 1.96875l2.84375 0l0 1.78125l-2.84375 0l0 3.78125l-2.28125 0l0 -9.359375l6.09375 0z" fill-rule="nonzero"/></g></svg>