<svg id="Layer_1" data-name="Layer 1" xmlns="http://www.w3.org/2000/svg" viewBox="0 0 602.45 929.66"><defs><style>.cls-1,.cls-10,.cls-11,.cls-22,.cls-26,.cls-27,.cls-28,.cls-6,.cls-7,.cls-8,.cls-9{fill:none;}.cls-1,.cls-14{stroke:#ff7e00;}.cls-1,.cls-10,.cls-11,.cls-14,.cls-17,.cls-2,.cls-21,.cls-22,.cls-23,.cls-3,.cls-4,.cls-6,.cls-7,.cls-8{stroke-miterlimit:10;}.cls-1,.cls-10,.cls-11,.cls-9{stroke-width:2.42px;}.cls-15,.cls-2,.cls-3,.cls-4{fill:#efefef;stroke:#565656;}.cls-2{stroke-width:0.41px;}.cls-3{stroke-width:0.42px;}.cls-15,.cls-4{stroke-width:0.41px;}.cls-5{fill:#dbdbdb;}.cls-6,.cls-7,.cls-8{stroke:#666;stroke-width:1.82px;}.cls-7{stroke-dasharray:2.42 2.42;}.cls-8{stroke-dasharray:2.44 2.44;}.cls-10,.cls-11,.cls-16,.cls-21,.cls-23,.cls-25,.cls-26,.cls-27,.cls-28,.cls-9{stroke:#000;}.cls-11,.cls-25,.cls-26,.cls-27,.cls-28,.cls-9{stroke-linecap:round;}.cls-19,.cls-25,.cls-26,.cls-27,.cls-28,.cls-9{stroke-linejoin:round;}.cls-12{fill:#962a2a;}.cls-13,.cls-14{fill:#ff9e19;}.cls-14,.cls-23{stroke-width:2.11px;}.cls-16{stroke-width:0.51px;}.cls-17{fill:#ebeded;stroke:#686868;stroke-width:0.3px;}.cls-18,.cls-19,.cls-20{fill:#fff;}.cls-19,.cls-20,.cls-22{stroke:#fff;}.cls-19{stroke-width:2.99px;}.cls-20{stroke-width:0.01px;}.cls-21{stroke-width:2.3px;}.cls-22{stroke-width:6.05px;}.cls-23,.cls-24,.cls-25{fill:#434343;}.cls-25,.cls-26{stroke-width:2.66px;}.cls-27{stroke-width:2.76px;}.cls-28{stroke-width:2.78px;}</style></defs><title>arch-oss-value-prop5-sm</title><line class="cls-1" x1="454.76" y1="224.12" x2="315.8" y2="224.12"/><line class="cls-1" x1="56.15" y1="184.55" x2="56.15" y2="74.76"/><line class="cls-1" x1="222.14" y1="224.12" x2="100.5" y2="224.12"/><rect class="cls-2" x="1.05" y="291.56" width="566.62" height="415.86"/><rect class="cls-3" x="15.64" y="309.98" width="570.58" height="413.39"/><rect class="cls-4" x="35.62" y="327.4" width="566.62" height="411.54"/><rect class="cls-5" x="63.2" y="482.5" width="508.82" height="229.28"/><polyline class="cls-6" points="572.02 710.57 572.02 711.78 570.81 711.78"/><line class="cls-7" x1="568.39" y1="711.78" x2="65.62" y2="711.78"/><polyline class="cls-6" points="64.41 711.78 63.2 711.78 63.2 710.57"/><line class="cls-8" x1="63.2" y1="708.13" x2="63.2" y2="484.93"/><polyline class="cls-6" points="63.2 483.71 63.2 482.5 64.41 482.5"/><line class="cls-7" x1="66.84" y1="482.5" x2="569.6" y2="482.5"/><polyline class="cls-6" points="570.81 482.5 572.02 482.5 572.02 483.71"/><line class="cls-8" x1="572.02" y1="486.15" x2="572.02" y2="709.35"/><line class="cls-9" x1="253.75" y1="599.96" x2="518.49" y2="599.96"/><path d="M63.8,344.12l1.51-.27v6.66a5.29,5.29,0,0,1,3.58-1.78c1.3,0,2.28.74,2.28,2.61v6.33H69.67v-5.91c0-1.3-.52-1.7-1.18-1.7-1.12,0-2.59,1.3-3.17,1.84v5.77H63.8Z"/><path d="M77.74,348.73A4.25,4.25,0,0,1,82,353.15c0,2.13-1.43,4.76-4.36,4.76a4.32,4.32,0,0,1-4.26-4.55A4.41,4.41,0,0,1,77.74,348.73Zm0,7.86c1.65,0,2.71-1.32,2.71-3.2,0-1.67-.77-3.35-2.73-3.35-1.65,0-2.71,1.26-2.71,3.14C75,354.89,75.82,356.59,77.72,356.59Z"/><path d="M84,355.8a4.55,4.55,0,0,0,2.5.85c1.08,0,1.63-.46,1.63-1.14,0-1.86-4.28-1.59-4.28-4.38,0-1.32.95-2.4,3.18-2.4a5.76,5.76,0,0,1,2.42.48L89,350.49a5.62,5.62,0,0,0-2.13-.5c-1,0-1.53.43-1.53,1,0,1.78,4.28,1.49,4.28,4.38,0,1.55-1.22,2.52-3.2,2.52a4.9,4.9,0,0,1-2.79-.77Z"/><path d="M92.34,350.18H91.1v-.81l1.24-.5v-1.94l1.51-.37V349h2.83v1.22H93.85V355c0,1.16.41,1.63,1.07,1.63a3.43,3.43,0,0,0,1.84-.79l.37,1.22a4.3,4.3,0,0,1-2.52.89c-1.37,0-2.26-.75-2.26-2.54Z"/><path d="M111.7,632.14h1.59v11.58h6.2v1.34H111.7Z"/><path d="M121,633.09a1,1,0,1,1,1,1A1,1,0,0,1,121,633.09Zm.27,3.25h1.51v8.71h-1.51Z"/><path d="M125.66,636.48l1.51-.27v1.7a5.39,5.39,0,0,1,3.6-1.8c1.3,0,2.29.74,2.29,2.61v6.33h-1.51v-5.91c0-1.3-.52-1.7-1.18-1.7-1.14,0-2.63,1.32-3.2,1.86v5.75h-1.51Z"/><path d="M135.79,636.34h1.51v5.91c0,1.34.54,1.7,1.24,1.7a5,5,0,0,0,2.94-1.63v-6H143v6a14.9,14.9,0,0,0,.39,2.69l-1.49.14s-.21-1-.29-1.59a5,5,0,0,1-3.45,1.68c-1.43,0-2.36-.74-2.36-2.61Z"/><path d="M148,640.7l-3-4.36h1.8l2.11,3.2,2.13-3.2h1.74l-3,4.32,3,4.4h-1.72l-2.19-3.27-2.21,3.27H145Z"/><path d="M111.28,654.73l1.51-.27v8.46H113l3.45-3.35h2l-4.07,3.85,4.43,4.86h-2L113,664h-.23v4.24h-1.51Z"/><path d="M123.61,659.34c2,0,3.49,1.39,3.49,3.89l-.93.27-5.13.68c.14,1.8,1.18,3,2.88,3a4.66,4.66,0,0,0,2.73-1.1l.45,1.16a5,5,0,0,1-3.35,1.26,4.14,4.14,0,0,1-4.32-4.4C119.43,661.39,121.13,659.34,123.61,659.34ZM121.05,663l4.38-.56s-.17-1.86-1.92-1.86A2.55,2.55,0,0,0,121.05,663Z"/><path d="M129.42,659.71l1.51-.27v1.72a3.26,3.26,0,0,1,2.54-1.82,1.49,1.49,0,0,1,.76.17l-.39,1.63a2.34,2.34,0,0,0-.74-.15c-1,0-1.82,1.18-2.17,1.78v5.52h-1.51Z"/><path d="M135.88,659.71l1.51-.27v1.7a5.39,5.39,0,0,1,3.6-1.8c1.3,0,2.29.74,2.29,2.61v6.33h-1.51v-5.91c0-1.3-.52-1.7-1.18-1.7-1.14,0-2.63,1.32-3.2,1.86v5.75h-1.51Z"/><path d="M149.71,659.34c2,0,3.49,1.39,3.49,3.89l-.93.27-5.13.68c.14,1.8,1.18,3,2.88,3a4.66,4.66,0,0,0,2.73-1.1l.45,1.16a5,5,0,0,1-3.35,1.26,4.14,4.14,0,0,1-4.32-4.4C145.52,661.39,147.23,659.34,149.71,659.34ZM147.15,663l4.38-.56s-.17-1.86-1.92-1.86A2.55,2.55,0,0,0,147.15,663Z"/><path d="M155.55,654.73l1.51-.27v13.83h-1.51Z"/><line class="cls-10" x1="386.12" y1="634.42" x2="386.12" y2="769.81"/><line class="cls-9" x1="518.49" y1="458.05" x2="518.49" y2="599.96"/><line class="cls-11" x1="141.06" y1="768.82" x2="514" y2="768.82"/><line class="cls-10" x1="141.06" y1="809.79" x2="141.06" y2="768.82"/><line class="cls-11" x1="514" y1="818.56" x2="514" y2="768.82"/><line class="cls-1" x1="116.87" y1="482.5" x2="116.87" y2="457.6"/><rect x="352.08" y="657.64" width="61.03" height="30.46"/><path class="cls-12" d="M355.61,664.67h14.11c.84,0,1.51-.42,1.51-.93V660c0-.52-.67-.93-1.51-.93H355.61c-.84,0-1.51.42-1.51.93v3.74C354.1,664.25,354.77,664.67,355.61,664.67Z"/><path class="cls-12" d="M354.1,666.44v5.62h5.58c.84,0,1.51-.42,1.51-.93v-3.74c0-.52-.67-.93-1.51-.93H354.1Z"/><path class="cls-12" d="M354.1,681.21v5.62h5.58c.84,0,1.51-.42,1.51-.93v-3.74c0-.52-.67-.93-1.51-.93H354.1Z"/><path class="cls-12" d="M355.61,679.44h14.11c.84,0,1.51-.42,1.51-.93v-3.74c0-.52-.67-.93-1.51-.93H355.61c-.84,0-1.51.42-1.51.93v3.74C354.1,679,354.77,679.44,355.61,679.44Z"/><path class="cls-12" d="M394.23,674.77v3.74c0,.52.67.93,1.51.93h14.11c.84,0,1.51-.42,1.51-.93v-3.74c0-.52-.67-.93-1.51-.93H395.74C394.9,673.83,394.23,674.25,394.23,674.77Z"/><path class="cls-12" d="M411.35,672.05v-5.62h-5.58c-.84,0-1.51.42-1.51.93v3.75c0,.52.67.93,1.51.93Z"/><path class="cls-12" d="M404.25,682.15v3.74c0,.52.67.93,1.51.93h5.58v-5.62h-5.58C404.94,681.21,404.25,681.64,404.25,682.15Z"/><path class="cls-12" d="M381.26,671.12v-3.74c0-.52-.67-.93-1.51-.93H365.65c-.84,0-1.51.42-1.51.93v3.74c0,.52.67.93,1.51.93h14.11C380.58,672.05,381.26,671.64,381.26,671.12Z"/><path class="cls-12" d="M365.65,681.21c-.84,0-1.51.42-1.51.93v3.74c0,.52.67.93,1.51.93h14.11c.84,0,1.51-.42,1.51-.93v-3.74c0-.52-.67-.93-1.51-.93Z"/><path class="cls-12" d="M375.67,664.67h14.11c.84,0,1.51-.42,1.51-.93V660c0-.52-.67-.93-1.51-.93H375.67c-.84,0-1.51.42-1.51.93v3.74C374.16,664.25,374.84,664.67,375.67,664.67Z"/><path class="cls-12" d="M395.74,664.67h14.11c.84,0,1.51-.42,1.51-.93V660c0-.52-.67-.93-1.51-.93H395.74c-.84,0-1.51.42-1.51.93v3.74C394.23,664.25,394.9,664.67,395.74,664.67Z"/><path class="cls-12" d="M399.81,666.44h-14.1c-.84,0-1.51.42-1.51.93v3.74c0,.52.67.93,1.51.93h14.11c.84,0,1.51-.42,1.51-.93v-3.74C401.33,666.86,400.64,666.44,399.81,666.44Z"/><path class="cls-12" d="M385.71,686.83h14.11c.84,0,1.51-.42,1.51-.93v-3.74c0-.52-.67-.93-1.51-.93H385.71c-.84,0-1.51.42-1.51.93v3.74C384.19,686.41,384.87,686.83,385.71,686.83Z"/><path class="cls-12" d="M391.29,678.51v-3.74c0-.52-.67-.93-1.51-.93H375.67c-.84,0-1.51.42-1.51.93v3.74c0,.52.67.93,1.51.93h14.11C390.62,679.44,391.29,679,391.29,678.51Z"/><path class="cls-13" d="M414.23,648.26c.38.29.7.64,1.06,1a53.84,53.84,0,0,1,8.61,10.22,34.16,34.16,0,0,1,4.89,12,24.51,24.51,0,0,1,.33,7.1,14.61,14.61,0,0,1-.6,2.92,15.93,15.93,0,0,1-1.82,3.91,11.08,11.08,0,0,1-2.53,2.72,12.14,12.14,0,0,1-3.63,1.84,22.35,22.35,0,0,1-5,.91,30.08,30.08,0,0,1-6-.08,18.55,18.55,0,0,1-6.54-2,11.46,11.46,0,0,1-4.57-4.34,12.24,12.24,0,0,1-1.43-7.07,21.63,21.63,0,0,1,2.1-7.39,37.39,37.39,0,0,1,3.37-5.7,42.53,42.53,0,0,1,3.54-4.36l.09-.07a11.22,11.22,0,0,0,.42,3.43,8.84,8.84,0,0,0,1.66,3.11c0,.06.08.13.16.14a20.74,20.74,0,0,0,4.41-4.28,13.35,13.35,0,0,0,2.42-5.84,15.76,15.76,0,0,0-.95-8.13Z"/><rect class="cls-14" x="451.45" y="170.36" width="148.68" height="83.33"/><path d="M483.38,198.86a4.25,4.25,0,0,1,4.28,4.41c0,2.13-1.43,4.76-4.36,4.76a4.32,4.32,0,0,1-4.26-4.55A4.41,4.41,0,0,1,483.38,198.86Zm0,7.86c1.65,0,2.71-1.32,2.71-3.19,0-1.67-.77-3.35-2.73-3.35-1.65,0-2.71,1.26-2.71,3.14C480.63,205,481.46,206.73,483.36,206.73Z"/><path d="M489.94,199.23l1.51-.27v1.72a3.26,3.26,0,0,1,2.54-1.82,1.49,1.49,0,0,1,.76.17l-.39,1.63a2.33,2.33,0,0,0-.74-.15c-1,0-1.82,1.18-2.17,1.78v5.52h-1.51Z"/><path d="M500.11,198.86a4.28,4.28,0,0,1,2.85.95l-.68,1.18a3.67,3.67,0,0,0-2.27-.81c-1.72,0-2.77,1.49-2.77,3.29s1,3.25,2.83,3.25a3.65,3.65,0,0,0,2.36-.93l.52,1.12a4.37,4.37,0,0,1-7.3-3.37A4.46,4.46,0,0,1,500.11,198.86Z"/><path d="M505.1,194.26l1.51-.27v6.66a5.29,5.29,0,0,1,3.58-1.78c1.3,0,2.28.74,2.28,2.61v6.33H511V201.9c0-1.3-.52-1.7-1.18-1.7-1.12,0-2.59,1.3-3.17,1.84v5.77H505.1Z"/><path d="M518.9,198.86c2,0,3.49,1.39,3.49,3.89l-.93.27-5.13.68c.14,1.8,1.18,3,2.88,3a4.67,4.67,0,0,0,2.73-1.1l.45,1.16A5,5,0,0,1,519,208a4.14,4.14,0,0,1-4.32-4.4C514.72,200.92,516.43,198.86,518.9,198.86Zm-2.56,3.68,4.38-.56s-.17-1.86-1.92-1.86A2.55,2.55,0,0,0,516.35,202.54Z"/><path d="M524.42,205.93a4.54,4.54,0,0,0,2.5.85c1.08,0,1.63-.46,1.63-1.14,0-1.86-4.28-1.59-4.28-4.38,0-1.32.95-2.4,3.18-2.4a5.77,5.77,0,0,1,2.42.48l-.41,1.28a5.62,5.62,0,0,0-2.13-.5c-1,0-1.53.43-1.53,1,0,1.78,4.28,1.49,4.28,4.38,0,1.55-1.22,2.52-3.2,2.52a4.9,4.9,0,0,1-2.79-.77Z"/><path d="M532.74,200.32h-1.24v-.81l1.24-.5v-1.94l1.51-.37v2.4h2.83v1.22h-2.83v4.78c0,1.16.41,1.63,1.07,1.63a3.43,3.43,0,0,0,1.84-.79l.37,1.22A4.3,4.3,0,0,1,535,208c-1.37,0-2.27-.76-2.27-2.54Z"/><path d="M539.33,199.23l1.51-.27v1.72a3.26,3.26,0,0,1,2.54-1.82,1.49,1.49,0,0,1,.76.17l-.39,1.63a2.33,2.33,0,0,0-.74-.15c-1,0-1.82,1.18-2.17,1.78v5.52h-1.51Z"/><path d="M550.29,202.5v-.33c0-1,0-2-1.43-2a5.16,5.16,0,0,0-2.73,1l-.46-1.22a6.6,6.6,0,0,1,3.62-1.06c1.9,0,2.52.81,2.52,2.77v3.93a1,1,0,0,0,1,1.16l-.5,1.22a1.88,1.88,0,0,1-1.88-1.41A3.52,3.52,0,0,1,547.5,208a2.2,2.2,0,0,1-2.44-2.19C545.06,204.05,547,202.93,550.29,202.5Zm0,2.71v-1.61c-2.46.41-3.62,1-3.62,2.15,0,.68.5,1,1.14,1A3.49,3.49,0,0,0,550.29,205.21Z"/><path d="M555.22,200.32H554v-.81l1.24-.5v-1.94l1.51-.37v2.4h2.83v1.22h-2.83v4.78c0,1.16.41,1.63,1.07,1.63a3.43,3.43,0,0,0,1.84-.79l.37,1.22a4.3,4.3,0,0,1-2.52.89c-1.37,0-2.26-.76-2.26-2.54Z"/><path d="M565.56,198.86a4.25,4.25,0,0,1,4.28,4.41c0,2.13-1.43,4.76-4.36,4.76a4.32,4.32,0,0,1-4.26-4.55A4.41,4.41,0,0,1,565.56,198.86Zm0,7.86c1.65,0,2.71-1.32,2.71-3.19,0-1.67-.77-3.35-2.73-3.35-1.65,0-2.71,1.26-2.71,3.14C562.81,205,563.64,206.73,565.54,206.73Z"/><path d="M572.12,199.23l1.51-.27v1.72a3.26,3.26,0,0,1,2.54-1.82,1.49,1.49,0,0,1,.76.17l-.39,1.63a2.33,2.33,0,0,0-.74-.15c-1,0-1.82,1.18-2.17,1.78v5.52h-1.51Z"/><path d="M479.62,222.46l1.47-.27v1.36a3,3,0,0,1,2.67-1.45c2.28,0,3.7,1.94,3.7,4.34,0,2.63-1.7,4.84-4.38,4.84a3.28,3.28,0,0,1-2-.54v4.53l-1.51.27Zm1.51,2.48v3.91c0,.79.66,1.14,1.65,1.14,1.88,0,3.08-1.28,3.08-3.45,0-2-1-3.1-2.29-3.1A3.24,3.24,0,0,0,481.13,224.94Z"/><path d="M489.81,217.49l1.51-.27V231h-1.51Z"/><path d="M494.14,222.33h1.51v5.91c0,1.34.54,1.7,1.24,1.7a5,5,0,0,0,2.94-1.63v-6h1.51v6a14.9,14.9,0,0,0,.39,2.69l-1.49.14s-.21-1-.29-1.59a5,5,0,0,1-3.45,1.68c-1.43,0-2.36-.74-2.36-2.61Z"/><path d="M505.56,227.92a3.07,3.07,0,0,1-1.68-2.79c0-1.92,1.7-3,3.6-3,1,0,1.55.37,2.5.37h.93a4.18,4.18,0,0,0,1.14-.19l.14,1.36h-1.1c-.25,0-.52,0-.72,0a2.56,2.56,0,0,1,.66,1.7c0,2-2,3-3.7,3a4,4,0,0,1-.7-.06c-.41.29-.77.56-.77.81s.91.56,2.56.93,3.37.83,3.37,2.42c0,1.78-2.17,3.21-4.65,3.21-1.88,0-3.72-.77-3.72-2.32,0-1.34,1.28-2.15,2.27-2.65-.85-.25-1.45-.6-1.45-1.18S504.94,228.29,505.56,227.92Zm1.68,6.54c1.65,0,3-.87,3-1.84s-1-1.16-2.32-1.45c-.33-.08-.64-.14-1-.19-1,.56-2.13,1.14-2.13,2.11S506.22,234.47,507.25,234.47Zm2.23-9.1a2,2,0,0,0-2.05-2.11,1.9,1.9,0,0,0-2,2,1.87,1.87,0,0,0,2,1.92A1.8,1.8,0,0,0,509.48,225.37Z"/><path d="M513.75,219.08a1,1,0,1,1,1,1A1,1,0,0,1,513.75,219.08Zm.27,3.25h1.51V231H514Z"/><path d="M518.44,222.46l1.51-.27v1.7a5.39,5.39,0,0,1,3.6-1.8c1.3,0,2.29.74,2.29,2.61V231h-1.51v-5.91c0-1.3-.52-1.7-1.18-1.7-1.14,0-2.63,1.32-3.2,1.86V231h-1.51Z"/><path d="M528.35,229.16a4.55,4.55,0,0,0,2.5.85c1.08,0,1.63-.46,1.63-1.14,0-1.86-4.28-1.59-4.28-4.38,0-1.32.95-2.4,3.18-2.4a5.77,5.77,0,0,1,2.42.48l-.41,1.28a5.62,5.62,0,0,0-2.13-.5c-1,0-1.53.43-1.53,1,0,1.78,4.28,1.49,4.28,4.38,0,1.55-1.22,2.52-3.2,2.52a4.9,4.9,0,0,1-2.79-.77Z"/><rect class="cls-14" x="1.05" y="167.93" width="110.19" height="83.33"/><path d="M24.12,205.24a4.28,4.28,0,0,1,2.85.95l-.68,1.18a3.67,3.67,0,0,0-2.27-.81c-1.72,0-2.77,1.49-2.77,3.29s1,3.25,2.83,3.25a3.65,3.65,0,0,0,2.36-.93L27,213.3a4.37,4.37,0,0,1-7.3-3.37A4.46,4.46,0,0,1,24.12,205.24Z"/><path d="M33.57,208.88v-.33c0-1,0-2-1.43-2a5.16,5.16,0,0,0-2.73,1l-.46-1.22a6.6,6.6,0,0,1,3.62-1.06c1.9,0,2.52.81,2.52,2.77v3.93a1,1,0,0,0,1,1.16l-.5,1.22a1.88,1.88,0,0,1-1.88-1.41,3.52,3.52,0,0,1-2.89,1.51,2.2,2.2,0,0,1-2.44-2.19C28.34,210.43,30.26,209.31,33.57,208.88Zm0,2.71V210c-2.46.41-3.62,1-3.62,2.15,0,.68.5,1,1.14,1A3.49,3.49,0,0,0,33.57,211.6Z"/><path d="M38.2,200.64l1.51-.27v13.83H38.2Z"/><path d="M42.38,202.22a1,1,0,1,1,1,1A1,1,0,0,1,42.38,202.22Zm.27,3.25h1.51v8.71H42.65Z"/><path d="M50.94,205.24a4.28,4.28,0,0,1,2.85.95l-.68,1.18a3.67,3.67,0,0,0-2.27-.81c-1.72,0-2.77,1.49-2.77,3.29s1,3.25,2.83,3.25a3.65,3.65,0,0,0,2.36-.93l.52,1.12a4.37,4.37,0,0,1-7.3-3.37A4.46,4.46,0,0,1,50.94,205.24Z"/><path d="M59.49,205.24a4.25,4.25,0,0,1,4.28,4.41c0,2.13-1.43,4.76-4.36,4.76a4.32,4.32,0,0,1-4.26-4.55A4.41,4.41,0,0,1,59.49,205.24Zm0,7.86c1.65,0,2.71-1.32,2.71-3.19,0-1.67-.77-3.35-2.73-3.35-1.65,0-2.71,1.26-2.71,3.14C56.74,211.4,57.58,213.11,59.48,213.11Z"/><path d="M69.93,205.24a4.28,4.28,0,0,1,2.85.95l-.68,1.18a3.67,3.67,0,0,0-2.27-.81c-1.72,0-2.77,1.49-2.77,3.29s1,3.25,2.83,3.25a3.65,3.65,0,0,0,2.36-.93l.52,1.12a4.37,4.37,0,0,1-7.3-3.37A4.46,4.46,0,0,1,69.93,205.24Z"/><path d="M75.31,206.7H74.07v-.81l1.24-.5v-1.94l1.51-.37v2.4h2.83v1.22H76.82v4.78c0,1.16.41,1.63,1.07,1.63a3.43,3.43,0,0,0,1.84-.79l.37,1.22a4.3,4.3,0,0,1-2.52.89c-1.37,0-2.26-.76-2.26-2.54Z"/><path d="M81.93,200.64l1.51-.27v13.83H81.93Z"/><line class="cls-1" x1="164.26" y1="375.18" x2="164.26" y2="242.13"/><line class="cls-1" x1="508.78" y1="169.98" x2="508.78" y2="105.79"/><path id="path5530" class="cls-15" d="M133.67,929.38c29.23,0,53.92-16.38,61.6-38.75a24.26,24.26,0,0,0,10.81,2.5c12.16,0,22-8.67,22-19.37,0-.11,0-.21,0-.32a64.42,64.42,0,0,0,11.42,1c24.11,0,43.68-13,43.68-29.06s-19.57-29.06-43.68-29.06A59.35,59.35,0,0,0,214,821.87c-4.3-11.29-16.42-19.45-30.7-19.45a34.34,34.34,0,0,0-24.3,9.67,47.48,47.48,0,0,0-19.77-4.17,45.46,45.46,0,0,0-25.59,7.45c-9.09-8.29-22.46-13.55-37.38-13.55-18.3,0-34.29,7.91-42.88,19.64a31,31,0,0,0-4-.26C14.83,821.2,3,831.26,3,843.67s11.79,22.49,26.35,22.49a30.61,30.61,0,0,0,7.5-.94c7.84,8.12,19.57,13.76,33,15.13,2.74,27.45,30.27,49,63.82,49Z"/><path d="M97.55,833.85l1.47-.27v1.36a3,3,0,0,1,2.67-1.45c2.28,0,3.7,1.94,3.7,4.34,0,2.63-1.7,4.84-4.38,4.84a3.28,3.28,0,0,1-2-.54v4.53l-1.51.27Zm1.51,2.48v3.91c0,.79.66,1.14,1.65,1.14,1.88,0,3.08-1.28,3.08-3.45,0-2-1-3.1-2.29-3.1A3.24,3.24,0,0,0,99.06,836.33Z"/><path d="M107.62,833.71h1.51v5.91c0,1.34.54,1.7,1.24,1.7a5,5,0,0,0,2.94-1.63v-6h1.51v6a14.9,14.9,0,0,0,.39,2.69l-1.49.14s-.21-1-.29-1.59a5,5,0,0,1-3.45,1.68c-1.43,0-2.36-.74-2.36-2.61Z"/><path d="M117.76,828.87l1.51-.27v6a3.14,3.14,0,0,1,2.52-1.14c2.3,0,3.76,1.86,3.76,4.3a4.61,4.61,0,0,1-4.86,4.88,12.72,12.72,0,0,1-2.92-.39Zm1.51,7.09v5.25a5.87,5.87,0,0,0,1.49.19c1.84,0,3.19-1.22,3.19-3.52,0-1.92-1-3.08-2.36-3.08A3.32,3.32,0,0,0,119.28,836Z"/><path d="M127.89,828.87l1.51-.27v13.83h-1.51Z"/><path d="M132.07,830.46a1,1,0,1,1,1,1A1,1,0,0,1,132.07,830.46Zm.27,3.25h1.51v8.71h-1.51Z"/><path d="M140.63,833.48a4.28,4.28,0,0,1,2.85.95l-.68,1.18a3.67,3.67,0,0,0-2.27-.81c-1.72,0-2.77,1.49-2.77,3.29s1,3.25,2.83,3.25a3.65,3.65,0,0,0,2.36-.93l.52,1.12a4.37,4.37,0,0,1-7.3-3.37A4.47,4.47,0,0,1,140.63,833.48Z"/><path d="M154.1,833.48a4.28,4.28,0,0,1,2.85.95l-.68,1.18a3.67,3.67,0,0,0-2.27-.81c-1.72,0-2.77,1.49-2.77,3.29s1,3.25,2.83,3.25a3.65,3.65,0,0,0,2.36-.93l.52,1.12a4.37,4.37,0,0,1-7.3-3.37A4.47,4.47,0,0,1,154.1,833.48Z"/><path d="M159.1,828.87l1.51-.27v13.83H159.1Z"/><path d="M167.27,833.48a4.25,4.25,0,0,1,4.28,4.42c0,2.13-1.43,4.76-4.36,4.76a4.32,4.32,0,0,1-4.26-4.55A4.41,4.41,0,0,1,167.27,833.48Zm0,7.86c1.65,0,2.71-1.32,2.71-3.2,0-1.67-.77-3.35-2.73-3.35-1.65,0-2.71,1.26-2.71,3.14C164.52,839.64,165.35,841.34,167.25,841.34Z"/><path d="M173.75,833.71h1.51v5.91c0,1.34.54,1.7,1.24,1.7a5,5,0,0,0,2.94-1.63v-6H181v6a14.9,14.9,0,0,0,.39,2.69l-1.49.14s-.21-1-.29-1.59a5,5,0,0,1-3.45,1.68c-1.43,0-2.36-.74-2.36-2.61Z"/><path d="M188.08,833.48a4.35,4.35,0,0,1,1.68.31v-4.92l1.51-.27v11.13a14.94,14.94,0,0,0,.39,2.69l-1.49.14s-.17-.79-.27-1.39a3.25,3.25,0,0,1-2.83,1.49c-2.27,0-3.74-1.9-3.74-4.3A4.61,4.61,0,0,1,188.08,833.48Zm1.68,6.27V836c0-1-.83-1.24-1.67-1.24-1.86,0-3.16,1.28-3.16,3.5,0,1.94,1,3.08,2.32,3.08A3.23,3.23,0,0,0,189.76,839.75Z"/><polygon points="143.53 876.52 136.48 874.16 136.48 863.94 143.54 866.04 143.53 876.52"/><polyline points="145.37 866.04 152.43 863.94 152.41 874.15 145.37 876.52 145.37 866.04"/><polyline points="150.99 862.83 144.41 860.79 137.92 862.83 144.42 864.58 150.99 862.83"/><polygon points="161.31 876.52 154.26 874.16 154.26 863.94 161.32 866.04 161.31 876.52"/><polyline points="163.15 866.04 170.21 863.94 170.19 874.15 163.15 876.52 163.15 866.04"/><polyline points="168.78 862.83 162.2 860.79 155.7 862.83 162.21 864.58 168.78 862.83"/><polygon points="116.87 880.98 109.81 878.88 109.81 889.1 116.86 891.46 116.87 880.98"/><polyline points="118.7 880.98 125.76 878.88 125.73 889.1 118.7 891.46 118.7 880.98"/><polyline points="124.32 877.77 117.74 875.73 111.25 877.77 117.75 879.52 124.32 877.77"/><polygon points="134.64 891.46 127.59 889.1 127.59 878.88 134.65 880.98 134.64 891.46"/><polyline points="136.48 880.98 143.54 878.88 143.52 889.1 136.48 891.46 136.48 880.98"/><polyline points="142.1 877.77 135.52 875.73 129.03 877.77 135.53 879.52 142.1 877.77"/><polygon points="125.75 906.4 118.7 904.04 118.7 893.82 125.76 895.92 125.75 906.4"/><polyline points="127.59 895.92 134.65 893.82 134.63 904.03 127.59 906.4 127.59 895.92"/><polyline points="133.21 892.71 126.63 890.67 120.14 892.71 126.64 894.46 133.21 892.71"/><polygon points="51.76 841.74 40.41 841.74 40.41 831.62 51.76 829.42 51.76 841.74"/><polygon points="71.12 841.74 52.93 841.74 52.93 829.27 71.12 825.54 71.12 841.74"/><polygon points="71.12 843.17 52.93 843.17 52.93 855.63 71.12 859.31 71.12 843.17"/><polygon points="51.76 843.17 40.41 843.17 40.41 853.18 51.76 855.38 51.76 843.17"/><path id="path5530-2" data-name="path5530" class="cls-15" d="M482.26,929.45c-26.45,0-48.79-15.45-55.74-36.54a21.22,21.22,0,0,1-9.78,2.36c-11,0-19.94-8.18-19.94-18.26,0-.1,0-.2,0-.3a56,56,0,0,1-10.33,1c-21.82,0-39.52-12.28-39.52-27.4s17.71-27.4,39.52-27.4a51.88,51.88,0,0,1,23.13,5.21c3.89-10.65,14.85-18.34,27.78-18.34a30.42,30.42,0,0,1,22,9.12,41.5,41.5,0,0,1,17.89-3.93,39.94,39.94,0,0,1,23.15,7c8.23-7.82,20.32-12.77,33.82-12.77,16.55,0,31,7.46,38.79,18.52a27,27,0,0,1,3.59-.24c13.17,0,23.84,9.48,23.84,21.18s-10.67,21.2-23.84,21.2a26.64,26.64,0,0,1-6.79-.89c-7.1,7.66-17.7,13-29.83,14.26-2.48,25.88-27.39,46.22-57.74,46.22Z"/><path d="M430,840.5l1.47-.27v1.36a3,3,0,0,1,2.67-1.45c2.29,0,3.7,1.94,3.7,4.34,0,2.63-1.7,4.84-4.38,4.84a3.28,3.28,0,0,1-2-.54v4.53l-1.51.27Zm1.51,2.48v3.91c0,.79.66,1.14,1.65,1.14,1.88,0,3.08-1.28,3.08-3.45,0-2-1-3.1-2.29-3.1A3.24,3.24,0,0,0,431.53,843Z"/><path d="M440.17,840.5l1.51-.27V842a3.26,3.26,0,0,1,2.54-1.82,1.49,1.49,0,0,1,.76.17l-.39,1.63a2.34,2.34,0,0,0-.74-.15c-1,0-1.82,1.18-2.17,1.78v5.52h-1.51Z"/><path d="M446.4,837.11a1,1,0,1,1,1,1A1,1,0,0,1,446.4,837.11Zm.27,3.25h1.51v8.71h-1.51Z"/><path d="M450,840.36h1.59l2.3,6.84,2.75-6.84h1.57l-3.68,8.81H453.1Z"/><path d="M464.41,843.77v-.33c0-1,0-2-1.43-2a5.16,5.16,0,0,0-2.73,1l-.46-1.22a6.6,6.6,0,0,1,3.62-1.07c1.9,0,2.52.81,2.52,2.77v3.93a1,1,0,0,0,1,1.16l-.5,1.22a1.88,1.88,0,0,1-1.88-1.41,3.52,3.52,0,0,1-2.89,1.51,2.2,2.2,0,0,1-2.44-2.19C459.18,845.32,461.09,844.2,464.41,843.77Zm0,2.71v-1.61c-2.46.41-3.62,1-3.62,2.15,0,.68.5,1,1.14,1A3.48,3.48,0,0,0,464.41,846.48Z"/><path d="M469.34,841.58H468.1v-.81l1.24-.5v-1.94l1.51-.37v2.4h2.83v1.22h-2.83v4.78c0,1.16.41,1.63,1.07,1.63a3.43,3.43,0,0,0,1.84-.79l.37,1.22a4.3,4.3,0,0,1-2.52.89c-1.37,0-2.27-.75-2.27-2.54Z"/><path d="M479.54,840.13c2,0,3.49,1.39,3.49,3.89l-.93.27L477,845c.14,1.8,1.18,3,2.88,3a4.66,4.66,0,0,0,2.73-1.1l.45,1.16a5,5,0,0,1-3.35,1.26,4.14,4.14,0,0,1-4.32-4.4C475.36,842.18,477.07,840.13,479.54,840.13ZM477,843.81l4.38-.56s-.17-1.86-1.92-1.86A2.55,2.55,0,0,0,477,843.81Z"/><path d="M493.87,840.13a4.28,4.28,0,0,1,2.85.95l-.68,1.18a3.67,3.67,0,0,0-2.27-.81c-1.72,0-2.77,1.49-2.77,3.29s1,3.25,2.83,3.25a3.65,3.65,0,0,0,2.36-.93l.52,1.12a4.37,4.37,0,0,1-7.3-3.37A4.47,4.47,0,0,1,493.87,840.13Z"/><path d="M498.87,835.52l1.51-.27v13.83h-1.51Z"/><path d="M507,840.13a4.25,4.25,0,0,1,4.28,4.42c0,2.13-1.43,4.76-4.36,4.76a4.32,4.32,0,0,1-4.26-4.55A4.41,4.41,0,0,1,507,840.13Zm0,7.86c1.65,0,2.71-1.32,2.71-3.2,0-1.67-.77-3.35-2.73-3.35-1.65,0-2.71,1.26-2.71,3.14C504.28,846.29,505.12,848,507,848Z"/><path d="M513.52,840.36H515v5.91c0,1.34.54,1.7,1.24,1.7a5,5,0,0,0,2.94-1.63v-6h1.51v6a14.9,14.9,0,0,0,.39,2.69l-1.49.14s-.21-1-.29-1.59a5,5,0,0,1-3.45,1.68c-1.43,0-2.36-.74-2.36-2.61Z"/><path d="M527.85,840.13a4.35,4.35,0,0,1,1.68.31v-4.92l1.51-.27v11.13a14.94,14.94,0,0,0,.39,2.69l-1.49.14s-.17-.79-.27-1.39a3.25,3.25,0,0,1-2.83,1.49c-2.27,0-3.74-1.9-3.74-4.3A4.61,4.61,0,0,1,527.85,840.13Zm1.68,6.27v-3.76c0-1-.83-1.24-1.67-1.24-1.86,0-3.16,1.28-3.16,3.5,0,1.94,1,3.08,2.32,3.08A3.23,3.23,0,0,0,529.53,846.41Z"/><path id="path5530-3" data-name="path5530" class="cls-15" d="M465.48.21c-29.23,0-53.92,16.38-61.6,38.75a24.26,24.26,0,0,0-10.81-2.5c-12.16,0-22,8.67-22,19.37,0,.11,0,.21,0,.32a64.42,64.42,0,0,0-11.42-1c-24.11,0-43.68,13-43.68,29.06s19.57,29.06,43.68,29.06a59.35,59.35,0,0,0,25.57-5.52c4.3,11.29,16.42,19.45,30.7,19.45a34.34,34.34,0,0,0,24.3-9.67A47.48,47.48,0,0,0,460,121.67a45.46,45.46,0,0,0,25.59-7.45c9.09,8.29,22.46,13.55,37.38,13.55,18.3,0,34.29-7.91,42.88-19.64a31,31,0,0,0,4,.26c14.55,0,26.35-10.06,26.35-22.47s-11.79-22.49-26.35-22.49a30.61,30.61,0,0,0-7.5.94c-7.84-8.12-19.57-13.76-33-15.13-2.74-27.45-30.27-49-63.82-49Z"/><path d="M424.66,89.79a4.25,4.25,0,0,1,4.28,4.41c0,2.13-1.43,4.76-4.36,4.76a4.32,4.32,0,0,1-4.26-4.55A4.41,4.41,0,0,1,424.66,89.79Zm0,7.86c1.65,0,2.71-1.32,2.71-3.19,0-1.67-.77-3.35-2.73-3.35-1.65,0-2.71,1.26-2.71,3.14C421.91,95.95,422.74,97.65,424.64,97.65Z"/><path d="M431.22,90.16l1.51-.27v1.72a3.26,3.26,0,0,1,2.54-1.82A1.49,1.49,0,0,1,436,90l-.39,1.63a2.33,2.33,0,0,0-.74-.15c-1,0-1.82,1.18-2.17,1.78v5.52h-1.51Z"/><path d="M441.39,89.79a4.28,4.28,0,0,1,2.85.95l-.68,1.18a3.67,3.67,0,0,0-2.27-.81c-1.72,0-2.77,1.49-2.77,3.29s1,3.25,2.83,3.25a3.65,3.65,0,0,0,2.36-.93l.52,1.12a4.37,4.37,0,0,1-7.3-3.37A4.46,4.46,0,0,1,441.39,89.79Z"/><path d="M446.38,85.18l1.51-.27v6.66a5.29,5.29,0,0,1,3.58-1.78c1.3,0,2.28.74,2.28,2.61v6.33h-1.51V92.83c0-1.3-.52-1.7-1.18-1.7-1.12,0-2.59,1.3-3.17,1.84v5.77h-1.51Z"/><path d="M460.19,89.79c2,0,3.49,1.39,3.49,3.89l-.93.27-5.13.68c.14,1.8,1.18,3,2.88,3a4.67,4.67,0,0,0,2.73-1.1l.45,1.16A5,5,0,0,1,460.32,99a4.14,4.14,0,0,1-4.32-4.4C456,91.84,457.71,89.79,460.19,89.79Zm-2.56,3.68,4.38-.56S461.83,91,460.09,91A2.55,2.55,0,0,0,457.63,93.47Z"/><path d="M465.7,96.86a4.54,4.54,0,0,0,2.5.85c1.08,0,1.63-.46,1.63-1.14,0-1.86-4.28-1.59-4.28-4.38,0-1.32.95-2.4,3.18-2.4a5.77,5.77,0,0,1,2.42.48l-.41,1.28a5.62,5.62,0,0,0-2.13-.5c-1,0-1.53.43-1.53,1,0,1.78,4.28,1.49,4.28,4.38,0,1.55-1.22,2.52-3.2,2.52a4.9,4.9,0,0,1-2.79-.77Z"/><path d="M474,91.24h-1.24v-.81l1.24-.5V88l1.51-.37V90h2.83v1.22h-2.83V96c0,1.16.41,1.63,1.07,1.63a3.43,3.43,0,0,0,1.84-.79l.37,1.22a4.3,4.3,0,0,1-2.52.89c-1.37,0-2.27-.76-2.27-2.54Z"/><path d="M480.61,90.16l1.51-.27v1.72a3.26,3.26,0,0,1,2.54-1.82,1.49,1.49,0,0,1,.76.17L485,91.59a2.33,2.33,0,0,0-.74-.15c-1,0-1.82,1.18-2.17,1.78v5.52h-1.51Z"/><path d="M491.57,93.43V93.1c0-1,0-2-1.43-2a5.16,5.16,0,0,0-2.73,1l-.46-1.22a6.6,6.6,0,0,1,3.62-1.06c1.9,0,2.52.81,2.52,2.77v3.93a1,1,0,0,0,1,1.16l-.5,1.22a1.88,1.88,0,0,1-1.88-1.41A3.52,3.52,0,0,1,488.78,99a2.2,2.2,0,0,1-2.44-2.19C486.34,95,488.26,93.86,491.57,93.43Zm0,2.71V94.53c-2.46.41-3.62,1-3.62,2.15,0,.68.5,1,1.14,1A3.49,3.49,0,0,0,491.57,96.14Z"/><path d="M496.5,91.24h-1.24v-.81l1.24-.5V88l1.51-.37V90h2.83v1.22H498V96c0,1.16.41,1.63,1.07,1.63a3.43,3.43,0,0,0,1.84-.79l.37,1.22a4.3,4.3,0,0,1-2.52.89c-1.37,0-2.26-.76-2.26-2.54Z"/><path d="M506.84,89.79a4.25,4.25,0,0,1,4.28,4.41c0,2.13-1.43,4.76-4.36,4.76a4.32,4.32,0,0,1-4.26-4.55A4.41,4.41,0,0,1,506.84,89.79Zm0,7.86c1.65,0,2.71-1.32,2.71-3.19,0-1.67-.77-3.35-2.73-3.35-1.65,0-2.71,1.26-2.71,3.14C504.09,95.95,504.93,97.65,506.82,97.65Z"/><path d="M513.4,90.16l1.51-.27v1.72a3.26,3.26,0,0,1,2.54-1.82,1.49,1.49,0,0,1,.76.17l-.39,1.63a2.33,2.33,0,0,0-.74-.15c-1,0-1.82,1.18-2.17,1.78v5.52H513.4Z"/><rect class="cls-5" x="454.36" y="876.68" width="54.51" height="21.17"/><rect class="cls-5" x="461.36" y="872.9" width="40.2" height="29.85"/><rect class="cls-5" x="472.06" y="868.27" width="19.03" height="38.48"/><path d="M491.25,907.88H472a.8.8,0,0,1-.8-.77V868.32a.8.8,0,0,1,.8-.8h19.3a.8.8,0,0,1,.8.8v38.79A.8.8,0,0,1,491.25,907.88Zm-18.49-1.59h17.69V869.11H472.74v37.18Z"/><path d="M486.67,882.86H476.6a.8.8,0,0,1,0-1.59h10.07a.8.8,0,1,1,.15,1.59Z"/><path d="M486.67,878.27H476.6a.8.8,0,0,1,0-1.59h10.07a.8.8,0,1,1,.15,1.59Z"/><path d="M486.67,873.69H476.6a.8.8,0,0,1,0-1.59h10.07a.8.8,0,1,1,.15,1.59Z"/><g id="_Group_" data-name=" Group "><path d="M501.61,903.29H492a.8.8,0,1,1-.15-1.59h9v-28H492a.8.8,0,1,1-.15-1.59h9.8a.8.8,0,0,1,.8.79V902.5A.8.8,0,0,1,501.61,903.29Z"/><path d="M497,887.43H492a.8.8,0,1,1-.15-1.59H497a.8.8,0,1,1,.15,1.59Z"/><path d="M497,882.86H492a.8.8,0,1,1-.15-1.59H497a.8.8,0,1,1,.15,1.59Z"/><path d="M497,878.27H492a.8.8,0,1,1-.15-1.59H497a.8.8,0,1,1,.15,1.59Z"/></g><g id="_Group_2" data-name=" Group 2"><path d="M471.19,903.29h-9.65a.8.8,0,0,1-.8-.79V872.89a.8.8,0,0,1,.8-.79h9.65a.8.8,0,0,1,.15,1.59h-9v28h8.86a.8.8,0,0,1,.15,1.59Z"/><path d="M471.19,887.43h-5.07a.8.8,0,1,1-.15-1.59h5.22a.8.8,0,0,1,.15,1.59Z"/><path d="M471.19,882.86h-5.07a.8.8,0,0,1,0-1.59h5.07a.8.8,0,0,1,.15,1.59Z"/><path d="M471.19,878.27h-5.07a.8.8,0,1,1-.15-1.59h5.22a.8.8,0,0,1,.15,1.59Z"/></g><path class="cls-16" d="M509.44,898.42H502.5a.57.57,0,1,1-.11-1.14h6.48V877.12H502.5a.57.57,0,1,1-.11-1.14h7a.57.57,0,0,1,.57.57v21.3A.57.57,0,0,1,509.44,898.42Z"/><path class="cls-16" d="M506.15,885.85H502.5a.57.57,0,1,1-.11-1.14h3.76a.57.57,0,1,1,.11,1.14Z"/><path class="cls-16" d="M506.15,881.84H502.5a.57.57,0,1,1-.11-1.14h3.76a.57.57,0,1,1,.11,1.14Z"/><path class="cls-16" d="M453.22,897.85v-21.3a.57.57,0,0,1,.57-.57h7a.57.57,0,1,1-.11,1.14h-6.37v20.15h6.48a.57.57,0,1,1-.11,1.14H453.8A.57.57,0,0,1,453.22,897.85Z"/><path class="cls-16" d="M457,885.85a.57.57,0,0,1,.11-1.14h3.76a.57.57,0,1,1-.11,1.14H457Z"/><path class="cls-16" d="M457,881.84a.57.57,0,0,1,.11-1.14h3.76a.57.57,0,1,1-.11,1.14H457Z"/><path d="M234.74,834.6a3.07,3.07,0,0,0-2.61,1.51l-3.51,6.29,3,5.3,4.35-7.58h16.41l-2.22-4a3.07,3.07,0,0,0-2.61-1.51Zm2,6.89-4.33,7.58,3.51,6.14.82,1.44h8.77l4.39-7.58-4.39-7.58Zm10.4,0,4.35,7.58-.22.34-8.12,14.13h4.42a3.07,3.07,0,0,0,2.61-1.51l6.42-11.37a3.11,3.11,0,0,0,0-3.1l-3.38-6.07Zm-19.36,2.35-2.13,3.73a3.11,3.11,0,0,0,0,3.1L232.07,862a2.93,2.93,0,0,0,2.61,1.51h6.83l3.23-5.51H236L234.83,856l-.09-.13-3.92-6.76Zm13.38,1.79a3.45,3.45,0,1,1-3.45,3.45A3.41,3.41,0,0,1,241.16,845.63Z"/><path id="outline" d="M449.87,31.68h5V36.8h2.53a11,11,0,0,0,3.48-.58,8.9,8.9,0,0,0,1.69-.76,6.27,6.27,0,0,1-1.17-3.23,6.83,6.83,0,0,1,1.23-4.81l.53-.61.63.5a8,8,0,0,1,3.14,5.06,7.65,7.65,0,0,1,5.8.54l.69.4L473,34c-1.42,2.76-4.38,3.62-7.27,3.47-4.33,10.79-13.76,15.9-25.2,15.9-5.91,0-11.33-2.21-14.41-7.45l-.05-.09-.45-.91a14.51,14.51,0,0,1-1.15-7.36l.07-.76h4.28V31.68h5v-5h10v-5h6Z"/><g id="Containers"><path class="cls-17" d="M433.33,32.88h.34v3.61h-.34Zm-.66,0H433v3.61h-.36Zm-.66,0h.36v3.61H432Zm-.66,0h.36v3.61h-.36Zm-.66,0h.36v3.61h-.36Zm-.64,0h.34v3.61h-.34Zm-.36-.36H434v4.34h-4.34Z"/><path class="cls-17" d="M438.33,27.88h.34v3.61h-.34Zm-.66,0H438v3.61h-.36Zm-.66,0h.36v3.61H437Zm-.66,0h.36v3.61h-.36Zm-.66,0h.36v3.61h-.36Zm-.64,0h.34v3.61h-.34Zm-.36-.36H439v4.34H434.7Z"/><path class="cls-17" d="M438.33,32.88h.34v3.61h-.34Zm-.66,0H438v3.61h-.36Zm-.66,0h.36v3.61H437Zm-.66,0h.36v3.61h-.36Zm-.66,0h.36v3.61h-.36Zm-.64,0h.34v3.61h-.34Zm-.36-.36H439v4.34H434.7Z"/><path class="cls-17" d="M443.33,32.88h.34v3.61h-.34Zm-.66,0H443v3.61h-.36Zm-.66,0h.36v3.61H442Zm-.66,0h.36v3.61h-.36Zm-.66,0h.36v3.61h-.36Zm-.64,0h.34v3.61h-.34Zm-.36-.36H444v4.34H439.7Z"/><path class="cls-17" d="M443.33,27.88h.34v3.61h-.34Zm-.66,0H443v3.61h-.36Zm-.66,0h.36v3.61H442Zm-.66,0h.36v3.61h-.36Zm-.66,0h.36v3.61h-.36Zm-.64,0h.34v3.61h-.34Zm-.36-.36H444v4.34H439.7Z"/><path class="cls-17" d="M448.34,32.88h.34v3.61h-.34Zm-.66,0H448v3.61h-.36Zm-.66,0h.36v3.61H447Zm-.66,0h.36v3.61h-.36Zm-.66,0h.36v3.61h-.36Zm-.64,0h.34v3.61h-.34Zm-.36-.36H449v4.34H444.7V32.52Z"/><path class="cls-17" d="M448.34,27.88h.34v3.61h-.34Zm-.66,0H448v3.61h-.36Zm-.66,0h.36v3.61H447Zm-.66,0h.36v3.61h-.36Zm-.66,0h.36v3.61h-.36Zm-.64,0h.34v3.61h-.34Zm-.36-.36H449v4.34H444.7V27.52Z"/><path class="cls-17" d="M448.34,22.87h.34v3.61h-.34Zm-.66,0H448v3.61h-.36Zm-.66,0h.36v3.61H447Zm-.66,0h.36v3.61h-.36Zm-.66,0h.36v3.61h-.36Zm-.64,0h.34v3.61h-.34Zm-.36-.36H449v4.34H444.7V22.51Z"/><path class="cls-17" d="M453.34,32.88h.34v3.61h-.34Zm-.66,0H453v3.61h-.36Zm-.66,0h.36v3.61H452Zm-.66,0h.36v3.61h-.36Zm-.66,0h.36v3.61h-.36Zm-.64,0h.34v3.61h-.34Zm-.36-.36H454v4.34h-4.34V32.52Z"/></g><path class="cls-18" d="M438.76,43.88a1.2,1.2,0,1,1-1.2,1.2,1.2,1.2,0,0,1,1.2-1.2"/><path d="M438.76,44.22a.86.86,0,0,1,.31.06.35.35,0,1,0,.48.47.86.86,0,1,1-.79-.53"/><path class="cls-18" d="M441.94,52.5a10.54,10.54,0,0,1-5.49-5.4,18.33,18.33,0,0,1-4,.6q-.87,0-1.83,0t-2.33-.07c2.72,2.72,6.06,4.81,12.25,4.84Z"/><path id="path3054-2-9" class="cls-19" d="M500.5,37.9l11.88,5.67,2.94,12.75L507.1,66.54H493.91l-8.22-10.22,2.93-12.75Z"/><path id="path3055" d="M500.39,36.52a2.17,2.17,0,0,0-.82.21L488.31,42.1a2.14,2.14,0,0,0-1.16,1.45l-2.78,12.08a2.12,2.12,0,0,0,.29,1.64l.12.17,7.79,9.68a2.16,2.16,0,0,0,1.68.8h12.49a2.16,2.16,0,0,0,1.68-.8l7.79-9.68a2.12,2.12,0,0,0,.42-1.81l-2.78-12.08a2.14,2.14,0,0,0-1.16-1.45l-11.25-5.37a2.17,2.17,0,0,0-1-.21Z"/><path id="path3059" class="cls-20" d="M500.5,40.63a.71.71,0,0,0-.67.75v0c0,.06,0,.12,0,.17a5.62,5.62,0,0,0,.09.64,6.29,6.29,0,0,1,.07,1.22.73.73,0,0,1-.22.35l0,.28a8.76,8.76,0,0,0-1.22.19,8.66,8.66,0,0,0-4.4,2.51l-.24-.17a.53.53,0,0,1-.4,0,6.29,6.29,0,0,1-.91-.82,5.61,5.61,0,0,0-.44-.47l-.15-.12a.8.8,0,0,0-.47-.18.65.65,0,0,0-.54.24.71.71,0,0,0,.17,1h0l.14.11a5.61,5.61,0,0,0,.56.33,6.29,6.29,0,0,1,1,.7.75.75,0,0,1,.14.39l.22.19A8.71,8.71,0,0,0,491.85,54l-.28.08a.93.93,0,0,1-.29.29,6.29,6.29,0,0,1-1.21.2,5.64,5.64,0,0,0-.65.05l-.18,0h0a.68.68,0,1,0,.3,1.31h0l.17,0a5.63,5.63,0,0,0,.6-.23,6.29,6.29,0,0,1,1.17-.35.74.74,0,0,1,.39.14l.29-.05a8.76,8.76,0,0,0,3.88,4.85l-.12.29A.67.67,0,0,1,496,61a6.58,6.58,0,0,1-.61,1.1,5.64,5.64,0,0,0-.36.54l-.09.18a.68.68,0,1,0,1.22.58h0l.08-.17a5.62,5.62,0,0,0,.19-.62,4.71,4.71,0,0,1,.52-1.21.55.55,0,0,1,.29-.14l.15-.28a8.72,8.72,0,0,0,6.22,0l.14.26a.53.53,0,0,1,.34.21,6.28,6.28,0,0,1,.46,1.13,5.63,5.63,0,0,0,.2.62l.08.17a.68.68,0,1,0,1.22-.58L506,62.6a5.62,5.62,0,0,0-.36-.54A6.29,6.29,0,0,1,505,61a.53.53,0,0,1,.05-.4,2.31,2.31,0,0,1-.11-.27,8.76,8.76,0,0,0,3.88-4.88l.29.05a.53.53,0,0,1,.38-.14,6.3,6.3,0,0,1,1.17.35,5.63,5.63,0,0,0,.6.23l.17,0h0a.68.68,0,1,0,.3-1.31l-.2,0a5.64,5.64,0,0,0-.65-.05,6.29,6.29,0,0,1-1.21-.2.76.76,0,0,1-.29-.29l-.27-.08a8.75,8.75,0,0,0-1.4-6.06l.24-.21a.53.53,0,0,1,.13-.38,6.29,6.29,0,0,1,1-.7,5.63,5.63,0,0,0,.56-.33l.15-.12a.68.68,0,1,0-.84-1.05l-.15.12a5.64,5.64,0,0,0-.44.47,6.31,6.31,0,0,1-.91.82.75.75,0,0,1-.41,0l-.26.18a8.83,8.83,0,0,0-5.59-2.7c0-.09,0-.25,0-.3a.53.53,0,0,1-.22-.34,6.3,6.3,0,0,1,.08-1.22,5.62,5.62,0,0,0,.09-.64c0-.05,0-.13,0-.19a.71.71,0,0,0-.67-.75Zm-.84,5.22-.2,3.53h0a.59.59,0,0,1-.94.45h0l-2.9-2.05A6.94,6.94,0,0,1,498.94,46,7.1,7.1,0,0,1,499.66,45.85Zm1.69,0a7,7,0,0,1,4,1.95l-2.88,2h0a.59.59,0,0,1-.94-.45h0Zm-6.8,3.26,2.64,2.37h0a.59.59,0,0,1-.23,1h0l-3.39,1a6.94,6.94,0,0,1,1-4.39Zm11.89,0a7.06,7.06,0,0,1,1,4.38l-3.41-1h0a.59.59,0,0,1-.23-1h0l2.63-2.35ZM500,51.67H501l.67.84-.24,1.05-1,.47-1-.47-.24-1.05Zm3.47,2.88h.14l3.51.59a7,7,0,0,1-2.81,3.53l-1.36-3.29h0a.6.6,0,0,1,.52-.83Zm-5.89,0a.59.59,0,0,1,.54.83h0l-1.35,3.26a7,7,0,0,1-2.8-3.5l3.48-.59h.12ZM500.48,56a.6.6,0,0,1,.54.31h0l1.71,3.1a7.1,7.1,0,0,1-.68.19,7,7,0,0,1-3.8-.2L500,56.3h0A.59.59,0,0,1,500.48,56Z"/><path d="M414.24,59.24a1.61,1.61,0,0,0-.9-.21h-25.6a1.59,1.59,0,0,0-.94.23,2,2,0,0,0-1,1.75V75.85a1.36,1.36,0,0,0,1.33,1.51,1.66,1.66,0,0,0,.88-.27L394.55,73l4.68,6.92a1.53,1.53,0,0,0,2.64,0l5.95-8.8,5.31,2.62a1.49,1.49,0,0,0,1.84-.29,1.64,1.64,0,0,0,.37-1.08V61A2,2,0,0,0,414.24,59.24ZM393.69,71.75l-6.39,3.94V62.31Zm18.24-9.43-4.63,6.84-3.6-1.77Zm-22.1-1.76h22l-9.79,6Zm16.6,9.89-5.83,8.62,0,.06,0-.06-4.64-6.86,6.29-3.87Zm-5.91-2.91L395,70.94l-6.21-9.17Zm13.28-5.23V72.38l-5.11-2.52Z"/><path d="M83.83,76.38A9.8,9.8,0,0,1,81,83.83a10.61,10.61,0,0,1-7.63,2.73H39a10.61,10.61,0,0,1-7.63-2.73,9.8,9.8,0,0,1-2.87-7.45q0-2.08.14-4.07A40.05,40.05,0,0,1,29.15,68a33.33,33.33,0,0,1,1-4.27,20.22,20.22,0,0,1,1.69-3.83,13.83,13.83,0,0,1,2.44-3.19,10.26,10.26,0,0,1,3.36-2.1,11.81,11.81,0,0,1,4.38-.79,4.81,4.81,0,0,1,1.65.85l2.93,1.89a18.58,18.58,0,0,0,4.25,1.89,16.72,16.72,0,0,0,10.5,0,18.58,18.58,0,0,0,4.25-1.89l2.93-1.89a4.81,4.81,0,0,1,1.65-.85,11.81,11.81,0,0,1,4.38.79A10.26,10.26,0,0,1,78,56.73a13.83,13.83,0,0,1,2.44,3.19,20.22,20.22,0,0,1,1.69,3.83,33.33,33.33,0,0,1,1,4.27,40.05,40.05,0,0,1,.55,4.29Q83.83,74.29,83.83,76.38ZM71.25,41.26a15.1,15.1,0,0,1-15.1,15.1A15.1,15.1,0,0,1,41,41.26a15.1,15.1,0,0,1,15.1-15.1,15.1,15.1,0,0,1,15.1,15.1Z"/><line class="cls-9" x1="386.12" y1="458.05" x2="386.12" y2="574.46"/><line class="cls-9" x1="253.75" y1="458.05" x2="253.75" y2="599.96"/><circle class="cls-21" cx="386.12" cy="596.74" r="40.16"/><line class="cls-22" x1="386.12" y1="611.68" x2="386.12" y2="625.88"/><polygon class="cls-18" points="377.97 614.07 386.12 599.96 394.26 614.07 377.97 614.07"/><line x1="386.12" y1="591.75" x2="386.12" y2="565.83"/><line class="cls-22" x1="386.12" y1="580.03" x2="386.12" y2="565.83"/><polygon class="cls-18" points="394.26 577.64 386.12 591.75 377.97 577.64 394.26 577.64"/><line class="cls-22" x1="406.28" y1="595.84" x2="392.08" y2="595.84"/><polygon class="cls-18" points="403.9 587.69 418.01 595.84 403.9 603.98 403.9 587.69"/><line class="cls-22" x1="364.85" y1="596.37" x2="379.05" y2="596.37"/><polygon class="cls-18" points="367.23 604.51 353.12 596.37 367.23 588.23 367.23 604.51"/><rect x="217.26" y="506.12" width="61.03" height="30.46"/><path class="cls-12" d="M220.79,513.15H234.9c.84,0,1.51-.42,1.51-.93v-3.74c0-.52-.67-.93-1.51-.93H220.79c-.84,0-1.51.42-1.51.93v3.74C219.29,512.73,220,513.15,220.79,513.15Z"/><path class="cls-12" d="M219.29,514.92v5.62h5.58c.84,0,1.51-.42,1.51-.93v-3.74c0-.52-.67-.93-1.51-.93h-5.58Z"/><path class="cls-12" d="M219.29,529.69v5.62h5.58c.84,0,1.51-.42,1.51-.93v-3.74c0-.52-.67-.93-1.51-.93h-5.58Z"/><path class="cls-12" d="M220.79,527.92H234.9c.84,0,1.51-.42,1.51-.93v-3.74c0-.52-.67-.93-1.51-.93H220.79c-.84,0-1.51.42-1.51.93V527C219.29,527.51,220,527.92,220.79,527.92Z"/><path class="cls-12" d="M259.41,523.25V527c0,.52.67.93,1.51.93H275c.84,0,1.51-.42,1.51-.93v-3.74c0-.52-.67-.93-1.51-.93H260.92C260.09,522.31,259.41,522.73,259.41,523.25Z"/><path class="cls-12" d="M276.54,520.53v-5.62H271c-.84,0-1.51.42-1.51.93v3.75c0,.52.67.93,1.51.93Z"/><path class="cls-12" d="M269.44,530.63v3.74c0,.52.67.93,1.51.93h5.58v-5.62H271C270.12,529.69,269.44,530.12,269.44,530.63Z"/><path class="cls-12" d="M246.45,519.6v-3.74c0-.52-.67-.93-1.51-.93H230.83c-.84,0-1.51.42-1.51.93v3.74c0,.52.67.93,1.51.93h14.11C245.77,520.53,246.45,520.12,246.45,519.6Z"/><path class="cls-12" d="M230.83,529.69c-.84,0-1.51.42-1.51.93v3.74c0,.52.67.93,1.51.93h14.11c.84,0,1.51-.42,1.51-.93v-3.74c0-.52-.67-.93-1.51-.93Z"/><path class="cls-12" d="M240.86,513.15H255c.84,0,1.51-.42,1.51-.93v-3.74c0-.52-.67-.93-1.51-.93H240.86c-.84,0-1.51.42-1.51.93v3.74C239.35,512.73,240,513.15,240.86,513.15Z"/><path class="cls-12" d="M260.92,513.15H275c.84,0,1.51-.42,1.51-.93v-3.74c0-.52-.67-.93-1.51-.93H260.92c-.84,0-1.51.42-1.51.93v3.74C259.41,512.73,260.09,513.15,260.92,513.15Z"/><path class="cls-12" d="M265,514.92H250.9c-.84,0-1.51.42-1.51.93v3.74c0,.52.67.93,1.51.93H265c.84,0,1.51-.42,1.51-.93v-3.74C266.51,515.34,265.83,514.92,265,514.92Z"/><path class="cls-12" d="M250.9,535.31H265c.84,0,1.51-.42,1.51-.93v-3.74c0-.52-.67-.93-1.51-.93H250.9c-.84,0-1.51.42-1.51.93v3.74C249.38,534.89,250.06,535.31,250.9,535.31Z"/><path class="cls-12" d="M256.48,527v-3.74c0-.52-.67-.93-1.51-.93H240.86c-.84,0-1.51.42-1.51.93V527c0,.52.67.93,1.51.93H255C255.8,527.92,256.48,527.51,256.48,527Z"/><path class="cls-13" d="M279.42,496.74c.38.29.7.64,1.06,1a53.84,53.84,0,0,1,8.61,10.22,34.16,34.16,0,0,1,4.89,12,24.51,24.51,0,0,1,.33,7.1,14.61,14.61,0,0,1-.6,2.92,15.93,15.93,0,0,1-1.82,3.91,11.08,11.08,0,0,1-2.53,2.72,12.14,12.14,0,0,1-3.63,1.84,22.35,22.35,0,0,1-5,.91,30.08,30.08,0,0,1-6-.08,18.55,18.55,0,0,1-6.54-2,11.46,11.46,0,0,1-4.57-4.34,12.24,12.24,0,0,1-1.43-7.07,21.63,21.63,0,0,1,2.1-7.39,37.39,37.39,0,0,1,3.37-5.7,42.53,42.53,0,0,1,3.54-4.36l.09-.07a11.22,11.22,0,0,0,.42,3.43,8.84,8.84,0,0,0,1.66,3.11c0,.06.08.13.16.14a20.74,20.74,0,0,0,4.41-4.28,13.35,13.35,0,0,0,2.42-5.84,15.76,15.76,0,0,0-.95-8.13Z"/><rect x="350.97" y="506.12" width="61.03" height="30.46"/><path class="cls-12" d="M354.5,513.15h14.11c.84,0,1.51-.42,1.51-.93v-3.74c0-.52-.67-.93-1.51-.93H354.5c-.84,0-1.51.42-1.51.93v3.74C353,512.73,353.66,513.15,354.5,513.15Z"/><path class="cls-12" d="M353,514.92v5.62h5.58c.84,0,1.51-.42,1.51-.93v-3.74c0-.52-.67-.93-1.51-.93H353Z"/><path class="cls-12" d="M353,529.69v5.62h5.58c.84,0,1.51-.42,1.51-.93v-3.74c0-.52-.67-.93-1.51-.93H353Z"/><path class="cls-12" d="M354.5,527.92h14.11c.84,0,1.51-.42,1.51-.93v-3.74c0-.52-.67-.93-1.51-.93H354.5c-.84,0-1.51.42-1.51.93V527C353,527.51,353.66,527.92,354.5,527.92Z"/><path class="cls-12" d="M393.12,523.25V527c0,.52.67.93,1.51.93h14.11c.84,0,1.51-.42,1.51-.93v-3.74c0-.52-.67-.93-1.51-.93H394.63C393.79,522.31,393.12,522.73,393.12,523.25Z"/><path class="cls-12" d="M410.25,520.53v-5.62h-5.58c-.84,0-1.51.42-1.51.93v3.75c0,.52.67.93,1.51.93Z"/><path class="cls-12" d="M403.14,530.63v3.74c0,.52.67.93,1.51.93h5.58v-5.62h-5.58C403.83,529.69,403.14,530.12,403.14,530.63Z"/><path class="cls-12" d="M380.15,519.6v-3.74c0-.52-.67-.93-1.51-.93H364.54c-.84,0-1.51.42-1.51.93v3.74c0,.52.67.93,1.51.93h14.11C379.47,520.53,380.15,520.12,380.15,519.6Z"/><path class="cls-12" d="M364.54,529.69c-.84,0-1.51.42-1.51.93v3.74c0,.52.67.93,1.51.93h14.11c.84,0,1.51-.42,1.51-.93v-3.74c0-.52-.67-.93-1.51-.93Z"/><path class="cls-12" d="M374.56,513.15h14.11c.84,0,1.51-.42,1.51-.93v-3.74c0-.52-.67-.93-1.51-.93H374.56c-.84,0-1.51.42-1.51.93v3.74C373.05,512.73,373.73,513.15,374.56,513.15Z"/><path class="cls-12" d="M394.63,513.15h14.11c.84,0,1.51-.42,1.51-.93v-3.74c0-.52-.67-.93-1.51-.93H394.63c-.84,0-1.51.42-1.51.93v3.74C393.12,512.73,393.79,513.15,394.63,513.15Z"/><path class="cls-12" d="M398.7,514.92H384.6c-.84,0-1.51.42-1.51.93v3.74c0,.52.67.93,1.51.93h14.11c.84,0,1.51-.42,1.51-.93v-3.74C400.22,515.34,399.54,514.92,398.7,514.92Z"/><path class="cls-12" d="M384.6,535.31h14.11c.84,0,1.51-.42,1.51-.93v-3.74c0-.52-.67-.93-1.51-.93H384.6c-.84,0-1.51.42-1.51.93v3.74C383.08,534.89,383.76,535.31,384.6,535.31Z"/><path class="cls-12" d="M390.18,527v-3.74c0-.52-.67-.93-1.51-.93H374.56c-.84,0-1.51.42-1.51.93V527c0,.52.67.93,1.51.93h14.11C389.51,527.92,390.18,527.51,390.18,527Z"/><path class="cls-13" d="M413.12,496.74c.38.29.7.64,1.06,1a53.84,53.84,0,0,1,8.61,10.22,34.16,34.16,0,0,1,4.89,12A24.51,24.51,0,0,1,428,527a14.61,14.61,0,0,1-.6,2.92,15.93,15.93,0,0,1-1.82,3.91,11.08,11.08,0,0,1-2.53,2.72,12.14,12.14,0,0,1-3.63,1.84,22.35,22.35,0,0,1-5,.91,30.08,30.08,0,0,1-6-.08,18.55,18.55,0,0,1-6.54-2,11.46,11.46,0,0,1-4.57-4.34,12.24,12.24,0,0,1-1.43-7.07,21.63,21.63,0,0,1,2.1-7.39,37.39,37.39,0,0,1,3.37-5.7,42.53,42.53,0,0,1,3.54-4.36l.09-.07a11.22,11.22,0,0,0,.42,3.43,8.84,8.84,0,0,0,1.66,3.11c0,.06.08.13.16.14a20.74,20.74,0,0,0,4.41-4.28,13.35,13.35,0,0,0,2.42-5.84,15.76,15.76,0,0,0-.95-8.13Z"/><rect x="481.41" y="506.12" width="61.03" height="30.46"/><path class="cls-12" d="M484.95,513.15h14.11c.84,0,1.51-.42,1.51-.93v-3.74c0-.52-.67-.93-1.51-.93H484.95c-.84,0-1.51.42-1.51.93v3.74C483.44,512.73,484.11,513.15,484.95,513.15Z"/><path class="cls-12" d="M483.44,514.92v5.62H489c.84,0,1.51-.42,1.51-.93v-3.74c0-.52-.67-.93-1.51-.93h-5.58Z"/><path class="cls-12" d="M483.44,529.69v5.62H489c.84,0,1.51-.42,1.51-.93v-3.74c0-.52-.67-.93-1.51-.93h-5.58Z"/><path class="cls-12" d="M484.95,527.92h14.11c.84,0,1.51-.42,1.51-.93v-3.74c0-.52-.67-.93-1.51-.93H484.95c-.84,0-1.51.42-1.51.93V527C483.44,527.51,484.11,527.92,484.95,527.92Z"/><path class="cls-12" d="M523.56,523.25V527c0,.52.67.93,1.51.93h14.11c.84,0,1.51-.42,1.51-.93v-3.74c0-.52-.67-.93-1.51-.93H525.07C524.24,522.31,523.56,522.73,523.56,523.25Z"/><path class="cls-12" d="M540.69,520.53v-5.62h-5.58c-.84,0-1.51.42-1.51.93v3.75c0,.52.67.93,1.51.93Z"/><path class="cls-12" d="M533.59,530.63v3.74c0,.52.67.93,1.51.93h5.58v-5.62H535.1C534.27,529.69,533.59,530.12,533.59,530.63Z"/><path class="cls-12" d="M510.6,519.6v-3.74c0-.52-.67-.93-1.51-.93H495c-.84,0-1.51.42-1.51.93v3.74c0,.52.67.93,1.51.93h14.11C509.92,520.53,510.6,520.12,510.6,519.6Z"/><path class="cls-12" d="M495,529.69c-.84,0-1.51.42-1.51.93v3.74c0,.52.67.93,1.51.93h14.11c.84,0,1.51-.42,1.51-.93v-3.74c0-.52-.67-.93-1.51-.93Z"/><path class="cls-12" d="M505,513.15h14.11c.84,0,1.51-.42,1.51-.93v-3.74c0-.52-.67-.93-1.51-.93H505c-.84,0-1.51.42-1.51.93v3.74C503.5,512.73,504.17,513.15,505,513.15Z"/><path class="cls-12" d="M525.07,513.15h14.11c.84,0,1.51-.42,1.51-.93v-3.74c0-.52-.67-.93-1.51-.93H525.07c-.84,0-1.51.42-1.51.93v3.74C523.56,512.73,524.24,513.15,525.07,513.15Z"/><path class="cls-12" d="M529.14,514.92H515c-.84,0-1.51.42-1.51.93v3.74c0,.52.67.93,1.51.93h14.11c.84,0,1.51-.42,1.51-.93v-3.74C530.67,515.34,530,514.92,529.14,514.92Z"/><path class="cls-12" d="M515,535.31h14.11c.84,0,1.51-.42,1.51-.93v-3.74c0-.52-.67-.93-1.51-.93H515c-.84,0-1.51.42-1.51.93v3.74C513.53,534.89,514.21,535.31,515,535.31Z"/><path class="cls-12" d="M520.63,527v-3.74c0-.52-.67-.93-1.51-.93H505c-.84,0-1.51.42-1.51.93V527c0,.52.67.93,1.51.93h14.11C520,527.92,520.63,527.51,520.63,527Z"/><path class="cls-13" d="M543.57,496.74c.38.29.7.64,1.06,1a53.84,53.84,0,0,1,8.61,10.22,34.16,34.16,0,0,1,4.89,12,24.51,24.51,0,0,1,.33,7.1,14.61,14.61,0,0,1-.6,2.92,15.93,15.93,0,0,1-1.82,3.91,11.08,11.08,0,0,1-2.53,2.72,12.14,12.14,0,0,1-3.63,1.84,22.35,22.35,0,0,1-5,.91,30.08,30.08,0,0,1-6-.08,18.55,18.55,0,0,1-6.54-2,11.46,11.46,0,0,1-4.57-4.34,12.24,12.24,0,0,1-1.43-7.07,21.63,21.63,0,0,1,2.1-7.39,37.39,37.39,0,0,1,3.37-5.7,42.53,42.53,0,0,1,3.54-4.36l.09-.07a11.22,11.22,0,0,0,.42,3.43,8.84,8.84,0,0,0,1.66,3.11c0,.06.08.13.16.14a20.74,20.74,0,0,0,4.41-4.28,13.35,13.35,0,0,0,2.42-5.84,15.76,15.76,0,0,0-.95-8.13Z"/><rect class="cls-14" x="61.77" y="375.18" width="110.19" height="83.33"/><path d="M74.35,413a4.28,4.28,0,0,1,2.85.95l-.68,1.18a3.67,3.67,0,0,0-2.27-.81c-1.72,0-2.77,1.49-2.77,3.29s1,3.25,2.83,3.25a3.65,3.65,0,0,0,2.36-.93l.52,1.12a4.37,4.37,0,0,1-7.3-3.37A4.47,4.47,0,0,1,74.35,413Z"/><path d="M83.79,416.63v-.33c0-1,0-2-1.43-2a5.16,5.16,0,0,0-2.73,1l-.46-1.22A6.6,6.6,0,0,1,82.79,413c1.9,0,2.52.81,2.52,2.77v3.93a1,1,0,0,0,1,1.16l-.5,1.22a1.88,1.88,0,0,1-1.88-1.41A3.52,3.52,0,0,1,81,422.17,2.2,2.2,0,0,1,78.57,420C78.57,418.18,80.48,417.05,83.79,416.63Zm0,2.71v-1.61c-2.46.41-3.62,1-3.62,2.15,0,.68.5,1,1.14,1A3.48,3.48,0,0,0,83.79,419.34Z"/><path d="M88.42,408.38l1.51-.27v13.83H88.42Z"/><path d="M92.6,410a1,1,0,1,1,1,1A1,1,0,0,1,92.6,410Zm.27,3.25h1.51v8.71H92.87Z"/><path d="M101.16,413a4.28,4.28,0,0,1,2.85.95l-.68,1.18a3.67,3.67,0,0,0-2.27-.81c-1.72,0-2.77,1.49-2.77,3.29s1,3.25,2.83,3.25a3.65,3.65,0,0,0,2.36-.93L104,421a4.37,4.37,0,0,1-7.3-3.37A4.47,4.47,0,0,1,101.16,413Z"/><path d="M109.72,413A4.25,4.25,0,0,1,114,417.4c0,2.13-1.43,4.76-4.36,4.76a4.32,4.32,0,0,1-4.26-4.55A4.41,4.41,0,0,1,109.72,413Zm0,7.86c1.65,0,2.71-1.32,2.71-3.2,0-1.67-.77-3.35-2.73-3.35-1.65,0-2.71,1.26-2.71,3.14C107,419.15,107.8,420.85,109.7,420.85Z"/><path d="M121.45,409h1.34l-6.43,16.71H115Z"/><path d="M124.43,413.36l1.51-.27v1.7a5.39,5.39,0,0,1,3.6-1.8c1.3,0,2.29.74,2.29,2.61v6.33h-1.51V416c0-1.3-.52-1.7-1.18-1.7-1.14,0-2.63,1.32-3.2,1.86v5.75h-1.51Z"/><path d="M138.39,413a4.25,4.25,0,0,1,4.28,4.42c0,2.13-1.43,4.76-4.36,4.76a4.32,4.32,0,0,1-4.26-4.55A4.41,4.41,0,0,1,138.39,413Zm0,7.86c1.65,0,2.71-1.32,2.71-3.2,0-1.67-.77-3.35-2.73-3.35-1.65,0-2.71,1.26-2.71,3.14C135.64,419.15,136.47,420.85,138.37,420.85Z"/><path d="M149.13,413a4.35,4.35,0,0,1,1.68.31v-4.92l1.51-.27v11.13a14.94,14.94,0,0,0,.39,2.69l-1.49.14s-.17-.79-.27-1.39a3.25,3.25,0,0,1-2.83,1.49c-2.27,0-3.74-1.9-3.74-4.3A4.61,4.61,0,0,1,149.13,413Zm1.68,6.27V415.5c0-1-.83-1.24-1.67-1.24-1.86,0-3.16,1.28-3.16,3.5,0,1.94,1,3.08,2.32,3.08A3.23,3.23,0,0,0,150.82,419.26Z"/><path d="M158.89,413c2,0,3.49,1.39,3.49,3.89l-.93.27-5.13.68c.14,1.8,1.18,3,2.88,3a4.66,4.66,0,0,0,2.73-1.1l.45,1.16a5,5,0,0,1-3.35,1.26,4.14,4.14,0,0,1-4.32-4.4C154.71,415,156.41,413,158.89,413Zm-2.56,3.68,4.38-.56s-.17-1.86-1.92-1.86A2.55,2.55,0,0,0,156.33,416.67Z"/><rect class="cls-23" x="198.65" y="375.18" width="110.19" height="83.33"/><path class="cls-5" d="M216.15,412.45h1.59l2.07,7,2.5-7h1.36l2.09,7,2.46-7h1.57l-3.37,8.81h-1.47l-2.07-6.64-2.46,6.64h-1.47Z"/><path class="cls-5" d="M235.2,412.21a4.25,4.25,0,0,1,4.28,4.42c0,2.13-1.43,4.76-4.36,4.76a4.32,4.32,0,0,1-4.26-4.55A4.41,4.41,0,0,1,235.2,412.21Zm0,7.86c1.65,0,2.71-1.32,2.71-3.2,0-1.67-.77-3.35-2.73-3.35-1.65,0-2.71,1.26-2.71,3.14C232.45,418.37,233.29,420.08,235.19,420.08Z"/><path class="cls-5" d="M241.77,412.58l1.51-.27V414a3.26,3.26,0,0,1,2.54-1.82,1.49,1.49,0,0,1,.76.17l-.39,1.63a2.34,2.34,0,0,0-.74-.15c-1,0-1.82,1.18-2.17,1.78v5.52h-1.51Z"/><path class="cls-5" d="M248.27,407.61l1.51-.27v8.46H250l3.45-3.35h2l-4.07,3.85,4.43,4.86h-2L250,416.92h-.23v4.24h-1.51Z"/><path class="cls-5" d="M257.41,407.61l1.51-.27v13.83h-1.51Z"/><path class="cls-5" d="M265.58,412.21a4.25,4.25,0,0,1,4.28,4.42c0,2.13-1.43,4.76-4.36,4.76a4.32,4.32,0,0,1-4.26-4.55A4.41,4.41,0,0,1,265.58,412.21Zm0,7.86c1.65,0,2.71-1.32,2.71-3.2,0-1.67-.77-3.35-2.73-3.35-1.65,0-2.71,1.26-2.71,3.14C262.83,418.37,263.66,420.08,265.56,420.08Z"/><path class="cls-5" d="M276.63,415.86v-.33c0-1,0-2-1.43-2a5.16,5.16,0,0,0-2.73,1l-.46-1.22a6.6,6.6,0,0,1,3.62-1.07c1.9,0,2.52.81,2.52,2.77v3.93a1,1,0,0,0,1,1.16l-.5,1.22a1.88,1.88,0,0,1-1.88-1.41,3.52,3.52,0,0,1-2.89,1.51,2.2,2.2,0,0,1-2.44-2.19C271.41,417.4,273.32,416.28,276.63,415.86Zm0,2.71V417c-2.46.41-3.62,1-3.62,2.15,0,.68.5,1,1.14,1A3.48,3.48,0,0,0,276.63,418.57Z"/><path class="cls-5" d="M285.4,412.21a4.35,4.35,0,0,1,1.68.31v-4.92l1.51-.27v11.13a14.94,14.94,0,0,0,.39,2.69l-1.49.14s-.17-.79-.27-1.39a3.25,3.25,0,0,1-2.83,1.49c-2.27,0-3.74-1.9-3.74-4.3A4.61,4.61,0,0,1,285.4,412.21Zm1.68,6.27v-3.76c0-1-.83-1.24-1.67-1.24-1.86,0-3.16,1.28-3.16,3.5,0,1.94,1,3.08,2.32,3.08A3.23,3.23,0,0,0,287.09,418.49Z"/><rect class="cls-23" x="331.02" y="375.18" width="110.19" height="83.33"/><path class="cls-5" d="M348.53,412.45h1.59l2.07,7,2.5-7H356l2.09,7,2.46-7h1.57l-3.37,8.81h-1.47l-2.07-6.64-2.46,6.64h-1.47Z"/><path class="cls-5" d="M367.58,412.21a4.25,4.25,0,0,1,4.28,4.42c0,2.13-1.43,4.76-4.36,4.76a4.32,4.32,0,0,1-4.26-4.55A4.41,4.41,0,0,1,367.58,412.21Zm0,7.86c1.65,0,2.71-1.32,2.71-3.2,0-1.67-.77-3.35-2.73-3.35-1.65,0-2.71,1.26-2.71,3.14C364.83,418.37,365.66,420.08,367.56,420.08Z"/><path class="cls-5" d="M374.14,412.58l1.51-.27V414a3.26,3.26,0,0,1,2.54-1.82,1.49,1.49,0,0,1,.76.17l-.39,1.63a2.34,2.34,0,0,0-.74-.15c-1,0-1.82,1.18-2.17,1.78v5.52h-1.51Z"/><path class="cls-5" d="M380.64,407.61l1.51-.27v8.46h.21l3.45-3.35h2l-4.07,3.85,4.43,4.86h-2l-3.78-4.24h-.23v4.24h-1.51Z"/><path class="cls-5" d="M389.78,407.61l1.51-.27v13.83h-1.51Z"/><path class="cls-5" d="M398,412.21a4.25,4.25,0,0,1,4.28,4.42c0,2.13-1.43,4.76-4.36,4.76a4.32,4.32,0,0,1-4.26-4.55A4.41,4.41,0,0,1,398,412.21Zm0,7.86c1.65,0,2.71-1.32,2.71-3.2,0-1.67-.77-3.35-2.73-3.35-1.65,0-2.71,1.26-2.71,3.14C395.2,418.37,396,420.08,397.93,420.08Z"/><path class="cls-5" d="M409,415.86v-.33c0-1,0-2-1.43-2a5.16,5.16,0,0,0-2.73,1l-.46-1.22a6.6,6.6,0,0,1,3.62-1.07c1.9,0,2.52.81,2.52,2.77v3.93a1,1,0,0,0,1,1.16l-.5,1.22a1.88,1.88,0,0,1-1.88-1.41,3.52,3.52,0,0,1-2.89,1.51,2.2,2.2,0,0,1-2.44-2.19C403.78,417.4,405.7,416.28,409,415.86Zm0,2.71V417c-2.46.41-3.62,1-3.62,2.15,0,.68.5,1,1.14,1A3.48,3.48,0,0,0,409,418.57Z"/><path class="cls-5" d="M417.78,412.21a4.35,4.35,0,0,1,1.68.31v-4.92l1.51-.27v11.13a14.94,14.94,0,0,0,.39,2.69l-1.49.14s-.17-.79-.27-1.39a3.25,3.25,0,0,1-2.83,1.49c-2.27,0-3.74-1.9-3.74-4.3A4.61,4.61,0,0,1,417.78,412.21Zm1.68,6.27v-3.76c0-1-.83-1.24-1.67-1.24-1.86,0-3.16,1.28-3.16,3.5,0,1.94,1,3.08,2.32,3.08A3.23,3.23,0,0,0,419.46,418.49Z"/><rect class="cls-23" x="463.39" y="375.18" width="110.19" height="83.33"/><path class="cls-5" d="M480.9,412.45h1.59l2.07,7,2.5-7h1.36l2.09,7,2.46-7h1.57l-3.37,8.81h-1.47l-2.07-6.64-2.46,6.64h-1.47Z"/><path class="cls-5" d="M499.95,412.21a4.25,4.25,0,0,1,4.28,4.42c0,2.13-1.43,4.76-4.36,4.76a4.32,4.32,0,0,1-4.26-4.55A4.41,4.41,0,0,1,499.95,412.21Zm0,7.86c1.65,0,2.71-1.32,2.71-3.2,0-1.67-.77-3.35-2.73-3.35-1.65,0-2.71,1.26-2.71,3.14C497.2,418.37,498,420.08,499.93,420.08Z"/><path class="cls-5" d="M506.51,412.58l1.51-.27V414a3.26,3.26,0,0,1,2.54-1.82,1.49,1.49,0,0,1,.76.17l-.39,1.63a2.34,2.34,0,0,0-.74-.15c-1,0-1.82,1.18-2.17,1.78v5.52h-1.51Z"/><path class="cls-5" d="M513,407.61l1.51-.27v8.46h.21l3.45-3.35h2l-4.07,3.85,4.43,4.86h-2l-3.78-4.24h-.23v4.24H513Z"/><path class="cls-5" d="M522.15,407.61l1.51-.27v13.83h-1.51Z"/><path class="cls-5" d="M530.32,412.21a4.25,4.25,0,0,1,4.28,4.42c0,2.13-1.43,4.76-4.36,4.76a4.32,4.32,0,0,1-4.26-4.55A4.41,4.41,0,0,1,530.32,412.21Zm0,7.86c1.65,0,2.71-1.32,2.71-3.2,0-1.67-.77-3.35-2.73-3.35-1.65,0-2.71,1.26-2.71,3.14C527.57,418.37,528.41,420.08,530.3,420.08Z"/><path class="cls-5" d="M541.38,415.86v-.33c0-1,0-2-1.43-2a5.16,5.16,0,0,0-2.73,1l-.46-1.22a6.6,6.6,0,0,1,3.62-1.07c1.9,0,2.52.81,2.52,2.77v3.93a1,1,0,0,0,1,1.16l-.5,1.22a1.88,1.88,0,0,1-1.88-1.41,3.52,3.52,0,0,1-2.89,1.51,2.2,2.2,0,0,1-2.44-2.19C536.15,417.4,538.07,416.28,541.38,415.86Zm0,2.71V417c-2.46.41-3.62,1-3.62,2.15,0,.68.5,1,1.14,1A3.48,3.48,0,0,0,541.38,418.57Z"/><path class="cls-5" d="M550.15,412.21a4.35,4.35,0,0,1,1.68.31v-4.92l1.51-.27v11.13a14.94,14.94,0,0,0,.39,2.69l-1.49.14s-.17-.79-.27-1.39a3.25,3.25,0,0,1-2.83,1.49c-2.27,0-3.74-1.9-3.74-4.3A4.61,4.61,0,0,1,550.15,412.21Zm1.68,6.27v-3.76c0-1-.83-1.24-1.67-1.24-1.86,0-3.16,1.28-3.16,3.5,0,1.94,1,3.08,2.32,3.08A3.23,3.23,0,0,0,551.83,418.49Z"/><ellipse class="cls-24" cx="255.61" cy="240.22" rx="96.03" ry="10.07"/><rect class="cls-24" x="159.9" y="206.52" width="191.42" height="35.6"/><ellipse class="cls-25" cx="255.4" cy="205.01" rx="96.03" ry="10.07"/><path class="cls-26" d="M351.32,241.14c0,5.54-42.94,10.07-96,10.07s-95.92-4.47-95.92-10.07"/><line class="cls-27" x1="351.32" y1="205.5" x2="351.32" y2="241.14"/><line class="cls-28" x1="159.37" y1="205.01" x2="159.37" y2="241.14"/><path class="cls-5" d="M196.66,224.48l1.51-.27v8.46h.21l3.45-3.35h2l-4.07,3.85,4.43,4.86h-2l-3.78-4.24h-.23V238h-1.51Z"/><path class="cls-5" d="M209,229.08c2,0,3.49,1.39,3.49,3.89l-.93.27-5.13.68c.14,1.8,1.18,3,2.88,3a4.66,4.66,0,0,0,2.73-1.1l.45,1.16a5,5,0,0,1-3.35,1.26,4.14,4.14,0,0,1-4.32-4.4C204.81,231.14,206.52,229.08,209,229.08Zm-2.56,3.68,4.38-.56s-.17-1.86-1.92-1.86A2.55,2.55,0,0,0,206.44,232.76Z"/><path class="cls-5" d="M216.51,238.69l.56-1.3-3.39-8.08h1.65l2.54,6.16,2.46-6.16h1.59L218,238.69c-.79,1.9-1.86,3.7-3.76,3.93l-.48-1.26A4.07,4.07,0,0,0,216.51,238.69Z"/><path class="cls-5" d="M228.43,225.11h1.34l-6.43,16.71H222Z"/><path class="cls-5" d="M230.76,229.32h1.59l2.3,6.84,2.75-6.84H239l-3.68,8.81h-1.43Z"/><path class="cls-5" d="M245.16,232.72v-.33c0-1,0-2-1.43-2a5.16,5.16,0,0,0-2.73,1l-.46-1.22a6.6,6.6,0,0,1,3.62-1.07c1.9,0,2.52.81,2.52,2.77v3.93a1,1,0,0,0,1,1.16l-.5,1.22a1.88,1.88,0,0,1-1.88-1.41,3.52,3.52,0,0,1-2.89,1.51,2.2,2.2,0,0,1-2.44-2.19C239.93,234.27,241.85,233.15,245.16,232.72Zm0,2.71v-1.61c-2.46.41-3.62,1-3.62,2.15,0,.68.5,1,1.14,1A3.48,3.48,0,0,0,245.16,235.44Z"/><path class="cls-5" d="M249.79,224.48l1.51-.27V238h-1.51Z"/><path class="cls-5" d="M254.12,229.32h1.51v5.91c0,1.34.54,1.7,1.24,1.7a5,5,0,0,0,2.94-1.63v-6h1.51v6a14.9,14.9,0,0,0,.39,2.69l-1.49.14s-.21-1-.29-1.59a5,5,0,0,1-3.45,1.68c-1.43,0-2.36-.74-2.36-2.61Z"/><path class="cls-5" d="M267.89,229.08c2,0,3.49,1.39,3.49,3.89l-.93.27-5.13.68c.14,1.8,1.18,3,2.88,3a4.66,4.66,0,0,0,2.73-1.1l.45,1.16a5,5,0,0,1-3.35,1.26,4.14,4.14,0,0,1-4.32-4.4C263.71,231.14,265.41,229.08,267.89,229.08Zm-2.56,3.68,4.38-.56s-.17-1.86-1.92-1.86A2.55,2.55,0,0,0,265.33,232.76Z"/><path class="cls-5" d="M278.05,236.15a4.55,4.55,0,0,0,2.5.85c1.08,0,1.63-.46,1.63-1.14,0-1.86-4.28-1.59-4.28-4.38,0-1.32.95-2.4,3.18-2.4a5.76,5.76,0,0,1,2.42.48l-.41,1.28a5.62,5.62,0,0,0-2.13-.5c-1,0-1.53.43-1.53,1,0,1.78,4.28,1.49,4.28,4.38,0,1.55-1.22,2.52-3.2,2.52a4.9,4.9,0,0,1-2.79-.77Z"/><path class="cls-5" d="M286.38,230.54h-1.24v-.81l1.24-.5v-1.94l1.51-.37v2.4h2.83v1.22h-2.83v4.78c0,1.16.41,1.63,1.07,1.63a3.43,3.43,0,0,0,1.84-.79l.37,1.22a4.3,4.3,0,0,1-2.52.89c-1.37,0-2.26-.75-2.26-2.54Z"/><path class="cls-5" d="M296.72,229.08A4.25,4.25,0,0,1,301,233.5c0,2.13-1.43,4.76-4.36,4.76a4.32,4.32,0,0,1-4.26-4.55A4.41,4.41,0,0,1,296.72,229.08Zm0,7.86c1.65,0,2.71-1.32,2.71-3.2,0-1.67-.77-3.35-2.73-3.35-1.65,0-2.71,1.26-2.71,3.14C294,235.24,294.8,236.95,296.7,236.95Z"/><path class="cls-5" d="M303.28,229.45l1.51-.27v1.72a3.26,3.26,0,0,1,2.54-1.82,1.49,1.49,0,0,1,.76.17l-.39,1.63a2.34,2.34,0,0,0-.74-.15c-1,0-1.82,1.18-2.17,1.78V238h-1.51Z"/><path class="cls-5" d="M313.21,229.08c2,0,3.49,1.39,3.49,3.89l-.93.27-5.13.68c.14,1.8,1.18,3,2.88,3a4.66,4.66,0,0,0,2.73-1.1l.45,1.16a5,5,0,0,1-3.35,1.26,4.14,4.14,0,0,1-4.32-4.4C309,231.14,310.73,229.08,313.21,229.08Zm-2.56,3.68,4.38-.56s-.17-1.86-1.92-1.86A2.55,2.55,0,0,0,310.65,232.76Z"/><path d="M563.84,73.25H542.19a2.48,2.48,0,0,0-2.47,2.47v5.82h6v-1a1.34,1.34,0,0,1,1.34-1.34H559a1.34,1.34,0,0,1,1.34,1.34v1h6V75.72A2.48,2.48,0,0,0,563.84,73.25Z"/><path d="M560.31,91.93A1.34,1.34,0,0,1,559,93.26H547.06a1.34,1.34,0,0,1-1.34-1.34V91h-6V96.8a2.48,2.48,0,0,0,2.47,2.47h21.65a2.48,2.48,0,0,0,2.47-2.47V91h-6Z"/><rect x="539.72" y="83.26" width="6" height="6"/><rect x="560.31" y="83.26" width="6" height="6"/><path d="M346.11,81.82l-4.41,1.61a12.82,12.82,0,0,0,.35,2.09L346.24,84a8.22,8.22,0,0,1-.13-2.17"/><path d="M365.61,76.94a12.6,12.6,0,0,0-1.08-1.83l-4.41,1.61a8.2,8.2,0,0,1,1.3,1.75Z"/><path d="M355.9,75.69a8.15,8.15,0,0,1,2.38,1.7l4.41-1.6a12.61,12.61,0,0,0-22.84,8.32l4.41-1.62a8.18,8.18,0,0,1,11.63-6.8"/><path d="M342.32,85.41l-4.18,1.53a12.78,12.78,0,0,0,2,4.27l4.39-1.6a8.25,8.25,0,0,1-2.18-4.2"/><path d="M360.61,83.75a8.07,8.07,0,0,1-.74,2.83,8.21,8.21,0,0,1-10.89,4,8.12,8.12,0,0,1-2.39-1.7l-4.41,1.61a12.5,12.5,0,0,0,4.91,4.09,12.64,12.64,0,0,0,16.77-6.11,12.49,12.49,0,0,0,1.14-6.3Z"/><path d="M361.7,78.36l-4.19,1.53a8.23,8.23,0,0,1,1,4.62l4.4-1.6a12.73,12.73,0,0,0-1.24-4.54"/><path d="M346.09,82.7a8.05,8.05,0,0,1,0-.89l-4.41,1.6c0,.28.06.56.1.84Z"/><path d="M365,75.78c-.14-.24-.28-.45-.44-.66l-4.41,1.6a7.43,7.43,0,0,1,.54.62Z"/><path d="M342.18,90.46a12.56,12.56,0,0,0,1.12,1.36l4.79-1.75a8.11,8.11,0,0,1-1.51-1.22ZM365,82.15l-4.4,1.6a8.07,8.07,0,0,1-.37,1.89L365,83.88a12.49,12.49,0,0,0,0-1.75"/></svg>