<svg xmlns="http://www.w3.org/2000/svg" xmlns:xlink="http://www.w3.org/1999/xlink" viewBox="0 0 382.66 125.49"><defs><style>.cls-1,.cls-5{fill:none;}.cls-2{fill:url(#linear-gradient);}.cls-3{clip-path:url(#clip-path);}.cls-4{opacity:0.5;}.cls-5{stroke:#fff;stroke-linecap:square;stroke-width:1.8px;}.cls-20,.cls-5{stroke-miterlimit:10;}.cls-20,.cls-6{fill:#fff;}.cls-21,.cls-7{fill:#23201f;}.cls-8{fill:#376ca3;}.cls-9{fill:#1a345f;}.cls-10{fill:#764e2a;}.cls-11{fill:#5f3a19;}.cls-12{fill:#f59222;}.cls-13{fill:#f17827;}.cls-14{fill:#3b2518;}.cls-15{fill:#603e1d;}.cls-16{fill:#573a1b;}.cls-17{fill:#53361a;}.cls-18{fill:#e5e6e6;}.cls-19{fill:#a6a7aa;}.cls-20{stroke:#23201f;stroke-width:3px;}.cls-21{opacity:0.08;}.cls-22{fill:#000;}</style><linearGradient id="linear-gradient" x1="60.95" y1="124.07" x2="60.95" y2="5" gradientUnits="userSpaceOnUse"><stop offset="0" stop-color="#0c8fc5"/><stop offset="1" stop-color="#b6dee7"/></linearGradient><clipPath id="clip-path"><circle id="SVGID" class="cls-1" cx="60.95" cy="64.54" r="59.53"/></clipPath></defs><g id="Layer_2" data-name="Layer 2"><g id="Layer_1-2" data-name="Layer 1"><circle class="cls-2" cx="60.95" cy="64.54" r="59.53"/><g class="cls-3"><g id="_8" data-name="8" class="cls-4"><polyline class="cls-5" points="33.91 80.5 33.91 93.79 13.97 93.79 13.97 78.55 33.91 78.55 33.91 78.55"/><path class="cls-5" d="M18.11,77.31V76.25a5.83,5.83,0,0,1,5.83-5.83h0a5.83,5.83,0,0,1,5.83,5.83v2.3H18.11V77.31"/><path class="cls-5" d="M26.9,78.55H21v-2.3a3,3,0,0,1,5.92,0v.6"/><path class="cls-5" d="M25.14,87.81V87.4a2.44,2.44,0,1,0-2.41,0v2.1h2.41"/></g><g class="cls-4"><path class="cls-5" d="M108.53,54.74l3.14,3.82a2,2,0,0,1-.28,2.85,2,2,0,0,1-1.48.45,2,2,0,0,1-1.37-.73l-4.31-5.25"/><circle class="cls-5" cx="98.8" cy="46.01" r="8.15"/><circle class="cls-5" cx="98.8" cy="46.01" r="11.06"/></g><g class="cls-4"><path class="cls-6" d="M17.51,59a4.57,4.57,0,1,1,4.57-4.57A4.57,4.57,0,0,1,17.51,59Zm0-8a3.43,3.43,0,1,0,3.43,3.42A3.42,3.42,0,0,0,17.51,51Z"/><path class="cls-6" d="M19,64.67H16a.59.59,0,0,1-.56-.44L14.91,62a9.53,9.53,0,0,1-.93-.38L12,62.8a.57.57,0,0,1-.7-.08L9.19,60.61a.58.58,0,0,1-.09-.7l1.19-2A6.61,6.61,0,0,1,9.91,57l-2.24-.56a.56.56,0,0,1-.43-.55v-3a.56.56,0,0,1,.43-.55l2.24-.56a5.74,5.74,0,0,1,.38-.92l-1.19-2a.58.58,0,0,1,.09-.7l2.11-2.11A.57.57,0,0,1,12,46l2,1.19a7.55,7.55,0,0,1,.93-.38l.55-2.24a.58.58,0,0,1,.56-.43h3a.57.57,0,0,1,.55.43l.55,2.24a5.84,5.84,0,0,1,.94.39L23,46a.56.56,0,0,1,.69.09l2.12,2.11a.57.57,0,0,1,.08.7l-1.19,2a6.14,6.14,0,0,1,.38.92l2.24.56a.57.57,0,0,1,.44.55v3a.57.57,0,0,1-.44.55L25.12,57a9.2,9.2,0,0,1-.39.93l1.19,2a.58.58,0,0,1-.08.7l-2.12,2.11a.56.56,0,0,1-.69.08l-2-1.18a9.53,9.53,0,0,1-.93.38l-.55,2.23A.57.57,0,0,1,19,64.67Zm-2.55-1.14h2.1l.52-2.12A.58.58,0,0,1,19.5,61h0a6.14,6.14,0,0,0,1.24-.52.58.58,0,0,1,.57,0l1.88,1.13,1.48-1.49-1.13-1.87a.58.58,0,0,1,0-.57,6.36,6.36,0,0,0,.54-1.28.58.58,0,0,1,.42-.42l2.12-.53V53.35l-2.12-.53a.54.54,0,0,1-.41-.39s0,0,0,0a6.31,6.31,0,0,0-.52-1.26.58.58,0,0,1,0-.57l1.13-1.88-1.49-1.48-1.87,1.13a.58.58,0,0,1-.57,0,6.72,6.72,0,0,0-1.28-.54.58.58,0,0,1-.43-.41l-.52-2.12h-2.1l-.52,2.12a.59.59,0,0,1-.38.4l-.06,0a7,7,0,0,0-1.26.52.56.56,0,0,1-.57,0l-1.88-1.12-1.48,1.48,1.12,1.88a.56.56,0,0,1,0,.57,6.78,6.78,0,0,0-.53,1.28.56.56,0,0,1-.41.42l-2.12.53v2.09L10.5,56a.56.56,0,0,1,.41.4s0,0,0,0a6,6,0,0,0,.52,1.25.55.55,0,0,1,0,.57l-1.12,1.88,1.48,1.49,1.88-1.13a.58.58,0,0,1,.57,0,6.78,6.78,0,0,0,1.28.53.58.58,0,0,1,.42.42Z"/><path class="cls-6" d="M31.21,53.25a3.43,3.43,0,1,1,3.43-3.43A3.43,3.43,0,0,1,31.21,53.25Zm0-5.71a2.29,2.29,0,1,0,2.29,2.28A2.29,2.29,0,0,0,31.21,47.54Z"/><path class="cls-6" d="M32.25,57.82H29.93a.57.57,0,0,1-.55-.43L29,55.74l-.31-.11a.57.57,0,0,1-.31-.75.57.57,0,0,1,.74-.31,4.75,4.75,0,0,0,.49.17.58.58,0,0,1,.42.41l.38,1.53h1.44l.38-1.53a.59.59,0,0,1,.38-.4l.06,0a4.6,4.6,0,0,0,.95-.38.54.54,0,0,1,.56,0l1.38.81,1-1-.82-1.34a.6.6,0,0,1,0-.58,4.33,4.33,0,0,0,.41-.95.57.57,0,0,1,.42-.41l1.54-.38V49.13l-1.55-.38a.57.57,0,0,1-.4-.37l0-.06a4.7,4.7,0,0,0-.39-.93.55.55,0,0,1,0-.57l.82-1.35-1-1-1.38.82a.59.59,0,0,1-.56,0,4.42,4.42,0,0,0-1-.4.58.58,0,0,1-.42-.42L31.81,43H30.37L30,44.49a.58.58,0,0,1-.38.41h-.06a4.89,4.89,0,0,0-.94.39.58.58,0,0,1-.57,0l-1.38-.81-1,1,.5.83a.58.58,0,0,1-.19.78.57.57,0,0,1-.79-.19l-.73-1.21a.56.56,0,0,1,.08-.7l1.65-1.62a.57.57,0,0,1,.69-.09l1.48.88A6.5,6.5,0,0,1,29,43.9l.42-1.64a.57.57,0,0,1,.55-.43h2.32a.57.57,0,0,1,.55.43l.42,1.64a5.32,5.32,0,0,1,.61.26l1.48-.88a.57.57,0,0,1,.7.08L37.65,45a.57.57,0,0,1,.09.7l-.89,1.45a6.14,6.14,0,0,1,.25.59l1.67.41a.57.57,0,0,1,.43.55V51a.57.57,0,0,1-.43.55l-1.67.41c-.07.2-.16.39-.25.59L37.74,54a.58.58,0,0,1-.09.7L36,56.29a.57.57,0,0,1-.69.08l-1.49-.87a6.44,6.44,0,0,1-.61.24l-.42,1.65A.57.57,0,0,1,32.25,57.82Z"/></g><g class="cls-4"><path class="cls-6" d="M102.51,84a4.57,4.57,0,1,1,5.34-3.63A4.57,4.57,0,0,1,102.51,84Zm1.5-7.85a3.43,3.43,0,1,0,2.72,4A3.44,3.44,0,0,0,104,76.15Z"/><path class="cls-6" d="M102.9,89.89,100,89.33a.56.56,0,0,1-.46-.53l-.13-2.3a9.33,9.33,0,0,1-.84-.55l-2.17.79a.58.58,0,0,1-.67-.21L94,84.06a.56.56,0,0,1,0-.7l1.54-1.73a6.55,6.55,0,0,1-.2-1l-2.1-1a.56.56,0,0,1-.32-.62l.56-2.94a.56.56,0,0,1,.53-.46l2.3-.13a8,8,0,0,1,.55-.83l-.79-2.18a.58.58,0,0,1,.21-.67l2.47-1.68a.59.59,0,0,1,.7,0l1.73,1.54a6.55,6.55,0,0,1,1-.2l1-2.1a.58.58,0,0,1,.62-.32l2.94.56a.56.56,0,0,1,.46.53l.12,2.3a7.79,7.79,0,0,1,.85.56l2.17-.8a.58.58,0,0,1,.67.21L112.71,75a.57.57,0,0,1,0,.7l-1.54,1.73a8.35,8.35,0,0,1,.2,1l2.09,1a.58.58,0,0,1,.33.63l-.56,2.93a.56.56,0,0,1-.53.46l-2.31.13a6.38,6.38,0,0,1-.55.84l.8,2.17a.58.58,0,0,1-.21.67l-2.48,1.68a.57.57,0,0,1-.7,0l-1.73-1.54a6.55,6.55,0,0,1-1,.2l-1,2.1A.58.58,0,0,1,102.9,89.89Zm-2.28-1.6,2.06.39.91-2a.58.58,0,0,1,.49-.33h0a6.6,6.6,0,0,0,1.32-.28.58.58,0,0,1,.56.12l1.63,1.45,1.74-1.17-.76-2a.56.56,0,0,1,.09-.57,6.15,6.15,0,0,0,.77-1.16.57.57,0,0,1,.49-.33l2.18-.12.39-2.06-2-.91a.58.58,0,0,1-.33-.47v0a6.7,6.7,0,0,0-.28-1.33.58.58,0,0,1,.11-.55l1.46-1.64-1.18-1.73-2,.75a.57.57,0,0,1-.56-.09,5.7,5.7,0,0,0-1.16-.77.59.59,0,0,1-.34-.49l-.12-2.18-2-.39-.92,2a.58.58,0,0,1-.45.33h-.06a6.7,6.7,0,0,0-1.33.28.6.6,0,0,1-.56-.11L99.1,71.37l-1.74,1.18.75,2.06a.57.57,0,0,1-.1.56,5.83,5.83,0,0,0-.75,1.15.61.61,0,0,1-.49.34l-2.18.11-.39,2.06,2,.92a.57.57,0,0,1,.33.47v0a6,6,0,0,0,.28,1.32.57.57,0,0,1-.12.56l-1.45,1.63,1.17,1.74,2.06-.75a.56.56,0,0,1,.56.09,6.87,6.87,0,0,0,1.16.77.55.55,0,0,1,.33.48Z"/></g></g><path class="cls-7" d="M61,125.49a61,61,0,1,1,61-60.95A61,61,0,0,1,61,125.49ZM61,6.42a58.12,58.12,0,1,0,58.12,58.12A58.18,58.18,0,0,0,61,6.42Z"/><path class="cls-8" d="M89.59,102.88c-2.61,4.16-14.35,7.3-28.44,7.3S35.31,107,32.7,102.88c-3.38,1.3-5.35,2.86-5.35,4.52,0,4.63,15.13,8.38,33.8,8.38S94.94,112,94.94,107.4C94.94,105.74,93,104.18,89.59,102.88Z"/><path class="cls-9" d="M61.15,110.18c14.09,0,25.83-3.14,28.44-7.3-6-2.32-16.5-3.86-28.44-3.86s-22.44,1.54-28.45,3.86C35.31,107,47.05,110.18,61.15,110.18Z"/><path class="cls-10" d="M85.08,81.58a46.86,46.86,0,0,1,6.16-4.87C101.16,70,98.44,59.51,96,51c-1.72-6.06,6.49-7.7,9.65,9.89,3.11,17.3-16,30.88-21.18,30.88"/><path class="cls-7" d="M84.51,92.64a.88.88,0,1,1,0-1.76c2.43,0,8.94-3.72,14-9.77,3.73-4.46,7.85-11.56,6.32-20.08-1.58-8.77-4.46-12.63-6.44-13.28a1.15,1.15,0,0,0-1.22.19c-.41.39-.7,1.34-.29,2.82,2.32,8.22,5.5,19.49-5.14,26.68a47.82,47.82,0,0,0-6,4.76.86.86,0,0,1-1.24,0,.87.87,0,0,1,0-1.24,47.26,47.26,0,0,1,6.29-5c9.59-6.48,6.61-17,4.44-24.75-.53-1.88-.25-3.59.76-4.56a2.87,2.87,0,0,1,3-.59c3.33,1.08,6.18,6.55,7.63,14.64,1.65,9.19-2.73,16.77-6.7,21.52C94.66,88.46,87.72,92.64,84.51,92.64Z"/><path class="cls-11" d="M99.5,47.76c2.08,5,7.11,18.76.09,27.59s-11.71,8.39-11.71,8.39l.67,6.7C96,86.63,108.23,75,105.69,60.88,104,51.58,101.78,48.5,99.5,47.76Z"/><path class="cls-7" d="M84.51,92.64a.88.88,0,1,1,0-1.76c2.43,0,8.94-3.72,14-9.77,3.73-4.46,7.85-11.56,6.32-20.08-1.58-8.77-4.46-12.63-6.44-13.28a1.15,1.15,0,0,0-1.22.19c-.41.39-.7,1.34-.29,2.82,2.32,8.22,5.5,19.49-5.14,26.68a47.82,47.82,0,0,0-6,4.76.86.86,0,0,1-1.24,0,.87.87,0,0,1,0-1.24,47.26,47.26,0,0,1,6.29-5c9.59-6.48,6.61-17,4.44-24.75-.53-1.88-.25-3.59.76-4.56a2.87,2.87,0,0,1,3-.59c3.33,1.08,6.18,6.55,7.63,14.64,1.65,9.19-2.73,16.77-6.7,21.52C94.66,88.46,87.72,92.64,84.51,92.64Z"/><path class="cls-12" d="M89.8,82.2c0,17.93-13,28-29,28s-29-10.05-29-28,13-45.89,29-45.89S89.8,64.28,89.8,82.2Z"/><path class="cls-7" d="M60.76,111C42.89,111,30.88,99.44,30.88,82.2c0-18.45,13.39-46.73,29.88-46.73S90.63,63.75,90.63,82.2C90.63,99.44,78.63,111,60.76,111Zm0-73.88c-4,0-12,2.06-19.81,15.81-5.18,9.1-8.4,20.31-8.4,29.25,0,16.24,11.34,27.15,28.21,27.15S89,98.44,89,82.2c0-8.94-3.22-20.15-8.39-29.25C72.74,39.2,64.8,37.14,60.76,37.14Z"/><path class="cls-13" d="M60.76,36.31c-.2,0-.39,0-.58,0,12.47.66,27.4,28.81,27.4,45.18,0,16.56-12.46,25.85-27.85,25.85-5.75,0-11-.09-15.32-1.38a32,32,0,0,0,16.35,4.19c16,0,29-10.05,29-28S76.8,36.31,60.76,36.31Z"/><path class="cls-13" d="M83.22,60.78l-4.57,4.06s5.16-1.11,5.37-2S83.22,60.78,83.22,60.78Z"/><path class="cls-13" d="M84.38,64.19l-5.31,4s6-1.1,6.25-2S84.38,64.19,84.38,64.19Z"/><path class="cls-13" d="M85.61,67.71,79.4,72.39s7-1.27,7.31-2.34S85.61,67.71,85.61,67.71Z"/><path class="cls-13" d="M85.35,95.24l-6.65-4s3.78,6.05,4.88,5.91S85.35,95.24,85.35,95.24Z"/><path class="cls-13" d="M88.27,91.83l-7.4-2.4s5.07,5,6.11,4.64S88.27,91.83,88.27,91.83Z"/><path class="cls-13" d="M37.09,60.78l5.41,4.06s-6.12-1.11-6.36-2S37.09,60.78,37.09,60.78Z"/><path class="cls-13" d="M35.7,64.19l6.29,4s-7.1-1.1-7.39-2S35.7,64.19,35.7,64.19Z"/><path class="cls-13" d="M34.25,67.71l7.35,4.68S33.29,71.12,33,70.05,34.25,67.71,34.25,67.71Z"/><path class="cls-6" d="M73.76,77.76C73.76,86.45,68.89,94,60,94S46.24,86.45,46.24,77.76,51.11,56.68,60,56.68,73.76,69.07,73.76,77.76Z"/><path class="cls-7" d="M60,94.84c-8.58,0-14.57-7-14.57-17.08a30.58,30.58,0,0,1,3.65-14.2c2.76-5,6.64-7.69,10.92-7.69s8.16,2.73,10.92,7.69a30.46,30.46,0,0,1,3.65,14.2C74.57,87.81,68.58,94.84,60,94.84Zm0-37.35c-8.33,0-12.94,12-12.94,20.27,0,10.67,6.5,15.45,12.94,15.45s12.94-4.78,12.94-15.45C72.94,69.48,68.33,57.49,60,57.49Z"/><path class="cls-10" d="M86.33,25.77c-.11,1.46-2.84-.44-3.76.6l-19-11.61a24.79,24.79,0,0,1,1.9-3.83c4-6.56,12.63-13.21,16.94-8.41C85.35,5.79,87,17.3,86.33,25.77Z"/><path class="cls-14" d="M82.74,3,78.17,7s5.16-1.1,5.37-2S82.74,3,82.74,3Z"/><path class="cls-7" d="M82.74,27.51l-.63-.39-19.63-12,.27-.69a25.28,25.28,0,0,1,2-4C67.82,5.4,73.78,0,78.72,0a5.61,5.61,0,0,1,4.34,1.93c3.24,3.61,4.79,15.5,4.15,23.91a1.46,1.46,0,0,1-1.58,1.39,6.87,6.87,0,0,1-1.16-.16,5.68,5.68,0,0,0-1-.15c-.2,0-.25,0-.25,0Zm.74-2.35a7.33,7.33,0,0,1,1.34.18,6.31,6.31,0,0,0,.65.11c.61-8.72-1.18-19.51-3.72-22.34a3.85,3.85,0,0,0-3-1.35c-4.14,0-9.6,4.9-12.5,9.63a23.79,23.79,0,0,0-1.55,3L82.55,25.33A2.45,2.45,0,0,1,83.48,25.16Z"/><path class="cls-7" d="M80.3,20c0,.48-8-4.21-8-4.21a8.33,8.33,0,0,1,.63-1.27c1.34-2.18,4.14-5.57,5.65-3.6A26.58,26.58,0,0,1,80.3,20Z"/><path class="cls-7" d="M80.24,20.92c-.24,0-1,0-8.39-4.36l-.65-.38.27-.7a9.25,9.25,0,0,1,.7-1.41c.66-1.08,3-4.61,5.3-4.61a2.2,2.2,0,0,1,1.8.94c.65.84,2.13,6.85,1.91,9.67A.92.92,0,0,1,80.24,20.92Zm-6.82-5.48c2.29,1.33,4.69,2.67,6,3.33a29.23,29.23,0,0,0-1.58-7.34.42.42,0,0,0-.37-.21c-.84,0-2.5,1.65-3.79,3.77C73.59,15.14,73.5,15.29,73.42,15.44Z"/><path class="cls-12" d="M34.72,26.36c.11,1.45,2.84-.45,3.76.6l19-11.61a24.36,24.36,0,0,0-1.9-3.83C51.57,5,43-1.7,38.64,3.1,35.7,6.38,34.08,17.89,34.72,26.36Z"/><path class="cls-13" d="M37.72,5l5.41,4.06S37,8,36.77,7,37.72,5,37.72,5Z"/><path class="cls-13" d="M35.81,8.7l4.12,2.92s-4.66-.79-4.84-1.46S35.81,8.7,35.81,8.7Z"/><path class="cls-7" d="M38.32,28.09l-.5-.55a.79.79,0,0,0-.25,0,5.72,5.72,0,0,0-1,.14,6,6,0,0,1-1.16.16h0a1.46,1.46,0,0,1-1.58-1.38C33.2,18,34.75,6.12,38,2.52A5.61,5.61,0,0,1,42.33.59c4.94,0,10.9,5.39,14,10.47a25.28,25.28,0,0,1,2,4l.27.68Zm4-25.74a3.87,3.87,0,0,0-3,1.34C36.76,6.53,35,17.33,35.58,26c.19,0,.42-.07.65-.11a4.27,4.27,0,0,1,2.27,0L56.38,15a22.51,22.51,0,0,0-1.55-3C51.93,7.24,46.47,2.35,42.33,2.35Z"/><path class="cls-7" d="M40.75,20.59c0,.49,8-4.2,8-4.2a8.33,8.33,0,0,0-.63-1.27c-1.34-2.19-4.14-5.58-5.65-3.6A26.52,26.52,0,0,0,40.75,20.59Z"/><path class="cls-7" d="M40.81,21.51h0a.93.93,0,0,1-.94-.85c-.22-2.83,1.26-8.83,1.91-9.68a2.23,2.23,0,0,1,1.8-.94c2.3,0,4.64,3.53,5.3,4.62a9.25,9.25,0,0,1,.7,1.41l.27.7-.64.38C41.81,21.49,41.05,21.51,40.81,21.51Zm2.77-9.71c-.07,0-.21,0-.4.25a30.23,30.23,0,0,0-1.55,7.3c1.31-.65,3.71-2,6-3.32a4.17,4.17,0,0,0-.26-.46C46.08,13.46,44.42,11.8,43.58,11.8Z"/><path class="cls-1" d="M60.76,25C60.39,40.75,55,54.24,46.94,59.54,55,54.24,60.76,40.76,60.76,25Z"/><path class="cls-15" d="M68.36,61.19a20.11,20.11,0,0,1,1.94,2.93C76,62.6,80.63,59.76,83.22,56.21c-.19-.41-.39-.8-.59-1.21a34.8,34.8,0,0,1-14.26,6.19Z"/><path class="cls-15" d="M49.84,63.86A20.52,20.52,0,0,1,51.79,61a35,35,0,0,1-13-5.74c-.22.43-.43.88-.65,1.32C40.6,59.77,44.75,62.35,49.84,63.86Z"/><path class="cls-16" d="M60.53,61.94A40.09,40.09,0,0,1,51.79,61h0a20.52,20.52,0,0,0-1.95,2.86h0a38.39,38.39,0,0,0,20.45.26h0a20.11,20.11,0,0,0-1.94-2.93A40.86,40.86,0,0,1,60.53,61.94Z"/><path class="cls-7" d="M60,94.84c-8.58,0-14.57-7-14.57-17.08a30.58,30.58,0,0,1,3.65-14.2c2.76-5,6.64-7.69,10.92-7.69s8.16,2.73,10.92,7.69a30.46,30.46,0,0,1,3.65,14.2C74.57,87.81,68.58,94.84,60,94.84Zm0-37.35c-8.33,0-12.94,12-12.94,20.27,0,10.67,6.5,15.45,12.94,15.45s12.94-4.78,12.94-15.45C72.94,69.48,68.33,57.49,60,57.49Z"/><path class="cls-17" d="M84.89,53.11c-.71.66-1.47,1.29-2.26,1.89.2.41.4.8.59,1.21A12.29,12.29,0,0,0,84.89,53.11Z"/><path class="cls-7" d="M60.76,111C42.89,111,30.88,99.44,30.88,82.2c0-18.45,13.39-46.73,29.88-46.73S90.63,63.75,90.63,82.2C90.63,99.44,78.63,111,60.76,111Zm0-73.88c-4,0-12,2.06-19.81,15.81-5.18,9.1-8.4,20.31-8.4,29.25,0,16.24,11.34,27.15,28.21,27.15S89,98.44,89,82.2c0-8.94-3.22-20.15-8.39-29.25C72.74,39.2,64.8,37.14,60.76,37.14Z"/><path class="cls-12" d="M82.35,33.68a11.85,11.85,0,0,1,5.05-9.53c-5.7-6.63-15.5-11-26.64-11l-1.12,0A44.21,44.21,0,0,1,60.76,25c0,15.81-5.74,29.29-13.82,34.59a40.05,40.05,0,0,0,13.82,2.4c14.14,0,26.12-7,30.29-16.81C86,43.33,82.35,38.88,82.35,33.68Z"/><path class="cls-7" d="M60.76,62.82a40.44,40.44,0,0,1-14.12-2.46.84.84,0,0,1-.57-.72.88.88,0,0,1,.39-.84c8-5.26,13.42-18.87,13.42-33.84a43.14,43.14,0,0,0-1.09-11.57.84.84,0,0,1,.15-.75.88.88,0,0,1,.68-.36h.16l1,0c11,0,21.22,4.23,27.31,11.32a.87.87,0,0,1,.2.67.82.82,0,0,1-.35.61,11,11,0,0,0-4.69,8.82c0,4.71,3.19,8.87,8.11,10.62a.91.91,0,0,1,.52.48.94.94,0,0,1,0,.7C87.43,55.85,74.93,62.82,60.76,62.82ZM48.83,59.26a39.3,39.3,0,0,0,11.93,1.8c13.08,0,24.64-6.17,29.1-15.44-5.13-2.18-8.39-6.77-8.39-11.94A12.56,12.56,0,0,1,86.12,24C80.3,17.75,70.9,14,60.76,14h0a46.73,46.73,0,0,1,.89,11C61.64,39.87,56.66,53.07,48.83,59.26Z"/><path class="cls-10" d="M60.76,25a62,62,0,0,0-1.12-11.79c-17.08.46-30.76,11.19-30.76,24.38,0,9.69,7.38,18.06,18.06,22C55,54.24,60.39,40.75,60.76,25Z"/><path class="cls-7" d="M46.94,60.42a.8.8,0,0,1-.3-.06C35.32,56.19,28,47.23,28,37.54c0-13.69,13.89-24.79,31.62-25.26a.89.89,0,0,1,.88.72,62.1,62.1,0,0,1,1.14,12c-.37,16-6,29.89-14.22,35.31A.83.83,0,0,1,46.94,60.42Zm12-46.35C42.51,14.8,29.76,25,29.76,37.54c0,8.83,6.69,17,17.06,21,7.6-5.28,12.7-18.4,13.06-33.62A61.09,61.09,0,0,0,58.91,14.07Z"/><path class="cls-14" d="M31.47,28.66l5.41,4.06s-6.12-1.1-6.36-2S31.47,28.66,31.47,28.66Z"/><path class="cls-14" d="M30.08,32.07l6.29,4.06s-7.1-1.1-7.39-2S30.08,32.07,30.08,32.07Z"/><path class="cls-13" d="M80.35,44.29a6,6,0,0,0-5.75-6.24,5.74,5.74,0,0,0-5.17,3.5c5,1.38,8.39,4,8.39,7.46,0,.16,0,.31,0,.47A6.38,6.38,0,0,0,80.35,44.29Z"/><path class="cls-10" d="M59.64,13.16A62,62,0,0,1,60.76,25,44.21,44.21,0,0,0,59.64,13.16Z"/><path class="cls-7" d="M60.76,25.84h0a.88.88,0,0,1-.87-.88,60.35,60.35,0,0,0-1.11-11.63.88.88,0,0,1,1.72-.39,44.68,44.68,0,0,1,1.15,12A.88.88,0,0,1,60.76,25.84Z"/><path class="cls-10" d="M87.4,24.15a11.85,11.85,0,0,0-5.05,9.53c0,5.2,3.6,9.65,8.7,11.45a19.25,19.25,0,0,0,1.58-7.59A20.5,20.5,0,0,0,87.4,24.15Z"/><path class="cls-7" d="M91.53,46.24,90.75,46c-5.64-2-9.28-6.82-9.28-12.28a12.69,12.69,0,0,1,5.41-10.24l.65-.48.54.62a21.31,21.31,0,0,1,5.44,14,20.25,20.25,0,0,1-1.65,7.94ZM87.27,25.38a10.8,10.8,0,0,0-4,8.3c0,4.45,2.85,8.42,7.33,10.32a18.28,18.28,0,0,0,1.19-6.46A19.39,19.39,0,0,0,87.27,25.38Z"/><ellipse class="cls-7" cx="51.76" cy="29.76" rx="7.42" ry="6.39" transform="translate(-3.36 6.81) rotate(-7.3)"/><ellipse class="cls-6" cx="52.08" cy="30.7" rx="5.39" ry="4.65" transform="translate(-3.48 6.86) rotate(-7.3)"/><ellipse class="cls-7" cx="52.08" cy="30.93" rx="2.02" ry="1.78" transform="translate(-3.5 6.85) rotate(-7.28)"/><path class="cls-7" d="M46,25.06a.54.54,0,0,1-.22,0l-2-.8a.59.59,0,0,1,.43-1.09l2,.8A.59.59,0,0,1,46,25.06Z"/><path class="cls-7" d="M47.63,23.68a.59.59,0,0,1-.33-.11l-2.46-1.72a.59.59,0,0,1,.68-1L48,22.61a.59.59,0,0,1,.15.82A.61.61,0,0,1,47.63,23.68Z"/><ellipse class="cls-7" cx="71.11" cy="29.76" rx="6.39" ry="7.42" transform="translate(32.56 96.51) rotate(-82.7)"/><ellipse class="cls-6" cx="70.78" cy="30.7" rx="4.65" ry="5.39" transform="translate(31.34 97.01) rotate(-82.7)"/><ellipse class="cls-7" cx="70.78" cy="30.93" rx="1.78" ry="2.02" transform="translate(31.13 97.23) rotate(-82.72)"/><path class="cls-7" d="M76.86,25.06a.58.58,0,0,1-.21-1.13l2-.8a.59.59,0,0,1,.77.33.6.6,0,0,1-.34.76l-2,.8A.6.6,0,0,1,76.86,25.06Z"/><path class="cls-7" d="M75.23,23.68a.61.61,0,0,1-.48-.25.6.6,0,0,1,.14-.82l2.46-1.73a.59.59,0,0,1,.68,1l-2.46,1.72A.6.6,0,0,1,75.23,23.68Z"/><path class="cls-6" d="M77.82,49c0,5.24-7.67,9.49-17.14,9.49S43.54,54.25,43.54,49s7.67-8.55,17.14-8.55S77.82,43.77,77.82,49Z"/><path class="cls-18" d="M60.77,56.68c-6.21,0-12-1.57-17.23-7.67.42,6.4,8.23,9.22,17,9.22,9.46,0,16.31-3.61,17.14-9.22C72.8,54.34,69.56,56.63,60.77,56.68Z"/><path class="cls-7" d="M61,55.7a13.59,13.59,0,0,1-12.17-7,.59.59,0,1,1,1-.54A12.41,12.41,0,0,0,61,54.53h.16a12.48,12.48,0,0,0,10.91-6.24.58.58,0,1,1,1,.55A13.45,13.45,0,0,1,61.15,55.7Z"/><path class="cls-7" d="M60.68,59.39c-10.11,0-18-4.56-18-10.38,0-5.55,7.41-9.43,18-9.43s18,3.88,18,9.43C78.7,54.83,70.79,59.39,60.68,59.39Zm0-18c-9.42,0-16.26,3.22-16.26,7.66,0,4.67,7.45,8.61,16.26,8.61S76.94,53.68,76.94,49C76.94,44.57,70.1,41.35,60.68,41.35Z"/><rect class="cls-7" x="60.26" y="44.04" width="1.37" height="11.37"/><path class="cls-7" d="M66,41c0,2.78-5,4.49-5,4.49s-5-1.71-5-4.49,2.24-2.45,5-2.45S66,38.26,66,41Z"/><ellipse class="cls-19" cx="60.95" cy="40.39" rx="3.27" ry="0.56"/><path class="cls-13" d="M77.94,99c0,2.46-1.12,13-7.42,12.19-3.4-.42-8.24-5.74-6.2-7.12s-2.17-9,.75-7.1S77.94,96.56,77.94,99Z"/><path class="cls-6" d="M74.56,108.31c0,2.47-2.33,3.34-6,3.34s-6.61-2-6.61-4.46,1.64-4.52,4.75-2.6S74.56,105.85,74.56,108.31Z"/><path class="cls-18" d="M68.18,109.31a17,17,0,0,1-6-3.78,3.46,3.46,0,0,0-.24,1.24c0,2.7,3.2,4.88,7.14,4.88A9.15,9.15,0,0,0,74,110.34,17.09,17.09,0,0,1,68.18,109.31Z"/><path class="cls-7" d="M69.11,112.39c-4.34,0-7.88-2.52-7.88-5.62,0-2,1.4-3.75,3.7-4.77a29.38,29.38,0,0,1-.59-5,.72.72,0,0,1,.7-.76.74.74,0,0,1,.76.71,27.91,27.91,0,0,0,.69,5.31l.15.64-.61.22c-2.05.75-3.33,2.13-3.33,3.63,0,2.29,2.88,4.15,6.41,4.15,2.83,0,5.36-1.23,6.16-3a47.12,47.12,0,0,0,3.08-11.17.72.72,0,0,1,.83-.62.73.73,0,0,1,.62.83,47.87,47.87,0,0,1-3.18,11.54C75.56,110.84,72.55,112.39,69.11,112.39Z"/><path class="cls-10" d="M43.09,99c0,2.46,1.12,13,7.41,12.19,3.41-.42,8.24-5.74,6.2-7.12s1.33-9-1.58-7.1S43.09,96.56,43.09,99Z"/><path class="cls-6" d="M46.47,108.31c0,2.47,2.32,3.34,6,3.34s6.61-2,6.61-4.46-1.65-4.52-4.76-2.6S46.47,105.85,46.47,108.31Z"/><path class="cls-18" d="M53.48,109.53a16.83,16.83,0,0,0,5.77-4.08,3.71,3.71,0,0,1,.31,1.23c.13,2.7-3,5-6.89,5.25a9.23,9.23,0,0,1-4.92-1.07A17.06,17.06,0,0,0,53.48,109.53Z"/><path class="cls-7" d="M51.91,112.39c-3.43,0-6.44-1.55-7.49-3.86A47.59,47.59,0,0,1,41.23,97a.73.73,0,1,1,1.45-.21,46.6,46.6,0,0,0,3.08,11.19c.8,1.75,3.33,3,6.15,3,3.54,0,6.41-1.86,6.41-4.15,0-1.5-1.27-2.88-3.33-3.63l-.61-.22.15-.64A27.91,27.91,0,0,0,55.22,97a.74.74,0,1,1,1.47,0,29.38,29.38,0,0,1-.59,5c2.29,1,3.69,2.81,3.69,4.77C59.79,109.87,56.26,112.39,51.91,112.39Z"/><circle class="cls-18" cx="71.22" cy="45.86" r="0.85"/><circle class="cls-18" cx="69.55" cy="43.76" r="0.85"/><circle class="cls-18" cx="69" cy="46.77" r="0.85"/><circle class="cls-18" cx="50.87" cy="45.93" r="0.85"/><circle class="cls-18" cx="53.12" cy="46.77" r="0.85"/><circle class="cls-18" cx="52.76" cy="44.04" r="0.85"/><path class="cls-7" d="M84,46.59h0l-12.2-.15a.59.59,0,1,1,0-1.17L84,45.41a.59.59,0,0,1,0,1.18Z"/><path class="cls-7" d="M70.15,44.31a.59.59,0,0,1-.21-1.14l11.47-4.51a.58.58,0,0,1,.76.33.59.59,0,0,1-.33.76L70.37,44.26A.59.59,0,0,1,70.15,44.31Z"/><path class="cls-7" d="M38.26,46.59a.59.59,0,0,1-.59-.58.6.6,0,0,1,.58-.6l12.2-.14h0a.59.59,0,0,1,0,1.17l-12.2.15Z"/><path class="cls-7" d="M52.13,44.31a.54.54,0,0,1-.21-.05L40.44,39.75a.59.59,0,1,1,.43-1.09l11.48,4.51a.59.59,0,0,1,.33.76A.59.59,0,0,1,52.13,44.31Z"/><path class="cls-20" d="M127.71,96.86c0-.28,0-.53,0-.73a12.51,12.51,0,0,0-12.51-12.52,12.27,12.27,0,0,0-7.37,2.55,13.93,13.93,0,0,0-3.72,4.2,7.18,7.18,0,0,0-3.3-.8,6.7,6.7,0,0,0-5,2.43,8.47,8.47,0,0,0-1.9,3.63,9.26,9.26,0,0,0-4,3,9,9,0,0,0-1.81,5.46,9.14,9.14,0,0,0,9.13,9.13v0h29.62a8.2,8.2,0,0,0,8.19-8.19A8.3,8.3,0,0,0,127.71,96.86Z"/><path class="cls-21" d="M126.86,113.23h0c4.51,0,8.51-3.69,8.19-8.19-.25-3.54-2-4.8-4.52-6.88l-25.93,15S126.86,113.23,126.86,113.23Z"/><path class="cls-22" d="M172.59,40V32.18H155.44V64.9h17.15V56.14h9.07v6.64c0,4-.38,5.82-1.29,7.33-1.81,2.72-4,3.56-9.22,3.63H156.34c-5.51,0-7.93-1.13-9.52-4.31-.75-1.36-1-2.94-1-6.65V34.37c0-4.15.3-5.81,1.28-7.33,1.82-2.72,4-3.62,9.22-3.7h14.81c5.52.08,7.86,1.13,9.52,4.31.68,1.28,1,3.1,1,6.72V40Z"/><path class="cls-22" d="M192.24,43.74V34.22c0-4.23.3-5.82,1.51-7.4,1.81-2.57,3.93-3.4,8.54-3.48h14.65c5,.08,7.33,1.13,9,4.16.83,1.36,1.05,3,1.05,6.72v31h4.54v8.54H212.86V65.2h4.54V52.58H201.83V65.2h4.54v8.54H187.7V65.2h4.54V52.58h-6.05V43.74Zm9.59,0H217.4V32.18H201.83Z"/><path class="cls-22" d="M255.71,23.34v8.54h-4.53v33h12.54V56.14h9.07v17.6H237.05V65.2h4.53V31.88h-4.53V23.34Z"/><path class="cls-22" d="M296,23.34v8.54h-4.54V65.2H296v8.54H277.32V65.2h4.54V31.88h-4.54V23.34Z"/><path class="cls-22" d="M329.76,40V32.18H312.61V64.9h17.15V56.14h9.07v6.64c0,4-.38,5.82-1.28,7.33-1.82,2.72-4,3.56-9.22,3.63H313.52c-5.52,0-7.94-1.13-9.52-4.31-.76-1.36-1-2.94-1-6.65V34.37c0-4.15.31-5.81,1.29-7.33,1.81-2.72,4-3.62,9.22-3.7h14.81c5.51.08,7.86,1.13,9.52,4.31.68,1.28,1,3.1,1,6.72V40Z"/><path class="cls-22" d="M370.57,23.34h1.58c5.52.08,7.94,1.13,9.53,4.31.75,1.28,1,3.1,1,6.72v16.1c0,4-.3,5.82-1.29,7.33-1.74,2.72-4,3.62-9.22,3.62H356.36c-5.51,0-7.93-1.05-9.52-4.23-.68-1.36-1-3.17-1-6.72V34.37c0-4.08.38-5.89,1.28-7.33,1.82-2.72,4-3.62,9.22-3.7h14.21ZM355.45,52.58h17.61V32.18H355.45Zm16.7,12.62v8.54H356.51V65.2Z"/><path class="cls-22" d="M158.58,95.48a17.31,17.31,0,0,1-.18,3.69c-.23,1-.81,2.82-4,2.82a3.73,3.73,0,0,1-4.09-3.25,38.59,38.59,0,0,1-.18-5.68,36.89,36.89,0,0,1,.2-6c.15-.78.61-3.34,4.25-3.34a3.53,3.53,0,0,1,3.72,2.56,13.93,13.93,0,0,1,.17,3.29h-2.06V88.24c0-1.21,0-2.66-1.83-2.66s-2,1.5-2.11,2.18c-.15,1.28-.15,4-.15,5.33,0,1.08.05,4.67.15,5.38a1.9,1.9,0,0,0,2.06,1.66,1.84,1.84,0,0,0,1.88-1.69,15.49,15.49,0,0,0,.1-3Z"/><path class="cls-22" d="M210.6,101.73h-7.43V84h2.23V99.75h5.2Z"/><path class="cls-22" d="M262.94,97.36c-.13,2.24-.68,4.63-4.35,4.63a4.87,4.87,0,0,1-2.39-.51,3.54,3.54,0,0,1-1.71-2.63,45.57,45.57,0,0,1-.17-5.38c0-1.13.05-4.85.12-5.81s.43-3.94,4.45-3.94c3.7,0,4,2.76,4.1,3.71.15,1.51.1,4.7.1,5.18C263.09,94,263,96,262.94,97.36Zm-6.34-1.15c.06,1.7-.25,3.94,2.09,3.94,1.89,0,2-1.66,2-2.81.1-1.49.15-3.3.12-4.73s0-2.79-.05-4.17c0-1.11-.05-2.86-2-2.86s-2.09,1.93-2.14,2.84-.05,1.15-.05,5.42C256.58,95.05,256.58,95.07,256.6,96.21Z"/><path class="cls-22" d="M316.93,84V96c0,2.19,0,3.07-.43,4-.8,1.88-2.94,2.06-3.87,2.06-1.91,0-3.29-.58-3.92-1.94-.35-.78-.4-1.28-.4-4V84h2.23V96.93c0,1.54,0,3.15,2.14,3.15,1.91,0,2-1.34,2-2.17s0-.85,0-2.16V84Z"/><path class="cls-22" d="M362.3,101.73V84h3.34c1.73,0,3.32,0,4.37,1.33.83,1,.91,2,.91,6.26,0,1,0,2.09-.05,4.5a8,8,0,0,1-.71,4c-1,1.6-2.66,1.6-4.57,1.6Zm2.21-2h1.43c1.41,0,2.42-.12,2.67-1.7.12-.83.15-3.32.15-4.25,0-1.64,0-2.26,0-4,0-1.94-.05-2.89-.83-3.45-.55-.37-1-.37-3.39-.37Z"/></g></g></svg>
