<svg
 xmlns="http://www.w3.org/2000/svg"
 xmlns:xlink="http://www.w3.org/1999/xlink"
 viewBox="0 0 633.01 208"
>
 <defs>
  <style>
   .cls-1{fill:#231f20;}.cls-2{fill:url(#linear-gradient);}.cls-3{fill:#173f74;}.cls-4{fill:#00214c;}.cls-5{fill:#754c29;}.cls-6{fill:#603913;}.cls-7{fill:#f7941d;}.cls-8{fill:#f47729;}.cls-9{fill:#fff;}.cls-10{fill:#3c2415;}.cls-11{fill:none;}.cls-12{fill:#603d19;}.cls-13{fill:#573819;}.cls-14{fill:#533414;}.cls-15{fill:#e6e7e8;}.cls-16{fill:#a7a9ac;}.cls-17{fill:#ef4136;}.cls-18{fill:#fbb040;}.cls-19{fill:#fff;}
  </style>
  <linearGradient
   id="linear-gradient"
   x1="101.02"
   y1="-3.22"
   x2="101.02"
   y2="199.88"
   gradientUnits="userSpaceOnUse"
  >
   <stop offset="0" stop-color="#fff" />
   <stop offset="1" stop-color="#00549e" />
  </linearGradient>
 </defs>
 <title>Calico-logo</title>
 <g id="Layer_2" data-name="Layer 2">
  <g id="Layer_1-2" data-name="Layer 1">
   <path
    class="cls-19"
    d="M285.15,112.77V99.88h-28.4v54.18h28.4V139.55h15v11c0,6.63-.62,9.63-2.12,12.14-3,4.5-6.63,5.88-15.27,6H258.25c-9.14,0-13.14-1.87-15.77-7.13-1.25-2.25-1.62-4.88-1.62-11v-47c0-6.88.5-9.63,2.12-12.13,3-4.51,6.63-6,15.27-6.14h24.52c9.14.13,13,1.88,15.77,7.14,1.12,2.12,1.62,5.13,1.62,11.13v9.26Z"
   />
   <path
    class="cls-19"
    d="M317.68,119V103.26c0-7,.5-9.63,2.51-12.26,3-4.25,6.5-5.63,14.13-5.76H358.6c8.26.13,12.14,1.88,14.89,6.89,1.38,2.25,1.75,5,1.75,11.13v51.3h7.51V168.7H351.84V154.56h7.51V133.67H333.57v20.89h7.51V168.7h-30.9V154.56h7.5V133.67h-10V119Zm15.89,0h25.78V99.88H333.57Z"
   />
   <path
    class="cls-19"
    d="M422.79,85.24V99.38h-7.51v54.68h20.77V139.55h15V168.7H391.89V154.56h7.5V99.38h-7.5V85.24Z"
   />
   <path
    class="cls-19"
    d="M489.49,85.24V99.38H482v55.18h7.51V168.7H458.58V154.56h7.51V99.38h-7.51V85.24Z"
   />
   <path
    class="cls-19"
    d="M545.42,112.77V99.88H517v54.18h28.4V139.55h15v11c0,6.63-.62,9.63-2.13,12.14-3,4.5-6.63,5.88-15.26,6H518.52c-9.14,0-13.14-1.87-15.77-7.13-1.25-2.25-1.63-4.88-1.63-11v-47c0-6.88.5-9.63,2.13-12.13,3-4.51,6.63-6,15.27-6.14H543c9.13.13,13,1.88,15.77,7.14,1.12,2.12,1.62,5.13,1.62,11.13v9.26Z"
   />
   <path
    class="cls-19"
    d="M613,85.24h2.62c9.14.13,13.14,1.88,15.77,7.14,1.25,2.12,1.63,5.13,1.63,11.13v26.65c0,6.64-.5,9.64-2.13,12.14-2.88,4.51-6.63,6-15.27,6H589.46c-9.13,0-13.13-1.76-15.76-7-1.13-2.25-1.63-5.26-1.63-11.14V103.51c0-6.75.63-9.76,2.13-12.13,3-4.51,6.63-6,15.26-6.14H613Zm-25,48.43h29.16V99.88H588Zm27.65,20.89V168.7h-25.9V154.56Z"
   />
   <path
    class="cls-19"
    d="M249.05,69.14h-3.62V39.71h6c3.24,0,5.28.21,6.78,2.33,1.33,1.83,1.33,3.58,1.33,6.62,0,4-.66,6.87-3.49,7.91-1.42.54-2.25.54-7,.54Zm0-15.28h2.45c1.63,0,2.54-.08,3.33-.66,1.08-.84,1.08-2,1.08-4.25,0-3.16-.12-4.45-1.33-5.24-.91-.63-1.75-.63-5.53-.63Z"
   />
   <path
    class="cls-19"
    d="M299.94,69.14h-3.87l-5-12.86h-3V69.14h-3.62V39.75h6.4c3.87,0,7.79.63,7.79,8a15.33,15.33,0,0,1-.71,5.12,4.2,4.2,0,0,1-3.25,3ZM288,53.36c4.12,0,4.7,0,5.49-.54,1.41-1,1.41-3.2,1.41-4.66,0-1.79,0-3.66-1.45-4.53-.88-.55-1.67-.55-5.45-.55Z"
   />
   <path
    class="cls-19"
    d="M338.3,61.89c-.21,3.71-1.12,7.66-7.2,7.66a8.13,8.13,0,0,1-4-.83,5.79,5.79,0,0,1-2.83-4.37,75.48,75.48,0,0,1-.29-8.91c0-1.87.08-8,.21-9.61s.7-6.53,7.36-6.53c6.12,0,6.62,4.57,6.79,6.16.25,2.49.16,7.78.16,8.57C338.55,56.32,338.43,59.69,338.3,61.89ZM327.82,60c.08,2.83-.42,6.53,3.45,6.53,3.12,0,3.25-2.74,3.37-4.66.17-2.45.25-5.45.21-7.82s0-4.62-.08-6.91c0-1.83-.09-4.74-3.38-4.74s-3.45,3.2-3.53,4.7-.09,1.91-.09,9C327.77,58.07,327.77,58.11,327.82,60Z"
   />
   <path
    class="cls-19"
    d="M375.71,39.75V59.52c0,4.29-.17,5.12-.46,6-1.33,4-5.74,4-6.74,4-3.91,0-5.66-2.16-6.2-4.16-.33-1.21-.33-2.12-.33-5.08h3.53c0,3.17.05,3.62.34,4.37a2.72,2.72,0,0,0,2.62,1.75,3.25,3.25,0,0,0,3.58-3.33c0-.58,0-2.7,0-3.37v-20Z"
   />
   <path
    class="cls-19"
    d="M415.53,69.14H402.3V39.75h12.9V43H406v8.74h8.12v3.33H406V65.85h9.57Z"
   />
   <path
    class="cls-19"
    d="M454.19,58.77c0,4,0,5-.29,6.12-.38,1.71-1.34,4.66-6.62,4.66-4.49,0-6.33-2.66-6.78-5.37-.13-.83-.3-2.08-.3-9.4,0-7.74.13-8.66.34-10s1-5.53,7-5.53c2.41,0,5.41,1,6.16,4.24A23.64,23.64,0,0,1,454,49h-3.41v-2.2c0-2,0-4.41-3-4.41s-3.37,2.49-3.49,3.62c-.26,2.12-.26,6.57-.26,8.82,0,1.79.09,7.74.26,8.91a3.12,3.12,0,0,0,3.41,2.74,3.07,3.07,0,0,0,3.12-2.79c.17-.75.17-1.41.17-4.91Z"
   />
   <path class="cls-19" d="M485.32,69.14H481.7V43h-5.58V39.75H490.9V43h-5.58Z" />
   <circle class="cls-2" cx="101.02" cy="106.98" r="98.68" />
   <path
    class="cls-1"
    d="M101,208a101,101,0,1,1,101-101A101.14,101.14,0,0,1,101,208Zm0-197.36A96.34,96.34,0,1,0,197.36,107,96.45,96.45,0,0,0,101,10.64Z"
   />
   <path
    class="cls-3"
    d="M148.5,170.53c-4.32,6.89-23.78,12.1-47.15,12.1s-42.83-5.21-47.15-12.1c-5.6,2.16-8.86,4.73-8.86,7.49,0,7.67,25.08,13.89,56,13.89s56-6.22,56-13.89C157.37,175.26,154.1,172.69,148.5,170.53Z"
   />
   <path
    class="cls-4"
    d="M101.35,182.63c23.37,0,42.83-5.21,47.15-12.1-10-3.85-27.35-6.4-47.15-6.4s-37.19,2.55-47.15,6.4C58.52,177.42,78,182.63,101.35,182.63Z"
   />
   <path
    class="cls-5"
    d="M141,135.22a78.64,78.64,0,0,1,10.22-8.08c16.43-11.08,11.92-28.5,7.94-42.61-2.84-10.06,10.77-12.77,16,16.38,5.15,28.68-26.59,51.19-35.11,51.19"
   />
   <path
    class="cls-1"
    d="M140.08,153.56a1.46,1.46,0,0,1,0-2.92c4,0,14.81-6.17,23.21-16.2,6.17-7.39,13-19.15,10.46-33.28-2.61-14.54-7.38-20.94-10.67-22a1.85,1.85,0,0,0-2,.3c-.69.65-1.17,2.23-.48,4.67,3.84,13.64,9.11,32.31-8.54,44.22a77.36,77.36,0,0,0-10,7.91,1.46,1.46,0,0,1-2-2.08,78.6,78.6,0,0,1,10.43-8.25c15.9-10.72,11-28.23,7.36-41-.89-3.13-.41-6,1.26-7.57a4.78,4.78,0,0,1,4.94-1c5.51,1.78,10.24,10.86,12.65,24.27,2.73,15.23-4.53,27.8-11.1,35.66C156.9,146.63,145.4,153.56,140.08,153.56Z"
   />
   <path
    class="cls-6"
    d="M164.93,79.16c3.45,8.22,11.77,31.09.15,45.74s-19.42,13.9-19.42,13.9l1.12,11.1c12.26-6.31,32.62-25.59,28.41-49C172.42,85.5,168.71,80.39,164.93,79.16Z"
   />
   <path
    class="cls-1"
    d="M140.08,153.56a1.46,1.46,0,0,1,0-2.92c4,0,14.81-6.17,23.21-16.2,6.17-7.39,13-19.15,10.46-33.28-2.61-14.54-7.38-20.94-10.67-22a1.85,1.85,0,0,0-2,.3c-.69.65-1.17,2.23-.48,4.67,3.84,13.64,9.11,32.31-8.54,44.22a77.36,77.36,0,0,0-10,7.91,1.46,1.46,0,0,1-2-2.08,78.6,78.6,0,0,1,10.43-8.25c15.9-10.72,11-28.23,7.36-41-.89-3.13-.41-6,1.26-7.57a4.78,4.78,0,0,1,4.94-1c5.51,1.78,10.24,10.86,12.65,24.27,2.73,15.23-4.53,27.8-11.1,35.66C156.9,146.63,145.4,153.56,140.08,153.56Z"
   />
   <path
    class="cls-7"
    d="M148.84,136.26c0,29.71-21.55,46.37-48.13,46.37S52.57,166,52.57,136.26s21.55-76.08,48.14-76.08S148.84,106.54,148.84,136.26Z"
   />
   <path
    class="cls-1"
    d="M100.71,184c-29.62,0-49.52-19.19-49.52-47.75,0-30.59,22.18-77.46,49.52-77.46s49.52,46.87,49.52,77.46C150.23,164.82,130.33,184,100.71,184Zm0-122.44c-6.7,0-19.86,3.4-32.84,26.19C59.29,102.84,54,121.42,54,136.26c0,26.9,18.78,45,46.75,45s46.75-18.08,46.75-45c0-14.84-5.34-33.42-13.92-48.5C120.57,65,107.4,61.57,100.71,61.57Z"
   />
   <path
    class="cls-8"
    d="M100.71,60.18c-.32,0-.64,0-1,0,20.67,1.1,45.42,47.77,45.42,74.89C145.17,162.57,124.51,178,99,178c-9.54,0-18.21-.14-25.4-2.28a53.11,53.11,0,0,0,27.1,6.95c26.58,0,48.13-16.66,48.13-46.37S127.29,60.18,100.71,60.18Z"
   />
   <path
    class="cls-8"
    d="M137.93,100.74l-7.57,6.73s8.56-1.83,8.9-3.37S137.93,100.74,137.93,100.74Z"
   />
   <path
    class="cls-8"
    d="M139.87,106.39l-8.8,6.73s9.94-1.83,10.34-3.37S139.87,106.39,139.87,106.39Z"
   />
   <path
    class="cls-8"
    d="M141.91,112.23,131.61,120s11.64-2.11,12.11-3.89S141.91,112.23,141.91,112.23Z"
   />
   <path
    class="cls-8"
    d="M141.48,157.87l-11-6.69s6.26,10,8.09,9.8S141.48,157.87,141.48,157.87Z"
   />
   <path
    class="cls-8"
    d="M146.31,152.21l-12.27-4s8.4,8.33,10.13,7.69S146.31,152.21,146.31,152.21Z"
   />
   <path
    class="cls-8"
    d="M61.47,100.74l9,6.73s-10.13-1.83-10.54-3.37S61.47,100.74,61.47,100.74Z"
   />
   <path
    class="cls-8"
    d="M59.18,106.39l10.42,6.73s-11.78-1.83-12.25-3.37S59.18,106.39,59.18,106.39Z"
   />
   <path
    class="cls-8"
    d="M56.76,112.23,69,120s-13.78-2.11-14.34-3.89S56.76,112.23,56.76,112.23Z"
   />
   <path
    class="cls-9"
    d="M122.25,128.88c0,14.41-8.06,27-22.8,27s-22.8-12.56-22.8-27S84.71,94,99.45,94,122.25,114.48,122.25,128.88Z"
   />
   <path
    class="cls-1"
    d="M99.45,157.2c-14.21,0-24.14-11.64-24.14-28.32a50.48,50.48,0,0,1,6-23.52c4.57-8.23,11-12.76,18.1-12.76s13.53,4.53,18.11,12.76a50.6,50.6,0,0,1,6,23.52C123.6,145.56,113.67,157.2,99.45,157.2Zm0-61.9C85.64,95.3,78,115.16,78,128.88c0,17.7,10.77,25.62,21.45,25.62s21.46-7.92,21.46-25.62C120.91,115.16,113.27,95.3,99.45,95.3Z"
   />
   <path
    class="cls-5"
    d="M143.09,42.72c-.18,2.41-4.7-.74-6.23,1L105.37,24.47a39.89,39.89,0,0,1,3.15-6.35c6.64-10.87,20.93-21.91,28.07-13.95C141.47,9.6,144.16,28.67,143.09,42.72Z"
   />
   <path
    class="cls-1"
    d="M137.14,45.6l-1-.64L103.56,25.07l.45-1.14a41,41,0,0,1,3.27-6.57C112.42,8.94,122.3,0,130.47,0a9.33,9.33,0,0,1,7.21,3.2c5.37,6,7.93,25.68,6.87,39.63a2.41,2.41,0,0,1-2.62,2.3,10.08,10.08,0,0,1-1.92-.27,10,10,0,0,0-1.64-.24.93.93,0,0,0-.42.06Zm1.23-3.9a11.42,11.42,0,0,1,2.22.3,10.78,10.78,0,0,0,1.08.19c1-14.46-1.95-32.35-6.16-37a6.44,6.44,0,0,0-5-2.23c-6.85,0-15.91,8.11-20.7,16a38.64,38.64,0,0,0-2.58,5L136.83,42A3.92,3.92,0,0,1,138.37,41.7Z"
   />
   <path
    class="cls-1"
    d="M133.11,33.16c-.07.8-13.28-7-13.28-7a13.37,13.37,0,0,1,1-2.11c2.2-3.61,6.85-9.23,9.36-6C130.91,19,133.46,28.49,133.11,33.16Z"
   />
   <path
    class="cls-1"
    d="M133,34.68c-.4,0-1.62,0-13.91-7.23L118,26.82l.46-1.16a13.77,13.77,0,0,1,1.16-2.34c1.1-1.79,5-7.65,8.77-7.65a3.69,3.69,0,0,1,3,1.56c1.06,1.4,3.52,11.35,3.16,16A1.54,1.54,0,0,1,133,34.68ZM121.7,25.6c3.79,2.2,7.76,4.42,10,5.5A49.42,49.42,0,0,0,129,18.94a.71.71,0,0,0-.63-.35c-1.38,0-4.14,2.75-6.28,6.25C122,25.09,121.83,25.34,121.7,25.6Z"
   />
   <path
    class="cls-10"
    d="M137.14,4.93l-7.57,6.73s8.56-1.83,8.9-3.37S137.14,4.93,137.14,4.93Z"
   />
   <path
    class="cls-7"
    d="M57.55,43.69c.19,2.41,4.7-.74,6.24,1L95.28,25.44a41.26,41.26,0,0,0-3.16-6.35C85.48,8.22,71.2-2.81,64.05,5.14,59.17,10.58,56.48,29.65,57.55,43.69Z"
   />
   <path
    class="cls-8"
    d="M62.52,8.29l9,6.73S61.36,13.2,61,11.66,62.52,8.29,62.52,8.29Z"
   />
   <path
    class="cls-8"
    d="M59.36,14.43l6.83,4.84s-7.72-1.32-8-2.42S59.36,14.43,59.36,14.43Z"
   />
   <path
    class="cls-1"
    d="M63.52,46.56l-.83-.9a.83.83,0,0,0-.41-.06,9,9,0,0,0-1.64.24,10.15,10.15,0,0,1-1.93.26h0a2.4,2.4,0,0,1-2.61-2.3C55,29.86,57.6,10.15,63,4.17A9.31,9.31,0,0,1,70.17,1c8.18,0,18.06,9,23.2,17.36a42.43,42.43,0,0,1,3.27,6.58l.45,1.14ZM70.17,3.89a6.42,6.42,0,0,0-5,2.23c-4.22,4.7-7.18,22.6-6.16,37,.31,0,.7-.11,1.08-.18a7,7,0,0,1,3.75,0L93.46,24.84a40.64,40.64,0,0,0-2.58-5C86.08,12,77,3.89,70.17,3.89Z"
   />
   <path
    class="cls-1"
    d="M67.54,34.13c.06.81,13.28-7,13.28-7a13.47,13.47,0,0,0-1-2.12c-2.21-3.61-6.86-9.23-9.36-6C69.74,20,67.18,29.46,67.54,34.13Z"
   />
   <path
    class="cls-1"
    d="M67.64,35.65h0a1.54,1.54,0,0,1-1.56-1.41c-.35-4.68,2.1-14.64,3.17-16a3.67,3.67,0,0,1,3-1.56c3.81,0,7.68,5.85,8.78,7.64a15.91,15.91,0,0,1,1.16,2.34l.45,1.16-1.07.63C69.3,35.63,68.05,35.65,67.64,35.65Zm4.6-16.09c-.12,0-.36,0-.67.42A50.12,50.12,0,0,0,69,32.08c2.18-1.09,6.16-3.3,10-5.51a6.93,6.93,0,0,0-.43-.75C76.38,22.31,73.62,19.56,72.24,19.56Z"
   />
   <path
    class="cls-11"
    d="M100.71,41.36c-.61,26.19-9.52,48.55-22.9,57.33C91.19,89.91,100.71,67.56,100.71,41.36Z"
   />
   <path
    class="cls-12"
    d="M113.32,101.43a33.09,33.09,0,0,1,3.2,4.85c9.48-2.52,17.13-7.23,21.42-13.11-.32-.68-.65-1.33-1-2a57.68,57.68,0,0,1-23.62,10.25Z"
   />
   <path
    class="cls-12"
    d="M82.62,105.85a32.22,32.22,0,0,1,3.23-4.75,57.62,57.62,0,0,1-21.6-9.51c-.38.72-.72,1.46-1.08,2.19C67.29,99.07,74.18,103.35,82.62,105.85Z"
   />
   <path
    class="cls-13"
    d="M100.32,102.67a66.22,66.22,0,0,1-14.47-1.57h0a32.22,32.22,0,0,0-3.23,4.75h0a61.41,61.41,0,0,0,17.69,2.52,62.47,62.47,0,0,0,16.2-2.08h0a33.09,33.09,0,0,0-3.2-4.85A68.08,68.08,0,0,1,100.32,102.67Z"
   />
   <path
    class="cls-1"
    d="M99.45,157.2c-14.21,0-24.14-11.64-24.14-28.32a50.48,50.48,0,0,1,6-23.52c4.57-8.23,11-12.76,18.1-12.76s13.53,4.53,18.11,12.76a50.6,50.6,0,0,1,6,23.52C123.6,145.56,113.67,157.2,99.45,157.2Zm0-61.9C85.64,95.3,78,115.16,78,128.88c0,17.7,10.77,25.62,21.45,25.62s21.46-7.92,21.46-25.62C120.91,115.16,113.27,95.3,99.45,95.3Z"
   />
   <path
    class="cls-14"
    d="M140.71,88c-1.19,1.1-2.44,2.14-3.76,3.14.34.67.67,1.32,1,2A19.91,19.91,0,0,0,140.71,88Z"
   />
   <path
    class="cls-1"
    d="M100.71,184c-29.62,0-49.52-19.19-49.52-47.75,0-30.59,22.18-77.46,49.52-77.46s49.52,46.87,49.52,77.46C150.23,164.82,130.33,184,100.71,184Zm0-122.44c-6.7,0-19.86,3.4-32.84,26.19C59.29,102.84,54,121.42,54,136.26c0,26.9,18.78,45,46.75,45s46.75-18.08,46.75-45c0-14.84-5.34-33.42-13.92-48.5C120.57,65,107.4,61.57,100.71,61.57Z"
   />
   <path
    class="cls-7"
    d="M136.5,55.83A19.6,19.6,0,0,1,144.87,40c-9.45-11-25.69-18.25-44.16-18.25-.62,0-1.24,0-1.86,0a72.28,72.28,0,0,1,1.86,19.54c0,26.2-9.52,48.55-22.9,57.33a66.35,66.35,0,0,0,22.9,4c23.43,0,43.3-11.69,50.21-27.86C142.47,71.81,136.5,64.45,136.5,55.83Z"
   />
   <path
    class="cls-1"
    d="M100.71,104.13a67.55,67.55,0,0,1-23.41-4.07,1.46,1.46,0,0,1-.94-1.21A1.44,1.44,0,0,1,77,97.46c13.3-8.72,22.24-31.27,22.24-56.1a71,71,0,0,0-1.81-19.17,1.46,1.46,0,0,1,1.38-1.83h.27l1.62,0c18.25,0,35.17,7,45.26,18.75a1.48,1.48,0,0,1,.35,1.12,1.45,1.45,0,0,1-.59,1A18.15,18.15,0,0,0,138,55.83c0,7.79,5.28,14.7,13.45,17.6a1.45,1.45,0,0,1,.84.79,1.42,1.42,0,0,1,0,1.16C144.91,92.58,124.19,104.13,100.71,104.13ZM80.94,98.22a65.06,65.06,0,0,0,19.77,3c21.69,0,40.84-10.23,48.24-25.6C140.45,72,135,64.39,135,55.83a20.84,20.84,0,0,1,7.7-16c-9.65-10.42-25.23-16.6-42-16.6h0a77.46,77.46,0,0,1,1.47,18.15C102.17,66.09,93.92,88,80.94,98.22Z"
   />
   <path
    class="cls-5"
    d="M100.71,41.36a102.11,102.11,0,0,0-1.86-19.54c-28.31.75-51,18.55-51,40.41,0,16.05,12.22,29.92,29.93,36.46C91.19,89.91,100.1,67.55,100.71,41.36Z"
   />
   <path
    class="cls-1"
    d="M77.81,100.15a1.48,1.48,0,0,1-.51-.09C58.54,93.14,46.42,78.29,46.42,62.23c0-22.7,23-41.09,52.4-41.87a1.48,1.48,0,0,1,1.47,1.18,104.62,104.62,0,0,1,1.88,19.82C101.55,68,92.3,90.92,78.61,99.91A1.53,1.53,0,0,1,77.81,100.15ZM97.65,23.32C70.46,24.53,49.34,41.44,49.34,62.23c0,14.63,11.07,28.23,28.27,34.82,12.59-8.76,21-30.5,21.64-55.72A101.29,101.29,0,0,0,97.65,23.32Z"
   />
   <path
    class="cls-10"
    d="M52.16,47.51l9,6.73S51,52.41,50.59,50.87,52.16,47.51,52.16,47.51Z"
   />
   <path
    class="cls-10"
    d="M49.87,53.16l10.42,6.73S48.51,58.06,48,56.53,49.87,53.16,49.87,53.16Z"
   />
   <path
    class="cls-8"
    d="M133.18,73.41c0-5.71-4.27-10.34-9.53-10.34a9.48,9.48,0,0,0-8.56,5.81c8.31,2.28,13.9,6.61,13.9,12.36a6.68,6.68,0,0,1-.07.77A10.55,10.55,0,0,0,133.18,73.41Z"
   />
   <path
    class="cls-5"
    d="M98.85,21.82a102.11,102.11,0,0,1,1.86,19.54A72.28,72.28,0,0,0,98.85,21.82Z"
   />
   <path
    class="cls-1"
    d="M100.71,42.82h0a1.46,1.46,0,0,1-1.44-1.46A101.18,101.18,0,0,0,97.42,22.1a1.46,1.46,0,0,1,2.85-.65,73.91,73.91,0,0,1,1.9,20A1.46,1.46,0,0,1,100.71,42.82Z"
   />
   <path
    class="cls-5"
    d="M144.87,40a19.6,19.6,0,0,0-8.37,15.79c0,8.62,6,16,14.42,19a31.92,31.92,0,0,0,2.62-12.58A33.92,33.92,0,0,0,144.87,40Z"
   />
   <path
    class="cls-1"
    d="M151.72,76.64l-1.29-.46C141.08,72.87,135,64.88,135,55.83a21,21,0,0,1,9-17l1.09-.8.88,1a35.33,35.33,0,0,1,9,23.15,33.23,33.23,0,0,1-2.74,13.15Zm-7.07-34.58A18,18,0,0,0,138,55.83c0,7.37,4.72,14,12.14,17.1a30.29,30.29,0,0,0,2-10.7A32.17,32.17,0,0,0,144.65,42.06Z"
   />
   <ellipse
    class="cls-1"
    cx="85.79"
    cy="49.33"
    rx="12.3"
    ry="10.6"
    transform="translate(-5.57 11.3) rotate(-7.3)"
   />
   <ellipse
    class="cls-9"
    cx="86.33"
    cy="50.89"
    rx="8.94"
    ry="7.7"
    transform="translate(-5.76 11.38) rotate(-7.3)"
   />
   <ellipse
    class="cls-1"
    cx="86.33"
    cy="51.28"
    rx="3.35"
    ry="2.96"
    transform="translate(-5.8 11.35) rotate(-7.28)"
   />
   <path
    class="cls-1"
    d="M76.26,41.54a.92.92,0,0,1-.36-.07l-3.39-1.33a1,1,0,1,1,.71-1.81l3.39,1.33a1,1,0,0,1,.55,1.26A1,1,0,0,1,76.26,41.54Z"
   />
   <path
    class="cls-1"
    d="M79,39.24a1,1,0,0,1-.56-.17l-4.07-2.86a1,1,0,0,1-.24-1.36,1,1,0,0,1,1.35-.23l4.08,2.85a1,1,0,0,1,.23,1.36A1,1,0,0,1,79,39.24Z"
   />
   <ellipse
    class="cls-1"
    cx="117.86"
    cy="49.33"
    rx="10.6"
    ry="12.3"
    transform="matrix(0.13, -0.99, 0.99, 0.13, 53.96, 159.97)"
   />
   <ellipse
    class="cls-9"
    cx="117.33"
    cy="50.89"
    rx="7.7"
    ry="8.94"
    transform="translate(51.95 160.8) rotate(-82.7)"
   />
   <ellipse
    class="cls-1"
    cx="117.33"
    cy="51.28"
    rx="2.96"
    ry="3.35"
    transform="translate(51.6 161.16) rotate(-82.72)"
   />
   <path
    class="cls-1"
    d="M127.4,41.54a1,1,0,0,1-.36-1.88l3.4-1.33a1,1,0,1,1,.71,1.81l-3.4,1.33A.84.84,0,0,1,127.4,41.54Z"
   />
   <path
    class="cls-1"
    d="M124.7,39.24a1,1,0,0,1-.56-1.77l4.07-2.85a1,1,0,1,1,1.12,1.59l-4.07,2.86A1,1,0,0,1,124.7,39.24Z"
   />
   <path
    class="cls-9"
    d="M129,81.24C129,89.93,116.27,97,100.58,97s-28.41-7-28.41-15.73,12.72-14.17,28.41-14.17S129,72.55,129,81.24Z"
   />
   <path
    class="cls-15"
    d="M100.74,94c-10.3.06-19.92-2.6-28.57-12.71.69,10.6,13.65,15.27,28.19,15.27,15.69,0,27-6,28.41-15.27C120.67,90.08,115.3,93.87,100.74,94Z"
   />
   <path
    class="cls-1"
    d="M101.08,92.33c-8.66,0-16.56-4.53-20.18-11.58a1,1,0,0,1,1.73-.89c3.29,6.41,10.51,10.52,18.45,10.52h.26c7.72-.09,14.82-4.15,18.08-10.34a1,1,0,1,1,1.72.91c-3.64,6.92-11.22,11.28-19.78,11.38Z"
   />
   <path
    class="cls-1"
    d="M100.58,98.43c-16.75,0-29.87-7.55-29.87-17.19,0-9.2,12.28-15.63,29.87-15.63S130.45,72,130.45,81.24C130.45,90.88,117.33,98.43,100.58,98.43Zm0-29.9c-15.62,0-26.95,5.35-26.95,12.71,0,7.74,12.34,14.27,27,14.27s27-6.53,27-14.27C127.54,73.88,116.2,68.53,100.58,68.53Z"
   />
   <rect class="cls-1" x="99.88" y="73" width="2.28" height="18.84" />
   <path
    class="cls-1"
    d="M109.35,68c0,4.6-8.33,7.44-8.33,7.44S92.7,72.61,92.7,68s3.73-4.07,8.32-4.07S109.35,63.42,109.35,68Z"
   />
   <ellipse class="cls-16" cx="101.02" cy="66.95" rx="5.41" ry="0.93" />
   <path
    class="cls-8"
    d="M129.18,164.13c0,4.08-1.85,21.49-12.29,20.21-5.64-.7-13.66-9.51-10.28-11.8,3.59-2.43-3.59-14.95,1.25-11.77S129.18,160.05,129.18,164.13Z"
   />
   <path
    class="cls-9"
    d="M123.58,179.53c0,4.09-3.86,5.54-9.91,5.54s-11-3.31-11-7.4,2.73-7.49,7.88-4.31S123.58,175.45,123.58,179.53Z"
   />
   <path
    class="cls-15"
    d="M113,181.18a27.82,27.82,0,0,1-9.9-6.27,5.62,5.62,0,0,0-.41,2.07c0,4.47,5.31,8.09,11.85,8.09a15.16,15.16,0,0,0,8-2.18A28.1,28.1,0,0,1,113,181.18Z"
   />
   <path
    class="cls-1"
    d="M114.56,186.29c-7.21,0-13.07-4.18-13.07-9.31,0-3.26,2.32-6.22,6.13-7.91a48.49,48.49,0,0,1-1-8.26,1.22,1.22,0,1,1,2.43-.08,45.8,45.8,0,0,0,1.15,8.81l.25,1.05-1,.37c-3.41,1.23-5.52,3.54-5.52,6,0,3.79,4.77,6.87,10.63,6.87,4.68,0,8.87-2,10.21-5a77.33,77.33,0,0,0,5.09-18.52,1.22,1.22,0,0,1,2.41.35A79.32,79.32,0,0,1,127,179.84C125.24,183.71,120.25,186.29,114.56,186.29Z"
   />
   <path
    class="cls-5"
    d="M71.42,164.13c0,4.08,1.85,21.49,12.29,20.21,5.64-.7,13.66-9.51,10.28-11.8-3.59-2.43,2.2-14.95-2.63-11.77S71.42,160.05,71.42,164.13Z"
   />
   <path
    class="cls-9"
    d="M77,179.53c0,4.09,3.86,5.54,9.91,5.54s11-3.31,11-7.4-2.73-7.49-7.88-4.31S77,175.45,77,179.53Z"
   />
   <path
    class="cls-15"
    d="M88.64,181.55a27.91,27.91,0,0,0,9.57-6.76,5.77,5.77,0,0,1,.5,2c.23,4.47-4.88,8.36-11.41,8.69a15,15,0,0,1-8.15-1.77A28.11,28.11,0,0,0,88.64,181.55Z"
   />
   <path
    class="cls-1"
    d="M86,186.29c-5.69,0-10.68-2.58-12.42-6.41a79.72,79.72,0,0,1-5.29-19.17,1.22,1.22,0,0,1,2.41-.35,77.27,77.27,0,0,0,5.11,18.56c1.32,2.89,5.52,4.93,10.19,4.93,5.86,0,10.63-3.08,10.63-6.87,0-2.48-2.11-4.79-5.51-6l-1-.37.24-1.05a45,45,0,0,0,1.15-8.81,1.22,1.22,0,1,1,2.43.08,48.49,48.49,0,0,1-1,8.26c3.81,1.69,6.13,4.65,6.13,7.91C99.11,182.11,93.25,186.29,86,186.29Z"
   />
   <circle class="cls-15" cx="118.06" cy="76.01" r="1.41" />
   <circle class="cls-15" cx="115.28" cy="72.53" r="1.41" />
   <circle class="cls-15" cx="114.36" cy="77.52" r="1.41" />
   <circle class="cls-15" cx="84.32" cy="76.13" r="1.41" />
   <circle class="cls-15" cx="88.05" cy="77.52" r="1.41" />
   <circle class="cls-15" cx="87.45" cy="73" r="1.41" />
   <path
    class="cls-1"
    d="M139.28,77.22h0L119.05,77a1,1,0,1,1,0-2l20.22.24a1,1,0,0,1,0,2Z"
   />
   <path
    class="cls-1"
    d="M116.28,73.44a1,1,0,0,1-.36-1.88l19-7.48a1,1,0,1,1,.72,1.81l-19,7.48A.84.84,0,0,1,116.28,73.44Z"
   />
   <path
    class="cls-1"
    d="M63.41,77.22a1,1,0,0,1,0-2L83.62,75h0a1,1,0,0,1,0,2l-20.22.24Z"
   />
   <path
    class="cls-1"
    d="M86.41,73.44a.92.92,0,0,1-.36-.07L67,65.89a1,1,0,1,1,.72-1.81l19,7.48a1,1,0,0,1-.36,1.88Z"
   />
   <circle class="cls-17" cx="182.41" cy="172.22" r="29.88" />
   <path
    class="cls-17"
    d="M182.41,142.34a29.88,29.88,0,1,1-29.87,29.88,29.88,29.88,0,0,1,29.87-29.88m0-1.08a31,31,0,1,0,31,31,31,31,0,0,0-31-31Z"
   />
   <path
    class="cls-18"
    d="M155.93,162.55a.69.69,0,0,1-.39-.14l.4-.59-.51-.5.1-.1c3.46-3.93,16-16.83,32.64-18a.73.73,0,0,1,.77.66.72.72,0,0,1-.67.77c-16.47,1.16-29.27,14.79-31.67,17.51A.92.92,0,0,1,155.93,162.55Z"
   />
   <path
    class="cls-18"
    d="M153.93,168.6a.72.72,0,0,1-.4-.12.71.71,0,0,1-.2-1c.15-.22,15.06-22.45,39.63-22.45a.72.72,0,1,1,0,1.44h0c-23.79,0-38.29,21.58-38.44,21.8A.69.69,0,0,1,153.93,168.6Z"
   />
   <path
    class="cls-18"
    d="M153.93,172.46a.71.71,0,0,1-.62-1.08c.16-.27,16.2-26.86,43.49-24.27a.72.72,0,0,1-.14,1.43c-26.4-2.52-42,23.31-42.12,23.57A.72.72,0,0,1,153.93,172.46Z"
   />
   <path
    class="cls-18"
    d="M208.58,185.1a.71.71,0,0,1-.72-.71c0-27.28-12.93-33.66-13.06-33.72a.72.72,0,1,1,.6-1.3c.57.26,13.89,6.74,13.89,35A.71.71,0,0,1,208.58,185.1Z"
   />
   <path
    class="cls-18"
    d="M206.67,187.76a.72.72,0,0,1-.72-.7c-.53-32-14.93-36.81-15.07-36.85a.73.73,0,0,1-.48-.9.71.71,0,0,1,.89-.47c.64.19,15.54,5,16.1,38.19a.72.72,0,0,1-.71.73Z"
   />
   <path
    class="cls-18"
    d="M204.14,191.16h0a.72.72,0,0,1-.67-.76c1.88-29.94-12.46-37.83-14.38-38.74l-.06,0c-.54-.21-.75-.53-.63-.95a.72.72,0,0,1,.81-.51l.21.08h0l.12.05a.42.42,0,0,1,.16.09c2.89,1.39,17.08,10,15.19,40.09A.72.72,0,0,1,204.14,191.16Z"
   />
   <path
    class="cls-18"
    d="M201.19,195.18h-.13a.71.71,0,0,1-.58-.83c6.13-33.68-15.79-42.61-16-42.7a.71.71,0,0,1-.41-.92.7.7,0,0,1,.92-.41c.24.09,23.25,9.46,16.91,44.28A.72.72,0,0,1,201.19,195.18Z"
   />
   <path
    class="cls-18"
    d="M170.72,198.46a.73.73,0,0,1-.72-.71c-.31-20.47,13-45.41,13.13-45.66a.72.72,0,0,1,1.26.68c-.13.25-13.27,24.86-12.95,45a.73.73,0,0,1-.71.73Z"
   />
   <path
    class="cls-18"
    d="M168.2,197.83a.73.73,0,0,1-.72-.71c-.31-20.47,13.31-45.63,13.45-45.88a.72.72,0,0,1,1.26.69c-.14.25-13.59,25.08-13.28,45.17a.72.72,0,0,1-.7.73Z"
   />
   <path
    class="cls-18"
    d="M173.14,199.48h0a.71.71,0,0,1-.68-.74c.91-23.43,12.49-44.84,12.61-45.05a.71.71,0,0,1,1-.29.72.72,0,0,1,.28,1c-.11.21-11.53,21.34-12.44,44.42A.71.71,0,0,1,173.14,199.48Z"
   />
   <path
    class="cls-18"
    d="M178,200.5a.72.72,0,0,1-.71-.68c-1.12-19.89,11.64-43.68,11.77-43.92a.71.71,0,0,1,1-.29.73.73,0,0,1,.29,1c-.13.24-12.69,23.68-11.6,43.16a.72.72,0,0,1-.68.76Z"
   />
   <path
    class="cls-18"
    d="M175.62,200.5a.71.71,0,0,1-.71-.68c-1.12-19.89,11.89-44.77,12-45a.72.72,0,1,1,1.27.67c-.13.25-13,24.78-11.86,44.27a.72.72,0,0,1-.68.76Z"
   />
   <path
    class="cls-18"
    d="M180.41,201.66a.72.72,0,0,1-.71-.66c-1.76-19.7,10.82-43.29,11-43.52a.72.72,0,0,1,1.26.68c-.13.23-12.51,23.44-10.78,42.72a.72.72,0,0,1-.65.77Z"
   />
   <path
    class="cls-18"
    d="M195.78,164.43l-.18,0c-.65-.17-2.17-.46-3.17-.65l-.81-.16a.71.71,0,1,1,.28-1.4l.8.15c1.08.21,2.56.49,3.25.67a.72.72,0,0,1-.17,1.41Z"
   />
   <path
    class="cls-18"
    d="M198.48,172.46a.62.62,0,0,1-.23,0l-1.1-.37c-2.26-.76-6.45-2.18-8.08-2.59a.71.71,0,0,1-.51-.87.72.72,0,0,1,.87-.52c1.67.43,5.74,1.8,8.17,2.62l1.11.37a.73.73,0,0,1,.45.91A.72.72,0,0,1,198.48,172.46Z"
   />
   <path
    class="cls-18"
    d="M199.62,175.24a.85.85,0,0,1-.23,0l-1.42-.49a77,77,0,0,0-9.75-2.91.71.71,0,1,1,.22-1.41,75.81,75.81,0,0,1,10,3l1.41.48a.72.72,0,0,1-.23,1.4Z"
   />
   <path
    class="cls-18"
    d="M200.15,177.74a.69.69,0,0,1-.25,0,55,55,0,0,0-11.76-3.21.72.72,0,0,1-.63-.79.73.73,0,0,1,.8-.63,56.28,56.28,0,0,1,12.08,3.28.73.73,0,0,1,.43.92A.72.72,0,0,1,200.15,177.74Z"
   />
   <path
    class="cls-18"
    d="M200.15,180.19a.78.78,0,0,1-.26,0,69.43,69.43,0,0,0-13.36-3.67.71.71,0,0,1-.6-.81.72.72,0,0,1,.81-.61,71.62,71.62,0,0,1,13.66,3.75.71.71,0,0,1,.42.92A.72.72,0,0,1,200.15,180.19Z"
   />
   <path
    class="cls-18"
    d="M200.15,182.67a.65.65,0,0,1-.36-.1c-2.89-1.69-7.45-2.53-11.47-3.27-1-.18-1.93-.36-2.8-.54a.7.7,0,0,1-.56-.84.72.72,0,0,1,.85-.56c.86.18,1.8.35,2.77.53,4.13.77,8.82,1.63,11.93,3.45a.72.72,0,0,1-.36,1.33Z"
   />
   <path
    class="cls-18"
    d="M184.73,182.43a.72.72,0,0,1-.32-1.36l2.84-1.39a.71.71,0,1,1,.63,1.28l-2.84,1.4A.7.7,0,0,1,184.73,182.43Z"
   />
   <path
    class="cls-18"
    d="M183.14,185.37a.72.72,0,1,1,0-1.43,60.42,60.42,0,0,0,6.63-3.54.71.71,0,1,1,.72,1.23C187.59,183.34,184,185.37,183.14,185.37Z"
   />
   <path
    class="cls-18"
    d="M183.26,187.75l-.2,0a.71.71,0,1,1,.33-1.39c.81,0,5.87-2.72,10.06-5.23a.72.72,0,1,1,.73,1.23C190,184.84,184.82,187.75,183.26,187.75Z"
   />
   <path
    class="cls-18"
    d="M183.21,190.11h-.12a.72.72,0,0,1-.67-.77.7.7,0,0,1,.76-.66c1.62.12,8.44-4.25,12.33-7a.72.72,0,0,1,1,.16.71.71,0,0,1-.17,1C194.62,184.05,186,190.11,183.21,190.11Z"
   />
   <path
    class="cls-18"
    d="M178.37,154.75a.85.85,0,0,1-.23,0c-.66-.22-1.28-1.19-1.52-1.59a.72.72,0,0,1,.26-1,.7.7,0,0,1,1,.26,3.62,3.62,0,0,0,.77,1,.72.72,0,0,1,.44.9A.73.73,0,0,1,178.37,154.75Z"
   />
   <path
    class="cls-18"
    d="M175.33,160.41a.7.7,0,0,1-.31-.07c-1.26-.6-3-3.47-3.32-4a.72.72,0,1,1,1.24-.72c.73,1.26,2.06,3.17,2.7,3.47a.71.71,0,0,1-.31,1.36Z"
   />
   <path
    class="cls-18"
    d="M173.24,165.4a.67.67,0,0,1-.24,0c-1.22-.44-4.17-4.33-5.38-6a.71.71,0,0,1,.15-1,.72.72,0,0,1,1,.16c1.79,2.44,4.1,5.22,4.71,5.47a.73.73,0,0,1,.42.92A.72.72,0,0,1,173.24,165.4Z"
   />
   <path
    class="cls-18"
    d="M172.32,167.57a.69.69,0,0,1-.47-.18A73.94,73.94,0,0,1,166.2,161a.72.72,0,0,1,.11-1,.7.7,0,0,1,1,.11,77.09,77.09,0,0,0,5.49,6.2.72.72,0,0,1-.48,1.25Z"
   />
   <path
    class="cls-18"
    d="M170.77,171.11h-.11c-1.85-.3-7-5.66-8.48-7.29a.72.72,0,0,1,0-1,.73.73,0,0,1,1,0c3,3.18,6.72,6.71,7.65,6.86a.71.71,0,0,1-.11,1.42Z"
   />
   <path
    class="cls-18"
    d="M169.08,173.61a.68.68,0,0,1-.33-.09c-1.37-.71-6.74-6.42-7.8-7.55a.72.72,0,0,1,1.05-1c2.39,2.56,6.52,6.8,7.41,7.27a.71.71,0,0,1-.33,1.35Z"
   />
   <path
    class="cls-18"
    d="M156.84,171.59h-.19a.7.7,0,0,1-.63-.79.72.72,0,0,1,.79-.63c.4,0,3.14-.27,5.56-.58a.7.7,0,0,1,.8.61.72.72,0,0,1-.61.81C161.43,171.14,157.88,171.59,156.84,171.59Z"
   />
   <path
    class="cls-18"
    d="M154.88,174h-.15a.72.72,0,0,1-.69-.74.71.71,0,0,1,.75-.69c1.24,0,7.26-.76,9.48-1.07a.72.72,0,0,1,.2,1.42C164.15,173,156.78,174,154.88,174Z"
   />
   <path
    class="cls-18"
    d="M154.76,178.78a.7.7,0,0,1-.68-.5.71.71,0,0,1,.46-.9c2.06-.66,9.3-1.65,12.79-2.12.88-.12,1.47-.2,1.59-.23l.16.7.61.37c-.18.3-.18.3-2.17.58-3.17.43-10.6,1.44-12.54,2.06A.6.6,0,0,1,154.76,178.78Z"
   />
   <path
    class="cls-18"
    d="M155.94,181a.71.71,0,0,1-.22-1.39c2-.65,11.94-2.22,12.36-2.28a.71.71,0,0,1,.82.59.72.72,0,0,1-.6.82c-.1,0-10.24,1.62-12.14,2.23A.83.83,0,0,1,155.94,181Z"
   />
   <path
    class="cls-18"
    d="M156.73,183.21a.72.72,0,0,1-.06-1.43c2.25-.19,10.45-1.46,10.53-1.47a.72.72,0,0,1,.82.6.71.71,0,0,1-.6.81c-.34.06-8.33,1.3-10.63,1.49Z"
   />
   <path
    class="cls-18"
    d="M158.26,185.93c-.65,0-.79-.14-.91-.25a.72.72,0,0,1,.81-1.16,70.58,70.58,0,0,0,9-1.68.71.71,0,0,1,.33,1.39C161.7,185.58,159.31,185.93,158.26,185.93Z"
   />
   <path
    class="cls-18"
    d="M158.72,188.78a.75.75,0,0,1-.44-.1.72.72,0,0,1,.54-1.31,69.13,69.13,0,0,0,7.71-2.23.72.72,0,0,1,.91.46.71.71,0,0,1-.46.9C161.24,188.4,159.41,188.78,158.72,188.78Z"
   />
   <path
    class="cls-18"
    d="M160.79,191.16h0a.72.72,0,0,1,0-1.43h0a35.62,35.62,0,0,0,5.69-2A.72.72,0,0,1,167,189C165.84,189.51,161.85,191.16,160.79,191.16Z"
   />
   <path
    class="cls-18"
    d="M162.46,193.86a.71.71,0,0,1-.65-.42.72.72,0,0,1,.36-.95l4.3-1.9a.71.71,0,0,1,.94.36.73.73,0,0,1-.36,1l-4.3,1.9A.72.72,0,0,1,162.46,193.86Z"
   />
   <path
    class="cls-18"
    d="M153.93,176.45a.72.72,0,0,1-.1-1.43l12.83-1.82a.72.72,0,0,1,.2,1.42L154,176.44Z"
   />
   <path
    class="cls-18"
    d="M157.85,157.54a.69.69,0,0,1-.46-.18.7.7,0,0,1-.08-1,40.55,40.55,0,0,1,24.07-13.85.71.71,0,1,1,.16,1.42,39.88,39.88,0,0,0-23.15,13.36A.72.72,0,0,1,157.85,157.54Z"
   />
   <path
    class="cls-18"
    d="M210.39,181h0a.71.71,0,0,1-.72-.71c0-20.76-12.13-30.13-12.25-30.23a.72.72,0,0,1-.15-1,.71.71,0,0,1,1-.14c.53.39,12.85,9.9,12.83,31.37A.71.71,0,0,1,210.39,181Z"
   />
   <path
    class="cls-18"
    d="M173.83,162.54a.69.69,0,0,1-.53-.24c-.73-.79-3.61-4-3.61-4l1.07-.95s2.87,3.21,3.59,4a.71.71,0,0,1,0,1A.7.7,0,0,1,173.83,162.54Z"
   />
   <path
    class="cls-18"
    d="M170.72,168.6a.69.69,0,0,1-.41-.13,72.68,72.68,0,0,1-5.56-5.53.71.71,0,0,1,0-1,.72.72,0,0,1,1,0,73.8,73.8,0,0,0,5.32,5.32.72.72,0,0,1,.19,1A.73.73,0,0,1,170.72,168.6Z"
   />
   <path
    class="cls-18"
    d="M176.47,158.53a.69.69,0,0,1-.28-.05c-.16-.06-.64-.25-3.27-3.35a.72.72,0,0,1,1.09-.93,30.67,30.67,0,0,0,2.76,3,.69.69,0,0,1,.38.91A.72.72,0,0,1,176.47,158.53Z"
   />
   <path
    class="cls-18"
    d="M177.25,157a1,1,0,0,1-.25,0,7.39,7.39,0,0,1-2.26-2.48.72.72,0,1,1,1.18-.82,11.66,11.66,0,0,0,1.61,2,.69.69,0,0,1,.41.9A.74.74,0,0,1,177.25,157Z"
   />
   <path
    class="cls-18"
    d="M158.65,169.17a.7.7,0,0,1-.7-.57.71.71,0,0,1,.55-.84l2.83-.58a.71.71,0,1,1,.29,1.4l-2.83.58Z"
   />
   <path
    class="cls-18"
    d="M198.42,169.9a.56.56,0,0,1-.25-.05c-.61-.23-5.3-1.5-8.3-2.3a.72.72,0,0,1-.51-.88.71.71,0,0,1,.88-.5c.77.2,7.56,2,8.44,2.35a.71.71,0,0,1-.26,1.38Z"
   />
   <path
    class="cls-18"
    d="M196.73,167.07a.71.71,0,0,1-.41-.13c-.33-.16-3.28-.92-5.92-1.56a.72.72,0,1,1,.34-1.39,43.46,43.46,0,0,1,6.4,1.78.71.71,0,0,1-.41,1.3Z"
   />
   <ellipse class="cls-18" cx="193.59" cy="161.28" rx="0.6" ry="0.54" />
   <ellipse class="cls-18" cx="179.36" cy="152.01" rx="0.79" ry="0.42" />
   <path
    class="cls-18"
    d="M164.37,195.18a.72.72,0,0,1-.24-1.39l1.86-.68a.72.72,0,0,1,.92.43.71.71,0,0,1-.43.92l-1.86.68A.73.73,0,0,1,164.37,195.18Z"
   />
   <ellipse
    class="cls-18"
    cx="166.73"
    cy="196.23"
    rx="0.9"
    ry="0.47"
    transform="matrix(0.82, -0.58, 0.58, 0.82, -82.65, 132.08)"
   />
   <path
    class="cls-18"
    d="M182.42,192.91a.72.72,0,0,1-.3-1.37c3.81-1.72,14.08-6.61,15.77-8.48a.72.72,0,1,1,1.06,1c-2.2,2.43-14.81,8.18-16.24,8.83A.79.79,0,0,1,182.42,192.91Z"
   />
   <path
    class="cls-18"
    d="M181.86,196.3a.71.71,0,0,1-.29-1.36c4.41-2,16.23-7.73,18-10.65a.72.72,0,1,1,1.23.73c-2.28,3.84-16.94,10.48-18.6,11.22A.8.8,0,0,1,181.86,196.3Z"
   />
   <path
    class="cls-18"
    d="M181.86,198.78a.72.72,0,0,1-.64-.4.72.72,0,0,1,.33-1c8.37-4,17.36-9,17.95-10.25a.71.71,0,0,1,.94-.36.73.73,0,0,1,.36.95c-1.09,2.38-15.71,9.54-18.63,11A.67.67,0,0,1,181.86,198.78Z"
   />
   <path
    class="cls-18"
    d="M182.41,200.5a.72.72,0,0,1-.26-1.38c6.77-2.74,16.62-7.34,17.34-9a.71.71,0,1,1,1.31.57c-1.21,2.75-15.3,8.58-18.12,9.72A.81.81,0,0,1,182.41,200.5Z"
   />
   <path
    class="cls-18"
    d="M184.73,201.66a.72.72,0,0,1-.26-1.39c6.63-2.58,13.88-5.73,14.55-6.53a.69.69,0,0,1,1-.25.73.73,0,0,1,.26,1c-.77,1.37-10.93,5.44-15.25,7.13A.85.85,0,0,1,184.73,201.66Z"
   />
   <path
    class="cls-18"
    d="M211.56,174a.72.72,0,0,1-.71-.6c-2.77-17.32-9.39-22.3-10-22.71a.7.7,0,0,1-.51-.66.74.74,0,0,1,.65-.74c1.1-.06,8.42,6.07,11.27,23.88a.72.72,0,0,1-.6.82Z"
   />
   <path
    class="cls-1"
    d="M182.41,142.34a29.88,29.88,0,1,1-29.87,29.88,29.88,29.88,0,0,1,29.87-29.88m0-3.61a33.49,33.49,0,1,0,33.49,33.49,33.52,33.52,0,0,0-33.49-33.49Z"
   />
  </g>
 </g>
</svg>