<svg xmlns="http://www.w3.org/2000/svg" viewBox="0 0 32.13 23.57"><defs><style>.cls-1,.cls-3{fill:none;stroke:#747f9d;stroke-miterlimit:10;stroke-width:2px;}.cls-2{fill:#747f9d;}.cls-3{stroke-linecap:round;}</style></defs><g id="Layer_2" data-name="Layer 2"><g id="Layer_1-2" data-name="Layer 1"><path class="cls-1" d="M20,19.85a12.55,12.55,0,0,1-8,2.71C5.89,22.56,1,18.8,1,14.18S5.89,5.8,11.92,5.8c4.63,0,8.58,2.2,10.17,5.32"/><path class="cls-1" d="M3.75,8.67c-.1-2,.14-6.76,1.79-7.61C6.66.51,9.47,4,10.24,5.72"/><path class="cls-1" d="M20.1,8.67c.11-2.1-.15-6.8-1.79-7.61C17.2.51,14.37,4,13.6,5.72"/><path class="cls-2" d="M11.93,14.08c-.63,0-1.73.05-1.73.5a3.74,3.74,0,0,0,1.73,1.82c.36,0,1.72-1.23,1.72-1.82S12.55,14.08,11.93,14.08Z"/><path class="cls-1" d="M11.92,15.7v3.68"/><path class="cls-3" d="M7.87,16.91a4.42,4.42,0,0,0,4.05,2.47,4.38,4.38,0,0,0,2.39-.64A4.44,4.44,0,0,0,16,16.91"/><path class="cls-3" d="M25,22.56a6.1,6.1,0,1,0-6.1-6.09A6.1,6.1,0,0,0,25,22.56Z"/><path class="cls-1" d="M19.06,17.74C21.35,12.2,29.94,13,31,17.48"/><path class="cls-1" d="M26.38,14.06c1.31,2.49-.13,7.07-3.83,7.88"/><path class="cls-3" d="M8.88,12.72a1.67,1.67,0,0,0,1.78-1.53A1.67,1.67,0,0,0,8.88,9.67,1.66,1.66,0,0,0,7.1,11.19,1.66,1.66,0,0,0,8.88,12.72Z"/><path class="cls-3" d="M15,12.72a1.67,1.67,0,0,0,1.78-1.53A1.67,1.67,0,0,0,15,9.67a1.66,1.66,0,0,0-1.78,1.52A1.66,1.66,0,0,0,15,12.72Z"/></g></g></svg>