<svg xmlns="http://www.w3.org/2000/svg" viewBox="0 0 32.12 23.52"><defs><style>.cls-1,.cls-2{fill:none;stroke:#ff9e16;stroke-miterlimit:10;stroke-width:2px;}.cls-2{stroke-linecap:round;}.cls-3{fill:#ff9e16;}</style></defs><g id="Layer_2" data-name="Layer 2"><g id="Layer_1-2" data-name="Layer 1"><path class="cls-1" d="M17.85,21.22a13.5,13.5,0,0,1-5.93,1.3C5.85,22.52,1,18.81,1,14.18S5.88,5.8,11.92,5.8c5.64,0,10.35,3.3,10.86,7.53"/><path class="cls-1" d="M3.74,8.67c-.11-2.1.14-6.81,1.79-7.61C6.64.51,9.46,4,10.23,5.76"/><path class="cls-1" d="M20.09,8.67c.12-2.1-.14-6.81-1.78-7.61C17.2.51,14.37,4,13.6,5.76"/><path class="cls-1" d="M11.92,15.7v3.68"/><path class="cls-2" d="M7.87,16.87a4.38,4.38,0,0,0,4.05,2.47A4.41,4.41,0,0,0,16,16.87"/><path class="cls-2" d="M8.87,12.72a1.67,1.67,0,0,0,1.78-1.53A1.67,1.67,0,0,0,8.87,9.67a1.67,1.67,0,0,0-1.78,1.52A1.67,1.67,0,0,0,8.87,12.72Z"/><path class="cls-2" d="M15,12.72a1.67,1.67,0,0,0,1.78-1.53A1.67,1.67,0,0,0,15,9.67a1.66,1.66,0,0,0-1.78,1.52A1.66,1.66,0,0,0,15,12.72Z"/><path class="cls-3" d="M11.92,14.05c-.62,0-1.72,0-1.72.49s1.35,1.82,1.72,1.82,1.73-1.23,1.73-1.82C13.65,14.13,12.55,14.05,11.92,14.05Z"/><path class="cls-1" d="M29.07,17.42a4.41,4.41,0,0,0,.1-.89,3.92,3.92,0,0,0-7.84-.24h-.94a3.28,3.28,0,0,0-1.2.23,3.2,3.2,0,0,0-1,.68,3.16,3.16,0,0,0-.92,2.22h0a3.11,3.11,0,0,0,.95,2.2,3.17,3.17,0,0,0,2.22.9h8.1a2.6,2.6,0,0,0,1.83-.76,2.62,2.62,0,0,0,.77-1.83h0a2.61,2.61,0,0,0-.59-1.61,2.7,2.7,0,0,0-1.46-.9Z"/></g></g></svg>