<svg xmlns="http://www.w3.org/2000/svg" viewBox="0 0 32.1 23.52"><defs><style>.cls-1,.cls-2,.cls-4{fill:none;stroke:#747f9d;stroke-width:2px;}.cls-1,.cls-2{stroke-miterlimit:10;}.cls-2{stroke-linecap:round;}.cls-3{fill:#747f9d;}.cls-4{stroke-linejoin:round;}</style></defs><g id="Layer_2" data-name="Layer 2"><g id="Layer_1-2" data-name="Layer 1"><path class="cls-1" d="M21.17,18.63a12,12,0,0,1-9.25,3.89C5.85,22.52,1,18.81,1,14.18S5.88,5.8,11.92,5.8c5,0,9.21,2.58,10.5,6.09"/><path class="cls-1" d="M3.74,8.67c-.11-2.1.14-6.81,1.79-7.61C6.64.51,9.46,4,10.23,5.76"/><path class="cls-1" d="M20.09,8.67c.12-2.1-.14-6.81-1.78-7.61C17.2.51,14.37,4,13.6,5.76"/><path class="cls-1" d="M11.92,15.7v3.68"/><path class="cls-2" d="M7.87,16.87a4.38,4.38,0,0,0,4.05,2.47A4.41,4.41,0,0,0,16,16.87"/><path class="cls-2" d="M8.87,12.72a1.67,1.67,0,0,0,1.78-1.53A1.67,1.67,0,0,0,8.87,9.67a1.67,1.67,0,0,0-1.78,1.52A1.67,1.67,0,0,0,8.87,12.72Z"/><path class="cls-2" d="M15,12.72a1.67,1.67,0,0,0,1.78-1.53A1.67,1.67,0,0,0,15,9.67a1.66,1.66,0,0,0-1.78,1.52A1.66,1.66,0,0,0,15,12.72Z"/><path class="cls-3" d="M11.92,14.05c-.62,0-1.72,0-1.72.49s1.35,1.82,1.72,1.82,1.73-1.23,1.73-1.82C13.65,14.13,12.55,14.05,11.92,14.05Z"/><path class="cls-4" d="M25.45,22.52A10.12,10.12,0,0,0,31.1,13.3l-5.65-2.82L19.8,13.3S19.49,19.77,25.45,22.52Z"/><path class="cls-4" d="M28.45,14.82,25,18.25l-2.09-2.08"/></g></g></svg>