<?xml version="1.0" encoding="utf-8"?>
<svg version="1.1" viewBox="0 0 760 248" fill="none" stroke="none" stroke-linecap="square" stroke-miterlimit="10" xmlns="http://www.w3.org/2000/svg">
  <clipPath id="g9397c71bd2_1_435.0">
    <path d="m0 0l960.0 0l0 540.0l-960.0 0l0 -540.0z" clip-rule="nonzero"/>
  </clipPath>
  <g clip-path="url(#g9397c71bd2_1_435.0)">
    <path fill="#000000" fill-opacity="0.0" d="m528.0 24.0l208.0 0l0 200.0l-208.0 0z" fill-rule="evenodd"/>
    <path stroke="#b7b7b7" stroke-width="1.0" stroke-linejoin="round" stroke-linecap="butt" d="m528.0 24.0l208.0 0l0 200.0l-208.0 0z" fill-rule="evenodd"/>
    <path fill="#000000" d="m537.9844 45.8l0 -9.546875l1.875 0l3.90625 6.375l0 -6.375l1.796875 0l0 9.546875l-1.9375 0l-3.84375 -6.21875l0 6.21875l-1.796875 0zm9.171997 -3.546875q0 -0.921875 0.453125 -1.765625q0.453125 -0.859375 1.265625 -1.296875q0.828125 -0.453125 1.84375 -0.453125q1.5625 0 2.5625 1.015625q1.015625 1.015625 1.015625 2.578125q0 1.5625 -1.015625 2.59375q-1.015625 1.03125 -2.546875 1.03125q-0.953125 0 -1.8125 -0.421875q-0.859375 -0.4375 -1.3125 -1.265625q-0.453125 -0.828125 -0.453125 -2.015625zm1.875 0.09375q0 1.03125 0.484375 1.578125q0.5 0.546875 1.203125 0.546875q0.71875 0 1.203125 -0.546875q0.484375 -0.546875 0.484375 -1.59375q0 -1.015625 -0.484375 -1.5625q-0.484375 -0.546875 -1.203125 -0.546875q-0.703125 0 -1.203125 0.546875q-0.484375 0.546875 -0.484375 1.578125zm13.031982 3.453125l-1.703125 0l0 -1.015625q-0.421875 0.59375 -1.0 0.890625q-0.578125 0.28125 -1.15625 0.28125q-1.1875 0 -2.046875 -0.953125q-0.84375 -0.96875 -0.84375 -2.6875q0 -1.75 0.828125 -2.65625q0.828125 -0.921875 2.09375 -0.921875q1.15625 0 2.0 0.953125l0 -3.4375l1.828125 0l0 9.546875zm-4.875 -3.609375q0 1.109375 0.296875 1.609375q0.4375 0.71875 1.234375 0.71875q0.640625 0 1.078125 -0.53125q0.4375 -0.546875 0.4375 -1.609375q0 -1.203125 -0.4375 -1.71875q-0.421875 -0.53125 -1.09375 -0.53125q-0.640625 0 -1.078125 0.515625q-0.4375 0.515625 -0.4375 1.546875zm10.672607 1.40625l1.828125 0.3125q-0.34375 1.0 -1.109375 1.53125q-0.765625 0.515625 -1.890625 0.515625q-1.8125 0 -2.671875 -1.171875q-0.6875 -0.953125 -0.6875 -2.390625q0 -1.71875 0.890625 -2.6875q0.90625 -0.96875 2.28125 -0.96875q1.546875 0 2.4375 1.015625q0.890625 1.015625 0.84375 3.125l-4.578125 0q0.015625 0.8125 0.4375 1.265625q0.421875 0.453125 1.0625 0.453125q0.421875 0 0.71875 -0.234375q0.296875 -0.234375 0.4375 -0.765625zm0.109375 -1.84375q-0.015625 -0.796875 -0.40625 -1.203125q-0.390625 -0.421875 -0.953125 -0.421875q-0.59375 0 -0.984375 0.4375q-0.390625 0.4375 -0.390625 1.1875l2.734375 0zm12.7873535 2.34375l0 1.703125l-6.40625 0q0.109375 -0.96875 0.625 -1.828125q0.53125 -0.859375 2.0625 -2.28125q1.234375 -1.15625 1.515625 -1.5625q0.375 -0.5625 0.375 -1.125q0 -0.609375 -0.328125 -0.9375q-0.328125 -0.328125 -0.90625 -0.328125q-0.578125 0 -0.921875 0.34375q-0.328125 0.34375 -0.375 1.140625l-1.828125 -0.171875q0.15625 -1.515625 1.015625 -2.171875q0.859375 -0.65625 2.15625 -0.65625q1.40625 0 2.203125 0.765625q0.8125 0.75 0.8125 1.890625q0 0.640625 -0.234375 1.234375q-0.21875 0.578125 -0.71875 1.203125q-0.328125 0.4375 -1.203125 1.234375q-0.859375 0.78125 -1.09375 1.046875q-0.234375 0.25 -0.375 0.5l3.625 0z" fill-rule="nonzero"/>
    <path fill="#000000" fill-opacity="0.0" d="m240.0 24.0l208.0 0l0 200.0l-208.0 0z" fill-rule="evenodd"/>
    <path stroke="#b7b7b7" stroke-width="1.0" stroke-linejoin="round" stroke-linecap="butt" d="m240.0 24.0l208.0 0l0 200.0l-208.0 0z" fill-rule="evenodd"/>
    <path fill="#000000" d="m249.98438 45.8l0 -9.546875l1.875 0l3.90625 6.375l0 -6.375l1.796875 0l0 9.546875l-1.9375 0l-3.84375 -6.21875l0 6.21875l-1.796875 0zm9.172028 -3.546875q0 -0.921875 0.453125 -1.765625q0.453125 -0.859375 1.265625 -1.296875q0.828125 -0.453125 1.84375 -0.453125q1.5625 0 2.5625 1.015625q1.015625 1.015625 1.015625 2.578125q0 1.5625 -1.015625 2.59375q-1.015625 1.03125 -2.546875 1.03125q-0.953125 0 -1.8125 -0.421875q-0.859375 -0.4375 -1.3125 -1.265625q-0.453125 -0.828125 -0.453125 -2.015625zm1.875 0.09375q0 1.03125 0.484375 1.578125q0.5 0.546875 1.203125 0.546875q0.71875 0 1.203125 -0.546875q0.484375 -0.546875 0.484375 -1.59375q0 -1.015625 -0.484375 -1.5625q-0.484375 -0.546875 -1.203125 -0.546875q-0.703125 0 -1.203125 0.546875q-0.484375 0.546875 -0.484375 1.578125zm13.031982 3.453125l-1.703125 0l0 -1.015625q-0.421875 0.59375 -1.0 0.890625q-0.578125 0.28125 -1.15625 0.28125q-1.1875 0 -2.046875 -0.953125q-0.84375 -0.96875 -0.84375 -2.6875q0 -1.75 0.828125 -2.65625q0.828125 -0.921875 2.09375 -0.921875q1.15625 0 2.0 0.953125l0 -3.4375l1.828125 0l0 9.546875zm-4.875 -3.609375q0 1.109375 0.296875 1.609375q0.4375 0.71875 1.234375 0.71875q0.640625 0 1.078125 -0.53125q0.4375 -0.546875 0.4375 -1.609375q0 -1.203125 -0.4375 -1.71875q-0.421875 -0.53125 -1.09375 -0.53125q-0.640625 0 -1.078125 0.515625q-0.4375 0.515625 -0.4375 1.546875zm10.672607 1.40625l1.828125 0.3125q-0.34375 1.0 -1.109375 1.53125q-0.765625 0.515625 -1.890625 0.515625q-1.8125 0 -2.671875 -1.171875q-0.6875 -0.953125 -0.6875 -2.390625q0 -1.71875 0.890625 -2.6875q0.90625 -0.96875 2.28125 -0.96875q1.546875 0 2.4375 1.015625q0.890625 1.015625 0.84375 3.125l-4.578125 0q0.015625 0.8125 0.4375 1.265625q0.421875 0.453125 1.0625 0.453125q0.421875 0 0.71875 -0.234375q0.296875 -0.234375 0.4375 -0.765625zm0.109375 -1.84375q-0.015625 -0.796875 -0.40625 -1.203125q-0.390625 -0.421875 -0.953125 -0.421875q-0.59375 0 -0.984375 0.4375q-0.390625 0.4375 -0.390625 1.1875l2.734375 0zm11.302948 4.046875l-1.828125 0l0 -6.890625q-1.0 0.9375 -2.375 1.390625l0 -1.671875q0.71875 -0.234375 1.5625 -0.875q0.84375 -0.65625 1.15625 -1.53125l1.484375 0l0 9.578125z" fill-rule="nonzero"/>
    <path fill="#eeeeee" d="m24.0 80.0l96.0 0l0 88.0l-96.0 0z" fill-rule="evenodd"/>
    <path stroke="#595959" stroke-width="1.0" stroke-linejoin="round" stroke-linecap="butt" d="m24.0 80.0l96.0 0l0 88.0l-96.0 0z" fill-rule="evenodd"/>
    <path fill="#000000" d="m46.67041 120.8l0 -9.546875l7.078125 0l0 1.625l-5.15625 0l0 2.109375l4.796875 0l0 1.609375l-4.796875 0l0 2.59375l5.328125 0l0 1.609375l-7.25 0zm7.9991302 0l2.5 -3.5625l-2.390625 -3.34375l2.234375 0l1.21875 1.890625l1.28125 -1.890625l2.15625 0l-2.34375 3.265625l2.546875 3.640625l-2.234375 0l-1.40625 -2.140625l-1.421875 2.140625l-2.140625 0zm11.459351 -6.90625l0 1.453125l-1.25 0l0 2.78125q0 0.84375 0.03125 0.984375q0.046875 0.140625 0.171875 0.234375q0.125 0.09375 0.3125 0.09375q0.25 0 0.734375 -0.171875l0.15625 1.421875q-0.640625 0.265625 -1.453125 0.265625q-0.484375 0 -0.890625 -0.15625q-0.390625 -0.171875 -0.578125 -0.4375q-0.1875 -0.265625 -0.265625 -0.71875q-0.046875 -0.3125 -0.046875 -1.28125l0 -3.015625l-0.84375 0l0 -1.453125l0.84375 0l0 -1.375l1.828125 -1.078125l0 2.453125l1.25 0zm5.2664948 4.703125l1.828125 0.3125q-0.34375 1.0 -1.109375 1.53125q-0.765625 0.515625 -1.890625 0.515625q-1.8125 0 -2.671875 -1.171875q-0.6875 -0.953125 -0.6875 -2.390625q0 -1.71875 0.890625 -2.6875q0.90625 -0.96875 2.28125 -0.96875q1.546875 0 2.4375 1.015625q0.890625 1.015625 0.84375 3.125l-4.578125 0q0.015625 0.8125 0.4375 1.265625q0.421875 0.453125 1.0625 0.453125q0.421875 0 0.71875 -0.234375q0.296875 -0.234375 0.4375 -0.765625zm0.109375 -1.84375q-0.015625 -0.796875 -0.40625 -1.203125q-0.390625 -0.421875 -0.953125 -0.421875q-0.59375 0 -0.984375 0.4375q-0.390625 0.4375 -0.390625 1.1875l2.734375 0zm5.0531006 4.046875l-1.828125 0l0 -6.90625l1.703125 0l0 0.984375q0.4375 -0.703125 0.78125 -0.921875q0.34375 -0.21875 0.796875 -0.21875q0.625 0 1.203125 0.34375l-0.5625 1.59375q-0.46875 -0.296875 -0.859375 -0.296875q-0.390625 0 -0.65625 0.21875q-0.265625 0.203125 -0.421875 0.765625q-0.15625 0.546875 -0.15625 2.296875l0 2.140625zm9.733658 0l-1.828125 0l0 -3.53125q0 -1.109375 -0.125 -1.4375q-0.109375 -0.328125 -0.375 -0.515625q-0.265625 -0.1875 -0.640625 -0.1875q-0.46875 0 -0.859375 0.265625q-0.375 0.265625 -0.515625 0.703125q-0.140625 0.421875 -0.140625 1.578125l0 3.125l-1.828125 0l0 -6.90625l1.703125 0l0 1.015625q0.90625 -1.171875 2.28125 -1.171875q0.609375 0 1.109375 0.21875q0.5 0.21875 0.75 0.5625q0.265625 0.328125 0.359375 0.765625q0.109375 0.421875 0.109375 1.21875l0 4.296875zm3.2194824 -4.796875l-1.671875 -0.3125q0.28125 -1.0 0.96875 -1.46875q0.6875 -0.484375 2.03125 -0.484375q1.21875 0 1.8125 0.296875q0.609375 0.28125 0.84375 0.734375q0.25 0.4375 0.25 1.625l-0.015625 2.140625q0 0.90625 0.078125 1.34375q0.09375 0.421875 0.34375 0.921875l-1.8125 0q-0.078125 -0.1875 -0.171875 -0.546875q-0.046875 -0.15625 -0.078125 -0.203125q-0.46875 0.453125 -1.0 0.6875q-0.53125 0.21875 -1.140625 0.21875q-1.0625 0 -1.6875 -0.578125q-0.609375 -0.578125 -0.609375 -1.46875q0 -0.578125 0.28125 -1.03125q0.28125 -0.46875 0.78125 -0.703125q0.515625 -0.25 1.46875 -0.4375q1.28125 -0.234375 1.765625 -0.453125l0 -0.171875q0 -0.53125 -0.265625 -0.75q-0.25 -0.234375 -0.96875 -0.234375q-0.484375 0 -0.765625 0.203125q-0.265625 0.1875 -0.4375 0.671875zm2.4375 1.484375q-0.34375 0.109375 -1.109375 0.28125q-0.765625 0.15625 -1.0 0.3125q-0.359375 0.25 -0.359375 0.640625q0 0.390625 0.28125 0.671875q0.296875 0.28125 0.734375 0.28125q0.5 0 0.953125 -0.328125q0.328125 -0.25 0.4375 -0.609375q0.0625 -0.234375 0.0625 -0.890625l0 -0.359375zm3.5999756 3.3125l0 -9.546875l1.828125 0l0 9.546875l-1.828125 0z" fill-rule="nonzero"/>
    <path fill="#000000" d="m60.56646 133.3l1.859375 0.578125q-0.421875 1.5625 -1.421875 2.328125q-1.0 0.75 -2.53125 0.75q-1.90625 0 -3.140625 -1.296875q-1.21875 -1.296875 -1.21875 -3.546875q0 -2.375 1.234375 -3.6875q1.234375 -1.328125 3.234375 -1.328125q1.75 0 2.84375 1.03125q0.65625 0.609375 0.984375 1.765625l-1.90625 0.453125q-0.171875 -0.75 -0.71875 -1.171875q-0.53125 -0.4375 -1.296875 -0.4375q-1.0625 0 -1.734375 0.765625q-0.65625 0.765625 -0.65625 2.46875q0 1.8125 0.65625 2.578125q0.65625 0.765625 1.6875 0.765625q0.78125 0 1.328125 -0.484375q0.546875 -0.484375 0.796875 -1.53125zm3.5001526 3.5l0 -9.546875l1.828125 0l0 9.546875l-1.828125 0zm3.7029877 -7.84375l0 -1.703125l1.828125 0l0 1.703125l-1.828125 0zm0 7.84375l0 -6.90625l1.828125 0l0 6.90625l-1.828125 0zm7.7029877 -2.203125l1.828125 0.3125q-0.34375 1.0 -1.109375 1.53125q-0.765625 0.515625 -1.890625 0.515625q-1.8125 0 -2.671875 -1.171875q-0.6875 -0.953125 -0.6875 -2.390625q0 -1.71875 0.890625 -2.6875q0.90625 -0.96875 2.28125 -0.96875q1.546875 0 2.4375 1.015625q0.890625 1.015625 0.84375 3.125l-4.578125 0q0.015625 0.8125 0.4375 1.265625q0.421875 0.453125 1.0625 0.453125q0.421875 0 0.71875 -0.234375q0.296875 -0.234375 0.4375 -0.765625zm0.109375 -1.84375q-0.015625 -0.796875 -0.40625 -1.203125q-0.390625 -0.421875 -0.953125 -0.421875q-0.59375 0 -0.984375 0.4375q-0.390625 0.4375 -0.390625 1.1875l2.734375 0zm9.599976 4.046875l-1.828125 0l0 -3.53125q0 -1.109375 -0.125 -1.4375q-0.109375 -0.328125 -0.375 -0.515625q-0.265625 -0.1875 -0.640625 -0.1875q-0.46875 0 -0.859375 0.265625q-0.375 0.265625 -0.515625 0.703125q-0.140625 0.421875 -0.140625 1.578125l0 3.125l-1.828125 0l0 -6.90625l1.703125 0l0 1.015625q0.90625 -1.171875 2.28125 -1.171875q0.609375 0 1.109375 0.21875q0.5 0.21875 0.75 0.5625q0.265625 0.328125 0.359375 0.765625q0.109375 0.421875 0.109375 1.21875l0 4.296875zm5.0163574 -6.90625l0 1.453125l-1.25 0l0 2.78125q0 0.84375 0.03125 0.984375q0.046875 0.140625 0.171875 0.234375q0.125 0.09375 0.3125 0.09375q0.25 0 0.734375 -0.171875l0.15625 1.421875q-0.640625 0.265625 -1.453125 0.265625q-0.484375 0 -0.890625 -0.15625q-0.390625 -0.171875 -0.578125 -0.4375q-0.1875 -0.265625 -0.265625 -0.71875q-0.046875 -0.3125 -0.046875 -1.28125l0 -3.015625l-0.84375 0l0 -1.453125l0.84375 0l0 -1.375l1.828125 -1.078125l0 2.453125l1.25 0z" fill-rule="nonzero"/>
    <path fill="#eeeeee" d="m296.0 80.0l96.0 0l0 88.0l-96.0 0z" fill-rule="evenodd"/>
    <path stroke="#595959" stroke-width="1.0" stroke-linejoin="round" stroke-linecap="butt" d="m296.0 80.0l96.0 0l0 88.0l-96.0 0z" fill-rule="evenodd"/>
    <path fill="#000000" d="m323.39655 112.8l0 -9.546875l1.25 0l0 9.546875l-1.25 0zm3.328003 0l0 -6.90625l1.0625 0l0 0.984375q0.75 -1.140625 2.1875 -1.140625q0.625 0 1.15625 0.21875q0.53125 0.21875 0.78125 0.59375q0.265625 0.359375 0.375 0.859375q0.0625 0.328125 0.0625 1.140625l0 4.25l-1.171875 0l0 -4.203125q0 -0.71875 -0.140625 -1.0625q-0.140625 -0.359375 -0.484375 -0.5625q-0.34375 -0.21875 -0.8125 -0.21875q-0.75 0 -1.296875 0.46875q-0.546875 0.46875 -0.546875 1.796875l0 3.78125l-1.171875 0zm7.1937256 0.578125l1.140625 0.15625q0.078125 0.53125 0.40625 0.78125q0.4375 0.3125 1.1875 0.3125q0.8125 0 1.25 -0.328125q0.453125 -0.3125 0.609375 -0.90625q0.09375 -0.359375 0.078125 -1.5q-0.765625 0.90625 -1.90625 0.90625q-1.4375 0 -2.21875 -1.03125q-0.78125 -1.03125 -0.78125 -2.46875q0 -0.984375 0.359375 -1.8125q0.359375 -0.84375 1.03125 -1.296875q0.6875 -0.453125 1.609375 -0.453125q1.21875 0 2.015625 0.984375l0 -0.828125l1.078125 0l0 5.96875q0 1.609375 -0.328125 2.28125q-0.328125 0.6875 -1.046875 1.078125q-0.703125 0.390625 -1.75 0.390625q-1.234375 0 -2.0 -0.5625q-0.75 -0.5625 -0.734375 -1.671875zm0.984375 -4.15625q0 1.359375 0.53125 1.984375q0.546875 0.625 1.359375 0.625q0.796875 0 1.34375 -0.625q0.546875 -0.625 0.546875 -1.953125q0 -1.265625 -0.5625 -1.90625q-0.5625 -0.640625 -1.359375 -0.640625q-0.765625 0 -1.3125 0.640625q-0.546875 0.625 -0.546875 1.875zm6.6312256 3.578125l0 -6.90625l1.0625 0l0 1.046875q0.40625 -0.734375 0.734375 -0.96875q0.34375 -0.234375 0.765625 -0.234375q0.59375 0 1.203125 0.375l-0.40625 1.078125q-0.4375 -0.25 -0.859375 -0.25q-0.390625 0 -0.703125 0.234375q-0.296875 0.234375 -0.421875 0.640625q-0.203125 0.625 -0.203125 1.359375l0 3.625l-1.171875 0zm9.1883545 -2.21875l1.203125 0.140625q-0.28125 1.0625 -1.0625 1.65625q-0.765625 0.578125 -1.96875 0.578125q-1.515625 0 -2.40625 -0.9375q-0.890625 -0.9375 -0.890625 -2.609375q0 -1.75 0.890625 -2.703125q0.90625 -0.96875 2.34375 -0.96875q1.390625 0 2.265625 0.9375q0.875 0.9375 0.875 2.65625q0 0.109375 0 0.3125l-5.15625 0q0.0625 1.140625 0.640625 1.75q0.578125 0.59375 1.4375 0.59375q0.65625 0 1.109375 -0.328125q0.453125 -0.34375 0.71875 -1.078125zm-3.84375 -1.90625l3.859375 0q-0.078125 -0.859375 -0.4375 -1.296875q-0.5625 -0.6875 -1.453125 -0.6875q-0.8125 0 -1.359375 0.546875q-0.546875 0.53125 -0.609375 1.4375zm6.0531006 2.0625l1.15625 -0.1875q0.109375 0.703125 0.546875 1.078125q0.453125 0.359375 1.25 0.359375q0.8125 0 1.203125 -0.328125q0.390625 -0.328125 0.390625 -0.765625q0 -0.390625 -0.359375 -0.625q-0.234375 -0.15625 -1.1875 -0.390625q-1.296875 -0.328125 -1.796875 -0.5625q-0.484375 -0.25 -0.75 -0.65625q-0.25 -0.421875 -0.25 -0.9375q0 -0.453125 0.203125 -0.84375q0.21875 -0.40625 0.578125 -0.671875q0.28125 -0.1875 0.75 -0.328125q0.46875 -0.140625 1.015625 -0.140625q0.8125 0 1.421875 0.234375q0.609375 0.234375 0.90625 0.640625q0.296875 0.390625 0.40625 1.0625l-1.140625 0.15625q-0.078125 -0.53125 -0.453125 -0.828125q-0.375 -0.3125 -1.0625 -0.3125q-0.8125 0 -1.15625 0.265625q-0.34375 0.265625 -0.34375 0.625q0 0.234375 0.140625 0.421875q0.15625 0.1875 0.453125 0.3125q0.171875 0.0625 1.03125 0.296875q1.25 0.328125 1.734375 0.546875q0.5 0.203125 0.78125 0.609375q0.28125 0.40625 0.28125 1.0q0 0.59375 -0.34375 1.109375q-0.34375 0.515625 -1.0 0.796875q-0.640625 0.28125 -1.453125 0.28125q-1.34375 0 -2.046875 -0.5625q-0.703125 -0.5625 -0.90625 -1.65625zm6.6640625 0l1.15625 -0.1875q0.109375 0.703125 0.546875 1.078125q0.453125 0.359375 1.25 0.359375q0.8125 0 1.203125 -0.328125q0.390625 -0.328125 0.390625 -0.765625q0 -0.390625 -0.359375 -0.625q-0.234375 -0.15625 -1.1875 -0.390625q-1.296875 -0.328125 -1.796875 -0.5625q-0.484375 -0.25 -0.75 -0.65625q-0.25 -0.421875 -0.25 -0.9375q0 -0.453125 0.203125 -0.84375q0.21875 -0.40625 0.578125 -0.671875q0.28125 -0.1875 0.75 -0.328125q0.46875 -0.140625 1.015625 -0.140625q0.8125 0 1.421875 0.234375q0.609375 0.234375 0.90625 0.640625q0.296875 0.390625 0.40625 1.0625l-1.140625 0.15625q-0.078125 -0.53125 -0.453125 -0.828125q-0.375 -0.3125 -1.0625 -0.3125q-0.8125 0 -1.15625 0.265625q-0.34375 0.265625 -0.34375 0.625q0 0.234375 0.140625 0.421875q0.15625 0.1875 0.453125 0.3125q0.171875 0.0625 1.03125 0.296875q1.25 0.328125 1.734375 0.546875q0.5 0.203125 0.78125 0.609375q0.28125 0.40625 0.28125 1.0q0 0.59375 -0.34375 1.109375q-0.34375 0.515625 -1.0 0.796875q-0.640625 0.28125 -1.453125 0.28125q-1.34375 0 -2.046875 -0.5625q-0.703125 -0.5625 -0.90625 -1.65625z" fill-rule="nonzero"/>
    <path fill="#000000" d="m325.96585 128.8l0 -9.546875l3.09375 0q1.75 0 2.296875 0.15625q0.8125 0.203125 1.359375 0.921875q0.5625 0.71875 0.5625 1.859375q0 0.875 -0.328125 1.484375q-0.3125 0.59375 -0.8125 0.9375q-0.484375 0.34375 -0.984375 0.453125q-0.703125 0.140625 -2.0 0.140625l-1.265625 0l0 3.59375l-1.921875 0zm1.921875 -7.921875l0 2.703125l1.0625 0q1.140625 0 1.515625 -0.140625q0.390625 -0.15625 0.609375 -0.46875q0.21875 -0.328125 0.21875 -0.75q0 -0.515625 -0.3125 -0.859375q-0.296875 -0.34375 -0.765625 -0.421875q-0.34375 -0.0625 -1.390625 -0.0625l-0.9375 0zm6.530365 4.375q0 -0.921875 0.453125 -1.765625q0.453125 -0.859375 1.265625 -1.296875q0.828125 -0.453125 1.84375 -0.453125q1.5625 0 2.5625 1.015625q1.015625 1.015625 1.015625 2.578125q0 1.5625 -1.015625 2.59375q-1.015625 1.03125 -2.546875 1.03125q-0.953125 0 -1.8125 -0.421875q-0.859375 -0.4375 -1.3125 -1.265625q-0.453125 -0.828125 -0.453125 -2.015625zm1.875 0.09375q0 1.03125 0.484375 1.578125q0.5 0.546875 1.203125 0.546875q0.71875 0 1.203125 -0.546875q0.484375 -0.546875 0.484375 -1.59375q0 -1.015625 -0.484375 -1.5625q-0.484375 -0.546875 -1.203125 -0.546875q-0.703125 0 -1.203125 0.546875q-0.484375 0.546875 -0.484375 1.578125zm13.031982 3.453125l-1.703125 0l0 -1.015625q-0.421875 0.59375 -1.0 0.890625q-0.578125 0.28125 -1.15625 0.28125q-1.1875 0 -2.046875 -0.953125q-0.84375 -0.96875 -0.84375 -2.6875q0 -1.75 0.828125 -2.65625q0.828125 -0.921875 2.09375 -0.921875q1.15625 0 2.0 0.953125l0 -3.4375l1.828125 0l0 9.546875zm-4.875 -3.609375q0 1.109375 0.296875 1.609375q0.4375 0.71875 1.234375 0.71875q0.640625 0 1.078125 -0.53125q0.4375 -0.546875 0.4375 -1.609375q0 -1.203125 -0.4375 -1.71875q-0.421875 -0.53125 -1.09375 -0.53125q-0.640625 0 -1.078125 0.515625q-0.4375 0.515625 -0.4375 1.546875zm18.505798 3.609375l-2.09375 0l-0.84375 -2.171875l-3.8125 0l-0.78125 2.171875l-2.046875 0l3.71875 -9.546875l2.03125 0l3.828125 9.546875zm-3.546875 -3.78125l-1.3125 -3.53125l-1.296875 3.53125l2.609375 0z" fill-rule="nonzero"/>
    <path fill="#000000" d="m314.90775 147.6125q-0.984375 -1.234375 -1.65625 -2.875q-0.65625 -1.640625 -0.65625 -3.390625q0 -1.546875 0.5 -2.96875q0.578125 -1.640625 1.8125 -3.28125l0.828125 0q-0.78125 1.359375 -1.03125 1.9375q-0.40625 0.890625 -0.625 1.875q-0.28125 1.21875 -0.28125 2.4375q0 3.140625 1.9375 6.265625l-0.828125 0zm1.907135 -5.875l1.203125 -0.109375q0.078125 0.71875 0.390625 1.1875q0.3125 0.453125 0.953125 0.734375q0.65625 0.28125 1.46875 0.28125q0.71875 0 1.265625 -0.21875q0.5625 -0.21875 0.828125 -0.578125q0.265625 -0.375 0.265625 -0.828125q0 -0.453125 -0.265625 -0.78125q-0.25 -0.328125 -0.84375 -0.5625q-0.390625 -0.15625 -1.703125 -0.46875q-1.3125 -0.3125 -1.84375 -0.59375q-0.671875 -0.359375 -1.015625 -0.890625q-0.328125 -0.53125 -0.328125 -1.1875q0 -0.71875 0.40625 -1.34375q0.40625 -0.625 1.1875 -0.953125q0.796875 -0.328125 1.765625 -0.328125q1.046875 0 1.859375 0.34375q0.8125 0.34375 1.25 1.015625q0.4375 0.65625 0.46875 1.484375l-1.203125 0.09375q-0.109375 -0.90625 -0.671875 -1.359375q-0.5625 -0.46875 -1.65625 -0.46875q-1.140625 0 -1.671875 0.421875q-0.515625 0.421875 -0.515625 1.015625q0 0.515625 0.359375 0.84375q0.375 0.328125 1.90625 0.6875q1.546875 0.34375 2.109375 0.59375q0.84375 0.390625 1.234375 0.984375q0.390625 0.578125 0.390625 1.359375q0 0.75 -0.4375 1.4375q-0.421875 0.671875 -1.25 1.046875q-0.8125 0.359375 -1.828125 0.359375q-1.296875 0 -2.171875 -0.375q-0.875 -0.375 -1.375 -1.125q-0.5 -0.765625 -0.53125 -1.71875zm13.905365 0.84375l1.203125 0.140625q-0.28125 1.0625 -1.0625 1.65625q-0.765625 0.578125 -1.96875 0.578125q-1.515625 0 -2.40625 -0.9375q-0.890625 -0.9375 -0.890625 -2.609375q0 -1.75 0.890625 -2.703125q0.90625 -0.96875 2.34375 -0.96875q1.390625 0 2.265625 0.9375q0.875 0.9375 0.875 2.65625q0 0.109375 0 0.3125l-5.15625 0q0.0625 1.140625 0.640625 1.75q0.578125 0.59375 1.4375 0.59375q0.65625 0 1.109375 -0.328125q0.453125 -0.34375 0.71875 -1.078125zm-3.84375 -1.90625l3.859375 0q-0.078125 -0.859375 -0.4375 -1.296875q-0.5625 -0.6875 -1.453125 -0.6875q-0.8125 0 -1.359375 0.546875q-0.546875 0.53125 -0.609375 1.4375zm6.5062256 4.125l0 -6.90625l1.0625 0l0 1.046875q0.40625 -0.734375 0.734375 -0.96875q0.34375 -0.234375 0.765625 -0.234375q0.59375 0 1.203125 0.375l-0.40625 1.078125q-0.4375 -0.25 -0.859375 -0.25q-0.390625 0 -0.703125 0.234375q-0.296875 0.234375 -0.421875 0.640625q-0.203125 0.625 -0.203125 1.359375l0 3.625l-1.171875 0zm6.375885 0l-2.625 -6.90625l1.234375 0l1.484375 4.140625q0.234375 0.65625 0.4375 1.390625q0.15625 -0.546875 0.4375 -1.3125l1.53125 -4.21875l1.21875 0l-2.625 6.90625l-1.09375 0zm4.7578125 -8.1875l0 -1.359375l1.171875 0l0 1.359375l-1.171875 0zm0 8.1875l0 -6.90625l1.171875 0l0 6.90625l-1.171875 0zm7.46109 -2.53125l1.15625 0.15625q-0.1875 1.1875 -0.96875 1.859375q-0.78125 0.671875 -1.921875 0.671875q-1.40625 0 -2.28125 -0.921875q-0.859375 -0.9375 -0.859375 -2.65625q0 -1.125 0.375 -1.96875q0.375 -0.84375 1.125 -1.25q0.765625 -0.421875 1.65625 -0.421875q1.125 0 1.84375 0.578125q0.71875 0.5625 0.921875 1.609375l-1.140625 0.171875q-0.171875 -0.703125 -0.59375 -1.046875q-0.40625 -0.359375 -0.984375 -0.359375q-0.890625 0 -1.453125 0.640625q-0.546875 0.640625 -0.546875 2.0q0 1.40625 0.53125 2.03125q0.546875 0.625 1.40625 0.625q0.6875 0 1.140625 -0.421875q0.46875 -0.421875 0.59375 -1.296875zm6.8828125 0.3125l1.203125 0.140625q-0.28125 1.0625 -1.0625 1.65625q-0.765625 0.578125 -1.96875 0.578125q-1.515625 0 -2.40625 -0.9375q-0.890625 -0.9375 -0.890625 -2.609375q0 -1.75 0.890625 -2.703125q0.90625 -0.96875 2.34375 -0.96875q1.390625 0 2.265625 0.9375q0.875 0.9375 0.875 2.65625q0 0.109375 0 0.3125l-5.15625 0q0.0625 1.140625 0.640625 1.75q0.578125 0.59375 1.4375 0.59375q0.65625 0 1.109375 -0.328125q0.453125 -0.34375 0.71875 -1.078125zm-3.84375 -1.90625l3.859375 0q-0.078125 -0.859375 -0.4375 -1.296875q-0.5625 -0.6875 -1.453125 -0.6875q-0.8125 0 -1.359375 0.546875q-0.546875 0.53125 -0.609375 1.4375zm14.318573 4.125l-1.171875 0l0 -7.46875q-0.421875 0.40625 -1.109375 0.8125q-0.6875 0.40625 -1.234375 0.609375l0 -1.140625q0.984375 -0.453125 1.71875 -1.109375q0.734375 -0.671875 1.03125 -1.28125l0.765625 0l0 9.578125zm4.0843506 2.8125l-0.828125 0q1.9375 -3.125 1.9375 -6.265625q0 -1.21875 -0.28125 -2.421875q-0.21875 -0.984375 -0.609375 -1.875q-0.265625 -0.59375 -1.046875 -1.953125l0.828125 0q1.234375 1.640625 1.8125 3.28125q0.5 1.421875 0.5 2.96875q0 1.75 -0.671875 3.390625q-0.671875 1.640625 -1.640625 2.875z" fill-rule="nonzero"/>
    <path fill="#000000" fill-opacity="0.0" d="m392.0 124.0l96.0 0l0 0.06299591l96.0 0" fill-rule="evenodd"/>
    <path stroke="#595959" stroke-width="2.0" stroke-linejoin="round" stroke-linecap="butt" d="m392.0 124.0l96.0 0l0 0.06299591l84.0 0" fill-rule="evenodd"/>
    <path fill="#595959" stroke="#595959" stroke-width="2.0" stroke-linecap="butt" d="m572.0 127.366455l9.076172 -3.3034592l-9.076172 -3.3034668z" fill-rule="evenodd"/>
    <path fill="#eeeeee" d="m584.0 80.0l96.0 0l0 88.0l-96.0 0z" fill-rule="evenodd"/>
    <path stroke="#595959" stroke-width="1.0" stroke-linejoin="round" stroke-linecap="butt" d="m584.0 80.0l96.0 0l0 88.0l-96.0 0z" fill-rule="evenodd"/>
    <path fill="#000000" d="m613.71844 120.8l0 -9.546875l3.09375 0q1.75 0 2.296875 0.15625q0.8125 0.203125 1.359375 0.921875q0.5625 0.71875 0.5625 1.859375q0 0.875 -0.328125 1.484375q-0.3125 0.59375 -0.8125 0.9375q-0.484375 0.34375 -0.984375 0.453125q-0.703125 0.140625 -2.0 0.140625l-1.265625 0l0 3.59375l-1.921875 0zm1.921875 -7.921875l0 2.703125l1.0625 0q1.140625 0 1.515625 -0.140625q0.390625 -0.15625 0.609375 -0.46875q0.21875 -0.328125 0.21875 -0.75q0 -0.515625 -0.3125 -0.859375q-0.296875 -0.34375 -0.765625 -0.421875q-0.34375 -0.0625 -1.390625 -0.0625l-0.9375 0zm6.5303955 4.375q0 -0.921875 0.453125 -1.765625q0.453125 -0.859375 1.265625 -1.296875q0.828125 -0.453125 1.84375 -0.453125q1.5625 0 2.5625 1.015625q1.015625 1.015625 1.015625 2.578125q0 1.5625 -1.015625 2.59375q-1.015625 1.03125 -2.546875 1.03125q-0.953125 0 -1.8125 -0.421875q-0.859375 -0.4375 -1.3125 -1.265625q-0.453125 -0.828125 -0.453125 -2.015625zm1.875 0.09375q0 1.03125 0.484375 1.578125q0.5 0.546875 1.203125 0.546875q0.71875 0 1.203125 -0.546875q0.484375 -0.546875 0.484375 -1.59375q0 -1.015625 -0.484375 -1.5625q-0.484375 -0.546875 -1.203125 -0.546875q-0.703125 0 -1.203125 0.546875q-0.484375 0.546875 -0.484375 1.578125zm13.031982 3.453125l-1.703125 0l0 -1.015625q-0.421875 0.59375 -1.0 0.890625q-0.578125 0.28125 -1.15625 0.28125q-1.1875 0 -2.046875 -0.953125q-0.84375 -0.96875 -0.84375 -2.6875q0 -1.75 0.828125 -2.65625q0.828125 -0.921875 2.09375 -0.921875q1.15625 0 2.0 0.953125l0 -3.4375l1.828125 0l0 9.546875zm-4.875 -3.609375q0 1.109375 0.296875 1.609375q0.4375 0.71875 1.234375 0.71875q0.640625 0 1.078125 -0.53125q0.4375 -0.546875 0.4375 -1.609375q0 -1.203125 -0.4375 -1.71875q-0.421875 -0.53125 -1.09375 -0.53125q-0.640625 0 -1.078125 0.515625q-0.4375 0.515625 -0.4375 1.546875zm10.391174 -5.9375l3.828125 0q1.125 0 1.671875 0.09375q0.5625 0.09375 1.0 0.40625q0.4375 0.296875 0.734375 0.796875q0.296875 0.5 0.296875 1.109375q0 0.671875 -0.359375 1.234375q-0.359375 0.5625 -0.984375 0.84375q0.875 0.25 1.34375 0.859375q0.46875 0.609375 0.46875 1.4375q0 0.65625 -0.3125 1.265625q-0.296875 0.609375 -0.828125 0.984375q-0.515625 0.359375 -1.28125 0.453125q-0.484375 0.046875 -2.328125 0.0625l-3.25 0l0 -9.546875zm1.9375 1.59375l0 2.203125l1.265625 0q1.125 0 1.390625 -0.03125q0.5 -0.0625 0.78125 -0.34375q0.28125 -0.28125 0.28125 -0.734375q0 -0.453125 -0.25 -0.71875q-0.234375 -0.28125 -0.71875 -0.34375q-0.28125 -0.03125 -1.640625 -0.03125l-1.109375 0zm0 3.796875l0 2.546875l1.78125 0q1.046875 0 1.3125 -0.0625q0.4375 -0.078125 0.703125 -0.375q0.265625 -0.296875 0.265625 -0.8125q0 -0.421875 -0.203125 -0.71875q-0.203125 -0.3125 -0.609375 -0.4375q-0.390625 -0.140625 -1.703125 -0.140625l-1.546875 0z" fill-rule="nonzero"/>
    <path fill="#000000" d="m602.9078 139.6125q-0.984375 -1.234375 -1.65625 -2.875q-0.65625 -1.640625 -0.65625 -3.390625q0 -1.546875 0.5 -2.96875q0.578125 -1.640625 1.8125 -3.28125l0.828125 0q-0.78125 1.359375 -1.03125 1.9375q-0.40625 0.890625 -0.625 1.875q-0.28125 1.21875 -0.28125 2.4375q0 3.140625 1.9375 6.265625l-0.828125 0zm1.9071045 -5.875l1.203125 -0.109375q0.078125 0.71875 0.390625 1.1875q0.3125 0.453125 0.953125 0.734375q0.65625 0.28125 1.46875 0.28125q0.71875 0 1.265625 -0.21875q0.5625 -0.21875 0.828125 -0.578125q0.265625 -0.375 0.265625 -0.828125q0 -0.453125 -0.265625 -0.78125q-0.25 -0.328125 -0.84375 -0.5625q-0.390625 -0.15625 -1.703125 -0.46875q-1.3125 -0.3125 -1.84375 -0.59375q-0.671875 -0.359375 -1.015625 -0.890625q-0.328125 -0.53125 -0.328125 -1.1875q0 -0.71875 0.40625 -1.34375q0.40625 -0.625 1.1875 -0.953125q0.796875 -0.328125 1.765625 -0.328125q1.046875 0 1.859375 0.34375q0.8125 0.34375 1.25 1.015625q0.4375 0.65625 0.46875 1.484375l-1.203125 0.09375q-0.109375 -0.90625 -0.671875 -1.359375q-0.5625 -0.46875 -1.65625 -0.46875q-1.140625 0 -1.671875 0.421875q-0.515625 0.421875 -0.515625 1.015625q0 0.515625 0.359375 0.84375q0.375 0.328125 1.90625 0.6875q1.546875 0.34375 2.109375 0.59375q0.84375 0.390625 1.234375 0.984375q0.390625 0.578125 0.390625 1.359375q0 0.75 -0.4375 1.4375q-0.421875 0.671875 -1.25 1.046875q-0.8125 0.359375 -1.828125 0.359375q-1.296875 0 -2.171875 -0.375q-0.875 -0.375 -1.375 -1.125q-0.5 -0.765625 -0.53125 -1.71875zm13.9053955 0.84375l1.203125 0.140625q-0.28125 1.0625 -1.0625 1.65625q-0.765625 0.578125 -1.96875 0.578125q-1.515625 0 -2.40625 -0.9375q-0.890625 -0.9375 -0.890625 -2.609375q0 -1.75 0.890625 -2.703125q0.90625 -0.96875 2.34375 -0.96875q1.390625 0 2.265625 0.9375q0.875 0.9375 0.875 2.65625q0 0.109375 0 0.3125l-5.15625 0q0.0625 1.140625 0.640625 1.75q0.578125 0.59375 1.4375 0.59375q0.65625 0 1.109375 -0.328125q0.453125 -0.34375 0.71875 -1.078125zm-3.84375 -1.90625l3.859375 0q-0.078125 -0.859375 -0.4375 -1.296875q-0.5625 -0.6875 -1.453125 -0.6875q-0.8125 0 -1.359375 0.546875q-0.546875 0.53125 -0.609375 1.4375zm6.5062256 4.125l0 -6.90625l1.0625 0l0 1.046875q0.40625 -0.734375 0.734375 -0.96875q0.34375 -0.234375 0.765625 -0.234375q0.59375 0 1.203125 0.375l-0.40625 1.078125q-0.4375 -0.25 -0.859375 -0.25q-0.390625 0 -0.703125 0.234375q-0.296875 0.234375 -0.421875 0.640625q-0.203125 0.625 -0.203125 1.359375l0 3.625l-1.171875 0zm6.3758545 0l-2.625 -6.90625l1.234375 0l1.484375 4.140625q0.234375 0.65625 0.4375 1.390625q0.15625 -0.546875 0.4375 -1.3125l1.53125 -4.21875l1.21875 0l-2.625 6.90625l-1.09375 0zm4.7578125 -8.1875l0 -1.359375l1.171875 0l0 1.359375l-1.171875 0zm0 8.1875l0 -6.90625l1.171875 0l0 6.90625l-1.171875 0zm7.4610596 -2.53125l1.15625 0.15625q-0.1875 1.1875 -0.96875 1.859375q-0.78125 0.671875 -1.921875 0.671875q-1.40625 0 -2.28125 -0.921875q-0.859375 -0.9375 -0.859375 -2.65625q0 -1.125 0.375 -1.96875q0.375 -0.84375 1.125 -1.25q0.765625 -0.421875 1.65625 -0.421875q1.125 0 1.84375 0.578125q0.71875 0.5625 0.921875 1.609375l-1.140625 0.171875q-0.171875 -0.703125 -0.59375 -1.046875q-0.40625 -0.359375 -0.984375 -0.359375q-0.890625 0 -1.453125 0.640625q-0.546875 0.640625 -0.546875 2.0q0 1.40625 0.53125 2.03125q0.546875 0.625 1.40625 0.625q0.6875 0 1.140625 -0.421875q0.46875 -0.421875 0.59375 -1.296875zm6.8828125 0.3125l1.203125 0.140625q-0.28125 1.0625 -1.0625 1.65625q-0.765625 0.578125 -1.96875 0.578125q-1.515625 0 -2.40625 -0.9375q-0.890625 -0.9375 -0.890625 -2.609375q0 -1.75 0.890625 -2.703125q0.90625 -0.96875 2.34375 -0.96875q1.390625 0 2.265625 0.9375q0.875 0.9375 0.875 2.65625q0 0.109375 0 0.3125l-5.15625 0q0.0625 1.140625 0.640625 1.75q0.578125 0.59375 1.4375 0.59375q0.65625 0 1.109375 -0.328125q0.453125 -0.34375 0.71875 -1.078125zm-3.84375 -1.90625l3.859375 0q-0.078125 -0.859375 -0.4375 -1.296875q-0.5625 -0.6875 -1.453125 -0.6875q-0.8125 0 -1.359375 0.546875q-0.546875 0.53125 -0.609375 1.4375zm16.052979 3.0l0 1.125l-6.296875 0q-0.015625 -0.421875 0.140625 -0.8125q0.234375 -0.640625 0.765625 -1.265625q0.53125 -0.625 1.53125 -1.453125q1.5625 -1.265625 2.109375 -2.015625q0.546875 -0.75 0.546875 -1.40625q0 -0.703125 -0.5 -1.171875q-0.5 -0.484375 -1.296875 -0.484375q-0.859375 0 -1.375 0.515625q-0.5 0.5 -0.5 1.390625l-1.203125 -0.109375q0.125 -1.359375 0.921875 -2.0625q0.8125 -0.703125 2.171875 -0.703125q1.375 0 2.171875 0.765625q0.8125 0.75 0.8125 1.875q0 0.578125 -0.234375 1.140625q-0.234375 0.546875 -0.78125 1.15625q-0.546875 0.609375 -1.8125 1.671875q-1.046875 0.890625 -1.359375 1.21875q-0.296875 0.3125 -0.484375 0.625l4.671875 0zm2.3499756 3.9375l-0.828125 0q1.9375 -3.125 1.9375 -6.265625q0 -1.21875 -0.28125 -2.421875q-0.21875 -0.984375 -0.609375 -1.875q-0.265625 -0.59375 -1.046875 -1.953125l0.828125 0q1.234375 1.640625 1.8125 3.28125q0.5 1.421875 0.5 2.96875q0 1.75 -0.671875 3.390625q-0.671875 1.640625 -1.640625 2.875z" fill-rule="nonzero"/>
    <path fill="#000000" fill-opacity="0.0" d="m392.0 112.0l200.0 0l0 24.0l-200.0 0z" fill-rule="evenodd"/>
    <path fill="#000000" d="m406.8125 116.3l1.515625 0.578125q-0.359375 1.6093674 -1.1875 2.3437424q-0.828125 0.734375 -2.046875 0.734375q-1.53125 0 -2.484375 -1.171875q-1.09375 -1.3593674 -1.09375 -3.6718674q0 -2.4375 1.109375 -3.8125q0.953125 -1.203125 2.5625 -1.203125q1.3125 0 2.203125 0.890625q0.625 0.640625 0.921875 1.90625l-1.5625 0.453125q-0.140625 -0.78125 -0.59375 -1.1875q-0.4375 -0.421875 -1.046875 -0.421875q-0.875 0 -1.421875 0.765625q-0.546875 0.75 -0.546875 2.484375q0 1.8125 0.53125 2.578125q0.546875 0.7499924 1.390625 0.7499924q0.625 0 1.078125 -0.48436737q0.46875 -0.484375 0.671875 -1.53125zm2.5125427 -0.046875q0 -1.015625 0.40625 -1.84375q0.40625 -0.84375 1.046875 -1.25q0.65625 -0.421875 1.46875 -0.421875q1.359375 0 2.140625 1.078125q0.78125 1.0625 0.78125 2.484375q0 1.078125 -0.40625 1.9374924q-0.40625 0.859375 -1.0625 1.296875q-0.65625 0.421875 -1.453125 0.421875q-1.25 0 -2.09375 -0.953125q-0.828125 -0.9687424 -0.828125 -2.7499924zm1.53125 0.09375q0 1.046875 0.40625 1.59375q0.421875 0.5312424 1.0 0.5312424q0.5625 0 0.96875 -0.5468674q0.40625 -0.546875 0.40625 -1.59375q0 -1.03125 -0.421875 -1.5625q-0.40625 -0.546875 -0.984375 -0.546875q-0.5625 0 -0.96875 0.546875q-0.40625 0.53125 -0.40625 1.578125zm10.6458435 3.4531174l-1.5 0l0 -3.5312424q0 -1.0625 -0.09375 -1.40625q-0.078125 -0.359375 -0.3125 -0.546875q-0.21875 -0.1875 -0.515625 -0.1875q-0.375 0 -0.6875 0.25q-0.296875 0.234375 -0.421875 0.671875q-0.125 0.421875 -0.125 1.625l0 3.1249924l-1.5 0l0 -6.9062424l1.390625 0l0 1.015625q0.359375 -0.59375 0.828125 -0.875q0.46875 -0.296875 1.03125 -0.296875q0.65625 0 1.109375 0.34375q0.453125 0.328125 0.625 0.875q0.171875 0.53125 0.171875 1.546875l0 4.2968674zm6.677063 0l-1.5 0l0 -3.5312424q0 -1.0625 -0.09375 -1.40625q-0.078125 -0.359375 -0.3125 -0.546875q-0.21875 -0.1875 -0.515625 -0.1875q-0.375 0 -0.6875 0.25q-0.296875 0.234375 -0.421875 0.671875q-0.125 0.421875 -0.125 1.625l0 3.1249924l-1.5 0l0 -6.9062424l1.390625 0l0 1.015625q0.359375 -0.59375 0.828125 -0.875q0.46875 -0.296875 1.03125 -0.296875q0.65625 0 1.109375 0.34375q0.453125 0.328125 0.625 0.875q0.171875 0.53125 0.171875 1.546875l0 4.2968674zm4.817688 -2.2031174l1.484375 0.3125q-0.296875 1.0312424 -0.9375 1.5468674q-0.625 0.5 -1.53125 0.5q-1.25 0 -1.9375 -0.84375q-0.8125 -0.9687424 -0.8125 -2.7343674q0 -1.71875 0.828125 -2.765625q0.6875 -0.875 1.78125 -0.875q1.21875 0 1.90625 0.890625q0.796875 1.03125 0.796875 3.03125l-0.015625 0.21875l-3.75 0q0.015625 0.8125 0.359375 1.265625q0.359375 0.45311737 0.859375 0.45311737q0.71875 0 0.96875 -0.9999924zm0.078125 -1.84375q-0.015625 -0.8125 -0.34375 -1.21875q-0.328125 -0.40625 -0.765625 -0.40625q-0.484375 0 -0.8125 0.421875q-0.328125 0.4375 -0.328125 1.203125l2.25 0zm7.656494 -0.828125l-1.484375 0.328125q-0.15625 -1.078125 -1.015625 -1.078125q-0.5625 0 -0.90625 0.46875q-0.328125 0.46875 -0.328125 1.578125q0 1.234375 0.328125 1.75q0.34375 0.49999237 0.90625 0.49999237q0.421875 0 0.6875 -0.28125q0.28125 -0.29686737 0.40625 -1.0468674l1.484375 0.3125q-0.46875 2.4999924 -2.625 2.4999924q-1.390625 0 -2.0625 -1.046875q-0.671875 -1.0624924 -0.671875 -2.5468674q0 -1.78125 0.75 -2.703125q0.765625 -0.921875 2.0 -0.921875q1.0 0 1.625 0.53125q0.625 0.515625 0.90625 1.65625zm3.7189941 -2.03125l0 1.453125l-1.015625 0l0 2.78125q0 0.90625 0.046875 1.046875q0.09375 0.26561737 0.359375 0.26561737q0.21875 0 0.609375 -0.171875l0.125 1.421875q-0.515625 0.265625 -1.171875 0.265625q-0.578125 0 -0.921875 -0.265625q-0.34375 -0.28125 -0.46875 -0.796875q-0.078125 -0.375 -0.078125 -1.5312424l0 -3.015625l-0.703125 0l0 -1.453125l0.703125 0l0 -1.375l1.5 -1.078125l0 2.453125l1.015625 0zm1.0441284 -0.9375l0 -1.703125l1.515625 0l0 1.703125l-1.515625 0zm0 7.8437424l0 -6.9062424l1.515625 0l0 6.9062424l-1.515625 0zm2.6954346 -3.5468674q0 -1.015625 0.40625 -1.84375q0.40625 -0.84375 1.046875 -1.25q0.65625 -0.421875 1.46875 -0.421875q1.359375 0 2.140625 1.078125q0.78125 1.0625 0.78125 2.484375q0 1.078125 -0.40625 1.9374924q-0.40625 0.859375 -1.0625 1.296875q-0.65625 0.421875 -1.453125 0.421875q-1.25 0 -2.09375 -0.953125q-0.828125 -0.9687424 -0.828125 -2.7499924zm1.53125 0.09375q0 1.046875 0.40625 1.59375q0.421875 0.5312424 1.0 0.5312424q0.5625 0 0.96875 -0.5468674q0.40625 -0.546875 0.40625 -1.59375q0 -1.03125 -0.421875 -1.5625q-0.40625 -0.546875 -0.984375 -0.546875q-0.5625 0 -0.96875 0.546875q-0.40625 0.53125 -0.40625 1.578125zm10.6458435 3.4531174l-1.5 0l0 -3.5312424q0 -1.0625 -0.09375 -1.40625q-0.078125 -0.359375 -0.3125 -0.546875q-0.21875 -0.1875 -0.515625 -0.1875q-0.375 0 -0.6875 0.25q-0.296875 0.234375 -0.421875 0.671875q-0.125 0.421875 -0.125 1.625l0 3.1249924l-1.5 0l0 -6.9062424l1.390625 0l0 1.015625q0.359375 -0.59375 0.828125 -0.875q0.46875 -0.296875 1.03125 -0.296875q0.65625 0 1.109375 0.34375q0.453125 0.328125 0.625 0.875q0.171875 0.53125 0.171875 1.546875l0 4.2968674z" fill-rule="nonzero"/>
    <path fill="#000000" d="m401.79688 137.8l0 -9.546875l2.53125 0q1.421875 0 1.859375 0.140625q0.703125 0.21875 1.140625 0.953125q0.453125 0.71875 0.453125 1.859375q0 1.03125 -0.390625 1.734375q-0.390625 0.6875 -0.984375 0.984375q-0.578125 0.28125 -2.0 0.28125l-1.03125 0l0 3.59375l-1.578125 0zm1.578125 -7.921875l0 2.703125l0.859375 0q0.890625 0 1.203125 -0.125q0.3125 -0.125 0.515625 -0.4375q0.203125 -0.328125 0.203125 -0.796875q0 -0.46875 -0.21875 -0.796875q-0.203125 -0.328125 -0.515625 -0.4375q-0.296875 -0.109375 -1.28125 -0.109375l-0.765625 0zm5.3513184 4.375q0 -1.015625 0.40625 -1.84375q0.40625 -0.84375 1.046875 -1.25q0.65625 -0.421875 1.46875 -0.421875q1.359375 0 2.140625 1.078125q0.78125 1.0625 0.78125 2.484375q0 1.078125 -0.40625 1.9375q-0.40625 0.859375 -1.0625 1.296875q-0.65625 0.421875 -1.453125 0.421875q-1.25 0 -2.09375 -0.953125q-0.828125 -0.96875 -0.828125 -2.75zm1.53125 0.09375q0 1.046875 0.40625 1.59375q0.421875 0.53125 1.0 0.53125q0.5625 0 0.96875 -0.546875q0.40625 -0.546875 0.40625 -1.59375q0 -1.03125 -0.421875 -1.5625q-0.40625 -0.546875 -0.984375 -0.546875q-0.5625 0 -0.96875 0.546875q-0.40625 0.53125 -0.40625 1.578125zm10.692688 3.453125l-1.390625 0l0 -1.015625q-0.34375 0.59375 -0.8125 0.890625q-0.46875 0.28125 -0.96875 0.28125q-0.953125 0 -1.65625 -0.9375q-0.703125 -0.953125 -0.703125 -2.71875q0 -1.765625 0.6875 -2.65625q0.6875 -0.90625 1.703125 -0.90625q0.46875 0 0.875 0.234375q0.421875 0.234375 0.765625 0.71875l0 -3.4375l1.5 0l0 9.546875zm-4.0 -3.609375q0 0.9375 0.15625 1.40625q0.15625 0.453125 0.453125 0.6875q0.296875 0.234375 0.671875 0.234375q0.5 0 0.859375 -0.53125q0.359375 -0.546875 0.359375 -1.609375q0 -1.203125 -0.359375 -1.71875q-0.34375 -0.53125 -0.890625 -0.53125q-0.515625 0 -0.890625 0.515625q-0.359375 0.515625 -0.359375 1.546875zm15.575653 3.609375l-1.71875 0l-0.671875 -2.171875l-3.125 0l-0.65625 2.171875l-1.671875 0l3.046875 -9.546875l1.671875 0l3.125 9.546875zm-2.90625 -3.78125l-1.078125 -3.53125l-1.046875 3.53125l2.125 0z" fill-rule="nonzero"/>
    <path fill="#000000" d="m439.86682 131.83125l8.234375 0l0 -2.453125l3.53125 3.484375l-3.53125 3.484375l0 -2.453125l-8.234375 0l0 -2.0625z" fill-rule="nonzero"/>
    <path fill="#000000" d="m455.48413 137.8l0 -9.546875l2.53125 0q1.421875 0 1.859375 0.140625q0.703125 0.21875 1.140625 0.953125q0.453125 0.71875 0.453125 1.859375q0 1.03125 -0.390625 1.734375q-0.390625 0.6875 -0.984375 0.984375q-0.578125 0.28125 -2.0 0.28125l-1.03125 0l0 3.59375l-1.578125 0zm1.578125 -7.921875l0 2.703125l0.859375 0q0.890625 0 1.203125 -0.125q0.3125 -0.125 0.515625 -0.4375q0.203125 -0.328125 0.203125 -0.796875q0 -0.46875 -0.21875 -0.796875q-0.203125 -0.328125 -0.515625 -0.4375q-0.296875 -0.109375 -1.28125 -0.109375l-0.765625 0zm5.3513184 4.375q0 -1.015625 0.40625 -1.84375q0.40625 -0.84375 1.046875 -1.25q0.65625 -0.421875 1.46875 -0.421875q1.359375 0 2.140625 1.078125q0.78125 1.0625 0.78125 2.484375q0 1.078125 -0.40625 1.9375q-0.40625 0.859375 -1.0625 1.296875q-0.65625 0.421875 -1.453125 0.421875q-1.25 0 -2.09375 -0.953125q-0.828125 -0.96875 -0.828125 -2.75zm1.53125 0.09375q0 1.046875 0.40625 1.59375q0.421875 0.53125 1.0 0.53125q0.5625 0 0.96875 -0.546875q0.40625 -0.546875 0.40625 -1.59375q0 -1.03125 -0.421875 -1.5625q-0.40625 -0.546875 -0.984375 -0.546875q-0.5625 0 -0.96875 0.546875q-0.40625 0.53125 -0.40625 1.578125zm10.692688 3.453125l-1.390625 0l0 -1.015625q-0.34375 0.59375 -0.8125 0.890625q-0.46875 0.28125 -0.96875 0.28125q-0.953125 0 -1.65625 -0.9375q-0.703125 -0.953125 -0.703125 -2.71875q0 -1.765625 0.6875 -2.65625q0.6875 -0.90625 1.703125 -0.90625q0.46875 0 0.875 0.234375q0.421875 0.234375 0.765625 0.71875l0 -3.4375l1.5 0l0 9.546875zm-4.0 -3.609375q0 0.9375 0.15625 1.40625q0.15625 0.453125 0.453125 0.6875q0.296875 0.234375 0.671875 0.234375q0.5 0 0.859375 -0.53125q0.359375 -0.546875 0.359375 -1.609375q0 -1.203125 -0.359375 -1.71875q-0.34375 -0.53125 -0.890625 -0.53125q-0.515625 0 -0.890625 0.515625q-0.359375 0.515625 -0.359375 1.546875zm8.528778 -5.9375l3.125 0q1.28125 0 1.796875 0.234375q0.53125 0.234375 0.890625 0.828125q0.359375 0.59375 0.359375 1.34375q0 0.6875 -0.3125 1.25q-0.296875 0.546875 -0.796875 0.828125q0.703125 0.234375 1.09375 0.84375q0.390625 0.59375 0.390625 1.453125q0 1.046875 -0.5 1.765625q-0.5 0.71875 -1.1875 0.890625q-0.46875 0.109375 -2.203125 0.109375l-2.65625 0l0 -9.546875zm1.578125 1.59375l0 2.203125l1.03125 0q0.9375 0 1.15625 -0.03125q0.40625 -0.0625 0.625 -0.328125q0.234375 -0.28125 0.234375 -0.765625q0 -0.421875 -0.1875 -0.6875q-0.171875 -0.265625 -0.4375 -0.328125q-0.265625 -0.0625 -1.515625 -0.0625l-0.90625 0zm0 3.796875l0 2.546875l1.453125 0q0.96875 0 1.234375 -0.09375q0.28125 -0.109375 0.46875 -0.40625q0.1875 -0.296875 0.1875 -0.75q0 -0.46875 -0.203125 -0.765625q-0.203125 -0.3125 -0.53125 -0.421875q-0.328125 -0.109375 -1.34375 -0.109375l-1.265625 0zm8.536102 4.3125l1.9375 -9.859375l1.125 0l-1.953125 9.859375l-1.109375 0zm6.484619 -3.265625l1.546875 -0.171875q0.265625 1.828125 1.703125 1.828125q0.71875 0 1.125 -0.375q0.421875 -0.375 0.421875 -0.9375q0 -0.3125 -0.15625 -0.546875q-0.140625 -0.234375 -0.4375 -0.375q-0.28125 -0.140625 -1.40625 -0.484375q-1.015625 -0.3125 -1.484375 -0.671875q-0.46875 -0.359375 -0.75 -0.9375q-0.265625 -0.578125 -0.265625 -1.25q0 -0.78125 0.34375 -1.40625q0.359375 -0.625 0.984375 -0.9375q0.625 -0.328125 1.546875 -0.328125q1.375 0 2.140625 0.75q0.78125 0.75 0.828125 2.140625l-1.578125 0.078125q-0.109375 -0.765625 -0.453125 -1.0625q-0.34375 -0.3125 -0.984375 -0.3125q-0.625 0 -0.984375 0.265625q-0.34375 0.265625 -0.34375 0.671875q0 0.390625 0.3125 0.65625q0.3125 0.265625 1.4375 0.578125q1.203125 0.34375 1.734375 0.734375q0.53125 0.375 0.796875 0.984375q0.28125 0.59375 0.28125 1.453125q0 1.25 -0.765625 2.09375q-0.765625 0.84375 -2.390625 0.84375q-2.875 0 -3.203125 -3.28125zm10.976318 0.90625l1.484375 0.3125q-0.296875 1.03125 -0.9375 1.546875q-0.625 0.5 -1.53125 0.5q-1.25 0 -1.9375 -0.84375q-0.8125 -0.96875 -0.8125 -2.734375q0 -1.71875 0.828125 -2.765625q0.6875 -0.875 1.78125 -0.875q1.21875 0 1.90625 0.890625q0.796875 1.03125 0.796875 3.03125l-0.015625 0.21875l-3.75 0q0.015625 0.8125 0.359375 1.265625q0.359375 0.453125 0.859375 0.453125q0.71875 0 0.96875 -1.0zm0.078125 -1.84375q-0.015625 -0.8125 -0.34375 -1.21875q-0.328125 -0.40625 -0.765625 -0.40625q-0.484375 0 -0.8125 0.421875q-0.328125 0.4375 -0.328125 1.203125l2.25 0zm4.140869 4.046875l-1.5 0l0 -6.90625l1.390625 0l0 0.984375q0.359375 -0.703125 0.640625 -0.921875q0.296875 -0.21875 0.65625 -0.21875q0.515625 0 0.984375 0.34375l-0.46875 1.59375q-0.375 -0.296875 -0.703125 -0.296875q-0.3125 0 -0.546875 0.234375q-0.234375 0.21875 -0.34375 0.828125q-0.109375 0.609375 -0.109375 2.21875l0 2.140625zm4.374634 0l-2.28125 -6.90625l1.578125 0l1.0625 3.515625l0.296875 1.1875l0.328125 -1.1875l1.078125 -3.515625l1.53125 0l-2.25 6.90625l-1.34375 0zm4.515869 -7.84375l0 -1.703125l1.515625 0l0 1.703125l-1.515625 0zm0 7.84375l0 -6.90625l1.515625 0l0 6.90625l-1.515625 0zm7.9923096 -4.875l-1.484375 0.328125q-0.15625 -1.078125 -1.015625 -1.078125q-0.5625 0 -0.90625 0.46875q-0.328125 0.46875 -0.328125 1.578125q0 1.234375 0.328125 1.75q0.34375 0.5 0.90625 0.5q0.421875 0 0.6875 -0.28125q0.28125 -0.296875 0.40625 -1.046875l1.484375 0.3125q-0.46875 2.5 -2.625 2.5q-1.390625 0 -2.0625 -1.046875q-0.671875 -1.0625 -0.671875 -2.546875q0 -1.78125 0.75 -2.703125q0.765625 -0.921875 2.0 -0.921875q1.0 0 1.625 0.53125q0.625 0.515625 0.90625 1.65625zm4.422119 2.671875l1.484375 0.3125q-0.296875 1.03125 -0.9375 1.546875q-0.625 0.5 -1.53125 0.5q-1.25 0 -1.9375 -0.84375q-0.8125 -0.96875 -0.8125 -2.734375q0 -1.71875 0.828125 -2.765625q0.6875 -0.875 1.78125 -0.875q1.21875 0 1.90625 0.890625q0.796875 1.03125 0.796875 3.03125l-0.015625 0.21875l-3.75 0q0.015625 0.8125 0.359375 1.265625q0.359375 0.453125 0.859375 0.453125q0.71875 0 0.96875 -1.0zm0.078125 -1.84375q-0.015625 -0.8125 -0.34375 -1.21875q-0.328125 -0.40625 -0.765625 -0.40625q-0.484375 0 -0.8125 0.421875q-0.328125 0.4375 -0.328125 1.203125l2.25 0zm10.492493 2.34375l0 1.703125l-5.265625 0q0.09375 -0.96875 0.515625 -1.828125q0.4375 -0.875 1.6875 -2.28125q1.0 -1.125 1.21875 -1.53125q0.34375 -0.578125 0.34375 -1.15625q0 -0.625 -0.28125 -0.9375q-0.28125 -0.328125 -0.734375 -0.328125q-1.0 0 -1.078125 1.484375l-1.484375 -0.171875q0.125 -1.46875 0.796875 -2.140625q0.6875 -0.6875 1.796875 -0.6875q1.234375 0 1.859375 0.796875q0.625 0.796875 0.625 1.84375q0 0.578125 -0.15625 1.125q-0.15625 0.546875 -0.5 1.109375q-0.328125 0.5625 -1.09375 1.421875q-0.734375 0.8125 -0.921875 1.078125q-0.1875 0.25 -0.3125 0.5l2.984375 0z" fill-rule="nonzero"/>
    <path fill="#000000" fill-opacity="0.0" d="m120.0 124.0l88.0 0l0 0.06299591l88.0 0" fill-rule="evenodd"/>
    <path stroke="#595959" stroke-width="2.0" stroke-linejoin="round" stroke-linecap="butt" d="m120.0 124.0l88.0 0l0 0.06299591l76.0 0" fill-rule="evenodd"/>
    <path fill="#595959" stroke="#595959" stroke-width="2.0" stroke-linecap="butt" d="m284.0 127.366455l9.076202 -3.3034592l-9.076202 -3.3034668z" fill-rule="evenodd"/>
    <path fill="#000000" fill-opacity="0.0" d="m120.0 112.0l200.0 0l0 24.0l-200.0 0z" fill-rule="evenodd"/>
    <path fill="#000000" d="m134.8125 116.3l1.515625 0.578125q-0.359375 1.6093674 -1.1875 2.3437424q-0.828125 0.734375 -2.046875 0.734375q-1.53125 0 -2.484375 -1.171875q-1.09375 -1.3593674 -1.09375 -3.6718674q0 -2.4375 1.109375 -3.8125q0.953125 -1.203125 2.5625 -1.203125q1.3125 0 2.203125 0.890625q0.625 0.640625 0.921875 1.90625l-1.5625 0.453125q-0.140625 -0.78125 -0.59375 -1.1875q-0.4375 -0.421875 -1.046875 -0.421875q-0.875 0 -1.421875 0.765625q-0.546875 0.75 -0.546875 2.484375q0 1.8125 0.53125 2.578125q0.546875 0.7499924 1.390625 0.7499924q0.625 0 1.078125 -0.48436737q0.46875 -0.484375 0.671875 -1.53125zm2.5125427 -0.046875q0 -1.015625 0.40625 -1.84375q0.40625 -0.84375 1.046875 -1.25q0.65625 -0.421875 1.46875 -0.421875q1.359375 0 2.140625 1.078125q0.78125 1.0625 0.78125 2.484375q0 1.078125 -0.40625 1.9374924q-0.40625 0.859375 -1.0625 1.296875q-0.65625 0.421875 -1.453125 0.421875q-1.25 0 -2.09375 -0.953125q-0.828125 -0.9687424 -0.828125 -2.7499924zm1.53125 0.09375q0 1.046875 0.40625 1.59375q0.421875 0.5312424 1.0 0.5312424q0.5625 0 0.96875 -0.5468674q0.40625 -0.546875 0.40625 -1.59375q0 -1.03125 -0.421875 -1.5625q-0.40625 -0.546875 -0.984375 -0.546875q-0.5625 0 -0.96875 0.546875q-0.40625 0.53125 -0.40625 1.578125zm10.645828 3.4531174l-1.5 0l0 -3.5312424q0 -1.0625 -0.09375 -1.40625q-0.078125 -0.359375 -0.3125 -0.546875q-0.21875 -0.1875 -0.515625 -0.1875q-0.375 0 -0.6875 0.25q-0.296875 0.234375 -0.421875 0.671875q-0.125 0.421875 -0.125 1.625l0 3.1249924l-1.5 0l0 -6.9062424l1.390625 0l0 1.015625q0.359375 -0.59375 0.828125 -0.875q0.46875 -0.296875 1.03125 -0.296875q0.65625 0 1.109375 0.34375q0.453125 0.328125 0.625 0.875q0.171875 0.53125 0.171875 1.546875l0 4.2968674zm6.6770782 0l-1.5 0l0 -3.5312424q0 -1.0625 -0.09375 -1.40625q-0.078125 -0.359375 -0.3125 -0.546875q-0.21875 -0.1875 -0.515625 -0.1875q-0.375 0 -0.6875 0.25q-0.296875 0.234375 -0.421875 0.671875q-0.125 0.421875 -0.125 1.625l0 3.1249924l-1.5 0l0 -6.9062424l1.390625 0l0 1.015625q0.359375 -0.59375 0.828125 -0.875q0.46875 -0.296875 1.03125 -0.296875q0.65625 0 1.109375 0.34375q0.453125 0.328125 0.625 0.875q0.171875 0.53125 0.171875 1.546875l0 4.2968674zm4.8177032 -2.2031174l1.484375 0.3125q-0.296875 1.0312424 -0.9375 1.5468674q-0.625 0.5 -1.53125 0.5q-1.25 0 -1.9375 -0.84375q-0.8125 -0.9687424 -0.8125 -2.7343674q0 -1.71875 0.828125 -2.765625q0.6875 -0.875 1.78125 -0.875q1.21875 0 1.90625 0.890625q0.796875 1.03125 0.796875 3.03125l-0.015625 0.21875l-3.75 0q0.015625 0.8125 0.359375 1.265625q0.359375 0.45311737 0.859375 0.45311737q0.71875 0 0.96875 -0.9999924zm0.078125 -1.84375q-0.015625 -0.8125 -0.34375 -1.21875q-0.328125 -0.40625 -0.765625 -0.40625q-0.484375 0 -0.8125 0.421875q-0.328125 0.4375 -0.328125 1.203125l2.25 0zm7.656479 -0.828125l-1.484375 0.328125q-0.15625 -1.078125 -1.015625 -1.078125q-0.5625 0 -0.90625 0.46875q-0.328125 0.46875 -0.328125 1.578125q0 1.234375 0.328125 1.75q0.34375 0.49999237 0.90625 0.49999237q0.421875 0 0.6875 -0.28125q0.28125 -0.29686737 0.40625 -1.0468674l1.484375 0.3125q-0.46875 2.4999924 -2.625 2.4999924q-1.390625 0 -2.0625 -1.046875q-0.671875 -1.0624924 -0.671875 -2.5468674q0 -1.78125 0.75 -2.703125q0.765625 -0.921875 2.0 -0.921875q1.0 0 1.625 0.53125q0.625 0.515625 0.90625 1.65625zm3.718979 -2.03125l0 1.453125l-1.015625 0l0 2.78125q0 0.90625 0.046875 1.046875q0.09375 0.26561737 0.359375 0.26561737q0.21875 0 0.609375 -0.171875l0.125 1.421875q-0.515625 0.265625 -1.171875 0.265625q-0.578125 0 -0.921875 -0.265625q-0.34375 -0.28125 -0.46875 -0.796875q-0.078125 -0.375 -0.078125 -1.5312424l0 -3.015625l-0.703125 0l0 -1.453125l0.703125 0l0 -1.375l1.5 -1.078125l0 2.453125l1.015625 0zm1.0441589 -0.9375l0 -1.703125l1.515625 0l0 1.703125l-1.515625 0zm0 7.8437424l0 -6.9062424l1.515625 0l0 6.9062424l-1.515625 0zm2.6954346 -3.5468674q0 -1.015625 0.40625 -1.84375q0.40625 -0.84375 1.046875 -1.25q0.65625 -0.421875 1.46875 -0.421875q1.359375 0 2.140625 1.078125q0.78125 1.0625 0.78125 2.484375q0 1.078125 -0.40625 1.9374924q-0.40625 0.859375 -1.0625 1.296875q-0.65625 0.421875 -1.453125 0.421875q-1.25 0 -2.09375 -0.953125q-0.828125 -0.9687424 -0.828125 -2.7499924zm1.53125 0.09375q0 1.046875 0.40625 1.59375q0.421875 0.5312424 1.0 0.5312424q0.5625 0 0.96875 -0.5468674q0.40625 -0.546875 0.40625 -1.59375q0 -1.03125 -0.421875 -1.5625q-0.40625 -0.546875 -0.984375 -0.546875q-0.5625 0 -0.96875 0.546875q-0.40625 0.53125 -0.40625 1.578125zm10.645828 3.4531174l-1.5 0l0 -3.5312424q0 -1.0625 -0.09375 -1.40625q-0.078125 -0.359375 -0.3125 -0.546875q-0.21875 -0.1875 -0.515625 -0.1875q-0.375 0 -0.6875 0.25q-0.296875 0.234375 -0.421875 0.671875q-0.125 0.421875 -0.125 1.625l0 3.1249924l-1.5 0l0 -6.9062424l1.390625 0l0 1.015625q0.359375 -0.59375 0.828125 -0.875q0.46875 -0.296875 1.03125 -0.296875q0.65625 0 1.109375 0.34375q0.453125 0.328125 0.625 0.875q0.171875 0.53125 0.171875 1.546875l0 4.2968674z" fill-rule="nonzero"/>
    <path fill="#000000" d="m134.8125 134.3l1.515625 0.578125q-0.359375 1.609375 -1.1875 2.34375q-0.828125 0.734375 -2.046875 0.734375q-1.53125 0 -2.484375 -1.171875q-1.09375 -1.359375 -1.09375 -3.671875q0 -2.4375 1.109375 -3.8125q0.953125 -1.203125 2.5625 -1.203125q1.3125 0 2.203125 0.890625q0.625 0.640625 0.921875 1.90625l-1.5625 0.453125q-0.140625 -0.78125 -0.59375 -1.1875q-0.4375 -0.421875 -1.046875 -0.421875q-0.875 0 -1.421875 0.765625q-0.546875 0.75 -0.546875 2.484375q0 1.8125 0.53125 2.578125q0.546875 0.75 1.390625 0.75q0.625 0 1.078125 -0.484375q0.46875 -0.484375 0.671875 -1.53125zm2.8562927 3.5l0 -9.546875l1.515625 0l0 9.546875l-1.515625 0zm3.0391846 -7.84375l0 -1.703125l1.515625 0l0 1.703125l-1.515625 0zm0 7.84375l0 -6.90625l1.515625 0l0 6.90625l-1.515625 0zm6.3360596 -2.203125l1.484375 0.3125q-0.296875 1.03125 -0.9375 1.546875q-0.625 0.5 -1.53125 0.5q-1.25 0 -1.9375 -0.84375q-0.8125 -0.96875 -0.8125 -2.734375q0 -1.71875 0.828125 -2.765625q0.6875 -0.875 1.78125 -0.875q1.21875 0 1.90625 0.890625q0.796875 1.03125 0.796875 3.03125l-0.015625 0.21875l-3.75 0q0.015625 0.8125 0.359375 1.265625q0.359375 0.453125 0.859375 0.453125q0.71875 0 0.96875 -1.0zm0.078125 -1.84375q-0.015625 -0.8125 -0.34375 -1.21875q-0.328125 -0.40625 -0.765625 -0.40625q-0.484375 0 -0.8125 0.421875q-0.328125 0.4375 -0.328125 1.203125l2.25 0zm7.859604 4.046875l-1.5 0l0 -3.53125q0 -1.0625 -0.09375 -1.40625q-0.078125 -0.359375 -0.3125 -0.546875q-0.21875 -0.1875 -0.515625 -0.1875q-0.375 0 -0.6875 0.25q-0.296875 0.234375 -0.421875 0.671875q-0.125 0.421875 -0.125 1.625l0 3.125l-1.5 0l0 -6.90625l1.390625 0l0 1.015625q0.359375 -0.59375 0.828125 -0.875q0.46875 -0.296875 1.03125 -0.296875q0.65625 0 1.109375 0.34375q0.453125 0.328125 0.625 0.875q0.171875 0.53125 0.171875 1.546875l0 4.296875zm4.1145782 -6.90625l0 1.453125l-1.015625 0l0 2.78125q0 0.90625 0.046875 1.046875q0.09375 0.265625 0.359375 0.265625q0.21875 0 0.609375 -0.171875l0.125 1.421875q-0.515625 0.265625 -1.171875 0.265625q-0.578125 0 -0.921875 -0.265625q-0.34375 -0.28125 -0.46875 -0.796875q-0.078125 -0.375 -0.078125 -1.53125l0 -3.015625l-0.703125 0l0 -1.453125l0.703125 0l0 -1.375l1.5 -1.078125l0 2.453125l1.015625 0z" fill-rule="nonzero"/>
    <path fill="#000000" d="m163.61719 131.83125l8.234375 0l0 -2.453125l3.53125 3.484375l-3.53125 3.484375l0 -2.453125l-8.234375 0l0 -2.0625z" fill-rule="nonzero"/>
    <path fill="#000000" d="m178.82825 134.69063l1.546875 -0.171875q0.265625 1.828125 1.703125 1.828125q0.71875 0 1.125 -0.375q0.421875 -0.375 0.421875 -0.9375q0 -0.3125 -0.15625 -0.546875q-0.140625 -0.234375 -0.4375 -0.375q-0.28125 -0.140625 -1.40625 -0.484375q-1.015625 -0.3125 -1.484375 -0.671875q-0.46875 -0.359375 -0.75 -0.9375q-0.265625 -0.578125 -0.265625 -1.25q0 -0.78125 0.34375 -1.40625q0.359375 -0.625 0.984375 -0.9375q0.625 -0.328125 1.546875 -0.328125q1.375 0 2.140625 0.75q0.78125 0.75 0.828125 2.140625l-1.578125 0.078125q-0.109375 -0.765625 -0.453125 -1.0625q-0.34375 -0.3125 -0.984375 -0.3125q-0.625 0 -0.984375 0.265625q-0.34375 0.265625 -0.34375 0.671875q0 0.390625 0.3125 0.65625q0.3125 0.265625 1.4375 0.578125q1.203125 0.34375 1.734375 0.734375q0.53125 0.375 0.796875 0.984375q0.28125 0.59375 0.28125 1.453125q0 1.25 -0.765625 2.09375q-0.765625 0.84375 -2.390625 0.84375q-2.875 0 -3.203125 -3.28125zm10.976318 0.90625l1.484375 0.3125q-0.296875 1.03125 -0.9375 1.546875q-0.625 0.5 -1.53125 0.5q-1.25 0 -1.9375 -0.84375q-0.8125 -0.96875 -0.8125 -2.734375q0 -1.71875 0.828125 -2.765625q0.6875 -0.875 1.78125 -0.875q1.21875 0 1.90625 0.890625q0.796875 1.03125 0.796875 3.03125l-0.015625 0.21875l-3.75 0q0.015625 0.8125 0.359375 1.265625q0.359375 0.453125 0.859375 0.453125q0.71875 0 0.96875 -1.0zm0.078125 -1.84375q-0.015625 -0.8125 -0.34375 -1.21875q-0.328125 -0.40625 -0.765625 -0.40625q-0.484375 0 -0.8125 0.421875q-0.328125 0.4375 -0.328125 1.203125l2.25 0zm4.140854 4.046875l-1.5 0l0 -6.90625l1.390625 0l0 0.984375q0.359375 -0.703125 0.640625 -0.921875q0.296875 -0.21875 0.65625 -0.21875q0.515625 0 0.984375 0.34375l-0.46875 1.59375q-0.375 -0.296875 -0.703125 -0.296875q-0.3125 0 -0.546875 0.234375q-0.234375 0.21875 -0.34375 0.828125q-0.109375 0.609375 -0.109375 2.21875l0 2.140625zm4.374649 0l-2.28125 -6.90625l1.578125 0l1.0625 3.515625l0.296875 1.1875l0.328125 -1.1875l1.078125 -3.515625l1.53125 0l-2.25 6.90625l-1.34375 0zm4.515854 -7.84375l0 -1.703125l1.515625 0l0 1.703125l-1.515625 0zm0 7.84375l0 -6.90625l1.515625 0l0 6.90625l-1.515625 0zm7.9923096 -4.875l-1.484375 0.328125q-0.15625 -1.078125 -1.015625 -1.078125q-0.5625 0 -0.90625 0.46875q-0.328125 0.46875 -0.328125 1.578125q0 1.234375 0.328125 1.75q0.34375 0.5 0.90625 0.5q0.421875 0 0.6875 -0.28125q0.28125 -0.296875 0.40625 -1.046875l1.484375 0.3125q-0.46875 2.5 -2.625 2.5q-1.390625 0 -2.0625 -1.046875q-0.671875 -1.0625 -0.671875 -2.546875q0 -1.78125 0.75 -2.703125q0.765625 -0.921875 2.0 -0.921875q1.0 0 1.625 0.53125q0.625 0.515625 0.90625 1.65625zm4.422104 2.671875l1.484375 0.3125q-0.296875 1.03125 -0.9375 1.546875q-0.625 0.5 -1.53125 0.5q-1.25 0 -1.9375 -0.84375q-0.8125 -0.96875 -0.8125 -2.734375q0 -1.71875 0.828125 -2.765625q0.6875 -0.875 1.78125 -0.875q1.21875 0 1.90625 0.890625q0.796875 1.03125 0.796875 3.03125l-0.015625 0.21875l-3.75 0q0.015625 0.8125 0.359375 1.265625q0.359375 0.453125 0.859375 0.453125q0.71875 0 0.96875 -1.0zm0.078125 -1.84375q-0.015625 -0.8125 -0.34375 -1.21875q-0.328125 -0.40625 -0.765625 -0.40625q-0.484375 0 -0.8125 0.421875q-0.328125 0.4375 -0.328125 1.203125l2.25 0zm9.258163 4.046875l-1.484375 0l0 -6.890625q-0.84375 0.9375 -1.953125 1.390625l0 -1.671875q0.625 -0.25 1.296875 -0.90625q0.671875 -0.65625 0.9375 -1.5l1.203125 0l0 9.578125z" fill-rule="nonzero"/>
  </g>
</svg>