<svg id="Layer_1" data-name="Layer 1" xmlns="http://www.w3.org/2000/svg" viewBox="0 0 56.38 49.28"><defs><style>.cls-1,.cls-2{fill:#fff;stroke:#fff;}.cls-1{stroke-linejoin:round;stroke-width:2.99px;}.cls-2{stroke-width:0.01px;}</style></defs><title>Artboard 1</title><path id="path3054-2-9" class="cls-1" d="M28.19,1.5,40.06,7.17,43,19.92,34.78,30.14H21.6L13.38,19.92,16.31,7.17Z"/><path id="path3055" d="M28.08.12a2.17,2.17,0,0,0-.82.21L16,5.7a2.14,2.14,0,0,0-1.16,1.45L12.06,19.23a2.12,2.12,0,0,0,.29,1.64l.12.17,7.79,9.68a2.16,2.16,0,0,0,1.68.8H34.43a2.16,2.16,0,0,0,1.68-.8L43.9,21a2.12,2.12,0,0,0,.42-1.81L41.54,7.15A2.14,2.14,0,0,0,40.37,5.7L29.12.33a2.17,2.17,0,0,0-1-.21Z"/><path id="path3059" class="cls-2" d="M28.19,4.23a.71.71,0,0,0-.67.75V5c0,.06,0,.12,0,.17a5.62,5.62,0,0,0,.09.64A6.29,6.29,0,0,1,27.68,7a.73.73,0,0,1-.22.35l0,.28a8.76,8.76,0,0,0-1.22.19,8.66,8.66,0,0,0-4.4,2.51l-.24-.17a.53.53,0,0,1-.4,0,6.29,6.29,0,0,1-.91-.82,5.61,5.61,0,0,0-.44-.47l-.15-.12a.8.8,0,0,0-.47-.18.65.65,0,0,0-.54.24.71.71,0,0,0,.17,1h0l.14.11a5.61,5.61,0,0,0,.56.33,6.29,6.29,0,0,1,1,.7.75.75,0,0,1,.14.39l.22.19a8.71,8.71,0,0,0-1.37,6.08l-.28.08A.93.93,0,0,1,19,18a6.29,6.29,0,0,1-1.21.2,5.64,5.64,0,0,0-.65.05l-.18,0h0a.68.68,0,1,0,.3,1.31h0l.17,0a5.63,5.63,0,0,0,.6-.23A6.29,6.29,0,0,1,19.18,19a.74.74,0,0,1,.39.14l.29-.05a8.76,8.76,0,0,0,3.88,4.85l-.12.29a.67.67,0,0,1,.06.38,6.58,6.58,0,0,1-.61,1.1,5.64,5.64,0,0,0-.36.54l-.09.18a.68.68,0,1,0,1.22.58h0l.08-.17a5.62,5.62,0,0,0,.19-.62A4.71,4.71,0,0,1,24.65,25a.55.55,0,0,1,.29-.14l.15-.28a8.72,8.72,0,0,0,6.22,0l.14.26a.53.53,0,0,1,.34.21,6.28,6.28,0,0,1,.46,1.13,5.63,5.63,0,0,0,.2.62l.08.17a.68.68,0,1,0,1.22-.58l-.09-.18a5.62,5.62,0,0,0-.36-.54,6.29,6.29,0,0,1-.6-1.07.53.53,0,0,1,.05-.4,2.31,2.31,0,0,1-.11-.27A8.76,8.76,0,0,0,36.53,19l.29.05a.53.53,0,0,1,.38-.14,6.3,6.3,0,0,1,1.17.35,5.63,5.63,0,0,0,.6.23l.17,0h0a.68.68,0,1,0,.3-1.31l-.2,0a5.64,5.64,0,0,0-.65-.05,6.29,6.29,0,0,1-1.21-.2.76.76,0,0,1-.29-.29l-.27-.08a8.75,8.75,0,0,0-1.4-6.06l.24-.21a.53.53,0,0,1,.13-.38,6.29,6.29,0,0,1,1-.7,5.63,5.63,0,0,0,.56-.33l.15-.12a.68.68,0,1,0-.84-1.05l-.15.12a5.64,5.64,0,0,0-.44.47,6.31,6.31,0,0,1-.91.82.75.75,0,0,1-.41,0l-.26.18a8.83,8.83,0,0,0-5.59-2.7c0-.09,0-.25,0-.3A.53.53,0,0,1,28.69,7a6.3,6.3,0,0,1,.08-1.22,5.62,5.62,0,0,0,.09-.64c0-.05,0-.13,0-.19a.71.71,0,0,0-.67-.75Zm-.84,5.22L27.14,13h0a.59.59,0,0,1-.94.45h0l-2.9-2.05a6.94,6.94,0,0,1,3.34-1.82A7.1,7.1,0,0,1,27.34,9.45Zm1.69,0a7,7,0,0,1,4,1.95l-2.88,2h0a.59.59,0,0,1-.94-.45h0Zm-6.8,3.26,2.64,2.37h0a.59.59,0,0,1-.23,1h0l-3.39,1a6.94,6.94,0,0,1,1-4.39Zm11.89,0a7.06,7.06,0,0,1,1,4.38l-3.41-1h0a.59.59,0,0,1-.23-1h0l2.63-2.35Zm-6.48,2.55h1.08l.67.84-.24,1.05-1,.47-1-.47L27,16.11Zm3.47,2.88h.14l3.51.59A7,7,0,0,1,32,22.27L30.6,19h0a.6.6,0,0,1,.52-.83Zm-5.89,0a.59.59,0,0,1,.54.83h0l-1.35,3.26a7,7,0,0,1-2.8-3.5l3.48-.59h.12Zm2.94,1.43a.6.6,0,0,1,.54.31h0L30.44,23a7.1,7.1,0,0,1-.68.19A7,7,0,0,1,26,23l1.71-3.09h0A.59.59,0,0,1,28.17,19.59Z"/><path d="M1.18,38.36h1v3.39h.17l3.2-3.39H6.78l-3.6,3.75,3.74,4.25H5.63l-3.3-3.78H2.16v3.78h-1Z"/><path d="M7.8,41h.94v3.66c0,.83.34,1.06.77,1.06a3.11,3.11,0,0,0,1.82-1V41h.94V44.7a9.23,9.23,0,0,0,.24,1.67l-.92.08s-.13-.6-.18-1a3.1,3.1,0,0,1-2.13,1c-.89,0-1.46-.46-1.46-1.62Z"/><path d="M14.09,38,15,37.8v3.73a1.94,1.94,0,0,1,1.56-.71,2.4,2.4,0,0,1,2.33,2.66,2.86,2.86,0,0,1-3,3,7.89,7.89,0,0,1-1.81-.24ZM15,42.36v3.25a3.62,3.62,0,0,0,.92.12,1.94,1.94,0,0,0,2-2.18c0-1.19-.6-1.91-1.46-1.91A2.05,2.05,0,0,0,15,42.36Z"/><path d="M22.58,40.82a2.14,2.14,0,0,1,2.16,2.41l-.58.17L21,43.82a1.79,1.79,0,0,0,1.79,1.87A2.89,2.89,0,0,0,24.47,45l.28.72a3.11,3.11,0,0,1-2.08.78A2.56,2.56,0,0,1,20,43.78,2.7,2.7,0,0,1,22.58,40.82ZM21,43.1l2.71-.35s-.11-1.15-1.19-1.15A1.58,1.58,0,0,0,21,43.1Z"/><path d="M26.18,41l.94-.17v1.07a2,2,0,0,1,1.57-1.13.92.92,0,0,1,.47.11l-.24,1a1.45,1.45,0,0,0-.46-.1c-.62,0-1.13.73-1.34,1.1v3.42h-.94Z"/><path d="M30.19,41l.94-.17v1.06a3.34,3.34,0,0,1,2.23-1.12c.8,0,1.42.46,1.42,1.62v3.92h-.94V42.7c0-.8-.32-1.06-.73-1.06a3.79,3.79,0,0,0-2,1.15v3.56h-.94Z"/><path d="M38.76,40.82a2.14,2.14,0,0,1,2.16,2.41l-.58.17-3.18.42A1.79,1.79,0,0,0,39,45.69,2.89,2.89,0,0,0,40.64,45l.28.72a3.11,3.11,0,0,1-2.08.78,2.56,2.56,0,0,1-2.67-2.72A2.7,2.7,0,0,1,38.76,40.82ZM37.17,43.1l2.71-.35s-.11-1.15-1.19-1.15A1.58,1.58,0,0,0,37.17,43.1Z"/><path d="M42.62,41.72h-.77v-.5l.77-.31v-1.2l.94-.23V41h1.75v.76H43.56v3c0,.72.25,1,.66,1a2.12,2.12,0,0,0,1.14-.49l.23.75a2.66,2.66,0,0,1-1.56.55c-.85,0-1.4-.47-1.4-1.57Z"/><path d="M48.95,40.82a2.14,2.14,0,0,1,2.16,2.41l-.58.17-3.18.42a1.79,1.79,0,0,0,1.79,1.87A2.89,2.89,0,0,0,50.83,45l.28.72a3.11,3.11,0,0,1-2.08.78,2.56,2.56,0,0,1-2.67-2.72A2.7,2.7,0,0,1,48.95,40.82ZM47.36,43.1l2.71-.35S50,41.6,48.89,41.6A1.58,1.58,0,0,0,47.36,43.1Z"/><path d="M52.37,45.2a2.82,2.82,0,0,0,1.55.53c.67,0,1-.29,1-.71,0-1.15-2.65-1-2.65-2.71,0-.82.59-1.49,2-1.49a3.57,3.57,0,0,1,1.5.3l-.25.79a3.48,3.48,0,0,0-1.32-.31c-.65,0-.95.26-.95.64,0,1.1,2.65.92,2.65,2.71,0,1-.76,1.56-2,1.56A3,3,0,0,1,52.16,46Z"/></svg>