<svg id="svg45453" xmlns="http://www.w3.org/2000/svg" viewBox="0 0 600.41 551.43"><defs><style>.cls-1{fill:#c22133;}.cls-2{fill:#db212e;}.cls-3{fill:#eb2126;}.cls-4{fill:#ad213b;}.cls-5{fill:#ba2133;}</style></defs><title>Artboard 1</title><path id="path44560" class="cls-1" d="M600.41,140.68a273.7,273.7,0,0,0-23.52-39.9l-96.38,35.08A180.16,180.16,0,0,1,508.84,174ZM174.35,247.28,77.94,282.36a280.38,280.38,0,0,0,7.64,45.7l91.59-33.35a179.23,179.23,0,0,1-2.82-47.43"/><path id="path44564" class="cls-2" d="M388.32,113.37a178.45,178.45,0,0,1,52.08,37.09l96.38-35.08A274,274,0,0,0,429.16,25.82C291.36-38.43,127,21.39,62.73,159.17A273.69,273.69,0,0,0,37.83,297l96.4-35.08a178.28,178.28,0,0,1,16-61.89C192,110.48,298.8,71.64,388.32,113.37"/><path id="path44572" class="cls-2" d="M491.12,289.51a176.78,176.78,0,0,1-16.18,61.89c-41.74,89.53-148.54,128.38-238,86.64a177.34,177.34,0,0,1-52.18-37L88.53,436a273.38,273.38,0,0,0,107.55,89.59C333.87,589.86,498.24,530,562.5,392.23a272.91,272.91,0,0,0,24.82-137.72l-96.19,35Z"/><path id="path44576" class="cls-3" d="M514.83,171.83l-91.59,33.33A179.7,179.7,0,0,1,445.66,306l96.19-35a277.74,277.74,0,0,0-27-99.22m-423.24,154L0,359.22a278.83,278.83,0,0,0,43.07,93.36l96.18-35a180,180,0,0,1-47.66-91.7"/><path id="path44584" class="cls-4" d="M586.45,115.28c-3-4.93-6.19-9.79-9.55-14.51l-96.38,35.08a171.44,171.44,0,0,1,11.87,13.67ZM174,266.64a170.57,170.57,0,0,1,.37-19.35L77.94,282.37c.5,6.18,1.28,12.31,2.2,18.43L174,266.64Z"/><path id="path44588" class="cls-5" d="M587.31,254.51l-96.19,35A176,176,0,0,1,483,330.88l104.7-38.17a276.46,276.46,0,0,0-.38-38.2M88.54,436a273.09,273.09,0,0,0,24.51,29.77l104.72-38.19A178,178,0,0,1,184.71,401Z"/></svg>