<svg id="Layer_1" data-name="Layer 1" xmlns="http://www.w3.org/2000/svg" viewBox="0 0 48.31 49.33"><defs><style>.cls-1{fill:#231f20;}</style></defs><title>Artboard 1</title><path d="M4.56,38.27a3.81,3.81,0,0,1,3.89,4,4.1,4.1,0,0,1-4,4.29,4.15,4.15,0,0,1,.1-8.29Zm-.07,7.44a3.14,3.14,0,0,0,3-3.35A3,3,0,0,0,4.5,39.12a3,3,0,0,0-2.94,3.24A3.13,3.13,0,0,0,4.49,45.71Z"/><path d="M9.78,41.1l.86-.17v.84a1.71,1.71,0,0,1,1.56-.9c1.34,0,2.17,1.2,2.17,2.69a2.72,2.72,0,0,1-2.56,3,1.85,1.85,0,0,1-1.15-.33V49l-.88.17Zm.88,1.54v2.42c0,.49.39.71,1,.71,1.1,0,1.8-.79,1.8-2.13s-.57-1.92-1.34-1.92A1.89,1.89,0,0,0,10.66,42.64Z"/><path d="M17.84,40.87c1.18,0,2,.86,2,2.41l-.54.17-3,.42C16.41,45,17,45.74,18,45.74a2.66,2.66,0,0,0,1.6-.68l.26.72a2.86,2.86,0,0,1-2,.78,2.5,2.5,0,0,1-2.53-2.72C15.39,42.15,16.39,40.87,17.84,40.87Zm-1.5,2.28,2.56-.35s-.1-1.15-1.12-1.15C17,41.65,16.47,42.31,16.34,43.15Z"/><path d="M21.24,41.1l.88-.17V42a3.11,3.11,0,0,1,2.11-1.12c.76,0,1.34.46,1.34,1.62v3.92h-.88V42.76c0-.8-.31-1.05-.69-1.05-.67,0-1.54.82-1.87,1.15v3.56h-.88Z"/><path d="M27,45a3.46,3.46,0,0,0,2,.72c.82,0,1.51-.4,1.51-1.16,0-1.82-3.59-1.71-3.59-4.16a2.16,2.16,0,0,1,2.46-2.09,6.05,6.05,0,0,1,1.93.36l-.24.92a4.51,4.51,0,0,0-1.72-.41c-.84,0-1.48.37-1.48,1.1,0,1.86,3.59,1.65,3.59,4.2,0,1.39-1.12,2.11-2.48,2.11a3.86,3.86,0,0,1-2.19-.67Z"/><path d="M32.76,38l.88-.17V42a3,3,0,0,1,2.1-1.1c.76,0,1.34.46,1.34,1.62v3.92h-.88V42.76c0-.8-.31-1.05-.69-1.05-.66,0-1.52.8-1.86,1.14v3.57h-.88Z"/><path d="M38.59,39a.61.61,0,1,1,.61.65A.63.63,0,0,1,38.59,39Zm.16,2h.88v5.4h-.88Z"/><path d="M40.81,41.28l.8-.32v-.58c0-1.73.84-2.7,2.11-2.7a2.49,2.49,0,0,1,1.43.46l-.41.74a2,2,0,0,0-1-.38c-.62,0-1.2.48-1.2,1.83V41h1.44v.75H42.5v4.64h-.88V41.77h-.8Z"/><path d="M45.29,41.77h-.72v-.5l.72-.31v-1.2l.88-.23V41h1.66v.75H46.17v3c0,.72.24,1,.62,1a2,2,0,0,0,1.08-.49l.22.75a2.44,2.44,0,0,1-1.47.55c-.8,0-1.33-.47-1.33-1.57Z"/><path class="cls-1" d="M17.11,15l-5.52,2A16,16,0,0,0,12,19.61l5.24-1.91A10.29,10.29,0,0,1,17.11,15"/><path class="cls-1" d="M41.51,8.88a15.77,15.77,0,0,0-1.35-2.29l-5.52,2a10.26,10.26,0,0,1,1.62,2.18Z"/><path class="cls-1" d="M29.37,7.31a10.19,10.19,0,0,1,3,2.13l5.52-2A15.78,15.78,0,0,0,9.3,17.84l5.51-2a10.23,10.23,0,0,1,14.55-8.5"/><path class="cls-1" d="M12.38,19.48,7.14,21.39a16,16,0,0,0,2.46,5.34l5.49-2a10.32,10.32,0,0,1-2.73-5.25"/><path class="cls-1" d="M35.26,17.4a10.09,10.09,0,0,1-.93,3.54,10.26,10.26,0,0,1-13.63,5,10.16,10.16,0,0,1-3-2.12l-5.52,2a15.64,15.64,0,0,0,6.15,5.12,15.81,15.81,0,0,0,21-7.64,15.62,15.62,0,0,0,1.42-7.89Z"/><path class="cls-1" d="M36.62,10.66l-5.24,1.91a10.3,10.3,0,0,1,1.29,5.78l5.51-2a15.92,15.92,0,0,0-1.55-5.68"/><path class="cls-1" d="M17.09,16.09a10.08,10.08,0,0,1,0-1.11l-5.52,2c0,.35.07.7.13,1.06Z"/><path class="cls-1" d="M40.71,7.42c-.17-.29-.35-.56-.55-.83l-5.52,2a9.3,9.3,0,0,1,.68.78Z"/><path class="cls-1" d="M12.2,25.8a15.71,15.71,0,0,0,1.4,1.7l6-2.19a10.14,10.14,0,0,1-1.89-1.52Zm28.55-10.4-5.51,2a10.1,10.1,0,0,1-.47,2.36l6-2.19a15.62,15.62,0,0,0,0-2.19"/></svg>