<svg id="Layer_1" data-name="Layer 1" xmlns="http://www.w3.org/2000/svg" viewBox="0 0 668.38 887.65"><defs><style>.cls-1,.cls-10,.cls-15,.cls-2,.cls-22,.cls-6,.cls-7,.cls-8,.cls-9{fill:none;}.cls-1,.cls-2{stroke:#ff7e00;}.cls-1,.cls-10,.cls-14,.cls-15,.cls-19,.cls-2,.cls-22,.cls-3,.cls-4,.cls-6,.cls-7,.cls-9{stroke-miterlimit:10;}.cls-1,.cls-10,.cls-18,.cls-8,.cls-9{stroke-width:2px;}.cls-2{stroke-width:2.42px;}.cls-12,.cls-3,.cls-4{fill:#efefef;stroke:#565656;}.cls-12,.cls-3{stroke-width:0.41px;}.cls-4{stroke-width:0.42px;}.cls-5{fill:#dbdbdb;}.cls-6,.cls-7{stroke:#666;stroke-width:1.82px;}.cls-6{stroke-dasharray:2.42 2.42;}.cls-7{stroke-dasharray:2.44 2.44;}.cls-10,.cls-13,.cls-14,.cls-18,.cls-22,.cls-8,.cls-9{stroke:#000;}.cls-10,.cls-18,.cls-8{stroke-linecap:round;}.cls-18,.cls-20,.cls-8{stroke-linejoin:round;}.cls-11{fill:#ff9e19;}.cls-13{stroke-width:0.51px;}.cls-14{stroke-width:2.3px;}.cls-15,.cls-20,.cls-21{stroke:#fff;}.cls-15{stroke-width:6.05px;}.cls-16,.cls-20,.cls-21{fill:#fff;}.cls-17,.cls-18{fill:#434343;}.cls-19{fill:#ebeded;stroke:#686868;stroke-width:0.3px;}.cls-20{stroke-width:2.99px;}.cls-21{stroke-width:0.01px;}.cls-22{stroke-width:2.11px;}.cls-23{fill:#962a2a;}.cls-24{fill:#ff7e00;}</style></defs><title>Artboard 1</title><line class="cls-1" x1="517.76" y1="211.11" x2="362.66" y2="211.11"/><line class="cls-2" x1="74.01" y1="184.55" x2="74.01" y2="74.76"/><line class="cls-1" x1="240" y1="211.11" x2="118.36" y2="211.11"/><rect class="cls-3" x="0.2" y="263.65" width="625.58" height="400.95"/><rect class="cls-4" x="21.07" y="286.79" width="624.81" height="403.99"/><rect class="cls-3" x="42.55" y="308.27" width="625.63" height="404.14"/><rect class="cls-5" x="63.86" y="517.5" width="581.2" height="171.77"/><line class="cls-6" x1="645.88" y1="690.78" x2="64.06" y2="690.78"/><line class="cls-7" x1="64.06" y1="690.78" x2="64.06" y2="519.92"/><line class="cls-6" x1="63.86" y1="516.5" x2="645.06" y2="516.5"/><line class="cls-7" x1="645.88" y1="516.5" x2="645.88" y2="690.78"/><line class="cls-8" x1="120.55" y1="583.96" x2="589.87" y2="583.96"/><path d="M66.66,329.11l1.51-.26v6.66a5.27,5.27,0,0,1,3.58-1.78c1.3,0,2.28.74,2.28,2.6v6.33h-1.5v-5.91c0-1.3-.52-1.7-1.18-1.7-1.12,0-2.59,1.3-3.17,1.84v5.77H66.66Z"/><path d="M80.6,333.73A4.24,4.24,0,0,1,84.86,338v.18c0,2.13-1.43,4.77-4.36,4.77a4.32,4.32,0,0,1-4.27-4.38.91.91,0,0,1,0-.17,4.4,4.4,0,0,1,4.18-4.63Zm0,7.85c1.65,0,2.71-1.32,2.71-3.2,0-1.67-.77-3.35-2.73-3.35-1.65,0-2.71,1.26-2.71,3.14,0,1.72.81,3.41,2.71,3.41Z"/><path d="M86.86,340.79a4.42,4.42,0,0,0,2.5.85c1.08,0,1.63-.45,1.63-1.14,0-1.86-4.28-1.59-4.28-4.38,0-1.32,1-2.4,3.18-2.4a5.94,5.94,0,0,1,2.42.48l-.45,1.28a5.82,5.82,0,0,0-2.13-.5c-1,0-1.53.43-1.53,1,0,1.78,4.28,1.49,4.28,4.38,0,1.55-1.22,2.52-3.2,2.52a4.75,4.75,0,0,1-2.79-.77Z"/><path d="M95.2,335.17H94v-.81l1.24-.5v-1.94l1.51-.37V334h2.83v1.22H96.71V340c0,1.16.41,1.63,1.07,1.63a3.44,3.44,0,0,0,1.84-.8l.37,1.22a4.37,4.37,0,0,1-2.52.9c-1.37,0-2.26-.75-2.26-2.54Z"/><path d="M82.71,654.37l1.51-.27v8.46h.21l3.45-3.35h2l-4.07,3.85,4.43,4.86h-2l-3.81-4.28H84.2v4.24H82.69Z"/><path d="M95,659c2,0,3.49,1.39,3.49,3.89l-.93.27-5.13.68c.14,1.8,1.18,3,2.88,3a4.68,4.68,0,0,0,2.73-1.1l.45,1.16a5,5,0,0,1-3.35,1.26,4.14,4.14,0,0,1-4.33-3.95c0-.15,0-.3,0-.45C90.86,661,92.56,659,95,659Zm-2.56,3.66,4.38-.56a2,2,0,0,0-1.92-1.86A2.55,2.55,0,0,0,92.48,662.64Z"/><path d="M100.85,659.35l1.51-.27v1.72A3.27,3.27,0,0,1,104.9,659a1.57,1.57,0,0,1,.76.17l-.39,1.63a2.38,2.38,0,0,0-.74-.15c-1,0-1.82,1.18-2.17,1.78v5.52h-1.51Z"/><path d="M107.31,659.35l1.51-.27v1.7a5.38,5.38,0,0,1,3.6-1.8c1.3,0,2.29.74,2.29,2.61v6.33H113.2V662c0-1.3-.52-1.7-1.18-1.7-1.14,0-2.63,1.32-3.2,1.86v5.75h-1.51Z"/><path d="M121.14,659c2,0,3.49,1.39,3.49,3.89l-.93.27-5.13.68c.14,1.8,1.18,3,2.88,3a4.68,4.68,0,0,0,2.73-1.1l.45,1.16a5,5,0,0,1-3.35,1.26,4.14,4.14,0,0,1-4.33-3.95c0-.15,0-.3,0-.45C117,661,118.66,659,121.14,659Zm-2.56,3.66,4.38-.56a2,2,0,0,0-1.92-1.86A2.55,2.55,0,0,0,118.58,662.64Z"/><path d="M127,654.37l1.51-.27v13.83H127Z"/><line class="cls-9" x1="355.24" y1="609.89" x2="355.24" y2="738.82"/><line class="cls-10" x1="180.92" y1="738.82" x2="536.86" y2="738.82"/><line class="cls-9" x1="180.92" y1="779.78" x2="180.92" y2="738.82"/><line class="cls-10" x1="536.86" y1="788.55" x2="536.86" y2="738.82"/><rect class="cls-11" x="21.07" y="166.95" width="110.19" height="71.3" rx="2" ry="2"/><rect class="cls-1" x="21.07" y="166.95" width="110.19" height="71.3" rx="2" ry="2"/><path d="M42,198.24a4.24,4.24,0,0,1,2.85.95l-.68,1.17a3.77,3.77,0,0,0-2.27-.81c-1.72,0-2.77,1.5-2.77,3.29s1,3.25,2.83,3.25a3.57,3.57,0,0,0,2.36-.93l.56,1.14a4.37,4.37,0,0,1-7.3-3.37,4.46,4.46,0,0,1,4.22-4.69Z"/><path d="M51.43,201.88v-.33c0-1,0-2-1.43-2a5.08,5.08,0,0,0-2.73,1l-.46-1.22a6.52,6.52,0,0,1,3.62-1.06c1.9,0,2.52.81,2.52,2.77V205a1,1,0,0,0,.82,1.14l.18,0-.5,1.22a1.89,1.89,0,0,1-1.88-1.41,3.51,3.51,0,0,1-2.89,1.5,2.19,2.19,0,0,1-2.43-1.94,2,2,0,0,1,0-.25C46.2,203.42,48.12,202.3,51.43,201.88Zm0,2.71V203c-2.46.41-3.62,1-3.62,2.14,0,.68.5,1,1.14,1a3.47,3.47,0,0,0,2.48-1.54Z"/><path d="M56.06,193.63l1.51-.27v13.83H56.06Z"/><path d="M60.24,195.22a1,1,0,1,1,2,0,1,1,0,0,1-2,0Zm.27,3.25H62v8.71H60.51Z"/><path d="M68.8,198.24a4.24,4.24,0,0,1,2.85.95L71,200.36a3.77,3.77,0,0,0-2.27-.81c-1.72,0-2.77,1.5-2.77,3.29s1,3.25,2.83,3.25a3.57,3.57,0,0,0,2.36-.93l.52,1.12a4.36,4.36,0,0,1-7.3-3.37,4.45,4.45,0,0,1,4.23-4.67A1.77,1.77,0,0,1,68.8,198.24Z"/><path d="M77.35,198.24a4.24,4.24,0,0,1,4.28,4.21v.2c0,2.13-1.43,4.76-4.36,4.76A4.32,4.32,0,0,1,73,203a.91.91,0,0,1,0-.17,4.41,4.41,0,0,1,4.19-4.62Zm0,7.86c1.65,0,2.71-1.33,2.71-3.19,0-1.67-.77-3.36-2.73-3.36-1.65,0-2.71,1.26-2.71,3.14,0,1.7.82,3.42,2.72,3.42Z"/><path d="M87.79,198.24a4.24,4.24,0,0,1,2.85.95L90,200.36a3.77,3.77,0,0,0-2.27-.81c-1.72,0-2.77,1.5-2.77,3.29s1,3.25,2.83,3.25a3.57,3.57,0,0,0,2.36-.93l.52,1.12a4.36,4.36,0,0,1-7.3-3.37,4.45,4.45,0,0,1,4.23-4.67A1.77,1.77,0,0,1,87.79,198.24Z"/><path d="M93.17,199.69H91.93v-.81l1.24-.5v-1.94l1.51-.36v2.39h2.83v1.22H94.68v4.78c0,1.16.41,1.64,1.07,1.64a3.5,3.5,0,0,0,1.84-.79l.37,1.22a4.43,4.43,0,0,1-2.52.89c-1.37,0-2.26-.76-2.26-2.54Z"/><path d="M99.79,193.63l1.51-.27v13.83H99.79Z"/><line class="cls-1" x1="353.18" y1="393.62" x2="353.18" y2="229.13"/><path id="path5530-2" class="cls-12" d="M547.12,887.45c-26.45,0-48.79-15.45-55.74-36.54a21.47,21.47,0,0,1-9.78,2.36c-11,0-19.94-8.18-19.94-18.26v-.3a56.94,56.94,0,0,1-10.33,1c-21.82,0-39.52-12.29-39.52-27.41s17.71-27.4,39.52-27.4a52,52,0,0,1,23.13,5.21c3.89-10.65,14.85-18.34,27.78-18.34a30.47,30.47,0,0,1,22,9.12A41.67,41.67,0,0,1,542.13,773a40.07,40.07,0,0,1,23.15,7c8.23-7.82,20.32-12.77,33.82-12.77,16.55,0,31,7.46,38.79,18.52a30.77,30.77,0,0,1,3.59-.24c13.17,0,23.84,9.48,23.84,21.18s-10.67,21.2-23.84,21.2a26.31,26.31,0,0,1-6.79-.89c-7.1,7.66-17.7,13-29.83,14.26-2.48,25.88-27.39,46.22-57.74,46.22Z"/><path d="M494.86,798.5l1.47-.28v1.36a3,3,0,0,1,2.67-1.45c2.29,0,3.7,1.94,3.7,4.34,0,2.63-1.7,4.85-4.38,4.85a3.29,3.29,0,0,1-2-.54v4.53l-1.51.27Zm1.51,2.47v3.91c0,.79.66,1.14,1.65,1.14,1.88,0,3.08-1.28,3.08-3.45,0-2-1-3.1-2.29-3.1a3.24,3.24,0,0,0-2.42,1.53Z"/><path d="M505,798.5l1.51-.28V800a3.28,3.28,0,0,1,2.54-1.83,1.57,1.57,0,0,1,.76.17l-.39,1.63a2.71,2.71,0,0,0-.74-.15c-1,0-1.82,1.18-2.17,1.78v5.53H505Z"/><path d="M511.26,795.1a1,1,0,1,1,1,1A1,1,0,0,1,511.26,795.1Zm.27,3.25H513v8.72h-1.51Z"/><path d="M514.86,798.35h1.59l2.3,6.85,2.75-6.85h1.57l-3.68,8.81H518Z"/><path d="M529.27,801.77v-.33c0-1,0-2-1.43-2a5.08,5.08,0,0,0-2.73,1l-.46-1.22a6.45,6.45,0,0,1,3.62-1.07c1.9,0,2.52.81,2.52,2.77v3.93a1,1,0,0,0,.82,1.14l.18,0-.5,1.21a1.87,1.87,0,0,1-1.88-1.4,3.54,3.54,0,0,1-2.89,1.51,2.2,2.2,0,0,1-2.43-2,1.93,1.93,0,0,1,0-.24C524,803.32,526,802.2,529.27,801.77Zm0,2.71v-1.61c-2.46.41-3.62,1-3.62,2.15,0,.68.5,1,1.14,1a3.49,3.49,0,0,0,2.48-1.55Z"/><path d="M534.2,799.58H533v-.81l1.24-.5v-1.94l1.51-.37v2.4h2.83v1.22h-2.83v4.78c0,1.16.41,1.63,1.07,1.63a3.5,3.5,0,0,0,1.84-.79l.37,1.22a4.43,4.43,0,0,1-2.52.89c-1.37,0-2.27-.75-2.27-2.54Z"/><path d="M544.4,798.13c2,0,3.49,1.39,3.49,3.89l-.93.27-5.1.71c.14,1.79,1.18,3,2.88,3a4.75,4.75,0,0,0,2.73-1.1l.45,1.15a5.06,5.06,0,0,1-3.35,1.27,4.15,4.15,0,0,1-4.33-4c0-.15,0-.3,0-.46C540.22,800.17,541.93,798.13,544.4,798.13Zm-2.54,3.67,4.38-.55a2,2,0,0,0-1.92-1.86A2.53,2.53,0,0,0,541.86,801.8Z"/><path d="M558.73,798.13a4.24,4.24,0,0,1,2.85,1l-.68,1.18a3.64,3.64,0,0,0-2.27-.81c-1.72,0-2.77,1.49-2.77,3.28s1,3.25,2.83,3.25a3.57,3.57,0,0,0,2.36-.93l.52,1.12a4.36,4.36,0,0,1-7.3-3.37,4.47,4.47,0,0,1,4.25-4.67Z"/><path d="M563.73,793.52l1.51-.27v13.83h-1.51Z"/><path d="M571.86,798.13a4.24,4.24,0,0,1,4.28,4.21v.2c0,2.13-1.43,4.76-4.36,4.76a4.31,4.31,0,0,1-4.27-4.37.91.91,0,0,1,0-.17,4.4,4.4,0,0,1,4.18-4.63Zm0,7.85c1.65,0,2.71-1.32,2.71-3.2,0-1.67-.77-3.34-2.73-3.34-1.65,0-2.71,1.26-2.71,3.14,0,1.7.85,3.42,2.73,3.42Z"/><path d="M578.38,798.35h1.48v5.91c0,1.34.54,1.7,1.24,1.7a5,5,0,0,0,2.94-1.63v-6h1.51v6a13.53,13.53,0,0,0,.39,2.69l-1.49.14s-.21-1-.29-1.59a5,5,0,0,1-3.45,1.68c-1.43,0-2.36-.74-2.36-2.61Z"/><path d="M592.71,798.13a4.24,4.24,0,0,1,1.68.31v-4.92l1.51-.27v11.13a13.75,13.75,0,0,0,.39,2.69l-1.49.14s-.17-.79-.27-1.39a3.25,3.25,0,0,1-2.83,1.48c-2.27,0-3.74-1.9-3.74-4.29a4.6,4.6,0,0,1,4.33-4.88Zm1.68,6.27v-3.76c0-1-.83-1.24-1.67-1.24-1.86,0-3.16,1.28-3.16,3.5,0,1.94,1,3.08,2.32,3.08a3.26,3.26,0,0,0,2.51-1.58Z"/><rect class="cls-5" x="519.22" y="834.67" width="54.51" height="21.17"/><rect class="cls-5" x="526.22" y="830.9" width="40.2" height="29.85"/><rect class="cls-5" x="536.92" y="826.27" width="19.03" height="38.48"/><path d="M556.11,865.88H536.86a.8.8,0,0,1-.8-.78V826.32a.79.79,0,0,1,.8-.8h19.3a.8.8,0,0,1,.8.8V865.1a.81.81,0,0,1-.83.78Zm-18.49-1.6h17.69V827.1H537.6v37.18Z"/><path d="M551.53,840.85H541.46a.79.79,0,0,1-.71-.88.82.82,0,0,1,.71-.71h10.07a.81.81,0,0,1,.91.67.8.8,0,0,1-.67.92h-.24Z"/><path d="M551.53,836.27H541.46a.81.81,0,0,1-.71-.89.82.82,0,0,1,.71-.71h10.07a.81.81,0,0,1,.91.67.8.8,0,0,1-.67.92h-.24Z"/><path d="M551.53,831.69H541.46a.81.81,0,0,1-.71-.89.82.82,0,0,1,.71-.71h10.07a.81.81,0,0,1,.91.67.8.8,0,0,1-.67.92h-.24Z"/><g id="_Group_" data-name=" Group "><path d="M566.47,861.28h-9.61a.8.8,0,1,1-.25-1.58h9.1v-28h-8.85a.8.8,0,1,1-.25-1.58h9.9a.81.81,0,0,1,.8.79V860.5a.81.81,0,0,1-.81.79Z"/><path d="M561.86,845.42h-5a.8.8,0,1,1-.25-1.58h5.25a.81.81,0,0,1,.91.67.8.8,0,0,1-.67.92h-.24Z"/><path d="M561.86,840.85h-5a.8.8,0,1,1-.25-1.58h5.25a.81.81,0,0,1,.91.67.8.8,0,0,1-.67.92h-.24Z"/><path d="M561.86,836.27h-5a.82.82,0,0,1-.92-.67.8.8,0,0,1,.67-.92h5.25a.81.81,0,0,1,.91.67.8.8,0,0,1-.67.92h-.24Z"/></g><g id="_Group_2" data-name=" Group 2"><path d="M536.05,861.28H526.4a.79.79,0,0,1-.8-.78V830.89a.79.79,0,0,1,.8-.79h9.65a.79.79,0,0,1,.82.77.8.8,0,0,1-.67.82h-9v28h8.86a.79.79,0,0,1,.82.77.8.8,0,0,1-.67.82Z"/><path d="M536.05,845.42H531a.8.8,0,1,1-.25-1.58h5.32a.8.8,0,0,1,.82.78.78.78,0,0,1-.67.81Z"/><path d="M536.05,840.85H531a.79.79,0,0,1-.71-.88.82.82,0,0,1,.71-.71h5.07a.8.8,0,0,1,.82.78.78.78,0,0,1-.67.81Z"/><path d="M536.05,836.27H531a.82.82,0,0,1-.92-.67.8.8,0,0,1,.67-.92h5.32a.81.81,0,0,1,.15,1.6Z"/></g><path class="cls-13" d="M574.3,856.41h-6.94a.57.57,0,0,1-.63-.51.59.59,0,0,1,.52-.63h6.48V835.11h-6.37a.57.57,0,0,1-.63-.51.59.59,0,0,1,.52-.63h7a.58.58,0,0,1,.57.57h0v21.3A.57.57,0,0,1,574.3,856.41Z"/><path class="cls-13" d="M571,843.84h-3.65a.57.57,0,0,1-.63-.51.59.59,0,0,1,.52-.63H571a.58.58,0,0,1,.62.52.57.57,0,0,1-.51.62H571Z"/><path class="cls-13" d="M571,839.84h-3.65a.58.58,0,0,1-.63-.52.57.57,0,0,1,.52-.62H571a.56.56,0,0,1,.62.51.59.59,0,0,1-.51.63H571Z"/><path class="cls-13" d="M518.08,855.84v-21.3a.57.57,0,0,1,.57-.57h7a.59.59,0,0,1,.51.63.56.56,0,0,1-.62.51h-6.37v20.16h6.48a.57.57,0,0,1,.51.62.58.58,0,0,1-.62.52h-6.88a.57.57,0,0,1-.58-.56Z"/><path class="cls-13" d="M521.86,843.84a.57.57,0,0,1-.52-.62.58.58,0,0,1,.63-.52h3.76a.59.59,0,0,1,.51.63.56.56,0,0,1-.62.51Z"/><path class="cls-13" d="M521.86,839.84a.59.59,0,0,1-.52-.63.57.57,0,0,1,.63-.51h3.76a.57.57,0,0,1,.51.62.58.58,0,0,1-.62.52Z"/><path d="M101.69,76.37a9.86,9.86,0,0,1-2.83,7.46,10.67,10.67,0,0,1-7.63,2.73H56.86a10.64,10.64,0,0,1-7.63-2.73,9.8,9.8,0,0,1-2.87-7.45c0-1.39,0-2.75.14-4.07A38.69,38.69,0,0,1,47,68a32.83,32.83,0,0,1,1-4.28A19.74,19.74,0,0,1,49.7,59.9a13.32,13.32,0,0,1,2.44-3.19,10,10,0,0,1,3.36-2.1,11.68,11.68,0,0,1,4.38-.79,4.72,4.72,0,0,1,1.65.85l2.93,1.89a18.81,18.81,0,0,0,4.25,1.89,16.83,16.83,0,0,0,10.5,0,19,19,0,0,0,4.25-1.89l2.93-1.89A4.72,4.72,0,0,1,88,53.82a11.75,11.75,0,0,1,4.38.79,10.44,10.44,0,0,1,3.44,2.11,14.29,14.29,0,0,1,2.44,3.19A20.55,20.55,0,0,1,100,63.75,34.23,34.23,0,0,1,101,68a41.58,41.58,0,0,1,.55,4.29C101.64,73.62,101.69,75,101.69,76.37ZM89.11,41.25A15.11,15.11,0,0,1,74,56.36h0a15.11,15.11,0,0,1-15.15-15v-.06a15.1,15.1,0,0,1,30.2,0Z"/><circle class="cls-14" cx="355.24" cy="580.73" r="40.16"/><line class="cls-15" x1="355.24" y1="595.67" x2="355.24" y2="609.88"/><polygon class="cls-16" points="347.09 598.07 355.24 583.96 363.38 598.07 347.09 598.07"/><line class="cls-15" x1="355.24" y1="564.03" x2="355.24" y2="549.83"/><polygon class="cls-16" points="363.38 561.63 355.24 575.75 347.09 561.63 363.38 561.63"/><line class="cls-15" x1="375.4" y1="579.84" x2="361.2" y2="579.84"/><polygon class="cls-16" points="373.02 571.68 387.13 579.84 373.02 587.98 373.02 571.68"/><line class="cls-15" x1="333.97" y1="580.36" x2="348.17" y2="580.36"/><polygon class="cls-16" points="336.35 588.5 322.24 580.37 336.35 572.23 336.35 588.5"/><rect class="cls-11" x="297.19" y="356.8" width="116.12" height="128.08" rx="2" ry="2"/><rect class="cls-1" x="297.19" y="356.8" width="116.12" height="128.08" rx="2" ry="2"/><path d="M314,419a4.26,4.26,0,0,1,2.85.95l-.68,1.18a3.6,3.6,0,0,0-2.27-.81c-1.72,0-2.77,1.49-2.77,3.29s1,3.25,2.83,3.25a3.66,3.66,0,0,0,2.36-.93l.52,1.12a4.37,4.37,0,0,1-7.3-3.37,4.48,4.48,0,0,1,4.26-4.68Z"/><path d="M323.45,422.58v-.33c0-1,0-2-1.43-2a5.14,5.14,0,0,0-2.73,1l-.46-1.22a6.59,6.59,0,0,1,3.62-1.08c1.9,0,2.52.81,2.52,2.77v3.93a1,1,0,0,0,.83,1.14l.17,0-.5,1.22a1.88,1.88,0,0,1-1.88-1.41,3.53,3.53,0,0,1-2.93,1.5,2.2,2.2,0,0,1-2.41-2,1.49,1.49,0,0,1,0-.21C318.23,424.13,320.14,423,323.45,422.58Zm0,2.71v-1.61c-2.46.41-3.62,1-3.62,2.15,0,.68.5,1,1.14,1A3.49,3.49,0,0,0,323.45,425.29Z"/><path d="M328.08,414.33l1.51-.27v13.83h-1.51Z"/><path d="M332.26,416a1,1,0,1,1,1,1A1,1,0,0,1,332.26,416Zm.27,3.25H334v8.71h-1.51Z"/><path d="M340.82,419a4.26,4.26,0,0,1,2.85.95l-.68,1.18a3.6,3.6,0,0,0-2.27-.81c-1.72,0-2.77,1.49-2.77,3.29s1,3.25,2.83,3.25a3.66,3.66,0,0,0,2.36-.93l.52,1.07a4.37,4.37,0,0,1-7.3-3.37,4.48,4.48,0,0,1,4.31-4.63Z"/><path d="M349.38,419a4.25,4.25,0,0,1,4.29,4.21,1.15,1.15,0,0,1,0,.19c0,2.13-1.43,4.76-4.36,4.76a4.32,4.32,0,0,1-4.26-4.38v-.17a4.42,4.42,0,0,1,4.21-4.61Zm0,7.86c1.65,0,2.71-1.32,2.71-3.2,0-1.67-.77-3.35-2.73-3.35-1.65,0-2.71,1.26-2.71,3.14,0,1.7.81,3.4,2.71,3.4Z"/><path d="M361.11,415h1.34L356,431.66h-1.36Z"/><path d="M364.09,419.31l1.51-.27v1.7a5.38,5.38,0,0,1,3.6-1.8c1.3,0,2.29.74,2.29,2.61v6.33H370V422c0-1.3-.52-1.7-1.18-1.7-1.14,0-2.63,1.32-3.2,1.86v5.75h-1.51Z"/><path d="M378.05,419a4.25,4.25,0,0,1,4.29,4.21,1.48,1.48,0,0,1,0,.21c0,2.13-1.43,4.76-4.36,4.76a4.32,4.32,0,0,1-4.26-4.38v-.17A4.42,4.42,0,0,1,377.9,419Zm0,7.86c1.65,0,2.71-1.32,2.71-3.2,0-1.67-.77-3.35-2.73-3.35-1.65,0-2.71,1.26-2.71,3.14,0,1.7.81,3.4,2.71,3.4Z"/><path d="M388.79,419a4.18,4.18,0,0,1,1.68.31v-4.92l1.51-.27V425.2a15.44,15.44,0,0,0,.39,2.69l-1.49.14s-.17-.79-.27-1.39a3.25,3.25,0,0,1-2.83,1.49c-2.27,0-3.74-1.9-3.74-4.3a4.62,4.62,0,0,1,4.33-4.88Zm1.68,6.27v-3.77c0-1-.83-1.24-1.67-1.24-1.86,0-3.16,1.28-3.16,3.5,0,1.94,1,3.08,2.32,3.08a3.24,3.24,0,0,0,2.52-1.58Z"/><path d="M398.55,419c2,0,3.49,1.39,3.49,3.89l-.93.27-5.13.68c.14,1.8,1.18,3,2.88,3a4.63,4.63,0,0,0,2.73-1.1l.45,1.16a5,5,0,0,1-3.35,1.26,4.14,4.14,0,0,1-4.32-3.95,3.38,3.38,0,0,1,0-.45C394.37,421,396.07,419,398.55,419ZM396,422.63l4.38-.56a2,2,0,0,0-1.92-1.86,2.55,2.55,0,0,0-2.46,2.41Z"/><ellipse class="cls-17" cx="309.47" cy="227.22" rx="96.03" ry="10.07"/><rect class="cls-17" x="213.76" y="193.52" width="191.42" height="35.6"/><ellipse class="cls-18" cx="309.26" cy="192" rx="96.03" ry="10.07"/><path class="cls-8" d="M405.18,228.13c0,5.54-42.94,10.07-96,10.07s-95.92-4.47-95.92-10.07"/><line class="cls-8" x1="405.18" y1="192.5" x2="405.18" y2="228.13"/><line class="cls-8" x1="213.23" y1="192" x2="213.23" y2="228.13"/><path class="cls-5" d="M250.52,211.47l1.51-.27v8.46h.21l3.45-3.35h2l-4.07,3.85,4.43,4.86h-2l-3.78-4.24H252V225h-1.51Z"/><path class="cls-5" d="M262.86,216.08c2,0,3.49,1.39,3.49,3.89l-.93.27-5.13.67c.14,1.81,1.18,3,2.88,3a4.61,4.61,0,0,0,2.73-1.1l.45,1.16a5,5,0,0,1-3.35,1.26,4.14,4.14,0,0,1-4.33-3.94c0-.15,0-.3,0-.46C258.67,218.13,260.38,216.08,262.86,216.08Zm-2.56,3.67,4.38-.56a2,2,0,0,0-1.92-1.86A2.55,2.55,0,0,0,260.3,219.75Z"/><path class="cls-5" d="M270.37,225.69l.56-1.31-3.39-8.08h1.65l2.54,6.17,2.46-6.17h1.59l-3.92,9.39c-.79,1.89-1.86,3.69-3.76,3.92l-.48-1.25A4.11,4.11,0,0,0,270.37,225.69Z"/><path class="cls-5" d="M282.29,212.11h1.34l-6.43,16.71h-1.34Z"/><path class="cls-5" d="M284.62,216.32h1.59l2.3,6.84,2.75-6.84h1.6l-3.68,8.81h-1.43Z"/><path class="cls-5" d="M299,219.72v-.34c0-1,0-2-1.43-2a5.25,5.25,0,0,0-2.73,1l-.46-1.22a6.61,6.61,0,0,1,3.62-1.07c1.9,0,2.52.81,2.52,2.77v3.93a1,1,0,0,0,.82,1.15.55.55,0,0,0,.18,0l-.5,1.22a1.87,1.87,0,0,1-1.88-1.41,3.49,3.49,0,0,1-2.89,1.51,2.19,2.19,0,0,1-2.43-1.94,2,2,0,0,1,0-.25C293.79,221.27,295.71,220.14,299,219.72Zm0,2.71v-1.61c-2.46.41-3.62,1-3.62,2.15,0,.67.5,1,1.14,1a3.55,3.55,0,0,0,2.48-1.53Z"/><path class="cls-5" d="M303.65,211.47l1.51-.27V225h-1.51Z"/><path class="cls-5" d="M308,216.32h1.51v5.91c0,1.34.54,1.7,1.24,1.7a5.07,5.07,0,0,0,2.94-1.63v-6h1.51v6a13.75,13.75,0,0,0,.39,2.69l-1.49.14s-.21-1-.29-1.59a5,5,0,0,1-3.45,1.68c-1.43,0-2.36-.75-2.36-2.61Z"/><path class="cls-5" d="M321.75,216.08c2,0,3.49,1.39,3.49,3.89l-.93.27-5.13.67c.14,1.81,1.18,3,2.88,3a4.61,4.61,0,0,0,2.73-1.1l.45,1.16a5,5,0,0,1-3.35,1.26,4.14,4.14,0,0,1-4.33-3.94c0-.15,0-.3,0-.46C317.57,218.13,319.27,216.08,321.75,216.08Zm-2.56,3.67,4.38-.56a2,2,0,0,0-1.92-1.86,2.55,2.55,0,0,0-2.46,2.42Z"/><path class="cls-5" d="M331.91,223.14a4.51,4.51,0,0,0,2.5.86c1.08,0,1.63-.47,1.63-1.14,0-1.86-4.28-1.59-4.28-4.39,0-1.32.95-2.39,3.18-2.39a5.77,5.77,0,0,1,2.42.47l-.41,1.28a5.82,5.82,0,0,0-2.13-.5c-1,0-1.53.43-1.53,1,0,1.78,4.28,1.5,4.28,4.39,0,1.55-1.22,2.52-3.2,2.52a4.9,4.9,0,0,1-2.79-.77Z"/><path class="cls-5" d="M340.24,217.53H339v-.81l1.24-.5v-1.94l1.51-.37v2.4h2.83v1.22h-2.83v4.78c0,1.16.41,1.63,1.07,1.63a3.41,3.41,0,0,0,1.84-.78l.37,1.22a4.43,4.43,0,0,1-2.52.89c-1.37,0-2.26-.75-2.26-2.54Z"/><path class="cls-5" d="M350.58,216.08a4.24,4.24,0,0,1,4.28,4.21v.21a4.52,4.52,0,0,1-4.36,4.75,4.31,4.31,0,0,1-4.27-4.37,1.09,1.09,0,0,1,0-.18,4.4,4.4,0,0,1,4.18-4.62Zm0,7.86c1.65,0,2.71-1.33,2.71-3.2,0-1.67-.77-3.36-2.73-3.36-1.65,0-2.71,1.26-2.71,3.14,0,1.72.81,3.42,2.71,3.42Z"/><path class="cls-5" d="M357.14,216.44l1.51-.27v1.72a3.29,3.29,0,0,1,2.54-1.82,1.57,1.57,0,0,1,.76.17l-.39,1.63a2.71,2.71,0,0,0-.74-.15c-1,0-1.82,1.18-2.17,1.78V225h-1.51Z"/><path class="cls-5" d="M367.07,216.08c2,0,3.49,1.39,3.49,3.89l-.93.27-5.13.67c.14,1.81,1.18,3,2.88,3a4.61,4.61,0,0,0,2.73-1.1l.45,1.16a5,5,0,0,1-3.35,1.26,4.14,4.14,0,0,1-4.33-3.94c0-.15,0-.3,0-.46C362.86,218.13,364.59,216.08,367.07,216.08Zm-2.56,3.67,4.38-.56a2,2,0,0,0-1.92-1.86A2.55,2.55,0,0,0,364.51,219.75Z"/><line class="cls-1" x1="577.64" y1="169.97" x2="577.64" y2="105.79"/><path id="path5530-3" class="cls-12" d="M534.34.2C505.11.2,480.42,16.58,472.74,39a24.45,24.45,0,0,0-10.81-2.5c-12.16,0-22,8.67-22,19.38v.32a63.38,63.38,0,0,0-11.42-1c-24.11,0-43.68,13-43.68,29.05s19.57,29.06,43.68,29.06a59.43,59.43,0,0,0,25.57-5.51c4.3,11.29,16.42,19.44,30.7,19.44a34.32,34.32,0,0,0,24.3-9.67,47.29,47.29,0,0,0,19.78,4.14,45.5,45.5,0,0,0,25.59-7.44c9.09,8.29,22.46,13.55,37.38,13.55,18.3,0,34.29-7.91,42.88-19.64a33.3,33.3,0,0,0,4,.26c14.55,0,26.35-10.06,26.35-22.47s-11.79-22.49-26.35-22.49a30.11,30.11,0,0,0-7.5.94c-7.84-8.12-19.57-13.76-33-15.13-2.74-27.45-30.27-49-63.82-49Z"/><path d="M493.52,89.79A4.24,4.24,0,0,1,497.8,94v.19c0,2.13-1.43,4.76-4.36,4.76a4.31,4.31,0,0,1-4.27-4.37,1.09,1.09,0,0,1,0-.18,4.4,4.4,0,0,1,4.19-4.61Zm0,7.86c1.65,0,2.71-1.32,2.71-3.2,0-1.66-.77-3.34-2.73-3.34-1.65,0-2.71,1.26-2.71,3.14,0,1.69.81,3.4,2.71,3.4Z"/><path d="M500.08,90.16l1.51-.27v1.72a3.25,3.25,0,0,1,2.54-1.82,1.37,1.37,0,0,1,.73.21l-.39,1.62a2.71,2.71,0,0,0-.74-.15c-1,0-1.82,1.18-2.17,1.78v5.52h-1.51Z"/><path d="M510.25,89.79a4.28,4.28,0,0,1,2.85.94l-.68,1.18a3.69,3.69,0,0,0-2.27-.8c-1.72,0-2.77,1.48-2.77,3.29s1,3.25,2.83,3.25a3.68,3.68,0,0,0,2.36-.93l.52,1.12a4.37,4.37,0,0,1-7.3-3.37A4.45,4.45,0,0,1,510,89.79,1.77,1.77,0,0,1,510.25,89.79Z"/><path d="M515.24,85.18l1.51-.27v6.66a5.27,5.27,0,0,1,3.58-1.78c1.3,0,2.28.74,2.28,2.61v6.33H521.1v-5.9c0-1.31-.52-1.7-1.18-1.7-1.12,0-2.59,1.3-3.17,1.84v5.76h-1.51Z"/><path d="M529.05,89.79c2,0,3.49,1.39,3.49,3.89l-.93.26-5.13.68c.14,1.81,1.18,3,2.88,3a4.61,4.61,0,0,0,2.73-1.1l.45,1.17A5.09,5.09,0,0,1,529.18,99a4.15,4.15,0,0,1-4.33-4c0-.15,0-.3,0-.46C524.86,91.83,526.57,89.79,529.05,89.79Zm-2.56,3.68,4.38-.56S530.69,91,529,91A2.53,2.53,0,0,0,526.49,93.47Z"/><path d="M534.56,96.86a4.49,4.49,0,0,0,2.5.84c1.08,0,1.63-.45,1.63-1.14,0-1.86-4.28-1.58-4.28-4.37,0-1.32,1-2.4,3.18-2.4a5.63,5.63,0,0,1,2.42.48l-.41,1.28a5.45,5.45,0,0,0-2.13-.5c-1,0-1.53.43-1.53,1,0,1.78,4.28,1.49,4.28,4.38,0,1.55-1.22,2.51-3.2,2.51a4.82,4.82,0,0,1-2.79-.76Z"/><path d="M542.86,91.23h-1.24v-.8l1.24-.5V88l1.51-.38V90h2.83v1.22h-2.83V96c0,1.16.41,1.62,1.07,1.62a3.35,3.35,0,0,0,1.84-.79l.37,1.22a4.29,4.29,0,0,1-2.52.89c-1.37,0-2.27-.76-2.27-2.54Z"/><path d="M549.47,90.16l1.51-.27v1.72a3.25,3.25,0,0,1,2.54-1.82,1.37,1.37,0,0,1,.76.17l-.42,1.62a2.71,2.71,0,0,0-.74-.15c-1,0-1.82,1.18-2.17,1.78v5.52h-1.51Z"/><path d="M560.43,93.43v-.34c0-1,0-2-1.43-2a5.25,5.25,0,0,0-2.73,1l-.46-1.22a6.69,6.69,0,0,1,3.62-1.06c1.9,0,2.52.81,2.52,2.77v3.93a1,1,0,0,0,.82,1.15l.18,0-.5,1.22a1.89,1.89,0,0,1-1.88-1.42A3.55,3.55,0,0,1,557.64,99a2.2,2.2,0,0,1-2.43-2,2,2,0,0,1,0-.25C555.2,95,557.12,93.86,560.43,93.43Zm0,2.7V94.52c-2.46.42-3.62,1-3.62,2.16,0,.68.5,1,1.14,1A3.51,3.51,0,0,0,560.43,96.13Z"/><path d="M565.36,91.23h-1.24v-.8l1.24-.5V88l1.51-.38V90h2.83v1.22h-2.84V96c0,1.16.41,1.62,1.07,1.62a3.35,3.35,0,0,0,1.84-.79l.37,1.22a4.29,4.29,0,0,1-2.52.89c-1.37,0-2.26-.76-2.26-2.54Z"/><path d="M575.7,89.79A4.24,4.24,0,0,1,580,94v.19c0,2.13-1.43,4.76-4.36,4.76a4.31,4.31,0,0,1-4.27-4.37,1.09,1.09,0,0,1,0-.18,4.4,4.4,0,0,1,4.19-4.61Zm0,7.86c1.65,0,2.71-1.32,2.71-3.2,0-1.66-.77-3.34-2.73-3.34-1.65,0-2.71,1.26-2.71,3.14,0,1.69.82,3.4,2.71,3.4Z"/><path d="M582.26,90.16l1.51-.27v1.72a3.25,3.25,0,0,1,2.54-1.82,1.37,1.37,0,0,1,.76.17l-.39,1.63a2.12,2.12,0,0,0-.74-.15c-1,0-1.82,1.18-2.17,1.78v5.51h-1.51Z"/><path id="outline" d="M518.73,31.68h5v5.11h2.53a10.86,10.86,0,0,0,3.48-.58,8.51,8.51,0,0,0,1.69-.76,6.16,6.16,0,0,1-1.17-3.23,6.79,6.79,0,0,1,1.23-4.8l.53-.62.63.5a8,8,0,0,1,3.14,5.06,7.7,7.7,0,0,1,5.8.54l.69.41-.42.69c-1.42,2.75-4.38,3.61-7.27,3.47-4.33,10.79-13.76,15.9-25.2,15.9-5.91,0-11.33-2.21-14.41-7.45l-.05-.09-.45-.91a14.43,14.43,0,0,1-1.15-7.36l.07-.76h4.28V31.68h5v-5h10v-5h6Z"/><g id="Containers"><path class="cls-19" d="M502.19,32.88h.34v3.61h-.34Zm-.66,0h.33v3.61h-.36Zm-.66,0h.36v3.61h-.37Zm-.66,0h.36v3.61h-.36Zm-.66,0h.36v3.61h-.36Zm-.64,0h.34v3.61h-.34Zm-.36-.36h4.31v4.34h-4.34Z"/><path class="cls-19" d="M507.19,27.87h.34v3.61h-.34Zm-.66,0h.33v3.61h-.36Zm-.66,0h.36v3.61h-.37Zm-.66,0h.36v3.61h-.36Zm-.66,0h.36v3.61h-.36Zm-.64,0h.34v3.61h-.34Zm-.36-.36h4.31v4.34h-4.3Z"/><path class="cls-19" d="M507.19,32.88h.34v3.61h-.34Zm-.66,0h.33v3.61h-.36Zm-.66,0h.36v3.61h-.37Zm-.66,0h.36v3.61h-.36Zm-.66,0h.36v3.61h-.36Zm-.64,0h.34v3.61h-.34Zm-.36-.36h4.31v4.34h-4.3Z"/><path class="cls-19" d="M512.19,32.88h.34v3.61h-.34Zm-.66,0h.33v3.61h-.36Zm-.66,0h.36v3.61h-.37Zm-.66,0h.36v3.61h-.36Zm-.66,0h.36v3.61h-.36Zm-.64,0h.34v3.61h-.34Zm-.36-.36h4.31v4.34h-4.3Z"/><path class="cls-19" d="M512.19,27.87h.34v3.61h-.34Zm-.66,0h.33v3.61h-.36Zm-.66,0h.36v3.61h-.37Zm-.66,0h.36v3.61h-.36Zm-.66,0h.36v3.61h-.36Zm-.64,0h.34v3.61h-.34Zm-.36-.36h4.31v4.34h-4.3Z"/><path class="cls-19" d="M517.2,32.88h.34v3.61h-.34Zm-.66,0h.32v3.61h-.36Zm-.66,0h.36v3.61h-.38Zm-.66,0h.36v3.61h-.36Zm-.66,0h.36v3.61h-.36Zm-.64,0h.34v3.61h-.34Zm-.36-.36h4.3v4.34h-4.3V32.52Z"/><path class="cls-19" d="M517.2,27.87h.34v3.61h-.34Zm-.66,0h.32v3.61h-.36Zm-.66,0h.36v3.61h-.38Zm-.66,0h.36v3.61h-.36Zm-.66,0h.36v3.61h-.36Zm-.64,0h.34v3.61h-.34Zm-.36-.36h4.3v4.34h-4.3V27.52Z"/><path class="cls-19" d="M517.2,22.87h.34v3.61h-.34Zm-.66,0h.32v3.61h-.36Zm-.66,0h.36v3.61h-.38Zm-.66,0h.36v3.61h-.36Zm-.66,0h.36v3.61h-.36Zm-.64,0h.34v3.61h-.34Zm-.36-.36h4.3v4.34h-4.3V22.51Z"/><path class="cls-19" d="M522.2,32.88h.34v3.61h-.34Zm-.66,0h.32v3.61h-.36Zm-.66,0h.36v3.61h-.38Zm-.66,0h.36v3.61h-.36Zm-.66,0h.36v3.61h-.36Zm-.64,0h.34v3.61h-.34Zm-.36-.36h4.3v4.34h-4.34V32.52Z"/></g><path class="cls-16" d="M507.62,43.88a1.2,1.2,0,1,1-1.2,1.2,1.2,1.2,0,0,1,1.2-1.2h0"/><path d="M507.62,44.22a.85.85,0,0,1,.31.06.35.35,0,0,0-.14.47.36.36,0,0,0,.48.14.62.62,0,0,0,.14-.14.86.86,0,1,1-1.13-.47.79.79,0,0,1,.34-.06"/><path class="cls-16" d="M510.8,52.5a10.55,10.55,0,0,1-5.49-5.41,18.08,18.08,0,0,1-4,.6h-1.83c-.64,0-1.42,0-2.33-.07,2.72,2.72,6.06,4.81,12.25,4.84Z"/><path id="path3054-2-9" class="cls-20" d="M569.36,37.9l11.88,5.66,2.94,12.75L576,66.54H562.77l-8.22-10.23,2.93-12.75Z"/><path id="path3055" d="M569.25,36.52a2.06,2.06,0,0,0-.82.2l-11.26,5.37A2.14,2.14,0,0,0,556,43.54l-2.78,12.08a2.1,2.1,0,0,0,.29,1.64l.12.17,7.79,9.68a2.11,2.11,0,0,0,1.68.8H575.6a2.12,2.12,0,0,0,1.68-.8l7.79-9.68a2.13,2.13,0,0,0,.42-1.81l-2.78-12.08a2.2,2.2,0,0,0-1.16-1.45L570.3,36.72a2.33,2.33,0,0,0-1-.21Z"/><path id="path3059" class="cls-21" d="M569.36,40.63a.69.69,0,0,0-.67.74h0v.16a3.4,3.4,0,0,0,.09.64,7.19,7.19,0,0,1,.07,1.22.75.75,0,0,1-.22.35V44a10,10,0,0,0-1.22.19,8.67,8.67,0,0,0-4.4,2.51l-.24-.17a.47.47,0,0,1-.4,0,5.44,5.44,0,0,1-.91-.82c-.14-.16-.29-.32-.44-.47l-.15-.12a.91.91,0,0,0-.47-.18.65.65,0,0,0-.54.24.73.73,0,0,0,.15,1h0l.14.11a3.16,3.16,0,0,0,.56.33,7,7,0,0,1,1,.71.74.74,0,0,1,.14.39l.22.18A8.74,8.74,0,0,0,560.71,54l-.28.08a1.33,1.33,0,0,1-.29.29,7.11,7.11,0,0,1-1.21.2,4.62,4.62,0,0,0-.65,0h-.18a.68.68,0,1,0,.09,1.35.78.78,0,0,0,.21,0h.17l.6-.23a5.26,5.26,0,0,1,1.17-.35.64.64,0,0,1,.39.14l.29-.05a8.72,8.72,0,0,0,3.88,4.85l-.12.29a.67.67,0,0,1,.08.42,7.25,7.25,0,0,1-.61,1.09q-.19.27-.36.54l-.09.18a.68.68,0,1,0,1.15.73s0-.1.07-.14h0l.08-.17c.07-.21.13-.41.19-.62a4.34,4.34,0,0,1,.52-1.21.47.47,0,0,1,.29-.14l.15-.28a8.77,8.77,0,0,0,6.22,0l.14.26a.52.52,0,0,1,.34.21,6.22,6.22,0,0,1,.46,1.13,5,5,0,0,0,.2.62l.08.17a.68.68,0,0,0,1.28-.44.59.59,0,0,0-.06-.14l0-.2q-.17-.27-.36-.54a5.67,5.67,0,0,1-.64-1,.54.54,0,0,1,0-.41,1.09,1.09,0,0,1-.11-.27,8.76,8.76,0,0,0,3.88-4.88l.29.05a.57.57,0,0,1,.38-.14,6.84,6.84,0,0,1,1.17.35,3.92,3.92,0,0,0,.6.23h.17a.68.68,0,1,0,.5-1.26l-.2-.05h-.2l-.65,0a5.46,5.46,0,0,1-1.21-.2.58.58,0,0,1-.29-.29L578,54a8.79,8.79,0,0,0-1.4-6.06l.24-.21a.51.51,0,0,1,.13-.38,7.15,7.15,0,0,1,1-.7,3.57,3.57,0,0,0,.56-.33l.15-.12A.68.68,0,0,0,578,45a.48.48,0,0,0-.16.12l-.15.12a4.81,4.81,0,0,0-.44.47,5.87,5.87,0,0,1-.91.82.72.72,0,0,1-.41,0l-.26.18a8.9,8.9,0,0,0-5.59-2.7v-.3a.47.47,0,0,1-.22-.34,5.61,5.61,0,0,1,.08-1.22c0-.21.07-.42.09-.64v-.19a.71.71,0,0,0-.67-.74h0Zm-.84,5.22-.2,3.53h0a.6.6,0,0,1-.62.56.68.68,0,0,1-.32-.11h0l-2.9-2A6.87,6.87,0,0,1,567.8,46,4.18,4.18,0,0,1,568.52,45.85Zm1.69,0a7,7,0,0,1,4,1.95l-2.88,2h0a.6.6,0,0,1-.83-.13.54.54,0,0,1-.11-.32h0Zm-6.8,3.26,2.64,2.36h0a.6.6,0,0,1,0,.84.54.54,0,0,1-.26.16h0l-3.39,1a6.82,6.82,0,0,1,1-4.38Zm11.89,0a7.08,7.08,0,0,1,1,4.38l-3.41-1h0a.6.6,0,0,1-.4-.74.56.56,0,0,1,.17-.26h0l2.63-2.35Zm-6.44,2.55h1l.67.84-.24,1-1,.47-1-.47-.24-1Zm3.47,2.88h.14l3.51.59a7,7,0,0,1-2.81,3.53l-1.36-3.29h0a.59.59,0,0,1,.32-.78.65.65,0,0,1,.2-.05Zm-5.89,0a.6.6,0,0,1,.59.59.7.7,0,0,1,0,.25h0l-1.35,3.25a6.87,6.87,0,0,1-2.8-3.5l3.48-.59h.13Zm2.9,1.46a.59.59,0,0,1,.54.31h0l1.71,3.09a5.76,5.76,0,0,1-.68.19,6.92,6.92,0,0,1-3.8-.2l1.75-3.1h0A.58.58,0,0,1,569.34,56Z"/><path d="M483.1,59.24a1.6,1.6,0,0,0-.9-.21H456.6a1.49,1.49,0,0,0-.94.23,2,2,0,0,0-1,1.75V75.84a1.36,1.36,0,0,0,1.2,1.51H456a1.75,1.75,0,0,0,.88-.27L463.41,73l4.68,6.91a1.53,1.53,0,0,0,2.64,0l5.95-8.8L482,73.73a1.48,1.48,0,0,0,1.84-.29,1.67,1.67,0,0,0,.37-1.08V61A2,2,0,0,0,483.1,59.24ZM462.55,71.75l-6.39,3.94V62.31Zm18.24-9.44-4.63,6.85-3.6-1.77Zm-22.1-1.75h22l-9.79,6Zm16.6,9.89-5.83,8.62v0l-4.64-6.86,6.29-3.87Zm-5.91-2.91-5.52,3.4-6.21-9.17Zm13.28-5.23V72.37l-5.11-2.51Z"/><path d="M632.7,73.25H611.05a2.46,2.46,0,0,0-2.47,2.47v5.82h6v-1a1.33,1.33,0,0,1,1.34-1.34h11.94a1.33,1.33,0,0,1,1.34,1.33h0v1h6V75.72a2.49,2.49,0,0,0-2.49-2.48Z"/><path d="M629.17,91.93a1.35,1.35,0,0,1-1.31,1.33H615.92a1.34,1.34,0,0,1-1.34-1.34h0V91h-6v5.8a2.48,2.48,0,0,0,2.47,2.47H632.7a2.49,2.49,0,0,0,2.47-2.47V91h-6Z"/><rect x="608.58" y="83.26" width="6" height="6"/><rect x="629.17" y="83.26" width="6" height="6"/><path d="M415,81.81l-4.41,1.62a12.21,12.21,0,0,0,.35,2.08L415.1,84a7.93,7.93,0,0,1-.13-2.17"/><path d="M434.47,76.94a12.39,12.39,0,0,0-1.08-1.83L429,76.72a8.29,8.29,0,0,1,1.3,1.75Z"/><path d="M424.76,75.69a8.13,8.13,0,0,1,2.38,1.69l4.41-1.59a12.61,12.61,0,0,0-22.84,8.32l4.41-1.63a8.18,8.18,0,0,1,8.76-7.55,8.47,8.47,0,0,1,2.87.75"/><path d="M411.18,85.41,407,86.94a12.52,12.52,0,0,0,2,4.26l4.39-1.59a8.27,8.27,0,0,1-2.18-4.2"/><path d="M429.47,83.75a8.46,8.46,0,0,1-.74,2.83,8.23,8.23,0,0,1-10.89,4,8.13,8.13,0,0,1-2.39-1.7L411,90.49A12.51,12.51,0,0,0,416,94.58a12.62,12.62,0,0,0,17.91-12.42Z"/><path d="M430.56,78.36l-4.19,1.52a8.37,8.37,0,0,1,1,4.63l4.4-1.6a12.79,12.79,0,0,0-1.24-4.54"/><path d="M415,82.69a6.61,6.61,0,0,1,0-.89l-4.41,1.6a6,6,0,0,0,.1.84Z"/><path d="M433.86,75.77c-.14-.23-.28-.44-.44-.66L429,76.71c.19.2.37.41.54.62Z"/><path d="M411,90.45a11.24,11.24,0,0,0,1.12,1.36L417,90.06a7.69,7.69,0,0,1-1.51-1.22Zm22.82-8.3-4.4,1.6a8.58,8.58,0,0,1-.37,1.88l4.77-1.76a12.78,12.78,0,0,0,0-1.75"/><path id="path5530" class="cls-12" d="M151.74,887.38c29.23,0,53.92-16.38,61.6-38.75a24.38,24.38,0,0,0,10.81,2.5c12.16,0,22-8.67,22-19.37v-.32a65.25,65.25,0,0,0,11.42,1c24.11,0,43.68-13,43.68-29.06s-19.57-29.06-43.68-29.06a59.38,59.38,0,0,0-25.5,5.54c-4.3-11.28-16.42-19.45-30.7-19.45a34.39,34.39,0,0,0-24.3,9.67,47.58,47.58,0,0,0-19.77-4.17,45.58,45.58,0,0,0-25.59,7.45c-9.09-8.28-22.46-13.54-37.38-13.54-18.3,0-34.29,7.9-42.88,19.64a29.74,29.74,0,0,0-4-.26c-14.55,0-26.38,10.06-26.38,22.46s11.79,22.49,26.35,22.49a30.11,30.11,0,0,0,7.5-.94c7.84,8.12,19.57,13.76,33,15.13,2.74,27.45,30.27,49,63.82,49Z"/><path d="M115.62,798.5l1.47-.28v1.36a3,3,0,0,1,2.67-1.45c2.28,0,3.7,1.94,3.7,4.34,0,2.63-1.7,4.85-4.38,4.85a3.29,3.29,0,0,1-2-.54v4.53l-1.51.27Zm1.51,2.47v3.91c0,.79.66,1.14,1.65,1.14,1.88,0,3.08-1.28,3.08-3.45,0-2-1-3.1-2.29-3.1a3.26,3.26,0,0,0-2.44,1.51Z"/><path d="M125.69,798.36h1.51v5.91c0,1.34.54,1.7,1.24,1.7a5,5,0,0,0,2.94-1.63v-6h1.51v6a15.44,15.44,0,0,0,.39,2.69l-1.49.14s-.21-1-.29-1.59a5,5,0,0,1-3.45,1.68c-1.43,0-2.36-.74-2.36-2.61Z"/><path d="M135.83,793.52l1.51-.27v6a3.15,3.15,0,0,1,2.52-1.15c2.3,0,3.76,1.86,3.76,4.3a4.6,4.6,0,0,1-4.32,4.88h-.54a12.07,12.07,0,0,1-2.92-.39Zm1.51,7.09v5.25a6.27,6.27,0,0,0,1.49.19c1.84,0,3.19-1.22,3.19-3.52,0-1.92-1-3.08-2.36-3.08a3.29,3.29,0,0,0-2.31,1.2Z"/><path d="M146,793.52l1.51-.27v13.83H146Z"/><path d="M150.14,795.11a1,1,0,1,1,1,1A1,1,0,0,1,150.14,795.11Zm.27,3.25h1.51v8.71h-1.51Z"/><path d="M158.7,798.13a4.22,4.22,0,0,1,2.85,1l-.68,1.18a3.6,3.6,0,0,0-2.27-.81c-1.72,0-2.77,1.49-2.77,3.28s1,3.25,2.83,3.25a3.57,3.57,0,0,0,2.36-.93l.52,1.12a4.37,4.37,0,0,1-7.3-3.37,4.48,4.48,0,0,1,4.26-4.67Z"/><path d="M172.17,798.13a4.22,4.22,0,0,1,2.85,1l-.68,1.18a3.6,3.6,0,0,0-2.27-.81c-1.72,0-2.77,1.49-2.77,3.28s1,3.25,2.83,3.25a3.57,3.57,0,0,0,2.36-.93l.52,1.12a4.37,4.37,0,0,1-7.3-3.37,4.48,4.48,0,0,1,4.26-4.67Z"/><path d="M177.17,793.52l1.51-.27v13.83h-1.51Z"/><path d="M185.34,798.13a4.23,4.23,0,0,1,4.28,4.21v.2c0,2.13-1.43,4.76-4.36,4.76a4.31,4.31,0,0,1-4.26-4.37v-.17a4.41,4.41,0,0,1,4.19-4.63Zm0,7.85c1.65,0,2.71-1.32,2.71-3.2,0-1.67-.77-3.34-2.73-3.34-1.65,0-2.71,1.26-2.71,3.14,0,1.71.81,3.41,2.71,3.41Z"/><path d="M191.82,798.36h1.51v5.91c0,1.34.54,1.7,1.24,1.7a5,5,0,0,0,2.94-1.63v-6h1.56v6a15.44,15.44,0,0,0,.39,2.69l-1.49.14s-.21-1-.29-1.59a5,5,0,0,1-3.45,1.68c-1.43,0-2.36-.74-2.36-2.61Z"/><path d="M206.15,798.13a4.18,4.18,0,0,1,1.68.31v-4.92l1.51-.27v11.13a15.44,15.44,0,0,0,.39,2.69l-1.49.14s-.17-.79-.27-1.39a3.25,3.25,0,0,1-2.83,1.48c-2.27,0-3.74-1.9-3.74-4.29a4.61,4.61,0,0,1,4.33-4.88Zm1.68,6.27v-3.75c0-1-.83-1.24-1.67-1.24-1.86,0-3.16,1.28-3.16,3.5,0,1.94,1,3.08,2.32,3.08A3.26,3.26,0,0,0,207.83,804.4Z"/><path d="M252.81,792.59a3.11,3.11,0,0,0-2.61,1.51l-3.51,6.29,3,5.3,4.35-7.58h16.41l-2.22-4a3.08,3.08,0,0,0-2.61-1.51Zm2,6.89-4.33,7.59,3.51,6.14.82,1.44h8.77l4.39-7.58-4.39-7.59Zm10.4,0,4.35,7.59-.22.34-8.12,14.13h4.42a3.08,3.08,0,0,0,2.61-1.51l6.42-11.37a3.12,3.12,0,0,0,0-3.1l-3.38-6.07Zm-19.36,2.35-2.13,3.73a3.12,3.12,0,0,0,0,3.1L250.14,820a3,3,0,0,0,2.61,1.51h6.83l3.23-5.51h-8.74l-1.17-2-.09-.14-3.92-6.76Zm13.38,1.79a3.45,3.45,0,1,1-3.45,3.45,3.41,3.41,0,0,1,3.37-3.44h.08Z"/><path id="path7291" d="M78.86,785.79l-6,12.15,10.63,12.31-19.72,2.24,30.59.32-15.46-27Z"/><path id="path7293" d="M77.67,781,63.82,792.58,53.54,809.93l8.75-.88Z"/><path d="M152.53,859a57.37,57.37,0,0,1-32.38-9.61,53.51,53.51,0,0,1-5.64-4.34,3.21,3.21,0,0,1-.44-.46.63.63,0,0,1,.76-1c.68.33,1.34.69,2,1a78.29,78.29,0,0,0,38.21,8.89,75.27,75.27,0,0,0,26.13-5.43,6.65,6.65,0,0,1,1.25-.44,1.17,1.17,0,0,1,1.46.61,1.22,1.22,0,0,1-.52,1.44,8.58,8.58,0,0,1-1,.72,53.28,53.28,0,0,1-17.59,7.16A57.81,57.81,0,0,1,152.53,859Z"/><path d="M182.68,845a46.22,46.22,0,0,0-5.38.41c-.34,0-.73.12-.89-.25s.17-.68.47-.88a14.36,14.36,0,0,1,7.33-2.19,14.83,14.83,0,0,1,5.34.5,1.42,1.42,0,0,1,1.18,1.52,15.59,15.59,0,0,1-4.7,11.23,3.26,3.26,0,0,1-.36.29c-.28.21-.63.4-.93.14s-.12-.57,0-.86a36.52,36.52,0,0,0,2.32-7,6.14,6.14,0,0,0,.1-.93,1.48,1.48,0,0,0-1.35-1.71A11.87,11.87,0,0,0,182.68,845Z"/><rect class="cls-17" x="437.03" y="356.8" width="208.02" height="128.08" rx="2" ry="2"/><rect class="cls-9" x="437.03" y="356.8" width="208.02" height="128.08" rx="2" ry="2"/><rect x="447.34" y="371.99" width="188.97" height="40.93" rx="2" ry="2"/><rect class="cls-22" x="447.34" y="371.99" width="188.97" height="40.93" rx="2" ry="2"/><path class="cls-5" d="M505.41,390.52H507l2.07,7,2.5-7h1.36l2.09,7,2.46-7h1.57l-3.37,8.81h-1.47l-2.07-6.64-2.46,6.64h-1.47Z"/><path class="cls-5" d="M524.46,390.28a4.26,4.26,0,0,1,4.29,4.22,1.34,1.34,0,0,1,0,.2c0,2.13-1.43,4.76-4.36,4.76a4.32,4.32,0,0,1-4.26-4.37v-.18a4.41,4.41,0,0,1,4.19-4.62Zm0,7.86c1.65,0,2.71-1.32,2.71-3.2,0-1.67-.77-3.35-2.73-3.35-1.65,0-2.71,1.26-2.71,3.14,0,1.71.78,3.42,2.71,3.42Z"/><path class="cls-5" d="M531,390.65l1.51-.27v1.69a3.27,3.27,0,0,1,2.54-1.82,1.52,1.52,0,0,1,.76.17l-.39,1.63a2.27,2.27,0,0,0-.74-.15c-1,0-1.82,1.18-2.17,1.78v5.52H531Z"/><path class="cls-5" d="M537.51,385.68l1.51-.27v8.46h.21l3.45-3.35h2l-4.07,3.85,4.43,4.86h-2L539.26,395H539v4.24h-1.52Z"/><path class="cls-5" d="M546.66,385.68l1.51-.27v13.83h-1.51Z"/><path class="cls-5" d="M554.83,390.28a4.26,4.26,0,0,1,4.29,4.22,1.34,1.34,0,0,1,0,.2c0,2.13-1.43,4.76-4.36,4.76a4.32,4.32,0,0,1-4.26-4.37v-.18a4.41,4.41,0,0,1,4.19-4.62Zm0,7.86c1.65,0,2.71-1.32,2.71-3.2,0-1.67-.77-3.35-2.73-3.35-1.65,0-2.71,1.26-2.71,3.14,0,1.71.82,3.42,2.71,3.42Z"/><path class="cls-5" d="M565.89,393.93v-.33c0-1,0-2-1.43-2a5.22,5.22,0,0,0-2.73,1l-.46-1.22a6.66,6.66,0,0,1,3.62-1.07c1.9,0,2.52.81,2.52,2.77V397a1,1,0,0,0,.83,1.15h.17l-.5,1.22A1.88,1.88,0,0,1,566,398a3.5,3.5,0,0,1-2.89,1.51,2.19,2.19,0,0,1-2.42-1.95,1.94,1.94,0,0,1,0-.24C560.66,395.47,562.58,394.35,565.89,393.93Zm0,2.71v-1.57c-2.46.41-3.62,1-3.62,2.15,0,.68.5,1,1.14,1a3.45,3.45,0,0,0,2.48-1.58Z"/><path class="cls-5" d="M574.66,390.28a4.36,4.36,0,0,1,1.68.31v-4.92l1.51-.27v11.13a15.17,15.17,0,0,0,.39,2.69l-1.49.14s-.17-.79-.27-1.39a3.22,3.22,0,0,1-2.83,1.49c-2.27,0-3.74-1.9-3.74-4.3a4.61,4.61,0,0,1,4.33-4.87Zm1.68,6.27v-3.76c0-1-.83-1.24-1.67-1.24-1.86,0-3.16,1.28-3.16,3.5,0,1.94,1,3.08,2.32,3.08a3.21,3.21,0,0,0,2.51-1.57Z"/><rect class="cls-11" x="448.02" y="427.68" width="85.87" height="40.93" rx="2" ry="2"/><rect class="cls-1" x="448.02" y="427.68" width="85.87" height="40.93" rx="2" ry="2"/><path d="M455.69,439.86h4.24c3.83,0,7.79,1.8,7.79,6.78,0,4.7-3.52,7.22-8.58,7.22h-3.45Zm3.24,12.55c5.1,0,6.95-2.47,6.95-5.58,0-3.36-2.17-5.52-6.24-5.52h-2.23v11.1Z"/><path d="M470,440.89a1.14,1.14,0,1,1,2.27,0,1.14,1.14,0,0,1-2.27,0Zm.3,3.52h1.63v9.45h-1.63Z"/><path d="M475.08,439.16l1.63-.29v9.18h.23l3.74-3.64h2.19l-4.41,4.18,4.8,5.27h-2.2l-4.09-4.6h-.26v4.6h-1.63Z"/><path d="M489.82,448.11v-.36c0-1.11,0-2.16-1.56-2.16a5.61,5.61,0,0,0-3,1.05l-.5-1.32a7.12,7.12,0,0,1,3.93-1.16c2,0,2.72.88,2.72,3v4.27a1.13,1.13,0,0,0,1.05,1.26L492,454a2,2,0,0,1-2-1.53,3.83,3.83,0,0,1-3.13,1.63,2.38,2.38,0,0,1-2.64-2.37C484.15,449.79,486.23,448.57,489.82,448.11Zm0,2.94v-1.74c-2.67.44-3.93,1.11-3.93,2.33,0,.73.55,1.05,1.24,1.05A3.84,3.84,0,0,0,489.82,451.05Z"/><path d="M494.48,451.82a4.92,4.92,0,0,0,2.71.93c1.17,0,1.76-.51,1.76-1.24,0-2-4.64-1.72-4.64-4.75,0-1.42,1-2.6,3.44-2.6a6.22,6.22,0,0,1,2.63.53l-.44,1.38a6.13,6.13,0,0,0-2.31-.54c-1.14,0-1.66.46-1.66,1.11,0,1.93,4.64,1.62,4.64,4.74,0,1.68-1.32,2.73-3.46,2.73a5.32,5.32,0,0,1-3-.84Z"/><path d="M503.51,445.74h-1.34v-.89l1.34-.54v-2.1l1.64-.4v2.6h3.06v1.33h-3.06v5.18c0,1.26.44,1.77,1.15,1.77a3.71,3.71,0,0,0,2-.87l.4,1.33a4.7,4.7,0,0,1-2.73,1c-1.49,0-2.46-.82-2.46-2.75Z"/><path d="M514.57,444.16c2.19,0,3.78,1.51,3.78,4.22l-1,.3-5.57.73c.15,1.95,1.28,3.28,3.13,3.28a5,5,0,0,0,3-1.2l.48,1.26a5.43,5.43,0,0,1-3.63,1.36,4.48,4.48,0,0,1-4.68-4.76C510,446.39,511.89,444.16,514.57,444.16Zm-2.77,4,4.75-.61a2.17,2.17,0,0,0-2.08-2A2.76,2.76,0,0,0,511.8,448.15Z"/><path d="M520.56,451.82a4.92,4.92,0,0,0,2.71.93c1.18,0,1.76-.51,1.76-1.24,0-2-4.64-1.72-4.64-4.75,0-1.42,1-2.6,3.45-2.6a6.2,6.2,0,0,1,2.62.53l-.44,1.38a6.13,6.13,0,0,0-2.31-.54c-1.13,0-1.66.46-1.66,1.11,0,1.93,4.64,1.62,4.64,4.74,0,1.68-1.32,2.73-3.46,2.73a5.35,5.35,0,0,1-3-.84Z"/><line class="cls-1" x1="353.18" y1="517.26" x2="353.18" y2="485.99"/><line class="cls-1" x1="413.66" y1="450.47" x2="448.04" y2="449.93"/><line class="cls-8" x1="589.87" y1="414.06" x2="589.87" y2="583.96"/><rect x="551.29" y="534.11" width="61.03" height="30.46"/><path class="cls-23" d="M554.83,541.15h14.11c.84,0,1.51-.42,1.51-.93v-3.74c0-.52-.67-.93-1.51-.93H554.83c-.84,0-1.51.42-1.51.93v3.74C553.32,540.72,554,541.15,554.83,541.15Z"/><path class="cls-23" d="M553.32,542.91v5.62h5.56c.84,0,1.51-.42,1.51-.93v-3.74c0-.52-.67-.92-1.51-.92H553.3Z"/><path class="cls-23" d="M553.32,557.69v5.61h5.56c.84,0,1.51-.41,1.51-.92v-3.74c0-.53-.67-.93-1.51-.93H553.3Z"/><path class="cls-23" d="M554.83,555.91h14.11c.84,0,1.51-.41,1.51-.93v-3.73c0-.53-.67-.93-1.51-.93H554.83c-.84,0-1.51.41-1.51.93V555C553.32,555.51,554,555.91,554.83,555.91Z"/><path class="cls-23" d="M593.44,551.25V555c0,.52.67.92,1.51.92h14.11c.84,0,1.51-.41,1.51-.92v-3.74c0-.53-.67-.93-1.51-.93H595C594.12,550.3,593.44,550.72,593.44,551.25Z"/><path class="cls-23" d="M610.57,548.53v-5.62H605c-.84,0-1.51.42-1.51.93v3.75c0,.52.67.93,1.51.93Z"/><path class="cls-23" d="M603.47,558.63v3.73c0,.53.67.93,1.51.93h5.58v-5.62H605C604.15,557.69,603.47,558.11,603.47,558.63Z"/><path class="cls-23" d="M580.48,547.59v-3.74c0-.52-.67-.93-1.51-.93H564.88c-.84,0-1.51.42-1.51.93v3.74c0,.52.67.93,1.51.93H579C579.8,548.53,580.48,548.11,580.48,547.59Z"/><path class="cls-23" d="M564.88,557.69c-.84,0-1.51.41-1.51.92v3.74c0,.53.67.93,1.51.93H579c.84,0,1.51-.42,1.51-.93v-3.74c0-.52-.67-.92-1.51-.92Z"/><path class="cls-23" d="M574.88,541.15H589c.84,0,1.51-.42,1.51-.93v-3.74c0-.52-.67-.93-1.51-.93H574.88c-.84,0-1.51.42-1.51.93v3.74C573.38,540.72,574.05,541.15,574.88,541.15Z"/><path class="cls-23" d="M595,541.15h14.11c.84,0,1.51-.42,1.51-.93v-3.74c0-.52-.67-.93-1.51-.93H595c-.84,0-1.51.42-1.51.93v3.74C593.44,540.72,594.12,541.15,595,541.15Z"/><path class="cls-23" d="M599,542.91H584.88c-.84,0-1.51.42-1.51.93v3.74c0,.52.67.93,1.51.93H599c.84,0,1.51-.42,1.51-.93v-3.74C600.55,543.34,599.88,542.91,599,542.91Z"/><path class="cls-23" d="M584.88,563.3H599c.84,0,1.51-.41,1.51-.92v-3.74c0-.53-.67-.93-1.51-.93H584.88c-.84,0-1.51.42-1.51.93v3.74C583.41,562.89,584.09,563.3,584.88,563.3Z"/><path class="cls-23" d="M590.51,555v-3.74c0-.53-.67-.93-1.51-.93H574.88c-.84,0-1.51.42-1.51.93V555c0,.52.67.92,1.51.92H589C589.88,555.91,590.51,555.51,590.51,555Z"/><path class="cls-11" d="M613.45,524.73a12.35,12.35,0,0,1,1.06,1A54.33,54.33,0,0,1,623.12,536,34.29,34.29,0,0,1,628,548a24.87,24.87,0,0,1,.33,7.1,14.42,14.42,0,0,1-.6,2.92,16,16,0,0,1-1.82,3.91,10.93,10.93,0,0,1-2.53,2.72,12,12,0,0,1-3.63,1.84,21.9,21.9,0,0,1-5,.91,29.34,29.34,0,0,1-6-.08,18.29,18.29,0,0,1-6.54-2,11.37,11.37,0,0,1-4.57-4.34,12.14,12.14,0,0,1-1.43-7.07,21.52,21.52,0,0,1,2.1-7.39,37.61,37.61,0,0,1,3.37-5.7,43.22,43.22,0,0,1,3.54-4.36l.09-.07a11,11,0,0,0,.42,3.43,8.74,8.74,0,0,0,1.66,3.11c0,.06.08.13.16.14a20.57,20.57,0,0,0,4.41-4.28,13.35,13.35,0,0,0,2.42-5.84,15.9,15.9,0,0,0-.95-8.13Z"/><line class="cls-1" x1="534.53" y1="450.28" x2="544.29" y2="450.13"/><rect x="317.56" y="641.01" width="61.03" height="30.46"/><path class="cls-23" d="M321.1,648h14.11c.84,0,1.51-.42,1.51-.93v-3.74c0-.52-.67-.93-1.51-.93H321.1c-.84,0-1.51.42-1.51.93v3.74C319.59,647.62,320.26,648,321.1,648Z"/><path class="cls-23" d="M319.59,649.81v5.62h5.56c.84,0,1.51-.42,1.51-.93v-3.74c0-.52-.67-.93-1.51-.93h-5.58Z"/><path class="cls-23" d="M319.59,664.58v5.62h5.56c.84,0,1.51-.42,1.51-.93v-3.74c0-.52-.67-.93-1.51-.93h-5.58Z"/><path class="cls-23" d="M321.1,662.81h14.11c.84,0,1.51-.42,1.51-.93v-3.74c0-.52-.67-.93-1.51-.93H321.1c-.84,0-1.51.42-1.51.93v3.75C319.59,662.4,320.26,662.81,321.1,662.81Z"/><path class="cls-23" d="M359.71,658.14v3.75c0,.52.67.93,1.51.93h14.11c.84,0,1.51-.42,1.51-.93v-3.74c0-.52-.67-.93-1.51-.93H361.22C360.39,657.2,359.71,657.62,359.71,658.14Z"/><path class="cls-23" d="M376.84,655.42V649.8h-5.58c-.84,0-1.51.42-1.51.93v3.75c0,.52.67.93,1.51.93Z"/><path class="cls-23" d="M369.74,665.52v3.74c0,.52.67.93,1.51.93h5.58v-5.62h-5.58C370.42,664.58,369.74,665,369.74,665.52Z"/><path class="cls-23" d="M346.75,654.49v-3.74c0-.52-.67-.93-1.51-.93H331.15c-.84,0-1.51.42-1.51.93v3.74c0,.52.67.93,1.51.93h14.11C346.07,655.42,346.75,655,346.75,654.49Z"/><path class="cls-23" d="M331.15,664.58c-.84,0-1.51.42-1.51.93v3.74c0,.52.67.93,1.51.93h14.11c.84,0,1.51-.42,1.51-.93v-3.74c0-.52-.67-.93-1.51-.93Z"/><path class="cls-23" d="M341.15,648h14.11c.84,0,1.51-.42,1.51-.93v-3.74c0-.52-.67-.93-1.51-.93H341.15c-.84,0-1.51.42-1.51.93v3.74C339.65,647.62,340.32,648,341.15,648Z"/><path class="cls-23" d="M361.22,648h14.11c.84,0,1.51-.42,1.51-.93v-3.74c0-.52-.67-.93-1.51-.93H361.22c-.84,0-1.51.42-1.51.93v3.74C359.71,647.62,360.39,648,361.22,648Z"/><path class="cls-23" d="M365.29,649.81H351.15c-.84,0-1.51.42-1.51.93v3.74c0,.52.67.93,1.51.93h14.11c.84,0,1.51-.42,1.51-.93v-3.74C366.82,650.23,366.15,649.81,365.29,649.81Z"/><path class="cls-23" d="M351.15,670.2h14.11c.84,0,1.51-.42,1.51-.93v-3.74c0-.52-.67-.93-1.51-.93H351.15c-.84,0-1.51.42-1.51.93v3.74C349.68,669.78,350.36,670.2,351.15,670.2Z"/><path class="cls-23" d="M356.78,661.89v-3.74c0-.52-.67-.93-1.51-.93H341.15c-.84,0-1.51.42-1.51.93v3.74c0,.52.67.93,1.51.93h14.11C356.15,662.81,356.78,662.4,356.78,661.89Z"/><path class="cls-11" d="M379.72,631.63a11,11,0,0,1,1.06,1,53.28,53.28,0,0,1,8.61,10.22,34.14,34.14,0,0,1,4.89,12,24.17,24.17,0,0,1,.33,7.1,14.56,14.56,0,0,1-.6,2.92,15.81,15.81,0,0,1-1.82,3.91,11.09,11.09,0,0,1-2.53,2.72,12.19,12.19,0,0,1-3.63,1.84,22.25,22.25,0,0,1-5,.91,30.09,30.09,0,0,1-6-.08,18.82,18.82,0,0,1-6.54-2,11.5,11.5,0,0,1-4.57-4.34,12.32,12.32,0,0,1-1.43-7.07,21.9,21.9,0,0,1,2.1-7.39,38,38,0,0,1,3.37-5.7,43.74,43.74,0,0,1,3.54-4.36l.09-.07a11.37,11.37,0,0,0,.42,3.43,9,9,0,0,0,1.66,3.11c0,.06.08.13.16.14a20.58,20.58,0,0,0,4.41-4.28,13.21,13.21,0,0,0,2.42-5.84,15.67,15.67,0,0,0-1-8.13Z"/><rect x="545.81" y="427.68" width="90.14" height="40.93" rx="2" ry="2"/><rect class="cls-22" x="545.81" y="427.68" width="90.14" height="40.93" rx="2" ry="2"/><path class="cls-5" d="M558,439.72h8.25v1.45h-6.53v4.68h5.17v1.45h-5.17v5h6.51v1.45H558Z"/><path class="cls-5" d="M568.63,444.42l1.63-.29V446a5.85,5.85,0,0,1,3.91-2c1.41,0,2.48.8,2.48,2.84v6.86H575v-6.4c0-1.41-.57-1.85-1.28-1.85-1.24,0-2.86,1.43-3.47,2v6.23h-1.63Z"/><path class="cls-5" d="M578.52,444.27h1.72l2.5,7.42,3-7.42h1.7l-4,9.56h-1.55Z"/><path class="cls-5" d="M593.26,444a4.6,4.6,0,0,1,4.64,4.79c0,2.31-1.55,5.16-4.73,5.16a4.68,4.68,0,0,1-4.61-4.93A4.77,4.77,0,0,1,593.26,444Zm0,8.53c1.78,0,2.94-1.43,2.94-3.47,0-1.8-.84-3.63-3-3.63-1.79,0-2.94,1.36-2.94,3.4C590.28,450.7,591.18,452.55,593.24,452.55Z"/><path class="cls-5" d="M602.14,454.44l.61-1.41-3.67-8.76h1.78l2.75,6.68,2.67-6.68H608l-4.22,10.17c-.86,2.05-2,4-4.07,4.26l-.53-1.37A4.39,4.39,0,0,0,602.14,454.44Z"/><polygon class="cls-11" points="618.15 465 615.87 465.54 615.69 463.22 613.87 463.09 609.75 469.41 614.25 469.1 615.76 473.35 620.33 466.37 619.05 467.16 618.15 465"/><polygon class="cls-11" points="630.5 463.13 629.37 463.22 629.19 465.54 626.92 465 626.04 467.16 624.06 465.94 623.91 466.1 629.76 476.3 631.49 472.13 635.99 472.74 630.5 463.13"/><path class="cls-24" d="M626.36,463.85l2,.47.15-2,2-.16-.48-2,1.85-.77-1.06-1.73,1.53-1.33-1.53-1.33,1.06-1.73-1.87-.79.47-1.95-2-.16-.16-2-1.95.47-.79-1.87-1.73,1.06-1.33-1.53-1.28,1.57-1.74-1.05-.78,1.86-2-.47-.16,2-2,.16.47,2-1.87.79,1,1.73-1.53,1.33,1.53,1.32-1,1.69,1.87.79-.48,2,2,.15.15,2,2-.48.79,1.87,1.73-1,1.33,1.53,1.33-1.53,1.73,1Z"/><path d="M617,457.44a.33.33,0,0,1,0-.47l1.37-1.6a.29.29,0,0,1,.43,0l2.38,2.36a.3.3,0,0,0,.43,0l4.63-6.08a.3.3,0,0,1,.43,0l1.58,1.37a.35.35,0,0,1,0,.47l-6.41,8.42a.29.29,0,0,1-.43,0Z"/><rect class="cls-17" x="65.48" y="357.38" width="208.02" height="128.08" rx="2" ry="2"/><rect class="cls-9" x="65.48" y="357.38" width="208.02" height="128.08" rx="2" ry="2"/><rect x="75.79" y="372.57" width="188.97" height="40.93" rx="2" ry="2"/><rect class="cls-22" x="75.79" y="372.57" width="188.97" height="40.93" rx="2" ry="2"/><path class="cls-5" d="M133.86,391.1h1.59l2.07,7,2.5-7h1.36l2.09,7,2.46-7h1.57l-3.37,8.81h-1.47l-2.07-6.64-2.46,6.64h-1.47Z"/><path class="cls-5" d="M152.91,390.86a4.25,4.25,0,0,1,4.28,4.22v.2c0,2.13-1.43,4.76-4.36,4.76a4.31,4.31,0,0,1-4.27-4.37c0-.06,0-.12,0-.18a4.41,4.41,0,0,1,4.18-4.62Zm0,7.86c1.65,0,2.71-1.32,2.71-3.2,0-1.67-.77-3.35-2.73-3.35-1.65,0-2.71,1.26-2.71,3.14,0,1.71.78,3.42,2.71,3.42Z"/><path class="cls-5" d="M159.47,391.23,161,391v1.69a3.27,3.27,0,0,1,2.54-1.82,1.54,1.54,0,0,1,.76.17l-.39,1.63a2.38,2.38,0,0,0-.74-.15c-1,0-1.82,1.18-2.17,1.78v5.52h-1.51Z"/><path class="cls-5" d="M166,386.26l1.51-.27v8.46h.21l3.45-3.35h2L169.06,395l4.43,4.86h-2l-3.78-4.24h-.23v4.24H166Z"/><path class="cls-5" d="M175.11,386.26l1.51-.27v13.83h-1.51Z"/><path class="cls-5" d="M183.28,390.86a4.25,4.25,0,0,1,4.28,4.22v.2c0,2.13-1.43,4.76-4.36,4.76a4.31,4.31,0,0,1-4.27-4.37c0-.06,0-.12,0-.18a4.41,4.41,0,0,1,4.18-4.62Zm0,7.86c1.65,0,2.71-1.32,2.71-3.2,0-1.67-.77-3.35-2.73-3.35-1.65,0-2.71,1.26-2.71,3.14,0,1.71.82,3.42,2.71,3.42Z"/><path class="cls-5" d="M194.34,394.51v-.33c0-1,0-2-1.43-2a5.25,5.25,0,0,0-2.73,1l-.46-1.22a6.64,6.64,0,0,1,3.62-1.07c1.9,0,2.52.81,2.52,2.77v3.93a1,1,0,0,0,.83,1.15h.17l-.5,1.22a1.87,1.87,0,0,1-1.88-1.41,3.52,3.52,0,0,1-2.89,1.51,2.2,2.2,0,0,1-2.43-1.94,2.09,2.09,0,0,1,0-.25C189.11,396.05,191,394.93,194.34,394.51Zm0,2.71v-1.57c-2.46.41-3.62,1-3.62,2.15,0,.68.5,1,1.14,1a3.45,3.45,0,0,0,2.48-1.58Z"/><path class="cls-5" d="M203.11,390.86a4.39,4.39,0,0,1,1.68.31v-4.92l1.51-.27v11.13a15.17,15.17,0,0,0,.39,2.69l-1.49.14s-.17-.79-.27-1.39A3.24,3.24,0,0,1,202.1,400c-2.27,0-3.74-1.9-3.74-4.3a4.61,4.61,0,0,1,4.33-4.87Zm1.68,6.27v-3.76c0-1-.83-1.24-1.67-1.24-1.86,0-3.16,1.28-3.16,3.5,0,1.94,1,3.08,2.32,3.08a3.21,3.21,0,0,0,2.51-1.57Z"/><rect class="cls-11" x="176.53" y="428.11" width="85.87" height="40.93" rx="2" ry="2"/><rect class="cls-1" x="176.53" y="428.11" width="85.87" height="40.93" rx="2" ry="2"/><path d="M184.2,440.28h4.24c3.82,0,7.79,1.81,7.79,6.78,0,4.71-3.53,7.22-8.59,7.22H184.2Zm3.23,12.56c5.1,0,6.95-2.48,6.95-5.59,0-3.36-2.16-5.52-6.23-5.52h-2.23v11.11Z"/><path d="M198.46,441.31a1.14,1.14,0,1,1,1.13,1.13A1.12,1.12,0,0,1,198.46,441.31Zm.29,3.53h1.64v9.44h-1.64Z"/><path d="M203.58,439.59l1.64-.3v9.18h.23l3.74-3.63h2.18L207,449l4.81,5.27h-2.2l-4.1-4.59h-.25v4.59h-1.64Z"/><path d="M218.32,448.53v-.36c0-1.11,0-2.16-1.55-2.16a5.56,5.56,0,0,0-3,1.05l-.5-1.32a7.1,7.1,0,0,1,3.92-1.16c2.06,0,2.73.89,2.73,3v4.26a1.12,1.12,0,0,0,1,1.26l-.55,1.32a2,2,0,0,1-2-1.53,3.84,3.84,0,0,1-3.13,1.64,2.39,2.39,0,0,1-2.65-2.38C212.65,450.21,214.73,449,218.32,448.53Zm0,2.94v-1.74c-2.66.44-3.92,1.11-3.92,2.33,0,.73.54,1.05,1.24,1.05A3.76,3.76,0,0,0,218.32,451.47Z"/><path d="M223,452.25a4.9,4.9,0,0,0,2.7.92c1.18,0,1.77-.5,1.77-1.24,0-2-4.64-1.72-4.64-4.74,0-1.43,1-2.61,3.44-2.61a6.22,6.22,0,0,1,2.63.53l-.45,1.39a6,6,0,0,0-2.3-.55c-1.14,0-1.66.46-1.66,1.11,0,1.93,4.64,1.62,4.64,4.75,0,1.68-1.33,2.73-3.47,2.73a5.3,5.3,0,0,1-3-.84Z"/><path d="M232,446.16h-1.35v-.88l1.35-.55v-2.1l1.63-.4v2.61h3.07v1.32h-3.07v5.19c0,1.25.44,1.76,1.16,1.76a3.68,3.68,0,0,0,2-.86l.4,1.32a4.64,4.64,0,0,1-2.73,1c-1.49,0-2.45-.82-2.45-2.75Z"/><path d="M243.08,444.58c2.18,0,3.78,1.52,3.78,4.22l-1,.3-5.56.73c.15,2,1.28,3.28,3.13,3.28a5.08,5.08,0,0,0,3-1.2l.48,1.26a5.41,5.41,0,0,1-3.63,1.37,4.49,4.49,0,0,1-4.68-4.77C238.55,446.81,240.39,444.58,243.08,444.58Zm-2.77,4,4.75-.61a2.17,2.17,0,0,0-2.08-2A2.75,2.75,0,0,0,240.31,448.57Z"/><path d="M249.07,452.25a4.91,4.91,0,0,0,2.71.92c1.17,0,1.76-.5,1.76-1.24,0-2-4.64-1.72-4.64-4.74,0-1.43,1-2.61,3.44-2.61a6.22,6.22,0,0,1,2.63.53l-.44,1.39a6.11,6.11,0,0,0-2.31-.55c-1.14,0-1.66.46-1.66,1.11,0,1.93,4.64,1.62,4.64,4.75,0,1.68-1.32,2.73-3.47,2.73a5.3,5.3,0,0,1-3-.84Z"/><line class="cls-1" x1="162.48" y1="450.31" x2="176.5" y2="450.09"/><line class="cls-1" x1="263.58" y1="450.47" x2="297.96" y2="449.93"/><line class="cls-8" x1="120.55" y1="415.42" x2="120.55" y2="583.96"/><rect x="75.79" y="428.21" width="90.14" height="40.93" rx="2" ry="2"/><rect class="cls-22" x="75.79" y="428.21" width="90.14" height="40.93" rx="2" ry="2"/><path class="cls-5" d="M87.94,440.24h8.25v1.45H89.66v4.68h5.17v1.45H89.66v5h6.51v1.45H87.94Z"/><path class="cls-5" d="M98.61,445l1.64-.3v1.85a5.84,5.84,0,0,1,3.9-1.95c1.41,0,2.48.79,2.48,2.83v6.87H105v-6.41c0-1.4-.56-1.85-1.28-1.85-1.24,0-2.85,1.43-3.46,2v6.24H98.61Z"/><path class="cls-5" d="M108.5,444.8h1.72l2.5,7.41,3-7.41h1.7l-4,9.55h-1.55Z"/><path class="cls-5" d="M123.24,444.55a4.6,4.6,0,0,1,4.64,4.78c0,2.31-1.55,5.17-4.72,5.17a4.69,4.69,0,0,1-4.62-4.94A4.77,4.77,0,0,1,123.24,444.55Zm0,8.52c1.79,0,2.94-1.43,2.94-3.46,0-1.81-.84-3.64-3-3.64-1.79,0-2.94,1.37-2.94,3.41C120.26,451.22,121.16,453.07,123.22,453.07Z"/><path class="cls-5" d="M132.13,455l.6-1.41-3.67-8.75h1.78l2.76,6.67,2.66-6.67H138L133.76,455c-.86,2.06-2,4-4.07,4.26l-.53-1.36A4.44,4.44,0,0,0,132.13,455Z"/><polygon class="cls-11" points="148.13 465.52 145.86 466.06 145.68 463.75 143.85 463.61 139.74 469.93 144.24 469.62 145.74 473.87 150.31 466.9 149.03 467.68 148.13 465.52"/><polygon class="cls-11" points="160.48 463.66 159.36 463.75 159.18 466.06 156.91 465.52 156.03 467.68 154.05 466.47 153.89 466.63 159.74 476.82 161.47 472.66 165.97 473.26 160.48 463.66"/><path class="cls-24" d="M156.34,464.38l2,.47.16-2,2-.16-.47-2,1.84-.76-1.06-1.74,1.53-1.32-1.53-1.33,1.06-1.73-1.87-.79.48-2-2-.16-.15-2-2,.47-.79-1.86-1.73,1.05-1.33-1.53-1.28,1.58-1.73-1.06-.79,1.87-2-.47-.16,2-2,.16.47,2-1.86.79,1,1.73L142.66,457l1.53,1.33-1,1.69,1.87.78-.47,2,2,.16.16,2,2-.47.79,1.87,1.73-1,1.33,1.53,1.33-1.53,1.73,1Z"/><path d="M147,458a.35.35,0,0,1,0-.47l1.37-1.6a.3.3,0,0,1,.43,0l2.38,2.36a.29.29,0,0,0,.43,0l4.64-6.07a.28.28,0,0,1,.42-.05l1.58,1.37a.35.35,0,0,1,0,.48l-6.41,8.41a.27.27,0,0,1-.43,0Z"/><rect x="81.97" y="534.11" width="61.03" height="30.46"/><path class="cls-23" d="M85.51,541.15H99.62c.84,0,1.51-.42,1.51-.93v-3.74c0-.52-.67-.93-1.51-.93H85.51c-.84,0-1.51.42-1.51.93v3.74C84,540.72,84.67,541.15,85.51,541.15Z"/><path class="cls-23" d="M84,542.91v5.62h5.56c.84,0,1.51-.42,1.51-.93v-3.74c0-.52-.67-.92-1.51-.92H84Z"/><path class="cls-23" d="M84,557.69v5.61h5.56c.84,0,1.51-.41,1.51-.92v-3.74c0-.53-.67-.93-1.51-.93H84Z"/><path class="cls-23" d="M85.51,555.91H99.62c.84,0,1.51-.41,1.51-.93v-3.73c0-.53-.67-.93-1.51-.93H85.51c-.84,0-1.51.41-1.51.93V555C84,555.51,84.67,555.91,85.51,555.91Z"/><path class="cls-23" d="M124.12,551.25V555c0,.52.67.92,1.51.92h14.11c.84,0,1.51-.41,1.51-.92v-3.74c0-.53-.67-.93-1.51-.93H125.63C124.8,550.3,124.12,550.72,124.12,551.25Z"/><path class="cls-23" d="M141.25,548.53v-5.62h-5.58c-.84,0-1.51.42-1.51.93v3.75c0,.52.67.93,1.51.93Z"/><path class="cls-23" d="M134.15,558.63v3.73c0,.53.67.93,1.51.93h5.58v-5.62h-5.58C134.83,557.69,134.15,558.11,134.15,558.63Z"/><path class="cls-23" d="M111.16,547.59v-3.74c0-.52-.67-.93-1.51-.93H95.56c-.84,0-1.51.42-1.51.93v3.74c0,.52.67.93,1.51.93h14.11C110.48,548.53,111.16,548.11,111.16,547.59Z"/><path class="cls-23" d="M95.56,557.69c-.84,0-1.51.41-1.51.92v3.74c0,.53.67.93,1.51.93h14.11c.84,0,1.51-.42,1.51-.93v-3.74c0-.52-.67-.92-1.51-.92Z"/><path class="cls-23" d="M105.56,541.15h14.11c.84,0,1.51-.42,1.51-.93v-3.74c0-.52-.67-.93-1.51-.93H105.56c-.84,0-1.51.42-1.51.93v3.74C104.06,540.72,104.73,541.15,105.56,541.15Z"/><path class="cls-23" d="M125.63,541.15h14.11c.84,0,1.51-.42,1.51-.93v-3.74c0-.52-.67-.93-1.51-.93H125.63c-.84,0-1.51.42-1.51.93v3.74C124.12,540.72,124.8,541.15,125.63,541.15Z"/><path class="cls-23" d="M129.7,542.91H115.56c-.84,0-1.51.42-1.51.93v3.74c0,.52.67.93,1.51.93h14.11c.84,0,1.51-.42,1.51-.93v-3.74C131.23,543.34,130.56,542.91,129.7,542.91Z"/><path class="cls-23" d="M115.56,563.3h14.11c.84,0,1.51-.41,1.51-.92v-3.74c0-.53-.67-.93-1.51-.93H115.56c-.84,0-1.51.42-1.51.93v3.74C114.09,562.89,114.77,563.3,115.56,563.3Z"/><path class="cls-23" d="M121.19,555v-3.74c0-.53-.67-.93-1.51-.93H105.56c-.84,0-1.51.42-1.51.93V555c0,.52.67.92,1.51.92h14.11C120.56,555.91,121.19,555.51,121.19,555Z"/><path class="cls-11" d="M144.13,524.73a12.35,12.35,0,0,1,1.06,1A54.33,54.33,0,0,1,153.8,536a34.29,34.29,0,0,1,4.89,12,24.87,24.87,0,0,1,.33,7.1,14.42,14.42,0,0,1-.6,2.92,16,16,0,0,1-1.82,3.91,10.93,10.93,0,0,1-2.53,2.72,12,12,0,0,1-3.63,1.84,21.9,21.9,0,0,1-5,.91,29.34,29.34,0,0,1-6-.08,18.29,18.29,0,0,1-6.54-2,11.43,11.43,0,0,1-4.57-4.34,12.14,12.14,0,0,1-1.43-7.07,21.52,21.52,0,0,1,2.1-7.39,37.61,37.61,0,0,1,3.37-5.7,43.22,43.22,0,0,1,3.54-4.36l.09-.07a11,11,0,0,0,.42,3.43,8.74,8.74,0,0,0,1.66,3.11c0,.06.08.13.16.14a20.57,20.57,0,0,0,4.41-4.28,13.35,13.35,0,0,0,2.42-5.84,15.9,15.9,0,0,0-.95-8.13Z"/><rect class="cls-11" x="512.86" y="166.95" width="153.24" height="73.73" rx="2" ry="2"/><rect class="cls-1" x="512.86" y="166.95" width="153.24" height="73.73" rx="2" ry="2"/><path d="M544.24,187.86a4.24,4.24,0,0,1,4.28,4.21v.2a4.52,4.52,0,0,1-4.36,4.75,4.31,4.31,0,0,1-4.27-4.37,1.09,1.09,0,0,1,0-.18,4.4,4.4,0,0,1,4.19-4.61Zm0,7.86c1.65,0,2.71-1.33,2.71-3.2,0-1.66-.77-3.35-2.73-3.35-1.65,0-2.71,1.26-2.71,3.14,0,1.69.81,3.41,2.71,3.41Z"/><path d="M550.8,188.22l1.51-.27v1.72a3.29,3.29,0,0,1,2.54-1.82,1.57,1.57,0,0,1,.76.17l-.39,1.63a2.71,2.71,0,0,0-.74-.15c-1,0-1.82,1.18-2.17,1.78v5.52H550.8Z"/><path d="M561,187.86a4.28,4.28,0,0,1,2.85.94l-.68,1.18a3.77,3.77,0,0,0-2.27-.81c-1.72,0-2.77,1.49-2.77,3.29s1,3.25,2.83,3.25a3.57,3.57,0,0,0,2.36-.93l.52,1.12a4.36,4.36,0,0,1-7.3-3.37,4.45,4.45,0,0,1,4.23-4.67A1.77,1.77,0,0,1,561,187.86Z"/><path d="M566,183.25l1.51-.27v6.66a5.35,5.35,0,0,1,3.58-1.78c1.3,0,2.28.75,2.28,2.61v6.33h-1.47v-5.91c0-1.3-.52-1.7-1.18-1.7-1.12,0-2.59,1.31-3.17,1.84v5.77H566Z"/><path d="M579.76,187.86c2,0,3.49,1.39,3.49,3.89l-.93.27-5.13.67c.14,1.81,1.18,3,2.88,3a4.61,4.61,0,0,0,2.73-1.1l.45,1.16a5,5,0,0,1-3.39,1.25,4.15,4.15,0,0,1-4.33-3.95c0-.15,0-.3,0-.45C575.58,189.91,577.29,187.86,579.76,187.86Zm-2.56,3.67,4.38-.56a2,2,0,0,0-1.92-1.86,2.56,2.56,0,0,0-2.45,2.42Z"/><path d="M585.28,194.92a4.42,4.42,0,0,0,2.5.85c1.08,0,1.63-.46,1.63-1.14,0-1.86-4.28-1.58-4.28-4.38,0-1.32,1-2.39,3.18-2.39a5.77,5.77,0,0,1,2.42.47l-.41,1.28a5.82,5.82,0,0,0-2.13-.5c-1,0-1.53.43-1.53,1,0,1.78,4.28,1.5,4.28,4.39,0,1.55-1.22,2.52-3.2,2.52a4.9,4.9,0,0,1-2.79-.77Z"/><path d="M593.6,189.32h-1.24v-.81l1.24-.5v-1.94l1.51-.37v2.4h2.83v1.22h-2.83v4.78c0,1.16.41,1.63,1.07,1.63a3.5,3.5,0,0,0,1.84-.79l.37,1.22a4.36,4.36,0,0,1-2.53.84c-1.37,0-2.27-.76-2.27-2.54Z"/><path d="M600.19,188.22l1.51-.27v1.72a3.29,3.29,0,0,1,2.54-1.82,1.57,1.57,0,0,1,.76.17l-.39,1.63a2.71,2.71,0,0,0-.74-.15c-1,0-1.82,1.18-2.17,1.78v5.52h-1.51Z"/><path d="M611.15,191.5v-.34c0-1,0-2-1.43-2a5.25,5.25,0,0,0-2.73,1l-.46-1.22a6.69,6.69,0,0,1,3.62-1.06c1.9,0,2.52.81,2.52,2.78v3.92a1,1,0,0,0,.82,1.15l.18,0-.5,1.22a1.89,1.89,0,0,1-1.88-1.42,3.55,3.55,0,0,1-2.93,1.45,2.2,2.2,0,0,1-2.43-1.95,2,2,0,0,1,0-.25C605.92,193.05,607.86,191.92,611.15,191.5Zm0,2.71V192.6c-2.46.41-3.62,1-3.62,2.15,0,.67.5,1,1.14,1A3.52,3.52,0,0,0,611.15,194.21Z"/><path d="M616.08,189.32h-1.22v-.81l1.24-.5v-1.94l1.51-.37v2.4h2.83v1.22h-2.83v4.78c0,1.16.41,1.63,1.07,1.63a3.5,3.5,0,0,0,1.84-.79l.37,1.22a4.43,4.43,0,0,1-2.52.89c-1.37,0-2.26-.76-2.26-2.54Z"/><path d="M626.42,187.86a4.24,4.24,0,0,1,4.28,4.21v.2a4.52,4.52,0,0,1-4.36,4.75,4.31,4.31,0,0,1-4.27-4.37,1.09,1.09,0,0,1,0-.18,4.4,4.4,0,0,1,4.19-4.61Zm0,7.86c1.65,0,2.71-1.33,2.71-3.2,0-1.66-.77-3.35-2.73-3.35-1.65,0-2.71,1.26-2.71,3.14,0,1.69.81,3.41,2.71,3.41Z"/><path d="M633,188.22l1.51-.27v1.72a3.29,3.29,0,0,1,2.54-1.82,1.57,1.57,0,0,1,.76.17l-.39,1.63a2.71,2.71,0,0,0-.74-.15c-1,0-1.82,1.18-2.17,1.78v5.52H633Z"/><path d="M540.48,211.46l1.47-.27v1.36a3,3,0,0,1,2.67-1.45c2.28,0,3.7,1.94,3.7,4.34,0,2.63-1.7,4.83-4.38,4.83a3.21,3.21,0,0,1-2-.53v4.53l-1.51.27Zm1.51,2.48v3.91c0,.78.66,1.14,1.65,1.14,1.88,0,3.08-1.28,3.08-3.45,0-2-1-3.1-2.29-3.1A3.18,3.18,0,0,0,542,213.94Z"/><path d="M550.67,206.49l1.51-.27V220h-1.51Z"/><path d="M555,211.33h1.51v5.91c0,1.34.54,1.7,1.24,1.7a5,5,0,0,0,2.94-1.64v-6h1.51v6a13.74,13.74,0,0,0,.39,2.7l-1.49.13s-.21-1-.29-1.58a5,5,0,0,1-3.45,1.67c-1.43,0-2.36-.74-2.36-2.61Z"/><path d="M566.42,216.91a3.05,3.05,0,0,1-1.68-2.78c0-1.92,1.7-3,3.6-3,1,0,1.55.37,2.5.37h.93a4.47,4.47,0,0,0,1.14-.2l.14,1.36h-1.82a2.62,2.62,0,0,1,.66,1.7c0,2-2,3-3.7,3a2.72,2.72,0,0,1-.7-.06c-.41.29-.77.56-.77.81s.91.56,2.56.93,3.37.83,3.37,2.42c0,1.78-2.17,3.21-4.65,3.21-1.88,0-3.72-.77-3.72-2.32,0-1.34,1.28-2.15,2.27-2.65-.85-.25-1.45-.6-1.45-1.18S565.8,217.28,566.42,216.91Zm1.68,6.54c1.65,0,3-.87,3-1.84s-1-1.16-2.32-1.45a9.85,9.85,0,0,0-1-.19c-1,.56-2.13,1.14-2.13,2.11s1.43,1.39,2.46,1.39Zm2.23-9.1a2,2,0,0,0-1.89-2.1h-.16a1.9,1.9,0,0,0-2,1.8.67.67,0,0,0,0,.2,1.87,1.87,0,0,0,1.81,1.93h.19a1.79,1.79,0,0,0,2-1.52,2.46,2.46,0,0,0,0-.28Z"/><path d="M574.61,208.08a1,1,0,0,1,2,0,1,1,0,1,1-2,0Zm.27,3.25h1.51V220h-1.53Z"/><path d="M579.3,211.46l1.51-.27v1.69a5.42,5.42,0,0,1,3.6-1.8c1.3,0,2.29.75,2.29,2.61V220h-1.51v-5.92c0-1.3-.52-1.7-1.18-1.7-1.14,0-2.63,1.33-3.2,1.87V220H579.3Z"/><path d="M589.21,218.16a4.58,4.58,0,0,0,2.5.85c1.08,0,1.63-.46,1.63-1.14,0-1.86-4.28-1.59-4.28-4.38,0-1.33,1-2.4,3.18-2.4a5.63,5.63,0,0,1,2.42.48l-.41,1.28a5.45,5.45,0,0,0-2.13-.5c-1,0-1.53.42-1.53,1,0,1.78,4.28,1.49,4.28,4.38,0,1.55-1.22,2.52-3.2,2.52a4.9,4.9,0,0,1-2.79-.77Z"/></svg>